<svg xmlns="http://www.w3.org/2000/svg" width="48" height="48" viewBox="0 0 48 48" fill="none">
    <g clip-path="url(#clip0_305_6763)">
        <path d="M21.6797 21.8906C20.8359 21.8906 20.2031 21.1875 20.2031 20.414C20.2031 19.5703 20.9062 18.9375 21.6797 18.9375C22.5234 18.9375 23.1562 19.6406 23.1562 20.414C23.1562 21.1875 22.5234 21.8906 21.6797 21.8906Z" fill="#6B7279"/>
        <path d="M25.1953 30.5391C24.3516 30.5391 23.7188 29.836 23.7188 29.0625C23.7188 28.2188 24.4219 27.586 25.1953 27.586C26.0391 27.586 26.6719 28.2891 26.6719 29.0625C26.7422 29.836 26.0391 30.5391 25.1953 30.5391Z" fill="#6B7279"/>
        <path d="M28.7109 30.5391C27.8672 30.5391 27.2344 29.836 27.2344 29.0625C27.2344 28.2188 27.9375 27.586 28.7109 27.586C29.5547 27.586 30.1875 28.2891 30.1875 29.0625C30.1875 29.836 29.5547 30.5391 28.7109 30.5391Z" fill="#6B7279"/>
        <path d="M32.2266 30.5391C31.3828 30.5391 30.75 29.836 30.75 29.0625C30.75 28.2188 31.4531 27.586 32.2266 27.586C33.0703 27.586 33.7031 28.2891 33.7031 29.0625C33.7031 29.836 33.0703 30.5391 32.2266 30.5391Z" fill="#6B7279"/>
        <path fill-rule="evenodd" clip-rule="evenodd" d="M24.0017 48C10.7436 48 0 37.2563 0 24.0004C0 10.7437 10.7436 0 24.0017 0C37.2538 0 48 10.7437 48 24.0004C48 37.2563 37.2538 48 24.0017 48ZM24 12.0469C17.3906 12.0469 12.0469 17.3906 12.0469 23.9999C12.0469 29.7655 16.0547 34.5468 21.4687 35.6718V24.914C21.4687 24.4218 21.8906 23.9999 22.3828 23.9296H23.8594C23.9297 23.9296 24 23.8593 24 23.789V12.0469ZM25.4766 12.1173V24.4219C25.4766 24.9844 25.0547 25.4063 24.4922 25.4063H23.0156C22.9453 25.4063 22.875 25.4766 22.875 25.5469V35.8828C23.0428 35.8828 23.2106 35.8988 23.386 35.9156C23.5781 35.9339 23.7795 35.9531 24 35.9531C30.6094 35.9531 35.9531 30.6094 35.9531 24.0001C35.9531 17.8829 31.3828 12.8204 25.4766 12.1173Z" fill="#6B7279"/>
    </g>
    <defs>
        <clipPath id="clip0_305_6763">
            <rect width="48" height="48" fill="white"/>
        </clipPath>
    </defs>
</svg>
