<svg width="24" height="24" viewBox="0 0 24 24" fill="none" xmlns="http://www.w3.org/2000/svg">
<g clip-path="url(#clip0_269_11570)">
<path d="M13.4415 13.0357V13.0372C16.3515 12.9082 18.5227 12.402 18.5227 11.7945C18.5227 11.1885 16.3515 10.6807 13.4415 10.551V12.5332C13.3567 12.5407 12.903 12.5782 11.9977 12.5782C11.2432 12.5782 10.6972 12.546 10.5067 12.5325V10.5495C7.59075 10.68 5.41425 11.1877 5.41425 11.7945C5.41425 12.402 7.59075 12.9097 10.5067 13.038V13.0357C10.6942 13.0447 11.2275 13.0672 11.985 13.0672C12.9337 13.0672 13.359 13.0417 13.4415 13.0357Z" fill="#6B6B80"/>
<path fill-rule="evenodd" clip-rule="evenodd" d="M24 12C24 18.6274 18.6274 24 12 24C5.37258 24 0 18.6274 0 12C0 5.37258 5.37258 0 12 0C18.6274 0 24 5.37258 24 12ZM13.4415 8.57024V10.3447C16.7362 10.497 19.212 11.1502 19.212 11.9325C19.212 12.7147 16.7362 13.368 13.4415 13.5195V19.2075H10.5067V13.521C7.20675 13.3687 4.725 12.7155 4.725 11.9325C4.725 11.1495 7.20675 10.4955 10.5067 10.344V8.57024H6.44625V5.86424H17.502V8.57024H13.4415Z" fill="#6B6B80"/>
</g>
<defs>
<clipPath id="clip0_269_11570">
<rect width="24" height="24" fill="white"/>
</clipPath>
</defs>
</svg>
