<svg xmlns="http://www.w3.org/2000/svg" width="48" height="48" viewBox="0 0 48 48" fill="none">
    <g clip-path="url(#clip0_305_7739)">
        <path d="M22.864 15.816C22.424 15.824 22.16 15.824 22.064 15.824L22.072 22.032C22.1361 22.032 22.3681 22.032 22.768 22.04C23.16 22.048 23.472 22.048 23.704 22.04C23.7544 22.0382 23.8104 22.0364 23.872 22.0344C24.0847 22.0276 24.3647 22.0186 24.712 22C25.16 21.976 25.528 21.944 25.824 21.888C26.12 21.832 26.464 21.76 26.864 21.664C27.256 21.568 27.584 21.44 27.84 21.288C28.096 21.136 28.344 20.952 28.584 20.744C28.824 20.536 29.008 20.28 29.128 19.968C29.248 19.656 29.312 19.312 29.312 18.936C29.312 18.488 29.224 18.096 29.056 17.752C28.888 17.408 28.68 17.128 28.44 16.904C28.2 16.68 27.88 16.488 27.472 16.336C27.064 16.176 26.696 16.064 26.36 16C26.024 15.936 25.608 15.88 25.12 15.84C24.632 15.8 24.24 15.784 23.952 15.792C23.664 15.8 23.304 15.808 22.864 15.816Z" fill="#6B7279"/>
        <path d="M30.056 30.384C30.256 30.152 30.424 29.888 30.552 29.576C30.68 29.264 30.744 28.92 30.736 28.56C30.736 28.072 30.632 27.64 30.432 27.264C30.232 26.888 29.984 26.576 29.688 26.336C29.392 26.096 29.008 25.888 28.528 25.72C28.056 25.552 27.608 25.424 27.208 25.344C26.8 25.264 26.304 25.2 25.712 25.16C25.12 25.112 24.656 25.096 24.32 25.096C23.984 25.096 23.544 25.096 23.016 25.112C22.48 25.128 22.16 25.136 22.056 25.136V31.96C22.1601 31.96 22.4082 31.96 22.8 31.968C23.192 31.976 23.512 31.976 23.768 31.976C23.9664 31.976 24.2272 31.9664 24.5467 31.9546C24.6395 31.9512 24.7373 31.9476 24.84 31.944C25.304 31.928 25.696 31.896 26.024 31.864C26.352 31.832 26.736 31.776 27.176 31.696C27.616 31.616 27.984 31.528 28.296 31.416C28.608 31.312 28.928 31.168 29.256 30.992C29.584 30.816 29.856 30.616 30.056 30.384Z" fill="#6B7279"/>
        <path fill-rule="evenodd" clip-rule="evenodd" d="M48 24C48 37.2548 37.2548 48 24 48C10.7452 48 0 37.2548 0 24C0 10.7452 10.7452 0 24 0C37.2548 0 48 10.7452 48 24ZM32.44 22.744C34.016 23.12 35.192 23.816 35.976 24.824C36.76 25.84 37.056 27.28 36.904 29.136C36.808 30.096 36.592 30.936 36.248 31.664C35.904 32.392 35.472 32.992 34.944 33.464C34.416 33.936 33.768 34.328 32.984 34.648C32.2 34.96 31.384 35.192 30.528 35.344C29.672 35.496 28.696 35.592 27.592 35.648V40.8H24.48V35.736C23.4 35.736 22.584 35.728 22.016 35.712V40.8H18.904V35.656C18.664 35.656 18.304 35.656 17.816 35.648C17.328 35.64 16.96 35.64 16.704 35.64H12.664L13.288 31.944H15.528C16.2 31.944 16.592 31.6 16.696 30.912V22.792H17.016C16.936 22.776 16.832 22.768 16.696 22.768V16.976C16.52 16.056 15.92 15.6 14.896 15.6H12.656V12.288L16.936 12.312C17.8 12.312 18.448 12.304 18.896 12.288V7.2H22.008V12.184C23.112 12.16 23.936 12.144 24.472 12.144V7.2H27.584V12.28C28.648 12.376 29.584 12.528 30.408 12.736C31.224 12.944 31.992 13.248 32.688 13.648C33.384 14.048 33.944 14.568 34.352 15.224C34.76 15.88 35.008 16.648 35.088 17.536C35.328 19.984 34.448 21.72 32.44 22.744Z" fill="#6B7279"/>
    </g>
    <defs>
        <clipPath id="clip0_305_7739">
            <rect width="48" height="48" fill="white"/>
        </clipPath>
    </defs>
</svg>
