<svg xmlns="http://www.w3.org/2000/svg" width="24" height="24" viewBox="0 0 24 24" fill="none">
    <g clip-path="url(#clip0_41_9579)">
        <path d="M14.5199 11.1152C14.7961 10.9687 15.0705 10.823 15.3428 10.6792C16.0946 10.277 16.8491 9.87974 17.6062 9.4875C17.4187 9.35775 17.235 9.22725 17.055 9.0975C16.8053 8.91825 16.5457 8.736 16.2892 8.556C16.261 8.58975 16.2308 8.61983 16.2018 8.64865C16.1915 8.65889 16.1813 8.66897 16.1715 8.679L16.164 8.68655C16.1113 8.73997 16.0616 8.79027 16.0222 8.844L16.0118 8.8545L15.9683 8.9017C15.4902 9.42059 15.0031 9.94927 14.5358 10.461L13.3777 11.7195C13.7605 11.5184 14.1418 11.316 14.5199 11.1152Z" fill="#6B7279"/>
        <path d="M12.1687 12.1657C12.678 11.6137 13.191 11.055 13.6867 10.5105L13.7762 10.4129C14.3993 9.73307 15.0411 9.03285 15.6795 8.3415L9.64575 6.855C9.30558 6.76781 8.95927 6.68403 8.62436 6.603L8.57475 6.591C8.1765 6.4965 7.77075 6.3975 7.36875 6.2925C7.38931 6.31774 7.40988 6.34261 7.43033 6.36735C7.47551 6.422 7.52015 6.47599 7.563 6.53175C7.59242 6.56802 7.62192 6.60498 7.65154 6.6421C7.71933 6.72705 7.78782 6.81288 7.85775 6.89325L7.86075 6.897L9.195 8.5245C10.1892 9.73587 11.1804 10.9496 12.1687 12.1657Z" fill="#6B7279"/>
        <path d="M11.9758 17.0488C11.9647 17.1535 11.9537 17.2576 11.943 17.361C11.898 17.7758 11.8567 18.201 11.8222 18.6233C12.0952 18.2098 12.3754 17.7978 12.6492 17.3952L12.6608 17.3783C12.7609 17.2295 12.8635 17.0784 12.9666 16.9264C13.1168 16.7051 13.2684 16.4817 13.416 16.2607C13.8756 15.586 14.3368 14.9037 14.7919 14.2305C14.965 13.9744 15.1373 13.7196 15.3082 13.467C16.0412 12.3774 16.7772 11.2899 17.5162 10.2045C17.3714 10.2813 17.2264 10.3582 17.0813 10.4352C16.4104 10.7912 15.7381 11.1479 15.0795 11.4945C14.2765 11.9164 13.4747 12.3406 12.6742 12.7673C12.634 12.7917 12.5938 12.8099 12.5535 12.828C12.542 12.8332 12.5305 12.8384 12.519 12.8438C12.476 12.8609 12.4341 12.881 12.3938 12.9037C12.3727 13.2172 12.3383 13.5293 12.3038 13.8322L12.294 13.9162C12.2615 14.2832 12.2228 14.6561 12.1847 15.0226C12.1735 15.1302 12.1624 15.2373 12.1515 15.3435C12.1323 15.5215 12.1133 15.7046 12.0943 15.8882C12.0822 16.0055 12.07 16.1231 12.0577 16.2397C12.0329 16.5081 12.0042 16.7799 11.9758 17.0488Z" fill="#6B7279"/>
        <path d="M7.06178 6.98039C7.07904 7.02768 7.09633 7.07504 7.113 7.122H7.11225L10.6365 17.0655L11.0077 18.1095C11.0564 18.2542 11.1072 18.3982 11.16 18.5415C11.1644 18.5535 11.1688 18.5657 11.1734 18.5781C11.1876 18.6167 11.2024 18.657 11.2155 18.6968C11.2312 18.549 11.2461 18.4013 11.2608 18.2545C11.2755 18.1077 11.2901 17.9618 11.3055 17.8177C11.313 17.7462 11.3205 17.6745 11.328 17.6026C11.3938 16.9745 11.4611 16.3318 11.517 15.6945L11.5207 15.6705L11.6002 14.9707C11.6044 14.934 11.6087 14.897 11.613 14.8598C11.6269 14.7407 11.641 14.6198 11.649 14.4997V14.4967C11.6762 14.252 11.6998 14.0102 11.7233 13.7692L11.7248 13.7542C11.74 13.6141 11.7547 13.4715 11.7695 13.3278C11.7917 13.1117 11.8143 12.8929 11.8395 12.6757C11.7456 12.5703 11.6573 12.4608 11.5705 12.3532C11.5388 12.3139 11.5073 12.2748 11.4757 12.2362C11.3857 12.1237 11.292 12.0075 11.1982 11.8987C10.8695 11.4947 10.5408 11.094 10.2121 10.6932C10.0661 10.5152 9.92004 10.3371 9.774 10.1587C8.85525 9.04125 7.91325 7.8885 6.97725 6.7425C7.00322 6.81993 7.03246 6.90004 7.06178 6.98039Z" fill="#6B7279"/>
        <path fill-rule="evenodd" clip-rule="evenodd" d="M24 12C24 18.6274 18.6274 24 12 24C5.37258 24 0 18.6274 0 12C0 5.37258 5.37258 0 12 0C18.6274 0 24 5.37258 24 12ZM18.2517 8.9817C18.3551 9.05501 18.4575 9.12766 18.5588 9.1995V9.19875C18.7598 9.333 18.7568 9.58575 18.7463 9.70875V9.7515L18.7222 9.786C18.261 10.4572 17.796 11.1465 17.346 11.814L16.5247 13.0305C16.1145 13.6363 15.7042 14.2431 15.2941 14.8498C15.0355 15.2323 14.7769 15.6148 14.5185 15.9967L11.7735 20.0565C11.7384 20.1169 11.6877 20.1667 11.6268 20.2007C11.5658 20.2348 11.4968 20.2518 11.427 20.25H11.3925C11.2327 20.2365 11.1045 20.1443 11.0595 20.004C10.585 18.6614 10.1026 17.303 9.62525 15.9588C9.36769 15.2335 9.1116 14.5123 8.859 13.8C8.6628 13.2468 8.46509 12.6897 8.26642 12.1299C7.51726 10.0189 6.75442 7.86941 6.0075 5.74425L6 5.7195V5.55825L6.0105 5.52975C6.03547 5.45868 6.07566 5.39393 6.12825 5.34L6.17025 5.30475C6.20862 5.27913 6.25214 5.26224 6.29775 5.25525C6.46425 5.23425 6.62025 5.277 6.75525 5.31525L6.873 5.34675L11.361 6.4545C13.0378 6.86981 14.7151 7.28331 16.3927 7.695L16.4002 7.69875C16.4896 7.73124 16.5728 7.77867 16.6462 7.839C16.6606 7.84774 16.6724 7.85649 16.6841 7.86523C16.6865 7.86699 16.6889 7.86874 16.6912 7.8705C17.2123 8.24448 17.7433 8.62105 18.2517 8.9817Z" fill="#6B7279"/>
    </g>
    <defs>
        <clipPath id="clip0_41_9579">
            <rect width="24" height="24" fill="white"/>
        </clipPath>
    </defs>
</svg>
