<svg xmlns="http://www.w3.org/2000/svg" width="48" height="48" viewBox="0 0 48 48" fill="none">
    <g clip-path="url(#clip0_305_6196)">
        <path fill-rule="evenodd" clip-rule="evenodd" d="M24 48C37.256 48 48 37.256 48 24C48 20.872 47.4 17.888 46.32 15.144C45.912 14.12 45.432 13.12 44.888 12.168C40.76 4.904 32.952 0 24 0C10.744 0 0 10.744 0 24C0 28.176 1.064 32.104 2.944 35.52C3.416 36.376 3.928 37.2 4.496 37.984C8.848 44.048 15.968 48 24 48ZM39.5839 19.28C38.5999 22.76 37.5839 26.256 36.2159 29.592C35.0559 32.424 32.6879 33.992 29.5119 34C24.6765 34.012 19.8457 34.0105 15.0125 34.009C13.4007 34.0085 11.7885 34.008 10.1759 34.008C9.77592 33.456 9.40792 32.872 9.07992 32.272L9.15524 32.0364C9.38029 31.3324 9.61045 30.6124 9.77592 30.08L10.0639 29.184H10.8959C16.3987 29.176 21.9094 29.176 27.4121 29.176H27.4159C28.5399 29.176 29.0999 29.176 29.4648 28.9092C29.8271 28.6443 29.9971 28.1163 30.3359 27.064C30.5615 26.3616 30.783 25.6584 31.0043 24.9556L31.0046 24.9547C31.4738 23.465 31.9425 21.9767 32.4479 20.504C32.7039 19.752 32.5519 19.624 31.7999 19.632C25.9439 19.664 13.1279 19.656 13.1279 19.656L14.6479 14.896C14.6479 14.896 29.4159 14.88 36.4399 14.904C37.3439 14.904 38.1279 15.232 38.7119 15.776C39.2799 16.304 39.6479 17.04 39.7199 17.88C39.7599 18.32 39.7199 18.792 39.5839 19.28ZM13.1279 19.656L13.1198 19.68V19.656L13.1279 19.656ZM20.8881 22.288H9.33608L7.96805 26.656H19.5201L20.8881 22.288Z" fill="#6B7279"/>
    </g>
    <defs>
        <clipPath id="clip0_305_6196">
            <rect width="48" height="48" fill="white"/>
        </clipPath>
    </defs>
</svg>
