<svg xmlns="http://www.w3.org/2000/svg" width="48" height="48" viewBox="0 0 48 48" fill="none">
    <g clip-path="url(#clip0_305_6200)">
        <path fill-rule="evenodd" clip-rule="evenodd" d="M48 24C48 10.72 37.28 0 24 0C10.72 0 0 10.72 0 24C0 37.28 10.72 48 24 48C37.28 48 48 37.28 48 24ZM20.96 16.24H22.96C23.36 16.16 23.76 16.16 24.3199 16.16C24.2399 16.72 24.4 17.36 24.64 18.16C24.88 18.88 25.28 19.76 25.68 20.64L28.8 26.96C29.36 28.24 30 29.52 30.64 30.72H30.72C31.52 29.44 32.16 28.08 32.8 26.64L35.36 21.44C35.92 20.24 36.4 19.2 36.8 18.32C37.12 17.52 37.36 16.8 37.36 16.16C37.84 16.24 38.24 16.24 38.56 16.24H40.56C40.96 16.16 41.36 16.16 41.84 16.16C41.92 16.24 41.92 16.4 41.92 16.48C41.92 16.72 41.92 16.8 41.84 16.88H41.28C40.72 16.96 40.24 17.04 40 17.2C39.76 17.36 39.6 17.68 39.52 18C39.44 18.32 39.44 18.8 39.44 19.44V22.96C39.52 24.3199 39.6 25.68 39.6 27.2C39.6 28.56 39.68 30 39.76 31.36C39.76 31.6242 39.7842 31.8642 39.806 32.08C39.8238 32.2561 39.84 32.4161 39.84 32.56C39.92 32.88 40.08 33.12 40.24 33.28C40.4 33.44 40.72 33.6 41.12 33.6H41.92C42 33.76 42 33.84 42 34C42 34.16 41.92 34.24 41.84 34.32C41.56 34.32 41.28 34.3 41 34.28C40.72 34.26 40.44 34.24 40.16 34.24H36.96C36.68 34.24 36.4 34.26 36.12 34.28C35.84 34.3 35.56 34.32 35.28 34.32C35.12 34.24 35.12 34.08 35.12 34C35.12 33.76 35.12 33.68 35.2 33.6L36 33.52C36.48 33.44 36.8 33.36 36.96 33.2C37.2 33.04 37.28 32.8 37.28 32.56V31.2L37.2 19.76C37.1828 19.7944 37.1618 19.8326 37.138 19.876C37.0511 20.0344 36.9255 20.2633 36.8 20.64L36.08 22.08C35.84 22.5599 35.6 23.04 35.44 23.44L33.04 28.24C32.24 29.76 31.52 31.2 30.8 32.8L30.08 34.48C30 34.64 29.76 34.64 29.6 34.48C29.6 34.4 29.36 33.68 29.36 33.68C29.28 33.44 29.12 33.04 28.96 32.72C28.64 32.08 28.32 31.4399 28 30.72C27.68 30 27.44 29.52 27.2 29.04L24.72 23.76C24.56 23.44 24.42 23.1 24.28 22.76C24.14 22.42 24 22.08 23.84 21.76C23.68 21.44 23.54 21.12 23.4 20.8C23.26 20.48 23.12 20.16 22.96 19.84H22.88C22.88 20.24 22.86 20.64 22.84 21.04C22.82 21.44 22.8 21.84 22.8 22.24C22.72 23.04 22.64 23.84 22.64 24.64C22.64 25.0064 22.6232 25.4232 22.605 25.8749C22.5835 26.4095 22.56 26.993 22.56 27.6C22.48 28.72 22.48 29.92 22.48 31.04C22.48 31.6 22.48 32.48 22.72 33.04C22.8 33.2 22.88 33.28 22.96 33.36C23.2 33.52 23.44 33.6 23.76 33.6L25.04 33.68C25.2 33.84 25.2 33.92 25.2 34.08C25.2 34.24 25.12 34.32 25.04 34.4C24.8092 34.4 24.5785 34.3815 24.3388 34.3623C24.08 34.3415 23.8108 34.32 23.52 34.32H20.56C20.32 34.32 20.08 34.34 19.84 34.36C19.6 34.38 19.36 34.4 19.12 34.4C18.96 34.32 18.96 34.16 18.96 34.08C18.88 33.84 18.96 33.76 19.04 33.68L19.6 33.6C19.9169 33.6 20.1835 33.4995 20.4 33.418C20.4568 33.3967 20.5101 33.3766 20.56 33.36C20.72 33.28 20.96 33.12 21.04 32.8C21.4874 31.6069 21.6568 27.7726 21.7425 25.8321C21.7488 25.6908 21.7546 25.5595 21.76 25.44C21.7653 25.3596 21.7707 25.2796 21.776 25.2C21.8503 24.0904 21.92 23.0503 21.92 22.08C21.92 21.473 21.9435 20.9365 21.965 20.445C21.9832 20.0296 22 19.6464 22 19.28C22 18.72 22 18.24 21.92 17.92C21.92 17.6 21.68 17.36 21.44 17.2C21.4037 17.1878 21.3637 17.1739 21.32 17.1587C21.0752 17.0734 20.7152 16.9478 20.24 16.88H19.76C19.68 16.72 19.68 16.64 19.68 16.48C19.68 16.32 19.76 16.16 19.84 16.16C20.24 16.24 20.64 16.24 20.96 16.24ZM7.76 32.4C7.84 31.92 7.84 31.2 7.84 30.24V27.6C8.47999 27.68 9.27998 27.68 10.08 27.68V30.32C10.08 31.2799 10.08 32 10.16 32.48C10.24 32.96 10.4 33.28 10.64 33.44H10.72C10.96 33.6 11.36 33.76 12 33.76L12.72 33.84C12.8 33.92 12.8 34.08 12.8 34.24C12.7694 34.3011 12.7505 34.3505 12.7344 34.3927C12.7083 34.4611 12.6894 34.5105 12.64 34.56C12 34.56 11.4 34.54 10.8 34.52C10.2 34.5 9.59998 34.48 8.95998 34.48C7.84 34.48 6.8 34.48 5.6 34.56C5.44 34.4 5.44 34 5.6 33.84L6.16 33.76C7.04 33.68 7.68 33.36 7.76 32.4ZM5.52 16.88C5.36 16.72 5.36 16.64 5.36 16.48C5.36 16.32 5.44 16.24 5.6 16.16C6.32 16.08 7.2 16 8.07998 16H11.12C12.24 16 13.28 16.08 14.16 16.24C15.04 16.4 15.84 16.72 16.48 17.12C17.12 17.52 17.6 18.08 18 18.8C18.4 19.52 18.64 20.32 18.64 21.28C18.56 22.16 18.4 22.8 18.16 23.44C17.84 24.08 17.44 24.56 17.04 24.88C16.32 25.36 15.6 25.76 14.96 26.08C14.24 26.4 13.44 26.64 12.56 26.72C10.88 26.96 9.03998 27.04 7.2 26.8C6.08 26.64 4.32 26.32 1.92 25.84C4.08 26.08 6 26.24 7.84 26.24C9.91998 26.32 11.44 26.16 12.56 25.92C13.76 25.68 14.56 25.12 15.12 24.4C15.76 23.6 16 22.56 16 21.36C16 20 15.6 18.88 14.88 18.08C14.16 17.28 13.04 16.88 11.6 16.88H10.48C10.24 16.88 10.08 17.04 10.08 17.12C9.99998 17.28 9.99998 17.52 9.99998 17.84V25.52H7.76V19.92C7.76 19.4513 7.73255 19.0376 7.70981 18.6949C7.69373 18.4525 7.68 18.2456 7.68 18.08C7.68 17.68 7.52 17.44 7.36 17.28C7.2 17.12 6.88 16.96 6.48 16.96L5.52 16.88Z" fill="#6B7279"/>
    </g>
    <defs>
        <clipPath id="clip0_305_6200">
            <rect width="48" height="48" fill="white"/>
        </clipPath>
    </defs>
</svg>
