<svg xmlns="http://www.w3.org/2000/svg" width="48" height="48" viewBox="0 0 48 48" fill="none">
    <g clip-path="url(#clip0_305_6257)">
        <path d="M19.0499 17.673C18.9319 17.732 18.8519 17.772 18.8079 17.792L21.4799 23.4C21.5359 23.376 21.7519 23.28 22.1119 23.112C22.4719 22.944 22.7599 22.808 22.9599 22.704C23.1147 22.6266 23.3183 22.5182 23.574 22.382C23.6618 22.3352 23.7557 22.2852 23.8559 22.232C24.2479 22.024 24.5599 21.832 24.8079 21.656C25.0479 21.48 25.3279 21.264 25.6479 21.008C25.9599 20.752 26.1999 20.496 26.3679 20.248C26.5359 20 26.6799 19.728 26.8079 19.432C26.9359 19.136 26.9919 18.824 26.9679 18.496C26.9439 18.168 26.8479 17.832 26.6879 17.488C26.4959 17.088 26.2479 16.768 25.9519 16.528C25.6559 16.288 25.3439 16.12 25.0319 16.024C24.7119 15.928 24.3439 15.896 23.9119 15.928C23.4799 15.96 23.1039 16.016 22.7679 16.104C22.4319 16.192 22.0399 16.32 21.5759 16.496C21.1119 16.672 20.7519 16.824 20.4959 16.952C20.4172 16.9914 20.3317 17.0345 20.2396 17.081C20.0321 17.1856 19.7914 17.307 19.5199 17.44C19.3239 17.536 19.1679 17.614 19.0499 17.673Z" fill="#6B7279"/>
        <path d="M32.2959 27.496C32.3759 27.2 32.4079 26.888 32.3919 26.552C32.3759 26.216 32.2879 25.88 32.1199 25.536C31.9119 25.104 31.6319 24.76 31.2879 24.504C30.9439 24.248 30.5839 24.072 30.2159 23.984C29.8479 23.896 29.4079 23.872 28.9039 23.928C28.3999 23.984 27.9519 24.056 27.5519 24.16C27.1519 24.264 26.6799 24.424 26.1279 24.64C25.5759 24.856 25.1519 25.04 24.8479 25.184C24.5439 25.328 24.1519 25.52 23.6799 25.76C23.2079 26 22.9199 26.144 22.8239 26.192L25.7599 32.352C25.8352 32.3144 25.994 32.2423 26.2286 32.1359C26.2934 32.1066 26.3638 32.0746 26.4399 32.04C26.7919 31.88 27.0879 31.744 27.3199 31.632C27.5519 31.52 27.8639 31.36 28.2719 31.144C28.6799 30.928 29.0239 30.736 29.3039 30.56C29.5919 30.392 29.9119 30.176 30.2719 29.912C30.6319 29.656 30.9279 29.408 31.1599 29.176C31.3919 28.952 31.6159 28.688 31.8399 28.384C32.0559 28.088 32.2079 27.792 32.2959 27.496Z" fill="#6B7279"/>
        <path fill-rule="evenodd" clip-rule="evenodd" d="M48 24C48 37.2548 37.2548 48 24 48C10.7452 48 0 37.2548 0 24C0 10.7452 10.7452 0 24 0C37.2548 0 48 10.7452 48 24ZM31.1519 19.584C32.7359 19.24 34.1039 19.36 35.2399 19.936C36.3839 20.504 37.2719 21.68 37.9199 23.448C38.2479 24.352 38.4159 25.208 38.4159 26.008C38.4239 26.816 38.2879 27.544 38.0159 28.192C37.7439 28.848 37.3279 29.48 36.7599 30.104C36.1919 30.728 35.5519 31.288 34.8479 31.792C34.1439 32.288 33.3039 32.808 32.3279 33.328L34.5439 37.976L31.7359 39.312L29.5519 34.736C28.5839 35.2 27.8399 35.544 27.3199 35.776L29.5119 40.368L26.7039 41.704L24.4879 37.056C24.2639 37.168 23.9359 37.32 23.4959 37.52C23.2837 37.6203 23.0958 37.7076 22.932 37.7836C22.7561 37.8653 22.608 37.934 22.4879 37.992L18.8399 39.728L17.8159 36.12L19.8399 35.152C20.4479 34.864 20.6559 34.384 20.4559 33.72L16.9599 26.392L17.2479 26.256C17.1679 26.28 17.0639 26.32 16.9439 26.376L14.4479 21.144C13.8959 20.392 13.1519 20.24 12.2319 20.68L10.2079 21.648L8.78391 18.656L12.6559 16.832C13.4319 16.456 14.0239 16.168 14.4159 15.968L12.2239 11.376L15.0319 10.04L17.1759 14.544C18.1599 14.048 18.8959 13.68 19.3839 13.448L17.2559 8.98401L20.0639 7.64801L22.2559 12.24C23.2559 11.864 24.1679 11.6 24.9999 11.432C25.8239 11.272 26.6479 11.216 27.4479 11.272C28.2559 11.328 28.9759 11.56 29.6319 11.976C30.2879 12.384 30.8399 12.976 31.2959 13.744C32.5679 15.848 32.5199 17.8 31.1519 19.584Z" fill="#6B7279"/>
    </g>
    <defs>
        <clipPath id="clip0_305_6257">
            <rect width="48" height="48" fill="white"/>
        </clipPath>
    </defs>
</svg>
