<svg xmlns="http://www.w3.org/2000/svg" width="12" height="12" viewBox="0 0 12 12" >
    <path d="M9.60017 6.79985H2.40017C2.04017 6.79985 1.80017 6.55985 1.80017 6.19985C1.80017 5.83985 2.04017 5.59985 2.40017 5.59985H9.60017C9.96017 5.59985 10.2002 5.83985 10.2002 6.19985C10.2002 6.55985 9.96017 6.79985 9.60017 6.79985Z" />
    <path d="M7.80034 10.4H4.20034C3.84034 10.4 3.60034 10.16 3.60034 9.79995C3.60034 9.43995 3.84034 9.19995 4.20034 9.19995H7.80034C8.16034 9.19995 8.40034 9.43995 8.40034 9.79995C8.40034 10.16 8.16034 10.4 7.80034 10.4Z" />
    <path d="M11.4 3.2H0.6C0.24 3.2 0 2.96 0 2.6C0 2.24 0.24 2 0.6 2H11.4C11.76 2 12 2.24 12 2.6C12 2.96 11.76 3.2 11.4 3.2Z"/>
</svg>
