<svg xmlns="http://www.w3.org/2000/svg" width="14" height="14" viewBox="0 0 14 14" fill="none">
    <g clip-path="url(#clip0_1947_16283)">
        <path d="M12.8993 7.49525C12.4657 7.42912 12.0807 7.727 12.0185 8.15168C11.8624 9.21833 11.3712 10.1915 10.5981 10.9665C8.6303 12.9387 5.43093 12.9372 3.46396 10.9665C1.49738 8.99498 1.49738 5.7871 3.46396 3.81601C4.20373 3.07494 5.13762 2.59175 6.18281 2.41586C6.63229 2.33036 7.11553 2.31558 7.61694 2.37252C8.3054 2.45195 8.94621 2.6809 9.53097 3.01706L8.52048 3.18999C8.09832 3.26258 7.81401 3.66447 7.88681 4.08798C7.95123 4.46708 8.27947 4.73485 8.65087 4.73485C8.6941 4.73485 8.73804 4.73142 8.78274 4.7238L11.4917 4.2596C11.6941 4.22467 11.8752 4.1107 11.9943 3.94204C12.1133 3.77377 12.1603 3.56481 12.1254 3.36122L11.6615 0.646409C11.5902 0.223282 11.1945 -0.0601253 10.7655 0.0109015C10.3434 0.0834843 10.0591 0.485762 10.1319 0.909278L10.254 1.62383C9.50272 1.2014 8.674 0.928105 7.79351 0.826505C7.13408 0.751277 6.49436 0.772204 5.90882 0.884617C4.56077 1.111 3.33589 1.74425 2.36638 2.71591C-0.20546 5.29365 -0.20546 9.48804 2.36638 12.0665C3.65226 13.3557 5.34183 14 7.03101 14C8.72057 14 10.4093 13.3558 11.6956 12.0665C12.706 11.0537 13.3488 9.77822 13.5542 8.37807C13.6164 7.9526 13.323 7.55748 12.8993 7.49525Z" fill="white"/>
        <path d="M12.8993 7.49525C12.4657 7.42912 12.0807 7.727 12.0185 8.15168C11.8624 9.21833 11.3712 10.1915 10.5981 10.9665C8.6303 12.9387 5.43093 12.9372 3.46396 10.9665C1.49738 8.99498 1.49738 5.7871 3.46396 3.81601C4.20373 3.07494 5.13762 2.59175 6.18281 2.41586C6.63229 2.33036 7.11553 2.31558 7.61694 2.37252C8.3054 2.45195 8.94621 2.6809 9.53097 3.01706L8.52048 3.18999C8.09832 3.26258 7.81401 3.66447 7.88681 4.08798C7.95123 4.46708 8.27947 4.73485 8.65087 4.73485C8.6941 4.73485 8.73804 4.73142 8.78274 4.7238L11.4917 4.2596C11.6941 4.22467 11.8752 4.1107 11.9943 3.94204C12.1133 3.77377 12.1603 3.56481 12.1254 3.36122L11.6615 0.646409C11.5902 0.223282 11.1945 -0.0601253 10.7655 0.0109015C10.3434 0.0834843 10.0591 0.485762 10.1319 0.909278L10.254 1.62383C9.50272 1.2014 8.674 0.928105 7.79351 0.826505C7.13408 0.751277 6.49436 0.772204 5.90882 0.884617C4.56077 1.111 3.33589 1.74425 2.36638 2.71591C-0.20546 5.29365 -0.20546 9.48804 2.36638 12.0665C3.65226 13.3557 5.34183 14 7.03101 14C8.72057 14 10.4093 13.3558 11.6956 12.0665C12.706 11.0537 13.3488 9.77822 13.5542 8.37807C13.6164 7.9526 13.323 7.55748 12.8993 7.49525Z" fill="url(#paint0_angular_1947_16283)"/>
    </g>
    <defs>
        <radialGradient id="paint0_angular_1947_16283" cx="0" cy="0" r="1" gradientUnits="userSpaceOnUse" gradientTransform="translate(7 7) scale(6.5625 7)">
            <stop offset="0.753987" stop-color="#009FE7"/>
            <stop offset="1" stop-color="#59CBFF"/>
        </radialGradient>
        <clipPath id="clip0_1947_16283">
            <rect width="14" height="14" fill="white"/>
        </clipPath>
    </defs>
</svg>
