<svg width="302" height="220" viewBox="0 0 302 220" fill="none" xmlns="http://www.w3.org/2000/svg">
<path fill-rule="evenodd" clip-rule="evenodd" d="M274.252 89.4534C275.412 90.3194 276.452 91.3354 277.344 92.4749L281.284 91.7501L283.904 97.863L280.655 100.212C280.864 101.641 280.882 103.092 280.707 104.526L284 106.805L281.528 112.962L277.571 112.324C276.707 113.483 275.691 114.52 274.549 115.407L275.265 119.354L269.151 121.974L266.836 118.699C265.388 118.9 263.918 118.9 262.469 118.699L260.189 122L254.075 119.529L254.713 115.573C253.551 114.709 252.511 113.693 251.621 112.551L247.682 113.267L245.061 107.155L248.302 104.805C248.11 103.356 248.11 101.888 248.302 100.439L245 98.2647L247.472 92.1518L251.429 92.7806C252.295 91.6236 253.311 90.587 254.451 89.6979L253.735 85.7159L259.849 83.0961L262.198 86.3359C263.646 86.1252 265.115 86.1105 266.566 86.2922L268.837 83L274.995 85.4713L274.357 89.4272L274.252 89.4534ZM267.396 96.0466C266.091 95.5228 264.66 95.3977 263.284 95.6869C261.908 95.9761 260.648 96.6668 259.665 97.6715C258.682 98.6762 258.018 99.9499 257.759 101.332C257.499 102.713 257.655 104.141 258.207 105.434C258.759 106.727 259.682 107.827 260.86 108.595C262.037 109.364 263.416 109.766 264.822 109.751C266.228 109.736 267.598 109.305 268.759 108.512C269.92 107.718 270.819 106.599 271.344 105.294C271.692 104.428 271.866 103.502 271.856 102.568C271.846 101.634 271.652 100.712 271.286 99.8528C270.919 98.994 270.387 98.2158 269.719 97.5627C269.052 96.9097 268.262 96.3945 267.396 96.0466Z" fill="#EBEBEB"/>
<path fill-rule="evenodd" clip-rule="evenodd" d="M39.409 80.8683C40.8541 81.9502 42.1493 83.2191 43.2606 84.6417L48.1792 83.7435L51.4281 91.3504L47.3534 94.304C47.6127 96.0897 47.631 97.9021 47.4076 99.6927L51.5185 102.532L48.4384 110.211L43.5258 109.373C42.4472 110.821 41.178 112.117 39.7525 113.225L40.6506 118.143L33.0437 121.428L30.1143 117.378C28.3286 117.636 26.5166 117.656 24.7256 117.438L21.8805 121.543L14.2013 118.451L14.9909 113.514C13.5458 112.432 12.2506 111.163 11.1392 109.741L6.22671 110.639L2.9778 103.032L7.02839 100.103C6.77006 98.3169 6.74979 96.5049 6.96811 94.7139L2.86328 91.8929L5.94944 84.2197L10.8801 85.0154C11.9635 83.5698 13.2321 82.2728 14.6534 81.1577L13.7552 76.221L21.3622 72.9721L24.2976 77.0227C26.0833 76.7644 27.8953 76.7441 29.6863 76.9624L32.5254 72.8516L40.2046 75.9377L39.409 80.8683ZM30.8617 89.1021C29.2333 88.4474 27.4473 88.2904 25.7297 88.6509C24.012 89.0113 22.4398 89.8731 21.212 91.1272C19.9841 92.3813 19.1558 93.9714 18.8318 95.6963C18.5078 97.4212 18.7026 99.2035 19.3916 100.818C20.0806 102.432 21.2329 103.805 22.7027 104.765C24.1725 105.724 25.8937 106.226 27.6487 106.207C29.4037 106.187 31.1135 105.648 32.5621 104.657C34.0106 103.666 35.1326 102.268 35.7863 100.639C36.6608 98.4559 36.6333 96.015 35.7101 93.8521C34.7868 91.6891 33.0431 89.9809 30.8617 89.1021Z" fill="#EBEBEB"/>
<path fill-rule="evenodd" clip-rule="evenodd" d="M21.2288 42.4605C22.0274 43.0583 22.7429 43.7596 23.3566 44.546L26.075 44.0518L27.8833 48.2711L25.6471 49.8926C25.7825 50.8926 25.7825 51.9063 25.6471 52.9064L27.9195 54.4796L26.2137 58.699L23.4892 58.2589C22.8893 59.0595 22.186 59.777 21.3976 60.3927L21.8979 63.1112L17.6785 64.9195L16.0571 62.6832C15.0688 62.8128 14.0677 62.8128 13.0794 62.6832L11.5062 64.9557L7.28684 63.2498L7.72686 60.5193C6.92694 59.9231 6.21122 59.2216 5.5991 58.4338L2.8746 58.928L1.0663 54.7087L3.30859 53.0872C3.16286 52.0987 3.15271 51.0948 3.27845 50.1035L1 48.5363L2.70583 44.2868L5.43635 44.7269C6.03408 43.9265 6.73539 43.2089 7.52192 42.5931L7.02765 39.8746L11.247 38.0663L12.8685 40.3086C13.8669 40.1612 14.8806 40.149 15.8823 40.2724L17.4555 38L21.6749 39.7058L21.2409 42.4364L21.2288 42.4605ZM16.4971 47.0113C15.5962 46.6486 14.608 46.5611 13.6574 46.7598C12.7068 46.9584 11.8363 47.4344 11.1561 48.1276C10.4759 48.8207 10.0164 49.7 9.83566 50.6542C9.65492 51.6084 9.76107 52.5947 10.1407 53.4886C10.5203 54.3825 11.1563 55.1439 11.9685 55.6764C12.7806 56.209 13.7323 56.4889 14.7035 56.4808C15.6746 56.4727 16.6215 56.1769 17.4246 55.6308C18.2277 55.0847 18.851 54.3128 19.2156 53.4127C19.4581 52.814 19.5801 52.1733 19.5747 51.5273C19.5693 50.8813 19.4366 50.2428 19.1841 49.6482C18.9316 49.0536 18.5643 48.5146 18.1032 48.0622C17.6421 47.6097 17.0963 47.2526 16.4971 47.0113Z" fill="#F0F0F0"/>
<path fill-rule="evenodd" clip-rule="evenodd" d="M74.5936 8.88417C76.9291 9.74244 79.1388 10.9102 81.1637 12.3561L87.3119 9.23378L94.5933 18.01L90.374 23.4771C91.4177 25.7364 92.1575 28.1241 92.5741 30.5777L99.1201 32.7175L98.0653 44.0736L91.2299 44.9657C90.3717 47.3031 89.204 49.5148 87.758 51.5419L90.8803 57.6901L82.098 64.9715L76.637 60.7521C74.3827 61.7992 71.9988 62.5411 69.5485 62.9582L67.4086 69.5103L56.0525 68.4494L55.1906 61.6261C52.8551 60.7679 50.6454 59.6001 48.6204 58.1542L42.4722 61.2705L35.1908 52.4942L39.4102 47.0272C38.3665 44.7678 37.6267 42.3802 37.2101 39.9266L30.6641 37.7868L31.6827 26.4307L38.5181 25.5386C39.3734 23.2003 40.537 20.9867 41.978 18.9564L38.8556 12.8142L47.6379 5.5328L53.099 9.75216C55.3583 8.70289 57.7487 7.96286 60.2056 7.55206L62.3454 1L73.7015 2.07895L74.5936 8.91431V8.88417ZM66.5286 23.1215C64.1188 22.897 61.6966 23.3922 59.5682 24.5444C57.4399 25.6966 55.701 27.4541 54.5716 29.5946C53.4421 31.7351 52.9728 34.1625 53.223 36.5698C53.4732 38.977 54.4316 41.256 55.9771 43.1185C57.5226 44.981 59.5857 46.3434 61.9055 47.0333C64.2253 47.7232 66.6976 47.7097 69.0097 46.9945C71.3219 46.2792 73.3699 44.8944 74.895 43.0151C76.42 41.1358 77.3534 38.8464 77.5773 36.4366C77.7267 34.8367 77.5594 33.2231 77.0849 31.6879C76.6104 30.1528 75.8381 28.7262 74.812 27.4896C73.7859 26.2531 72.5262 25.2308 71.1049 24.4813C69.6836 23.7318 68.1286 23.2697 66.5286 23.1215Z" fill="#E0E0E0"/>
<path d="M257.173 35.1619V159.943C257.173 162.553 256.136 165.056 254.29 166.902C252.445 168.748 249.942 169.784 247.331 169.784H53.6678C51.0576 169.784 48.5544 168.748 46.7087 166.902C44.863 165.056 43.8262 162.553 43.8262 159.943V35.1619C43.8262 32.5518 44.863 30.0485 46.7087 28.2028C48.5544 26.3572 51.0576 25.3203 53.6678 25.3203H247.331C249.942 25.3203 252.445 26.3572 254.29 28.2028C256.136 30.0485 257.173 32.5518 257.173 35.1619Z" fill="#F5F5F5"/>
<path d="M251.8 34.293H49.1992V156.37H251.8V34.293Z" fill="url(#paint0_linear_4270_16359)"/>
<g style="mix-blend-mode:overlay" opacity="0.1">
<path d="M251.8 34.293V156.37H49.1992V145.978C193.422 155.699 208.249 78.1712 205.339 34.293H251.8Z" fill="black"/>
</g>
<g style="mix-blend-mode:overlay" opacity="0.1">
<path d="M139.676 25.3203C134.381 51.9176 114.801 94.3752 43.8262 95.6839V35.1619C43.8262 32.5518 44.863 30.0485 46.7087 28.2028C48.5544 26.3572 51.0576 25.3203 53.6678 25.3203H139.676Z" fill="white"/>
</g>
<path d="M301 194.183H0L45.1354 164.727H255.865L301 194.183Z" fill="#EDEDED"/>
<path d="M37.5508 181.877L58.3706 168.281H244.371L265.191 181.877H37.5508Z" fill="#3E464D"/>
<path d="M268.092 181.877H34.6484L55.9935 168.281H246.747L268.092 181.877Z" fill="#DEDEDE"/>
<path d="M181.704 191.083H119.305L131.307 183.438H169.701L181.704 191.083Z" fill="#626B73"/>
<path d="M197.306 191.083H103.703L121.707 183.438H179.302L197.306 191.083Z" fill="#DEDEDE"/>
<path d="M300.484 194.184C300.484 194.184 297.987 199.221 293.596 199.823H7.38827C3.01422 199.221 0.5 194.184 0.5 194.184H300.484Z" fill="#E0E0E0"/>
<path d="M150.746 54.5C146.551 54.4939 142.448 55.7325 138.957 58.0589C135.465 60.3853 132.743 63.695 131.133 67.5693C129.523 71.4436 129.099 75.7083 129.913 79.8238C130.728 83.9394 132.745 87.7208 135.71 90.6895C138.674 93.6583 142.453 95.681 146.567 96.5017C150.681 97.3224 154.947 96.9043 158.823 95.3002C162.7 93.6961 166.014 90.9781 168.345 87.4902C170.677 84.0023 171.921 79.9011 171.921 75.7057C171.917 70.0882 169.686 64.7015 165.717 60.7264C161.747 56.7513 156.364 54.5122 150.746 54.5ZM150.746 91.7254C147.574 91.7285 144.471 90.7902 141.832 89.0294C139.193 87.2687 137.135 84.7645 135.919 81.8338C134.704 78.9031 134.385 75.6778 135.003 72.5658C135.621 69.4539 137.149 66.5953 139.392 64.3518C141.636 62.1083 144.494 60.5808 147.606 59.9626C150.718 59.3444 153.944 59.6632 156.874 60.8788C159.805 62.0944 162.309 64.152 164.07 66.7913C165.831 69.4306 166.769 72.533 166.766 75.7057C166.762 79.9532 165.073 84.0255 162.069 87.0289C159.066 90.0323 154.994 91.7214 150.746 91.7254Z" fill="#D2E5F3"/>
<g style="mix-blend-mode:overlay" opacity="0.3">
<path d="M150.747 58.0859C147.263 58.089 143.858 59.125 140.962 61.0629C138.067 63.0009 135.811 65.7539 134.479 68.9738C133.148 72.1937 132.801 75.736 133.483 79.153C134.165 82.5699 135.844 85.7081 138.309 88.1708C140.774 90.6335 143.913 92.3101 147.331 92.9887C150.748 93.6674 154.29 93.3175 157.509 91.9834C160.728 90.6494 163.479 88.3909 165.414 85.4937C167.35 82.5964 168.383 79.1903 168.383 75.7061C168.379 71.0315 166.519 66.5498 163.212 63.2458C159.905 59.9418 155.422 58.0859 150.747 58.0859ZM150.747 91.7258C147.575 91.7288 144.472 90.7906 141.833 89.0298C139.194 87.269 137.136 84.7648 135.92 81.8341C134.705 78.9035 134.386 75.6781 135.004 72.5662C135.622 69.4542 137.15 66.5956 139.393 64.3522C141.637 62.1087 144.495 60.5812 147.607 59.9629C150.719 59.3447 153.945 59.6636 156.875 60.8791C159.806 62.0947 162.31 64.1523 164.071 66.7917C165.832 69.431 166.77 72.5333 166.767 75.7061C166.763 79.9535 165.074 84.0258 162.07 87.0292C159.067 90.0326 154.995 91.7217 150.747 91.7258Z" fill="black"/>
</g>
<path d="M183 92.8921V104.603C183.002 108.66 182.321 112.677 180.996 116.426C179.671 120.174 177.728 123.58 175.278 126.45C172.828 129.319 169.919 131.595 166.718 133.148C163.516 134.701 160.084 135.5 156.618 135.5H144.397C137.396 135.5 130.682 132.245 125.732 126.451C120.781 120.656 118 112.798 118 104.603V93.5C118 89.787 119.26 86.226 121.503 83.6005C123.747 80.975 126.789 79.5 129.961 79.5H171.589C173.089 79.5023 174.575 79.8506 175.96 80.5249C177.346 81.1992 178.604 82.1863 179.664 83.4298C180.724 84.6734 181.564 86.1491 182.136 87.7726C182.708 89.3962 183.002 91.1357 183 92.8921Z" fill="white"/>
<path opacity="0.1" d="M183 92.8921V104.603C183.002 108.66 182.317 112.677 180.984 116.426C179.651 120.174 177.695 123.58 175.23 126.45C172.765 129.319 169.838 131.595 166.616 133.148C163.394 134.701 159.941 135.5 156.453 135.5H144.156C138.737 135.506 133.447 133.578 129 129.975C153.84 122.072 164.646 96.9866 169.258 79.5H171.502C173.013 79.5 174.51 79.8465 175.906 80.5197C177.302 81.193 178.57 82.1797 179.638 83.4235C180.706 84.6673 181.552 86.1438 182.129 87.7685C182.706 89.3932 183.002 91.1342 183 92.8921Z" fill="#0F9EE9"/>
<path d="M149.368 92.806C150.165 91.68 151.835 91.68 152.632 92.806L156.704 98.5578C156.958 98.9163 157.323 99.1812 157.742 99.3118L164.47 101.407C165.788 101.817 166.304 103.406 165.479 104.512L161.267 110.162C161.005 110.514 160.865 110.942 160.871 111.382L160.958 118.428C160.975 119.808 159.623 120.79 158.316 120.347L151.641 118.087C151.225 117.946 150.775 117.946 150.359 118.087L143.684 120.347C142.377 120.79 141.025 119.808 141.042 118.428L141.129 111.382C141.135 110.942 140.995 110.514 140.733 110.162L136.521 104.512C135.696 103.406 136.212 101.817 137.53 101.407L144.258 99.3118C144.677 99.1812 145.042 98.9163 145.296 98.5578L149.368 92.806Z" fill="url(#paint1_linear_4270_16359)"/>
<path d="M154.12 105.564C154.129 106.225 153.919 106.871 153.523 107.401C153.127 107.931 152.567 108.315 151.93 108.494V111.834C151.93 112.064 151.838 112.286 151.675 112.449C151.512 112.612 151.291 112.704 151.06 112.704C150.829 112.704 150.608 112.612 150.445 112.449C150.282 112.286 150.19 112.064 150.19 111.834V108.494C149.646 108.332 149.157 108.023 148.778 107.599C148.4 107.176 148.147 106.655 148.047 106.096C147.948 105.537 148.006 104.962 148.215 104.434C148.424 103.906 148.776 103.446 149.231 103.107C149.686 102.767 150.227 102.561 150.793 102.512C151.358 102.462 151.927 102.571 152.434 102.826C152.941 103.081 153.368 103.472 153.666 103.955C153.963 104.439 154.121 104.996 154.12 105.564Z" fill="#D2E5F3"/>
<defs>
<linearGradient id="paint0_linear_4270_16359" x1="49.1992" y1="95.3316" x2="251.8" y2="95.3316" gradientUnits="userSpaceOnUse">
<stop stop-color="#59CBFF"/>
<stop offset="1" stop-color="#009FE7"/>
</linearGradient>
<linearGradient id="paint1_linear_4270_16359" x1="134" y1="107.5" x2="168" y2="107.5" gradientUnits="userSpaceOnUse">
<stop stop-color="#59CBFF"/>
<stop offset="1" stop-color="#009FE7"/>
</linearGradient>
</defs>
</svg>
