<svg xmlns="http://www.w3.org/2000/svg" width="6" height="8" viewBox="0 0 6 8">
    <path d="M0.901953 8V0.86H3.18195C4.10195 0.86 4.77195 1.04667 5.19195 1.42C5.61862 1.79333 5.83195 2.30667 5.83195 2.96C5.83195 3.34667 5.74529 3.71 5.57195 4.05C5.39862 4.39 5.10862 4.66333 4.70195 4.87C4.30195 5.07667 3.75529 5.18 3.06195 5.18H2.41195V8H0.901953ZM0.101953 6.93V5.96H3.95195V6.93H0.101953ZM0.101953 5.18V3.94H3.03195V5.18H0.101953ZM2.91195 3.94C3.19862 3.94 3.44529 3.91 3.65195 3.85C3.85862 3.78333 4.01862 3.68 4.13195 3.54C4.24529 3.4 4.30195 3.22333 4.30195 3.01C4.30195 2.70333 4.20529 2.47667 4.01195 2.33C3.81862 2.17667 3.51529 2.1 3.10195 2.1H2.41195V3.94H2.91195Z"/>
</svg>
