<svg width="12" height="13" viewBox="0 0 12 13" xmlns="http://www.w3.org/2000/svg">
<path d="M1.53866 0.763992C1.18667 0.412003 0.615985 0.412003 0.263995 0.763992C-0.0879949 1.11598 -0.0879953 1.68667 0.263995 2.03866L4.72534 6.5L0.263992 10.9613C-0.0879974 11.3133 -0.0879975 11.884 0.263992 12.236C0.615982 12.588 1.18667 12.588 1.53866 12.236L6.00001 7.77466L10.4613 12.236C10.8133 12.588 11.384 12.588 11.736 12.236C12.088 11.884 12.088 11.3133 11.736 10.9613L7.27468 6.5L11.736 2.03868C12.088 1.68669 12.088 1.116 11.736 0.764015C11.384 0.412026 10.8133 0.412025 10.4613 0.764015L6.00001 5.22533L1.53866 0.763992Z" />
</svg>
