<svg xmlns="http://www.w3.org/2000/svg" width="308" height="230" viewBox="0 0 308 230" fill="none">
    <g clip-path="url(#clip0_1947_18816)">
        <path d="M308 202.125H0V202.279H308V202.125Z" fill="#EBEBEB"/>
        <path d="M52.7164 212.055H32.3145V212.209H52.7164V212.055Z" fill="#EBEBEB"/>
        <path d="M110.775 213.734H83.3633V213.889H110.775V213.734Z" fill="#EBEBEB"/>
        <path d="M96.7127 206.328H53.334V206.482H96.7127V206.328Z" fill="#EBEBEB"/>
        <path d="M277.139 207.367H269.322V207.522H277.139V207.367Z" fill="#EBEBEB"/>
        <path d="M263.832 207.367H241.145V207.522H263.832V207.367Z" fill="#EBEBEB"/>
        <path d="M189.932 209.969H170.762V210.123H189.932V209.969Z" fill="#EBEBEB"/>
        <path d="M145.992 174.594H27.0483C26.1165 174.593 25.2234 174.221 24.5651 173.56C23.9068 172.899 23.5371 172.004 23.5371 171.07V3.52498C23.5452 2.59663 23.9185 1.70897 24.576 1.05481C25.2334 0.400659 26.1218 0.0328403 27.0483 0.03125H145.992C146.925 0.03125 147.819 0.402591 148.479 1.06358C149.139 1.72457 149.509 2.62107 149.509 3.55585V171.07C149.509 172.005 149.139 172.901 148.479 173.562C147.819 174.223 146.925 174.594 145.992 174.594ZM27.0483 0.154704C26.1574 0.156339 25.3035 0.512142 24.674 1.14401C24.0446 1.77589 23.6911 2.6322 23.6911 3.52498V171.07C23.6911 171.963 24.0446 172.819 24.674 173.451C25.3035 174.083 26.1574 174.439 27.0483 174.44H145.992C146.883 174.439 147.738 174.083 148.368 173.451C148.999 172.82 149.353 171.963 149.355 171.07V3.52498C149.353 2.63163 148.999 1.77533 148.368 1.14364C147.738 0.511941 146.883 0.156336 145.992 0.154704H27.0483Z" fill="#EBEBEB"/>
        <path d="M279.238 174.594H160.289C159.356 174.593 158.463 174.221 157.804 173.56C157.144 172.9 156.773 172.004 156.771 171.07V3.52498C156.781 2.59607 157.156 1.70841 157.814 1.05443C158.473 0.400443 159.362 0.032823 160.289 0.03125H279.238C280.164 0.0344626 281.051 0.402999 281.707 1.05698C282.363 1.71096 282.735 2.59769 282.743 3.52498V171.07C282.743 172.003 282.375 172.897 281.718 173.558C281.061 174.218 280.169 174.591 279.238 174.594ZM160.289 0.154704C159.397 0.156336 158.543 0.511941 157.912 1.14364C157.282 1.77533 156.927 2.63163 156.925 3.52498V171.07C156.927 171.963 157.282 172.82 157.912 173.451C158.543 174.083 159.397 174.439 160.289 174.44H279.238C280.13 174.439 280.985 174.083 281.615 173.451C282.245 172.82 282.6 171.963 282.602 171.07V3.52498C282.6 2.63163 282.245 1.77533 281.615 1.14364C280.985 0.511941 280.13 0.156336 279.238 0.154704H160.289Z" fill="#EBEBEB"/>
        <path d="M195.611 140.769V8.48828L33.3323 8.48828V140.769H195.611Z" fill="#EBEBEB"/>
        <path d="M196.59 140.776V8.49609H195.61V140.776H196.59Z" fill="#E0E0E0"/>
        <path d="M41.3337 132.758L187.615 132.758V16.514L41.3337 16.514V132.758Z" fill="#F5F5F5"/>
        <path d="M107.96 132.756H127.598L94.8825 16.5117H75.2383L107.96 132.756Z" fill="white"/>
        <path d="M92.1904 132.756H103.549L70.8336 16.5117H59.4746L92.1904 132.756Z" fill="white"/>
        <path d="M155.14 132.756H159.846L127.13 16.5117H122.424L155.14 132.756Z" fill="white"/>
        <path d="M262.344 197.05H91.0959C90.5071 197.053 89.9237 196.936 89.381 196.708C88.8382 196.479 88.3472 196.142 87.9375 195.719C87.5278 195.295 87.2079 194.792 86.9969 194.242C86.786 193.691 86.6884 193.103 86.71 192.513L90.7633 69.8126C90.8137 68.5984 91.3277 67.4499 92.1989 66.6045C93.0701 65.759 94.2321 65.2812 95.4449 65.2696H266.73C267.319 65.2675 267.902 65.3847 268.445 65.6142C268.988 65.8437 269.479 66.1807 269.889 66.6049C270.298 67.0292 270.618 67.5321 270.829 68.0833C271.04 68.6345 271.137 69.2227 271.116 69.8126L267.062 192.513C267.009 193.732 266.488 194.883 265.61 195.728C264.731 196.573 263.562 197.046 262.344 197.05Z" fill="#E0E0E0"/>
        <g opacity="0.6">
            <path d="M260.945 197.05H89.6975C89.1086 197.053 88.5253 196.936 87.9825 196.708C87.4398 196.479 86.9488 196.142 86.5391 195.719C86.1294 195.295 85.8095 194.792 85.5985 194.242C85.3875 193.691 85.2899 193.103 85.3115 192.513L89.3217 69.8126C89.3722 68.5984 89.8861 67.4499 90.7573 66.6045C91.6286 65.759 92.7905 65.2812 94.0033 65.2696H265.251C265.84 65.2675 266.424 65.3847 266.967 65.6142C267.509 65.8437 268 66.1807 268.41 66.6049C268.82 67.0292 269.139 67.5321 269.35 68.0833C269.561 68.6345 269.659 69.2227 269.637 69.8126L265.584 192.513C265.531 193.718 265.022 194.858 264.16 195.701C263.299 196.544 262.149 197.026 260.945 197.05Z" fill="#FAFAFA"/>
        </g>
        <path d="M258.721 196.828H51.8931C50.8704 196.829 49.8687 197.118 49.0034 197.665C48.138 198.211 47.4443 198.991 47.002 199.914C46.8895 200.154 46.8396 200.419 46.8569 200.684C46.8741 200.948 46.9581 201.204 47.1008 201.427C47.2436 201.65 47.4405 201.834 47.6731 201.96C47.9058 202.086 48.1666 202.151 48.4311 202.149H262.183C262.448 202.152 262.71 202.088 262.943 201.962C263.177 201.836 263.374 201.653 263.518 201.43C263.661 201.206 263.746 200.95 263.763 200.685C263.781 200.42 263.731 200.155 263.618 199.914C263.176 198.99 262.481 198.209 261.614 197.663C260.748 197.117 259.745 196.827 258.721 196.828Z" fill="#E0E0E0"/>
        <path opacity="0.6" d="M51.8931 196.828H216.981C218.003 196.829 219.003 197.119 219.868 197.665C220.732 198.211 221.425 198.991 221.866 199.914C221.98 200.154 222.032 200.419 222.015 200.685C221.999 200.95 221.915 201.206 221.772 201.43C221.629 201.654 221.431 201.837 221.197 201.963C220.964 202.089 220.702 202.153 220.437 202.149H48.4311C48.1666 202.151 47.9058 202.086 47.6731 201.96C47.4405 201.834 47.2436 201.65 47.1008 201.427C46.9581 201.204 46.8741 200.948 46.8569 200.684C46.8396 200.419 46.8895 200.154 47.002 199.914C47.4443 198.991 48.138 198.211 49.0034 197.665C49.8687 197.118 50.8704 196.829 51.8931 196.828Z" fill="#FAFAFA"/>
        <path opacity="0.3" d="M150.559 200.199H107.617C107.108 200.199 106.619 200.402 106.258 200.763C105.898 201.124 105.695 201.614 105.695 202.125H152.481C152.481 201.614 152.278 201.124 151.918 200.763C151.557 200.402 151.068 200.199 150.559 200.199Z" fill="#E0E0E0"/>
        <path opacity="0.9" d="M89.3837 188.076L93.1475 74.252C93.1681 73.775 93.3719 73.3243 93.7163 72.9942C94.0606 72.6641 94.5189 72.48 94.9955 72.4805H263.884C264.114 72.4795 264.341 72.5251 264.553 72.6145C264.764 72.704 264.956 72.8355 265.115 73.001C265.274 73.1666 265.399 73.3628 265.481 73.5778C265.562 73.7928 265.6 74.0222 265.59 74.252L261.833 188.076C261.811 188.552 261.606 189.001 261.262 189.33C260.918 189.659 260.46 189.842 259.985 189.842H91.09C90.8612 189.842 90.6347 189.796 90.424 189.706C90.2133 189.617 90.0226 189.486 89.8635 189.321C89.7043 189.157 89.5797 188.961 89.4973 188.748C89.4149 188.534 89.3763 188.305 89.3837 188.076Z" fill="white"/>
        <path d="M93.862 183.23L97.3301 78.9489C97.3477 78.373 97.5885 77.8267 98.0013 77.4257C98.4141 77.0246 98.9666 76.8005 99.5415 76.8008H258.907C259.204 76.8006 259.498 76.8605 259.772 76.9768C260.046 77.0931 260.293 77.2636 260.5 77.4779C260.706 77.6923 260.867 77.9461 260.974 78.2243C261.08 78.5025 261.129 78.7993 261.118 79.097L257.675 183.36C257.654 183.935 257.411 184.48 256.998 184.879C256.584 185.279 256.032 185.502 255.457 185.502H96.0981C95.8009 185.505 95.5061 185.448 95.2312 185.335C94.9564 185.222 94.7071 185.054 94.4984 184.842C94.2897 184.63 94.1257 184.378 94.0164 184.101C93.9071 183.824 93.8546 183.528 93.862 183.23Z" fill="#F0F0F0"/>
        <path d="M223.879 189.848H251.883L219.61 72.4805H191.613L223.879 189.848Z" fill="white"/>
        <path d="M206.048 189.848H216.119L183.853 72.4805H173.775L206.048 189.848Z" fill="white"/>
        <path d="M148.71 189.848H158.787L126.515 72.4805H116.438L148.71 189.848Z" fill="white"/>
        <path opacity="0.4" d="M180.865 139.658C180.852 140.013 180.703 140.351 180.448 140.599C180.194 140.848 179.853 140.988 179.498 140.991C179.324 140.993 179.153 140.959 178.993 140.892C178.833 140.825 178.688 140.726 178.568 140.602C178.447 140.477 178.353 140.329 178.292 140.166C178.23 140.004 178.203 139.831 178.21 139.658C178.224 139.301 178.375 138.964 178.631 138.715C178.887 138.467 179.228 138.327 179.584 138.324C179.757 138.323 179.928 138.357 180.087 138.425C180.246 138.492 180.39 138.591 180.51 138.716C180.63 138.84 180.723 138.988 180.784 139.15C180.845 139.312 180.873 139.485 180.865 139.658Z" fill="white"/>
        <path d="M154.001 229.998C219.964 229.998 273.437 226.87 273.437 223.011C273.437 219.152 219.964 216.023 154.001 216.023C88.0379 216.023 34.5645 219.152 34.5645 223.011C34.5645 226.87 88.0379 229.998 154.001 229.998Z" fill="#F5F5F5"/>
        <path opacity="0.5" d="M97.3268 143.714C87.6708 134.039 81.0948 121.712 78.4305 108.291C75.7661 94.871 77.1331 80.9603 82.3586 68.3184C87.584 55.6766 96.4332 44.8713 107.787 37.2692C119.141 29.667 132.49 25.6094 146.145 25.6094C159.8 25.6094 173.149 29.667 184.503 37.2692C195.856 44.8713 204.706 55.6766 209.931 68.3184C215.157 80.9603 216.524 94.871 213.859 108.291C211.195 121.712 204.619 134.039 194.963 143.714C182.014 156.686 164.454 163.973 146.145 163.973C127.835 163.973 110.275 156.686 97.3268 143.714Z" fill="white"/>
        <path d="M161.916 59.3891C164.107 56.4214 166.525 53.6291 169.148 51.0375C170.91 49.303 176.484 45.587 178.566 44.8648C180.193 44.3216 183.273 52.7597 183.248 58.025C183.248 62.9631 181.437 77.6109 181.437 77.6109L161.916 59.3891Z" fill="url(#paint0_linear_1947_18816)"/>
        <path opacity="0.2" d="M165.809 64.4642C169.332 63.9889 174.389 57.3224 177.716 53.915C181.042 50.5077 181.412 55.7668 180.833 62.5012C180.537 65.816 179.798 69.748 178.738 71.5998C178.645 71.7414 178.52 71.8588 178.372 71.9422C178.225 72.0255 178.06 72.0725 177.89 72.0791C177.721 72.0857 177.553 72.0519 177.399 71.9803C177.246 71.9088 177.111 71.8016 177.007 71.6677C174.041 68.2407 170.153 65.7404 165.809 64.4642Z" fill="white"/>
        <path d="M185.73 154.968C184.42 155.841 183.087 156.664 181.732 157.437C169.233 164.566 154.888 167.776 140.55 166.651C126.212 165.527 112.54 160.12 101.301 151.129C104.381 145.882 106.765 141.666 107.812 139.277C112.124 129.364 114.385 127.969 114.68 119.333C114.976 110.698 110.917 100.772 109.863 91.9514C116.879 88.5811 177.525 108.673 177.525 108.673C171.673 120.735 181.387 130.012 183.685 135.493C186.457 142.061 186.444 148.536 185.73 154.968Z" fill="url(#paint1_linear_1947_18816)"/>
        <path d="M188.637 91.7411C189.53 92.3158 190.252 93.122 190.725 94.0744C190.725 94.0744 190.608 87.9017 187.269 83.0438C183.832 78.0254 181.251 76.4637 178.153 70.4392C174.98 64.2665 167.681 56.8038 157.714 56.0322C147.747 55.2606 123.92 53.9582 115.277 69.2355C112.984 73.1988 111.337 77.504 110.399 81.9883C107.239 87.1363 104.855 96.6299 105.003 99.3952C106.117 98.0794 107.414 96.93 108.853 95.9817C108.853 95.9817 107.479 104.531 107.873 109.025C109.489 107.08 111.488 105.489 113.744 104.352C117.877 111.691 132.729 122.358 153.568 120.043C170.563 118.191 178.208 115.512 181.744 109.889C183.039 107.759 184.193 105.547 185.2 103.265C186.532 104.572 187.546 106.169 188.163 107.932C188.683 104.909 188.601 101.812 187.922 98.8211C187.922 98.8211 189.604 100.506 190.442 101.445C190.454 97.5619 190.165 95.0929 188.637 91.7411Z" fill="url(#paint2_linear_1947_18816)"/>
        <path opacity="0.3" d="M140.244 75.7773C142.554 72.7897 147.106 70.5367 151.117 74.2773C152.429 75.4995 150.26 85.5486 140.244 75.7773Z" fill="black"/>
        <path opacity="0.3" d="M178.246 74.7528C176.337 72.0676 172.862 70.2405 169.702 73.5923C168.212 75.1725 172.271 83.8575 178.246 74.7528Z" fill="black"/>
        <path d="M168.845 81.085C163.197 80.8505 160.098 80.9678 160.622 84.1158C161.059 86.7392 166.899 89.6712 168.938 88.5355C171.999 86.8071 173.662 81.2826 168.845 81.085Z" fill="white"/>
        <path opacity="0.15" d="M166.67 87.9459C161.065 86.341 150.125 84.7546 146.73 90.847C144.199 95.3963 145.498 100.075 149.361 103.427C153.494 107.026 160.024 110.507 166.523 111.081C175.609 111.877 179.366 108.532 181.762 104.878C185.341 99.4271 187.005 90.4026 180.056 87.8224C176.138 86.3657 170.588 87.1434 166.67 87.9459Z" fill="white"/>
        <path opacity="0.15" d="M181.719 157.393C168.563 164.905 153.373 168.057 138.322 166.399C135.708 158.377 135.477 149.766 137.657 141.615C141.55 126.684 154.289 130.097 160.818 133.751C165.358 131.646 171.808 129.529 176.378 132.906C181.534 136.714 182.662 146.985 181.719 157.393Z" fill="white"/>
        <path opacity="0.2" d="M161.127 97.4994C159.418 97.4615 157.726 97.1446 156.119 96.5612C156.013 96.5233 155.925 96.4453 155.876 96.3437C155.826 96.2422 155.818 96.1253 155.854 96.018C155.872 95.9655 155.9 95.9172 155.937 95.8757C155.974 95.8343 156.018 95.8005 156.068 95.7764C156.118 95.7523 156.172 95.7383 156.227 95.7353C156.282 95.7323 156.338 95.7402 156.39 95.7587C159.833 96.9377 162.642 96.9501 164.737 95.8019C166.173 94.9884 167.241 93.6506 167.718 92.0675C167.737 91.9863 167.78 91.9127 167.842 91.8565C167.904 91.8003 167.981 91.7641 168.063 91.7527C168.146 91.7376 168.231 91.7485 168.307 91.7839C168.383 91.8193 168.446 91.8774 168.488 91.9502C172.055 97.9068 175.942 95.9501 175.979 95.9316C176.028 95.9049 176.082 95.8883 176.138 95.8829C176.193 95.8775 176.249 95.8833 176.303 95.9C176.356 95.9167 176.406 95.9439 176.448 95.9801C176.491 96.0162 176.526 96.0606 176.552 96.1106C176.578 96.1594 176.594 96.2131 176.6 96.2684C176.605 96.3237 176.599 96.3795 176.583 96.4326C176.566 96.4856 176.539 96.5347 176.503 96.5769C176.467 96.6192 176.423 96.6537 176.373 96.6785C176.33 96.6785 172.092 98.8451 168.236 93.123C167.609 94.5695 166.527 95.7706 165.156 96.5427C163.916 97.2001 162.529 97.5295 161.127 97.4994Z" fill="black"/>
        <path d="M130.499 59.5869C126.674 58.2227 123.655 55.5438 119.35 51.3896C116.085 48.2353 113.516 43.7046 110.565 43.4947C108.255 43.3281 106.383 51.3834 107.683 59.1918C108.687 65.2225 115.075 80.1789 115.075 80.1789L130.499 59.5869Z" fill="url(#paint3_linear_1947_18816)"/>
        <path opacity="0.2" d="M123.92 61.143C124.123 61.0214 124.291 60.8491 124.408 60.643C124.524 60.4369 124.586 60.2041 124.586 59.9672C124.586 59.7302 124.524 59.4974 124.408 59.2913C124.291 59.0852 124.123 58.9129 123.92 58.7913C120.797 56.9086 116.978 52.884 114.68 50.1495C111.674 46.5694 110.682 52.7482 111.964 59.3591C112.483 61.6232 113.35 63.793 114.532 65.7911C114.721 66.1221 114.988 66.4015 115.309 66.6046C115.631 66.8077 115.998 66.9284 116.377 66.9558C116.757 66.9833 117.137 66.9167 117.484 66.762C117.832 66.6073 118.136 66.3693 118.37 66.0688C119.919 64.1147 121.797 62.4476 123.92 61.143Z" fill="white"/>
        <path d="M182.637 69.8274L130.548 70.9199C130.476 70.9241 130.404 70.9139 130.337 70.89C130.269 70.8661 130.206 70.829 130.153 70.7807C130.1 70.7325 130.057 70.6741 130.026 70.609C129.995 70.5439 129.978 70.4733 129.975 70.4014C129.972 70.332 129.984 70.2628 130.008 70.1978C130.033 70.1328 130.07 70.0733 130.117 70.0228C130.165 69.9722 130.222 69.9317 130.285 69.9034C130.349 69.8752 130.417 69.8598 130.486 69.8582L182.575 68.7657C182.716 68.7639 182.852 68.817 182.954 68.9138C183.056 69.0105 183.117 69.1434 183.123 69.2842C183.13 69.4207 183.083 69.5544 182.992 69.6561C182.901 69.7578 182.773 69.8194 182.637 69.8274Z" fill="white"/>
        <path d="M137.214 82.1005L123.699 82.3845L123.225 70.0144L136.74 69.7305L137.214 82.1005Z" fill="white"/>
        <path opacity="0.3" d="M131.639 76.0564C131.64 76.3387 131.558 76.615 131.402 76.8503C131.246 77.0856 131.025 77.2693 130.765 77.3782C130.505 77.4871 130.219 77.5162 129.942 77.4619C129.666 77.4075 129.412 77.2722 129.212 77.0731C129.012 76.8739 128.876 76.6198 128.821 76.3431C128.765 76.0663 128.793 75.7793 128.901 75.5184C129.008 75.2575 129.191 75.0344 129.425 74.8775C129.659 74.7205 129.934 74.6367 130.216 74.6367C130.402 74.6359 130.587 74.672 130.76 74.743C130.933 74.814 131.09 74.9185 131.222 75.0504C131.354 75.1823 131.459 75.3391 131.53 75.5117C131.602 75.6844 131.639 75.8695 131.639 76.0564Z" fill="black"/>
        <path opacity="0.2" d="M137.184 81.3626L154.826 80.9922C155.162 80.9827 155.493 80.9064 155.799 80.7677C156.105 80.629 156.381 80.4308 156.611 80.1844C156.84 79.938 157.018 79.6485 157.135 79.3326C157.251 79.0167 157.304 78.6807 157.29 78.3441L156.964 69.832L136.74 70.2579L137.184 81.3626Z" fill="white"/>
        <path d="M111.311 82.6437L123.699 82.3844L123.224 70.0391L110.904 70.2983C110.653 70.303 110.405 70.358 110.176 70.4601C109.946 70.5622 109.739 70.7093 109.567 70.8928C109.394 71.0763 109.261 71.2924 109.173 71.5285C109.085 71.7645 109.046 72.0158 109.056 72.2674L109.383 80.8474C109.408 81.3392 109.624 81.8016 109.984 82.1369C110.344 82.4722 110.82 82.6539 111.311 82.6437Z" fill="white"/>
        <path opacity="0.3" d="M111.311 82.6437L123.699 82.3844L123.224 70.0391L110.904 70.2983C110.653 70.303 110.405 70.358 110.176 70.4601C109.946 70.5622 109.739 70.7093 109.567 70.8928C109.394 71.0763 109.261 71.2924 109.173 71.5285C109.085 71.7645 109.046 72.0158 109.056 72.2674L109.383 80.8474C109.408 81.3392 109.624 81.8016 109.984 82.1369C110.344 82.4722 110.82 82.6539 111.311 82.6437Z" fill="url(#paint4_linear_1947_18816)"/>
        <path d="M246.202 182.49C245.963 181.251 245.421 180.091 244.625 179.113C243.036 177.404 241.336 175.805 239.66 174.175C237.985 172.546 236.272 170.965 234.529 169.404C232.786 167.842 231.048 166.287 229.281 164.756C225.72 161.713 222.079 158.756 218.297 155.935C216.572 154.657 214.829 153.398 213.043 152.176C213.465 151.032 213.55 149.79 213.289 148.599C213.028 147.407 212.432 146.316 211.571 145.454L208.977 142.855C208.523 142.4 208.004 142.015 207.437 141.713C219.318 126.132 224.845 106.607 222.897 87.0952C220.949 67.5831 211.673 49.5424 196.947 36.628C182.221 23.7136 163.146 16.8911 143.588 17.5427C124.03 18.1943 105.45 26.2712 91.6122 40.1372C77.7747 54.0032 69.7144 72.6214 69.0641 92.22C68.4139 111.819 75.2224 130.932 88.1102 145.688C100.998 160.445 119.002 169.74 138.474 171.692C157.946 173.644 177.43 168.106 192.98 156.2C193.277 156.769 193.659 157.29 194.113 157.744L196.713 160.348C197.574 161.209 198.664 161.805 199.852 162.066C201.04 162.328 202.279 162.244 203.421 161.824C204.653 163.608 205.885 165.355 207.172 167.083C209.987 170.873 212.938 174.527 215.969 178.089C217.503 179.86 219.049 181.632 220.613 183.354C222.178 185.076 223.767 186.798 225.375 188.49C226.983 190.181 228.597 191.872 230.303 193.471C231.284 194.263 232.442 194.804 233.679 195.045C235.384 195.368 237.14 195.3 238.816 194.848C240.558 194.421 242.15 193.524 243.418 192.254C244.687 190.983 245.584 189.389 246.011 187.644C246.461 185.962 246.526 184.2 246.202 182.49ZM95.319 145.707C85.262 135.634 78.4121 122.799 75.6356 108.824C72.859 94.8499 74.2807 80.3643 79.7206 67.1996C85.1606 54.035 94.3746 42.7826 106.197 34.8658C118.02 26.949 131.92 22.7233 146.139 22.7233C160.358 22.7233 174.258 26.949 186.081 34.8658C197.903 42.7826 207.117 54.035 212.557 67.1996C217.997 80.3643 219.419 94.8499 216.642 108.824C213.866 122.799 207.016 135.634 196.959 145.707C183.479 159.21 165.199 166.796 146.139 166.796C127.079 166.796 108.799 159.21 95.319 145.707Z" fill="url(#paint5_linear_1947_18816)"/>
        <path opacity="0.12" d="M246.202 182.49C245.963 181.251 245.421 180.091 244.625 179.113C243.036 177.404 241.336 175.805 239.66 174.175C237.985 172.546 236.272 170.965 234.529 169.404C232.786 167.842 231.048 166.287 229.281 164.756C225.72 161.713 222.079 158.756 218.297 155.935C216.572 154.657 214.829 153.398 213.043 152.176C213.465 151.032 213.55 149.79 213.289 148.599C213.028 147.407 212.432 146.316 211.571 145.454L208.977 142.855C208.523 142.4 208.004 142.015 207.437 141.713C219.318 126.132 224.845 106.607 222.897 87.0952C220.949 67.5831 211.673 49.5424 196.947 36.628C182.221 23.7136 163.146 16.8911 143.588 17.5427C124.03 18.1943 105.45 26.2712 91.6122 40.1372C77.7747 54.0032 69.7144 72.6214 69.0641 92.22C68.4139 111.819 75.2224 130.932 88.1102 145.688C100.998 160.445 119.002 169.74 138.474 171.692C157.946 173.644 177.43 168.106 192.98 156.2C193.277 156.769 193.659 157.29 194.113 157.744L196.713 160.348C197.574 161.209 198.664 161.805 199.852 162.066C201.04 162.328 202.279 162.244 203.421 161.824C204.653 163.608 205.885 165.355 207.172 167.083C209.987 170.873 212.938 174.527 215.969 178.089C217.503 179.86 219.049 181.632 220.613 183.354C222.178 185.076 223.767 186.798 225.375 188.49C226.983 190.181 228.597 191.872 230.303 193.471C231.284 194.263 232.442 194.804 233.679 195.045C235.384 195.368 237.14 195.3 238.816 194.848C240.558 194.421 242.15 193.524 243.418 192.254C244.687 190.983 245.584 189.389 246.011 187.644C246.461 185.962 246.526 184.2 246.202 182.49ZM95.319 145.707C85.262 135.634 78.4121 122.799 75.6356 108.824C72.859 94.8499 74.2807 80.3643 79.7206 67.1996C85.1606 54.035 94.3746 42.7826 106.197 34.8658C118.02 26.949 131.92 22.7233 146.139 22.7233C160.358 22.7233 174.258 26.949 186.081 34.8658C197.903 42.7826 207.117 54.035 212.557 67.1996C217.997 80.3643 219.419 94.8499 216.642 108.824C213.866 122.799 207.016 135.634 196.959 145.707C183.479 159.21 165.199 166.796 146.139 166.796C127.079 166.796 108.799 159.21 95.319 145.707Z" fill="#373C3F"/>
        <path opacity="0.3" d="M203.42 161.824L213.042 152.176C213.042 152.176 210.485 159.521 203.42 161.824Z" fill="black"/>
        <path d="M218.223 62.9948C217.305 60.8899 216.282 58.8036 215.186 56.8221L215.765 56.5073C216.868 58.532 217.903 60.6307 218.845 62.7541L218.223 62.9948ZM212.519 52.279C209.455 47.4696 205.878 43.0092 201.85 38.9769L202.318 38.5078C206.378 42.5765 209.985 47.0762 213.073 51.9272L212.519 52.279Z" fill="url(#paint6_linear_1947_18816)"/>
        <path opacity="0.2" d="M218.223 62.9948C217.305 60.8899 216.282 58.8036 215.186 56.8221L215.765 56.5073C216.868 58.532 217.903 60.6307 218.845 62.7541L218.223 62.9948ZM212.519 52.279C209.455 47.4696 205.878 43.0092 201.85 38.9769L202.318 38.5078C206.378 42.5765 209.985 47.0762 213.073 51.9272L212.519 52.279Z" fill="black"/>
    </g>
    <defs>
        <linearGradient id="paint0_linear_1947_18816" x1="161.916" y1="61.2254" x2="183.248" y2="61.2254" gradientUnits="userSpaceOnUse">
            <stop stop-color="#59CBFF"/>
            <stop offset="1" stop-color="#009FE7"/>
        </linearGradient>
        <linearGradient id="paint1_linear_1947_18816" x1="101.301" y1="129.221" x2="186.133" y2="129.221" gradientUnits="userSpaceOnUse">
            <stop stop-color="#59CBFF"/>
            <stop offset="1" stop-color="#009FE7"/>
        </linearGradient>
        <linearGradient id="paint2_linear_1947_18816" x1="104.996" y1="87.9931" x2="190.725" y2="87.9931" gradientUnits="userSpaceOnUse">
            <stop stop-color="#59CBFF"/>
            <stop offset="1" stop-color="#009FE7"/>
        </linearGradient>
        <linearGradient id="paint3_linear_1947_18816" x1="107.256" y1="61.8356" x2="130.499" y2="61.8356" gradientUnits="userSpaceOnUse">
            <stop stop-color="#59CBFF"/>
            <stop offset="1" stop-color="#009FE7"/>
        </linearGradient>
        <linearGradient id="paint4_linear_1947_18816" x1="109.055" y1="76.3416" x2="123.699" y2="76.3416" gradientUnits="userSpaceOnUse">
            <stop stop-color="#59CBFF"/>
            <stop offset="1" stop-color="#009FE7"/>
        </linearGradient>
        <linearGradient id="paint5_linear_1947_18816" x1="69.0215" y1="106.373" x2="246.405" y2="106.373" gradientUnits="userSpaceOnUse">
            <stop stop-color="#59CBFF"/>
            <stop offset="1" stop-color="#009FE7"/>
        </linearGradient>
        <linearGradient id="paint6_linear_1947_18816" x1="201.85" y1="50.7513" x2="218.845" y2="50.7513" gradientUnits="userSpaceOnUse">
            <stop stop-color="#59CBFF"/>
            <stop offset="1" stop-color="#009FE7"/>
        </linearGradient>
        <clipPath id="clip0_1947_18816">
            <rect width="308" height="230" fill="white"/>
        </clipPath>
    </defs>
</svg>
