<svg width="19" height="18" viewBox="0 0 19 18" fill="none" xmlns="http://www.w3.org/2000/svg">
<path d="M18.5725 13.0643C18.5507 13.0182 18.5304 12.9799 18.5115 12.9493C18.1992 12.3972 17.6024 11.7196 16.7215 10.9162L16.7029 10.8978L16.6936 10.8888L16.6841 10.8796H16.6747C16.2749 10.5055 16.0217 10.254 15.9157 10.1252C15.7217 9.87986 15.6782 9.63156 15.7842 9.37996C15.8591 9.18987 16.1405 8.78843 16.6277 8.17508C16.884 7.85003 17.0869 7.58951 17.2368 7.39323C18.3178 5.98271 18.7864 5.08136 18.6427 4.68884L18.5868 4.59711C18.5493 4.54189 18.4525 4.49137 18.2964 4.4453C18.1401 4.39932 17.9402 4.39172 17.6965 4.42236L14.9974 4.44066C14.9537 4.42545 14.8913 4.42687 14.8099 4.4453C14.7287 4.46373 14.6881 4.47298 14.6881 4.47298L14.6411 4.49601L14.6038 4.52369C14.5726 4.54199 14.5382 4.57417 14.5007 4.62018C14.4633 4.66603 14.4321 4.71983 14.4072 4.78115C14.1133 5.52317 13.7792 6.21307 13.4043 6.8508C13.1731 7.23108 12.9608 7.56064 12.7669 7.83969C12.5732 8.11864 12.4108 8.32416 12.2797 8.4559C12.1484 8.58777 12.0299 8.69342 11.9235 8.77322C11.8172 8.85306 11.7361 8.88679 11.6799 8.87445C11.6236 8.86211 11.5706 8.84987 11.5204 8.83763C11.433 8.7824 11.3627 8.7073 11.3097 8.61226C11.2565 8.51721 11.2206 8.39758 11.2019 8.25347C11.1832 8.10926 11.1722 7.98522 11.169 7.88093C11.1661 7.77676 11.1675 7.62943 11.1738 7.43934C11.1803 7.24915 11.1832 7.12047 11.1832 7.05301C11.1832 6.81994 11.1879 6.56699 11.1971 6.2941C11.2066 6.02121 11.2142 5.80499 11.2206 5.6457C11.227 5.48625 11.23 5.31755 11.23 5.13971C11.23 4.96186 11.2189 4.82239 11.1971 4.72115C11.1756 4.62005 11.1426 4.52192 11.099 4.42677C11.0552 4.33173 10.991 4.25821 10.9069 4.20601C10.8225 4.15388 10.7177 4.11251 10.5929 4.08178C10.2618 4.00822 9.84005 3.96843 9.32762 3.96225C8.16557 3.95 7.4189 4.02365 7.08776 4.1831C6.95655 4.25047 6.83783 4.34252 6.73167 4.45896C6.61918 4.59392 6.60349 4.66758 6.6847 4.67969C7.05963 4.73482 7.32505 4.86669 7.48127 5.07517L7.53756 5.18565C7.58135 5.26536 7.62507 5.40648 7.66883 5.60881C7.71252 5.81114 7.74072 6.03496 7.75312 6.28015C7.78431 6.72789 7.78431 7.11116 7.75312 7.43C7.72184 7.74896 7.6923 7.99727 7.6641 8.17512C7.6359 8.35296 7.59376 8.49708 7.53756 8.60742C7.48127 8.7178 7.44381 8.78527 7.42504 8.80976C7.40629 8.83424 7.39067 8.84968 7.37826 8.85573C7.29705 8.88628 7.21259 8.90184 7.12518 8.90184C7.03763 8.90184 6.93148 8.85886 6.80654 8.77296C6.68164 8.68707 6.55202 8.56908 6.41766 8.41882C6.28331 8.26852 6.13179 8.05848 5.96303 7.78869C5.79441 7.51889 5.61945 7.20002 5.43826 6.83208L5.28835 6.56525C5.19463 6.39359 5.06661 6.14364 4.90416 5.81562C4.74161 5.48747 4.59793 5.17006 4.47303 4.86343C4.42311 4.73465 4.3481 4.63661 4.24815 4.56915L4.20124 4.54147C4.17006 4.51699 4.12 4.49099 4.05133 4.46328C3.98256 4.4356 3.9108 4.41575 3.83576 4.40354L1.26788 4.42184C1.00548 4.42184 0.827434 4.48019 0.733685 4.59673L0.696166 4.65185C0.677422 4.68256 0.667969 4.73159 0.667969 4.79909C0.667969 4.86656 0.686712 4.94936 0.724231 5.0474C1.09909 5.91215 1.50675 6.74612 1.9472 7.54946C2.38765 8.3528 2.77039 8.99991 3.0952 9.49021C3.42007 9.98087 3.75121 10.4439 4.08862 10.8792C4.42603 11.3147 4.64937 11.5937 4.75865 11.7163C4.86805 11.8391 4.95399 11.9309 5.01645 11.9922L5.25079 12.213C5.40074 12.3602 5.62093 12.5365 5.91147 12.7419C6.20207 12.9474 6.52379 13.1497 6.87679 13.3492C7.22986 13.5483 7.6406 13.7108 8.10924 13.8365C8.57782 13.9623 9.0339 14.0128 9.47753 13.9885H10.5553C10.7739 13.9699 10.9395 13.9025 11.0521 13.786L11.0893 13.7399C11.1144 13.7033 11.1379 13.6465 11.1596 13.57C11.1815 13.4933 11.1924 13.4089 11.1924 13.317C11.186 13.0534 11.2064 12.8158 11.2532 12.6042C11.2999 12.3927 11.3531 12.2333 11.4127 12.1259C11.4722 12.0186 11.5393 11.9281 11.6141 11.8547C11.689 11.7811 11.7424 11.7366 11.7737 11.7212C11.8048 11.7058 11.8297 11.6953 11.8484 11.689C11.9983 11.64 12.1748 11.6875 12.3781 11.8317C12.5812 11.9758 12.7716 12.1538 12.9498 12.3653C13.1279 12.5769 13.3418 12.8144 13.5917 13.0781C13.8417 13.3418 14.0604 13.5379 14.2477 13.6668L14.4351 13.7772C14.5602 13.8509 14.7227 13.9183 14.9226 13.9796C15.1222 14.0409 15.2971 14.0563 15.4473 14.0256L17.8464 13.9889C18.0837 13.9889 18.2683 13.9503 18.3993 13.8738C18.5306 13.7972 18.6085 13.7127 18.6337 13.6209C18.6587 13.5289 18.6601 13.4246 18.6384 13.308C18.6162 13.1916 18.5943 13.1103 18.5725 13.0643Z" fill="white"/>
</svg>
