<svg width="92" height="72" viewBox="0 0 92 72" fill="none" xmlns="http://www.w3.org/2000/svg">
<path d="M23.2423 71.9437C23.2742 72.7834 24.0074 79.7051 24.6803 80.4107C25.3533 81.1162 28.1656 82.2945 30.2907 82.612C33.1242 83.0283 36.9389 81.9664 38.4371 80.8481C39.9353 79.7298 40.8279 71.6756 40.4064 71.3228C39.9849 70.97 35.3875 68.6875 32.0263 68.6875C28.077 68.6875 23.214 71.1852 23.2423 71.9437Z" fill="#37474F"/>
<path d="M45.4062 50.9759C45.4599 50.6855 45.41 50.3855 45.2651 50.1278C45.1202 49.8701 44.8895 49.671 44.6128 49.5648C40.49 48.1536 35.3401 47.3387 32.0816 47.3281H32.0249C28.7628 47.3281 23.6093 48.1395 19.4901 49.5648C19.2123 49.6698 18.9804 49.8685 18.8347 50.1264C18.6891 50.3844 18.639 50.685 18.6931 50.9759C19.3165 54.7966 19.8691 68.0227 22.9718 73.9248C24.6896 77.2022 31.398 77.2199 32.0249 77.2093H32.0674C32.6943 77.2093 39.3956 77.2093 41.1205 73.9248C44.2338 68.0227 44.7828 54.7966 45.4062 50.9759Z" fill="#009FE7"/>
<path opacity="0.1" d="M25.6875 48.1328L25.8717 51.6783L26.0275 55.2238L26.3038 62.3149L26.5163 69.4095L26.6049 72.955L26.6615 76.504L26.4773 72.962L26.318 69.4165L26.0452 62.3219L25.8292 55.2309L25.7442 51.6819L25.6875 48.1328Z" fill="#373C3F"/>
<path opacity="0.1" d="M24.6645 50.2698C24.6872 50.3946 24.6738 50.5232 24.626 50.6407C24.5781 50.7582 24.4978 50.8598 24.3944 50.9337C24.2909 51.0076 24.1685 51.0507 24.0414 51.0581C23.9143 51.0655 23.7877 51.0368 23.6763 50.9754C23.594 50.9266 23.5228 50.8613 23.4673 50.7835C23.4118 50.7057 23.3732 50.6173 23.354 50.5238C23.3308 50.4359 23.3259 50.3441 23.3396 50.2543C23.3533 50.1644 23.3853 50.0782 23.4336 50.0011C23.482 49.924 23.5456 49.8576 23.6207 49.8059C23.6958 49.7542 23.7807 49.7183 23.8702 49.7004C23.9597 49.6826 24.0519 49.6832 24.1411 49.7022C24.2304 49.7212 24.3148 49.7581 24.3892 49.8108C24.4636 49.8634 24.5264 49.9307 24.5738 50.0084C24.6211 50.0861 24.652 50.1727 24.6645 50.2627V50.2698ZM24.6645 50.2698C24.6467 50.1956 24.6135 50.1259 24.5672 50.0652C24.5208 50.0045 24.4623 49.954 24.3953 49.917C24.3212 49.8769 24.2388 49.8546 24.1545 49.8519C24.0702 49.8492 23.9865 49.8661 23.9099 49.9012C23.8334 49.9364 23.7661 49.9889 23.7135 50.0545C23.6608 50.1201 23.6243 50.197 23.6068 50.2792C23.5892 50.3613 23.5912 50.4464 23.6125 50.5277C23.6338 50.6089 23.6738 50.6841 23.7294 50.7473C23.785 50.8104 23.8546 50.8597 23.9327 50.8914C24.0108 50.923 24.0952 50.9361 24.1793 50.9295C24.2529 50.922 24.3243 50.9001 24.3894 50.865C24.4544 50.8299 24.5118 50.7822 24.5583 50.7249C24.6086 50.6615 24.6443 50.5879 24.6627 50.5092C24.681 50.4305 24.6817 50.3487 24.6645 50.2698Z" fill="#373C3F"/>
<path opacity="0.1" d="M24.9116 54.5162C24.9445 54.6789 24.9156 54.848 24.8306 54.9907C24.7455 55.1334 24.6103 55.2396 24.4511 55.2888C24.2741 55.3377 24.0848 55.3162 23.9234 55.2288C23.8411 55.1808 23.7699 55.1161 23.7144 55.0389C23.6589 54.9617 23.6203 54.8738 23.6011 54.7807C23.5841 54.6871 23.5864 54.591 23.6077 54.4983C23.629 54.4055 23.6689 54.318 23.725 54.241C23.7811 54.1692 23.851 54.1095 23.9308 54.0652C24.0105 54.021 24.0983 53.9932 24.189 53.9834C24.3542 53.9679 24.5194 54.0137 24.6527 54.112C24.7861 54.2103 24.8783 54.3543 24.9116 54.5162ZM24.9116 54.5162C24.8941 54.4418 24.8611 54.372 24.8147 54.3112C24.7684 54.2504 24.7096 54.2 24.6424 54.1634C24.5774 54.1281 24.506 54.1062 24.4324 54.0989C24.3588 54.0916 24.2845 54.0992 24.2138 54.121C24.1341 54.1478 24.0618 54.1927 24.0025 54.2521C23.9432 54.3116 23.8986 54.384 23.8723 54.4635C23.846 54.5431 23.8386 54.6277 23.8507 54.7106C23.8629 54.7935 23.8943 54.8724 23.9424 54.9412C23.9905 55.0099 24.054 55.0666 24.1279 55.1066C24.2018 55.1467 24.284 55.169 24.3681 55.1719C24.4522 55.1749 24.5358 55.1582 24.6123 55.1234C24.6888 55.0886 24.7561 55.0365 24.8089 54.9713C24.8574 54.907 24.8916 54.8331 24.9093 54.7547C24.927 54.6762 24.9278 54.5949 24.9116 54.5162Z" fill="#373C3F"/>
<path opacity="0.1" d="M25.0654 59.0272C25.0983 59.1899 25.0694 59.359 24.9844 59.5017C24.8993 59.6445 24.7641 59.7507 24.605 59.7998C24.4279 59.8488 24.2387 59.8273 24.0772 59.7399C23.9947 59.6918 23.9234 59.6269 23.8679 59.5494C23.8124 59.472 23.7741 59.3836 23.7553 59.2903C23.7366 59.197 23.7379 59.1008 23.7592 59.008C23.7805 58.9152 23.8213 58.828 23.8789 58.7521C23.9572 58.6507 24.0632 58.574 24.1842 58.531C24.3051 58.488 24.4359 58.4805 24.561 58.5096C24.6861 58.5386 24.8001 58.6028 24.8895 58.6946C24.979 58.7864 25.04 58.9018 25.0654 59.0272ZM25.0654 59.0272C25.0482 58.9528 25.0152 58.8829 24.9688 58.8221C24.9224 58.7612 24.8636 58.7109 24.7962 58.6744C24.731 58.6397 24.6595 58.6184 24.5859 58.6118C24.5123 58.6051 24.4381 58.6132 24.3677 58.6356C24.2868 58.6613 24.2132 58.7055 24.1526 58.7647C24.092 58.8239 24.0463 58.8964 24.019 58.9764C23.9918 59.0565 23.9837 59.1418 23.9956 59.2254C24.0075 59.3091 24.0389 59.3888 24.0874 59.4582C24.1358 59.5276 24.2 59.5846 24.2746 59.6248C24.3493 59.665 24.4323 59.6871 24.5172 59.6895C24.602 59.6918 24.6861 59.6743 24.7629 59.6383C24.8397 59.6023 24.9069 59.5489 24.9591 59.4823C25.0095 59.419 25.0452 59.3453 25.0635 59.2666C25.0819 59.188 25.0826 59.1062 25.0654 59.0272Z" fill="#373C3F"/>
<path opacity="0.1" d="M25.2213 63.5409C25.2455 63.666 25.2331 63.7954 25.1858 63.9137C25.1384 64.0321 25.0579 64.1345 24.954 64.2087C24.85 64.2829 24.7269 64.3259 24.5991 64.3326C24.4714 64.3393 24.3444 64.3094 24.2331 64.2464C24.1355 64.1912 24.0534 64.1123 23.9944 64.0171C23.9354 63.9219 23.9014 63.8135 23.8955 63.7018C23.8896 63.5901 23.912 63.4787 23.9606 63.3778C24.0093 63.277 24.0827 63.19 24.1739 63.1249C24.2652 63.0597 24.3715 63.0184 24.483 63.0049C24.5945 62.9914 24.7076 63.006 24.8119 63.0474C24.9162 63.0889 25.0084 63.1558 25.08 63.242C25.1515 63.3282 25.2001 63.431 25.2213 63.5409ZM25.2213 63.5409C25.2027 63.467 25.1692 63.3977 25.123 63.3371C25.0767 63.2764 25.0186 63.2258 24.9521 63.1881C24.8872 63.1528 24.8158 63.1309 24.7422 63.1236C24.6686 63.1163 24.5942 63.1238 24.5236 63.1457C24.3987 63.1885 24.2939 63.2752 24.2287 63.3895C24.1634 63.5038 24.1424 63.6379 24.1694 63.7666C24.1894 63.8669 24.2378 63.9594 24.3089 64.0332C24.38 64.107 24.4707 64.159 24.5705 64.1831C24.6703 64.2072 24.7749 64.2024 24.872 64.1692C24.9691 64.1361 25.0547 64.076 25.1186 63.9959C25.1677 63.932 25.2023 63.8582 25.2201 63.7796C25.2378 63.7011 25.2382 63.6196 25.2213 63.5409Z" fill="#373C3F"/>
<path opacity="0.1" d="M25.3782 68.0516C25.4111 68.2143 25.3823 68.3834 25.2972 68.5261C25.2121 68.6688 25.0769 68.7751 24.9178 68.8242C24.7407 68.8732 24.5515 68.8517 24.39 68.7642C24.3078 68.7162 24.2366 68.6515 24.181 68.5743C24.1255 68.4972 24.0869 68.4092 24.0677 68.3162C24.0452 68.2286 24.0409 68.1374 24.0549 68.0481C24.0689 67.9589 24.101 67.8733 24.1492 67.7968C24.1975 67.7202 24.2608 67.6542 24.3354 67.6028C24.41 67.5514 24.4944 67.5156 24.5833 67.4977C24.6722 67.4797 24.7639 67.4799 24.8527 67.4984C24.9416 67.5168 25.0257 67.553 25.1 67.6048C25.1744 67.6566 25.2374 67.7229 25.2852 67.7997C25.333 67.8766 25.3647 67.9622 25.3782 68.0516ZM25.3782 68.0516C25.3387 67.9033 25.2419 67.7765 25.109 67.6988C25.0438 67.6641 24.9723 67.6428 24.8987 67.6362C24.8251 67.6295 24.7509 67.6376 24.6805 67.66C24.5419 67.6904 24.4208 67.7738 24.3433 67.8921C24.2658 68.0105 24.2379 68.1544 24.2657 68.293C24.2936 68.4316 24.3748 68.5537 24.4921 68.6333C24.6094 68.7128 24.7533 68.7434 24.893 68.7184C24.967 68.7125 25.039 68.6913 25.1042 68.6561C25.1695 68.6208 25.2266 68.5724 25.272 68.5138C25.3227 68.4492 25.3585 68.3744 25.3769 68.2945C25.3952 68.2146 25.3957 68.1317 25.3782 68.0516Z" fill="#373C3F"/>
<path d="M31.1178 68.1037C34.7093 68.5306 38.4708 66.5444 38.91 62.0534C39.42 56.8674 36.5475 54.1827 32.5841 53.6288C29.9383 53.276 25.812 54.8777 25.2028 59.8061C24.498 65.5707 28.7518 67.8215 31.1178 68.1037Z" fill="#009FE7"/>
<g opacity="0.1">
<path d="M31.1178 68.1037C34.7093 68.5306 38.4708 66.5444 38.91 62.0534C39.42 56.8674 36.5475 54.1827 32.5841 53.6288C29.9383 53.276 25.812 54.8777 25.2028 59.8061C24.498 65.5707 28.7518 67.8215 31.1178 68.1037Z" fill="#373C3F"/>
</g>
<path d="M31.1678 67.4052C34.522 67.8039 38.0285 65.9517 38.4429 61.7606C38.9175 56.9239 36.2363 54.4156 32.5386 53.9005C30.0592 53.5477 26.2198 55.0647 25.6531 59.6651C24.9837 65.0451 28.9577 67.1406 31.1678 67.4052Z" fill="#009FE7"/>
<g opacity="0.1">
<path d="M31.7859 66.7243C36.0362 66.3927 37.7469 62.4344 36.6525 58.656C36.0007 56.0277 33.5002 54.6378 30.8898 55.1493C28.3502 55.7455 26.7882 58.2785 26.7776 60.7939C26.6111 63.8737 28.46 66.749 31.7859 66.7207V66.7243ZM31.7859 66.7243C28.4671 66.8054 26.5226 63.8702 26.597 60.7974C26.4978 57.7599 28.6973 54.6624 31.9488 54.7048C33.0974 54.675 34.2201 55.0469 35.1221 55.7558C36.024 56.4647 36.6482 57.4659 36.8862 58.5855C37.8886 62.4026 36.0574 66.4491 31.7859 66.7172V66.7243Z" fill="#373C3F"/>
</g>
<path d="M31.7886 66.4994C34.392 66.3724 36.9138 64.3509 36.8607 60.816C36.7969 56.7342 34.523 55.0232 31.647 55.1043C29.7237 55.1572 26.9114 56.9388 26.8831 60.8336C26.8477 65.3916 30.0744 66.5876 31.7886 66.4994Z" fill="#009FE7"/>
<g opacity="0.2">
<path d="M31.8023 65.5988C33.9948 65.4895 36.1164 63.789 36.0703 60.8185C36.0172 57.3824 34.1046 55.943 31.6854 56.01C30.0668 56.0559 27.6973 57.5552 27.676 60.8327C27.6477 64.6675 30.3608 65.6729 31.8023 65.5988Z" fill="white"/>
</g>
<path d="M25.9141 43.0284C25.9354 43.6246 26.456 48.5424 26.9377 49.0258C27.4194 49.5091 29.4171 50.3628 30.9259 50.5886C32.9271 50.885 35.6508 50.13 36.7099 49.3256C37.7689 48.5213 38.41 42.8132 38.1266 42.5521C37.8433 42.291 34.5635 40.707 32.1727 40.707C29.3498 40.7247 25.8964 42.4886 25.9141 43.0284Z" fill="#37474F"/>
<path d="M26.793 48.5781C27.543 48.9571 28.3181 49.2848 29.1129 49.5589C29.9061 49.8548 30.7453 50.01 31.5923 50.0175C32.4292 49.991 33.2607 49.8727 34.0716 49.6647C34.8891 49.4667 35.6945 49.2217 36.4836 48.9309C35.7027 49.2461 34.9002 49.5054 34.0822 49.7071C33.2643 49.916 32.4257 50.0344 31.5816 50.0598C30.7333 50.0433 29.8943 49.8797 29.1023 49.5765C28.3059 49.3084 27.5335 48.9744 26.793 48.5781Z" fill="#373C3F"/>
<path d="M26.6797 47.9297C27.4618 48.326 28.27 48.669 29.0988 48.9563C29.9213 49.2596 30.7897 49.4206 31.6667 49.4326C32.5425 49.4102 33.4131 49.2919 34.2629 49.0798C35.1151 48.8711 35.9547 48.6143 36.7777 48.3107C35.9638 48.6413 35.1269 48.9125 34.2735 49.1221C33.4213 49.344 32.547 49.4718 31.6667 49.5031C30.7837 49.4837 29.9104 49.3143 29.0846 49.0022C28.2551 48.7102 27.4508 48.3516 26.6797 47.9297Z" fill="#373C3F"/>
<path d="M26.5859 47.3203C27.3961 47.7308 28.234 48.0844 29.0936 48.3787C29.9443 48.6931 30.8428 48.8602 31.75 48.8726C32.6582 48.8477 33.561 48.7235 34.4419 48.5022C35.3236 48.2853 36.1927 48.0203 37.0452 47.7084C36.2015 48.0467 35.3352 48.3261 34.4525 48.5445C33.569 48.7745 32.6627 48.907 31.75 48.9396C30.8367 48.9198 29.9334 48.7444 29.0794 48.421C28.2198 48.1217 27.3859 47.7536 26.5859 47.3203Z" fill="#373C3F"/>
<path d="M26.668 46.7656C27.4784 47.1755 28.3163 47.5291 29.1756 47.824C30.0263 48.1384 30.9248 48.3055 31.8321 48.3179C32.7396 48.2988 33.6423 48.1805 34.5239 47.9651C35.4063 47.7491 36.2755 47.4829 37.1272 47.1678C36.2842 47.5089 35.4178 47.7895 34.5345 48.0074C33.6507 48.236 32.7446 48.3685 31.8321 48.4026C30.9187 48.3828 30.0154 48.2074 29.1615 47.884C28.3013 47.579 27.4674 47.205 26.668 46.7656Z" fill="#373C3F"/>
<path d="M26.5781 46.1094C27.4162 46.5346 28.2824 46.9024 29.1708 47.2101C30.0516 47.5375 30.9827 47.7106 31.9229 47.7216C32.8624 47.6976 33.7962 47.5686 34.7068 47.3371C35.6219 47.1161 36.5231 46.8417 37.4057 46.5151C36.5311 46.8666 35.6328 47.1566 34.7174 47.3829C33.8038 47.6205 32.8666 47.7565 31.9229 47.7886C30.9765 47.7719 30.0403 47.5904 29.1566 47.2524C28.2676 46.9412 27.4053 46.559 26.5781 46.1094Z" fill="#373C3F"/>
<path d="M26.4297 45.4023C27.2903 45.8405 28.1802 46.2189 29.0932 46.5348C29.9998 46.8728 30.9587 47.0507 31.9267 47.0604C32.8926 47.0364 33.8526 46.9039 34.7886 46.6653C35.7272 46.4368 36.6519 46.1553 37.5584 45.8222C36.6604 46.1818 35.7385 46.4788 34.7992 46.7112C33.8602 46.9557 32.8968 47.0953 31.9267 47.1275C30.9574 47.1086 29.9987 46.9224 29.0932 46.5771C28.1745 46.2591 27.2836 45.8661 26.4297 45.4023Z" fill="#373C3F"/>
<path d="M26.3125 44.7344C27.2066 45.1893 28.1308 45.583 29.0787 45.9127C30.0187 46.2612 31.0121 46.445 32.015 46.456C33.0178 46.4309 34.0146 46.2937 34.9866 46.0467C35.9612 45.8123 36.9204 45.519 37.8591 45.1683C36.9283 45.5434 35.9719 45.8522 34.9973 46.0926C34.0221 46.345 33.0219 46.4893 32.015 46.523C31.0056 46.5051 30.0071 46.3117 29.0646 45.9515C28.115 45.6223 27.1945 45.2152 26.3125 44.7344Z" fill="#373C3F"/>
<path d="M26.1562 44.0859C27.0709 44.5553 28.0178 44.9597 28.9898 45.296C29.9551 45.6571 30.9764 45.847 32.0075 45.8569C33.0365 45.8299 34.0593 45.6891 35.0571 45.4371C36.0582 45.1924 37.0444 44.8908 38.011 44.534C37.0535 44.9177 36.0699 45.2337 35.0677 45.4794C34.0676 45.7417 33.0411 45.8908 32.0075 45.924C30.9704 45.9051 29.9445 45.707 28.9756 45.3383C28.003 44.9985 27.06 44.5796 26.1562 44.0859Z" fill="#373C3F"/>
<path d="M56.1523 43.9346C56.1523 43.8605 57.6718 43.5818 59.1134 43.3596C59.8691 43.2345 60.5661 42.8754 61.1053 42.3333C61.6445 41.7912 61.9985 41.0936 62.1169 40.3397L64.072 27.8016C64.1976 26.9908 64.0431 26.1615 63.6339 25.4495C63.2246 24.7375 62.5849 24.1849 61.8194 23.8822L57.81 22.2734L56.1523 43.9346Z" fill="#009FE7"/>
<g opacity="0.2">
<path d="M56.1523 43.9346C56.1523 43.8605 57.6718 43.5818 59.1134 43.3596C59.8691 43.2345 60.5661 42.8754 61.1053 42.3333C61.6445 41.7912 61.9985 41.0936 62.1169 40.3397L64.072 27.8016C64.1976 26.9908 64.0431 26.1615 63.6339 25.4495C63.2246 24.7375 62.5849 24.1849 61.8194 23.8822L57.81 22.2734L56.1523 43.9346Z" fill="#373C3F"/>
</g>
<path d="M8.5361 43.5125C8.5361 43.4384 7.00953 43.2267 5.55735 43.0398C4.79714 42.9411 4.0876 42.6059 3.52984 42.0821C2.97208 41.5582 2.59457 40.8723 2.4511 40.1222L0.0638504 27.6582C-0.0894092 26.8542 0.0351126 26.0222 0.417139 25.2977C0.799165 24.5732 1.41619 23.9988 2.16774 23.6682L6.12051 21.9219L8.5361 43.5125Z" fill="#009FE7"/>
<g opacity="0.2">
<path d="M8.5361 43.5125C8.5361 43.4384 7.00953 43.2267 5.55735 43.0398C4.79714 42.9411 4.0876 42.6059 3.52984 42.0821C2.97208 41.5582 2.59457 40.8723 2.4511 40.1222L0.0638504 27.6582C-0.0894092 26.8542 0.0351126 26.0222 0.417139 25.2977C0.799165 24.5732 1.41619 23.9988 2.16774 23.6682L6.12051 21.9219L8.5361 43.5125Z" fill="#373C3F"/>
</g>
<path d="M56.2586 47.0134C56.2586 47.0134 59.1594 31.1838 59.5845 6.39342C59.5845 6.39342 29.5562 1.72957 5.03906 6.1112C5.03906 6.1112 6.14059 37.467 8.19136 46.2479C8.19844 46.2479 33.261 47.5567 56.2586 47.0134Z" fill="#009FE7"/>
<path opacity="0.1" d="M30.8727 4.25781C30.8727 7.7998 30.8881 11.3418 30.9188 14.8838L31.0286 25.5062L31.149 25.3757L19.0569 26.2541L13.0109 26.7057L6.96484 27.1996L13.018 26.8468L19.0711 26.4588L31.1667 25.6474H31.2907V25.5274L31.1136 14.9014C31.0427 11.3453 30.9625 7.79745 30.8727 4.25781Z" fill="#373C3F"/>
<path opacity="0.1" d="M32.5498 5.85203C32.6455 5.85809 32.7388 5.88411 32.8236 5.9284C32.9085 5.97268 32.9831 6.03425 33.0425 6.10909C33.102 6.18394 33.145 6.2704 33.1687 6.36286C33.1924 6.45532 33.1964 6.55172 33.1803 6.6458C33.1639 6.74175 33.1277 6.83328 33.0741 6.91464C33.0205 6.99599 32.9505 7.06542 32.8686 7.11854C32.7887 7.16677 32.7 7.19877 32.6076 7.21269C32.5152 7.22662 32.4209 7.22219 32.3303 7.19968C32.1687 7.15252 32.03 7.04821 31.9402 6.90634C31.8504 6.76447 31.8157 6.59483 31.8427 6.42929C31.8697 6.26376 31.9564 6.11374 32.0867 6.00743C32.2169 5.90113 32.3816 5.84586 32.5498 5.85203ZM31.9548 6.87512C32.0044 6.93243 32.0651 6.97916 32.1333 7.01251C32.2014 7.04585 32.2757 7.06512 32.3515 7.06915C32.4881 7.07581 32.6223 7.03212 32.7286 6.94645C32.8348 6.86077 32.9057 6.7391 32.9276 6.60468C32.9495 6.47027 32.9209 6.33252 32.8473 6.21776C32.7737 6.103 32.6603 6.01927 32.5286 5.98256C32.4553 5.96212 32.3787 5.95659 32.3032 5.96628C32.2278 5.97598 32.1551 6.00071 32.0894 6.039C32.0219 6.08264 31.9642 6.13959 31.9197 6.20634C31.8752 6.27309 31.845 6.34821 31.8308 6.42707C31.8186 6.50624 31.8234 6.58709 31.8447 6.6643C31.8661 6.74152 31.9036 6.81336 31.9548 6.87512Z" fill="#373C3F"/>
<path opacity="0.1" d="M32.4671 10.22C32.5602 10.2257 32.651 10.2505 32.734 10.293C32.8169 10.3356 32.89 10.3948 32.9488 10.4669C33.0108 10.5418 33.0562 10.629 33.0818 10.7226C33.1075 10.8163 33.1128 10.9143 33.0975 11.0102C33.0828 11.1045 33.0484 11.1946 32.9965 11.2748C32.9446 11.355 32.8764 11.4234 32.7963 11.4756C32.7161 11.5278 32.6258 11.5627 32.5313 11.5779C32.4368 11.5932 32.3401 11.5885 32.2475 11.5641C32.0831 11.5201 31.941 11.4169 31.8486 11.2745C31.7563 11.132 31.7203 10.9606 31.7476 10.7932C31.775 10.6259 31.8637 10.4746 31.9966 10.3687C32.1295 10.2628 32.2972 10.2098 32.4671 10.22ZM31.8685 11.2431C31.9249 11.3085 31.9958 11.3599 32.0757 11.3932C32.1556 11.4265 32.2421 11.4408 32.3285 11.4349C32.4149 11.429 32.4987 11.4031 32.5732 11.3593C32.6478 11.3154 32.711 11.2548 32.7579 11.1823C32.8048 11.1098 32.8341 11.0274 32.8433 10.9417C32.8526 10.8559 32.8417 10.7692 32.8114 10.6884C32.781 10.6077 32.7322 10.535 32.6687 10.4764C32.6053 10.4177 32.529 10.3746 32.4458 10.3505C32.3308 10.3172 32.208 10.3217 32.0958 10.3635C31.9836 10.4053 31.8879 10.482 31.823 10.5824C31.7581 10.6827 31.7275 10.8012 31.7357 10.9202C31.7439 11.0393 31.7905 11.1525 31.8685 11.2431Z" fill="#373C3F"/>
<path opacity="0.1" d="M32.4856 14.841C32.5789 14.8483 32.6697 14.8738 32.753 14.9162C32.8363 14.9586 32.9103 15.017 32.9708 15.088C33.0316 15.1642 33.0759 15.2522 33.1009 15.3463C33.1259 15.4404 33.131 15.5386 33.1161 15.6348C33.0997 15.7308 33.0635 15.8223 33.0099 15.9036C32.9562 15.985 32.8863 16.0544 32.8044 16.1076C32.7124 16.1638 32.6085 16.1976 32.5009 16.2064C32.3934 16.2151 32.2853 16.1986 32.1854 16.158C32.0855 16.1174 31.9966 16.0539 31.9259 15.9727C31.8552 15.8915 31.8047 15.7949 31.7784 15.6907C31.7522 15.5864 31.751 15.4775 31.7749 15.3727C31.7988 15.2679 31.8471 15.1702 31.9159 15.0874C31.9848 15.0047 32.0723 14.9393 32.1712 14.8965C32.2702 14.8537 32.3779 14.8347 32.4856 14.841ZM31.887 15.8641C31.9375 15.9212 31.9989 15.9678 32.0676 16.0011C32.1363 16.0344 32.211 16.0538 32.2873 16.0582C32.4238 16.0648 32.558 16.0211 32.6643 15.9355C32.7706 15.8498 32.8414 15.7281 32.8634 15.5937C32.8853 15.4593 32.8567 15.3215 32.7831 15.2068C32.7095 15.092 32.596 15.0083 32.4644 14.9716C32.3909 14.9517 32.3141 14.9467 32.2386 14.957C32.1632 14.9673 32.0906 14.9927 32.0252 15.0315C31.9565 15.0729 31.8977 15.1288 31.853 15.1952C31.8084 15.2617 31.7788 15.3371 31.7666 15.4161C31.7537 15.495 31.7577 15.5758 31.7785 15.653C31.7992 15.7302 31.8362 15.8022 31.887 15.8641Z" fill="#373C3F"/>
<path opacity="0.1" d="M32.5057 19.47C32.6016 19.4757 32.6953 19.5014 32.7806 19.5455C32.8659 19.5895 32.941 19.6509 33.001 19.7256C33.0611 19.8004 33.1047 19.8868 33.1291 19.9794C33.1535 20.072 33.1581 20.1686 33.1427 20.2631C33.1272 20.3576 33.0921 20.4478 33.0395 20.5279C32.9869 20.6079 32.918 20.6762 32.8373 20.7281C32.7565 20.78 32.6658 20.8145 32.5708 20.8293C32.4759 20.8441 32.3789 20.839 32.2861 20.8141C32.1217 20.7701 31.9796 20.6669 31.8873 20.5245C31.7949 20.3821 31.7589 20.2106 31.7863 20.0432C31.8136 19.8759 31.9023 19.7246 32.0352 19.6187C32.1682 19.5128 32.3358 19.4598 32.5057 19.47ZM31.9107 20.4931C31.9602 20.5504 32.0209 20.5971 32.0891 20.6305C32.1573 20.6638 32.2315 20.6831 32.3074 20.6871C32.4439 20.6938 32.5781 20.6501 32.6844 20.5644C32.7907 20.4787 32.8615 20.3571 32.8834 20.2226C32.9053 20.0882 32.8768 19.9505 32.8032 19.8357C32.7296 19.721 32.6161 19.6372 32.4845 19.6005C32.4112 19.5801 32.3345 19.5745 32.2591 19.5842C32.1836 19.5939 32.1109 19.6187 32.0453 19.657C31.9774 19.7001 31.9193 19.7569 31.8748 19.8238C31.8302 19.8906 31.8002 19.966 31.7867 20.045C31.7745 20.1242 31.7792 20.205 31.8006 20.2823C31.8219 20.3595 31.8594 20.4313 31.9107 20.4931Z" fill="#373C3F"/>
<path opacity="0.1" d="M28.7762 26.2434C28.8721 26.2492 28.9658 26.2749 29.0511 26.3189C29.1364 26.363 29.2115 26.4243 29.2715 26.4991C29.3316 26.5738 29.3752 26.6603 29.3996 26.7528C29.424 26.8454 29.4286 26.9421 29.4132 27.0365C29.3978 27.131 29.3626 27.2212 29.31 27.3013C29.2574 27.3814 29.1885 27.4496 29.1078 27.5015C29.027 27.5535 28.9363 27.5879 28.8413 27.6028C28.7464 27.6176 28.6494 27.6124 28.5566 27.5875C28.3922 27.5435 28.2501 27.4403 28.1578 27.2979C28.0654 27.1555 28.0294 26.984 28.0568 26.8167C28.0841 26.6493 28.1728 26.4981 28.3057 26.3922C28.4387 26.2863 28.6063 26.2332 28.7762 26.2434ZM28.1741 27.2665C28.2308 27.3299 28.3016 27.3794 28.3807 27.4111C28.4598 27.4427 28.5453 27.4557 28.6303 27.449C28.7153 27.4422 28.7976 27.416 28.8708 27.3723C28.9439 27.3286 29.0059 27.2686 29.0519 27.1971C29.0979 27.1256 29.1266 27.0444 29.1359 26.9599C29.1451 26.8755 29.1346 26.79 29.1051 26.7103C29.0757 26.6306 29.0281 26.5587 28.9661 26.5004C28.9041 26.442 28.8294 26.3988 28.7479 26.374C28.6746 26.3535 28.598 26.348 28.5225 26.3577C28.4471 26.3674 28.3743 26.3921 28.3087 26.4304C28.2402 26.4728 28.1817 26.5293 28.1371 26.5962C28.0925 26.663 28.0628 26.7386 28.0501 26.8179C28.0373 26.8972 28.0418 26.9782 28.0632 27.0556C28.0846 27.133 28.1224 27.2049 28.1741 27.2665Z" fill="#373C3F"/>
<path opacity="0.1" d="M24.3382 26.5899C24.4773 26.596 24.6114 26.644 24.7225 26.7277C24.8336 26.8113 24.9166 26.9267 24.9604 27.0584C25.0042 27.1901 25.0069 27.3319 24.9679 27.4651C24.9289 27.5983 24.8503 27.7166 24.7423 27.8042C24.6343 27.8919 24.5021 27.9448 24.3633 27.9559C24.2245 27.967 24.0855 27.9359 23.9648 27.8665C23.8442 27.7972 23.7475 27.693 23.6877 27.5677C23.6279 27.4424 23.6077 27.302 23.6298 27.165C23.6607 27.0013 23.7488 26.8537 23.8784 26.7485C24.0081 26.6432 24.1709 26.5871 24.3382 26.5899ZM23.7396 27.613C23.7898 27.6705 23.8511 27.7172 23.9199 27.7506C23.9887 27.7839 24.0634 27.8031 24.1398 27.8071C24.2764 27.8137 24.4106 27.77 24.5169 27.6844C24.6231 27.5987 24.694 27.477 24.7159 27.3426C24.7378 27.2082 24.7092 27.0704 24.6356 26.9557C24.562 26.8409 24.4486 26.7572 24.3169 26.7205C24.2019 26.6871 24.0791 26.6917 23.9669 26.7335C23.8547 26.7753 23.759 26.852 23.6941 26.9523C23.6292 27.0526 23.5986 27.1711 23.6068 27.2902C23.615 27.4093 23.6616 27.5225 23.7396 27.613Z" fill="#373C3F"/>
<path opacity="0.1" d="M19.896 26.938C19.9895 26.944 20.0808 26.969 20.1642 27.0115C20.2477 27.054 20.3215 27.113 20.3812 27.1849C20.4426 27.2609 20.4875 27.3487 20.5131 27.4428C20.5387 27.5369 20.5445 27.6353 20.53 27.7317C20.5148 27.8261 20.48 27.9163 20.4277 27.9965C20.3755 28.0767 20.3069 28.1451 20.2265 28.1973C20.1461 28.2494 20.0556 28.2843 19.9608 28.2995C19.8661 28.3147 19.7692 28.31 19.6764 28.2856C19.5148 28.2385 19.3761 28.1341 19.2863 27.9923C19.1965 27.8504 19.1619 27.6808 19.1888 27.5152C19.2158 27.3497 19.3026 27.1997 19.4328 27.0934C19.563 26.9871 19.7277 26.9318 19.896 26.938ZM19.3009 27.9611C19.3573 28.0269 19.4284 28.0786 19.5084 28.1122C19.5885 28.1457 19.6753 28.1601 19.762 28.1542C19.8486 28.1483 19.9327 28.1223 20.0075 28.0782C20.0822 28.0341 20.1455 27.9732 20.1924 27.9003C20.2392 27.8275 20.2682 27.7447 20.2772 27.6586C20.2861 27.5726 20.2747 27.4856 20.2438 27.4048C20.2129 27.3239 20.1635 27.2514 20.0994 27.193C20.0353 27.1346 19.9583 27.0919 19.8747 27.0685C19.7599 27.0363 19.6378 27.0417 19.5264 27.084C19.4149 27.1262 19.32 27.203 19.2557 27.303C19.1914 27.403 19.1611 27.521 19.1693 27.6394C19.1774 27.7579 19.2236 27.8707 19.3009 27.9611Z" fill="#373C3F"/>
<path opacity="0.1" d="M15.4578 27.2903C15.5537 27.296 15.6474 27.3218 15.7327 27.3658C15.818 27.4098 15.8931 27.4712 15.9531 27.5459C16.0132 27.6207 16.0568 27.7071 16.0812 27.7997C16.1056 27.8923 16.1102 27.9889 16.0948 28.0834C16.0793 28.1779 16.0442 28.2681 15.9916 28.3482C15.939 28.4283 15.8701 28.4965 15.7894 28.5484C15.7086 28.6003 15.6179 28.6348 15.5229 28.6496C15.428 28.6644 15.331 28.6593 15.2382 28.6344C15.0738 28.5904 14.9317 28.4872 14.8394 28.3448C14.747 28.2024 14.711 28.0309 14.7384 27.8635C14.7657 27.6962 14.8544 27.5449 14.9873 27.439C15.1202 27.3331 15.2879 27.2801 15.4578 27.2903ZM14.8628 28.3134C14.9123 28.3707 14.973 28.4174 15.0412 28.4508C15.1094 28.4841 15.1836 28.5034 15.2595 28.5074C15.4055 28.5289 15.5542 28.4918 15.6728 28.4041C15.7913 28.3164 15.8701 28.1855 15.8917 28.04C15.9133 27.8945 15.876 27.7464 15.788 27.6283C15.7 27.5102 15.5685 27.4318 15.4224 27.4102C15.3491 27.3898 15.2725 27.3843 15.197 27.394C15.1216 27.4037 15.0488 27.4284 14.9832 27.4667C14.9153 27.5098 14.8572 27.5666 14.8127 27.6335C14.7682 27.7003 14.7382 27.7757 14.7246 27.8548C14.7127 27.9366 14.7189 28.0201 14.7428 28.0993C14.7667 28.1785 14.8076 28.2516 14.8628 28.3134Z" fill="#373C3F"/>
<path opacity="0.1" d="M10.9663 27.6328C11.0598 27.6327 11.1524 27.6511 11.2387 27.6868C11.325 27.7225 11.4034 27.7749 11.4693 27.841C11.5342 27.9128 11.5835 27.9971 11.6144 28.0886C11.6452 28.1802 11.6568 28.2771 11.6485 28.3734C11.6402 28.4696 11.6122 28.5632 11.5661 28.6482C11.5201 28.7332 11.4569 28.8078 11.3807 28.8676C11.2935 28.9318 11.1923 28.9745 11.0854 28.9923C10.9784 29.01 10.8688 29.0024 10.7654 28.9698C10.662 28.9373 10.5678 28.8809 10.4905 28.8052C10.4132 28.7295 10.355 28.6366 10.3206 28.5342C10.2862 28.4318 10.2767 28.3227 10.2927 28.2159C10.3088 28.1091 10.35 28.0076 10.4129 27.9197C10.4759 27.8318 10.5589 27.7599 10.6551 27.7101C10.7512 27.6602 10.8579 27.6338 10.9663 27.6328ZM10.4492 28.6912C10.5604 28.7976 10.7094 28.856 10.8636 28.8535C10.9709 28.8504 11.075 28.8164 11.1633 28.7557C11.2516 28.695 11.3205 28.6101 11.3614 28.5113C11.4024 28.4125 11.4138 28.304 11.3943 28.1989C11.3747 28.0938 11.3251 27.9966 11.2513 27.919C11.1775 27.8413 11.0827 27.7866 10.9784 27.7615C10.8741 27.7363 10.7647 27.7418 10.6634 27.7772C10.5621 27.8126 10.4733 27.8764 10.4076 27.961C10.342 28.0455 10.3023 28.1472 10.2934 28.2537C10.288 28.3356 10.3004 28.4177 10.3297 28.4944C10.3591 28.5711 10.4046 28.6406 10.4634 28.6982L10.4492 28.6912Z" fill="#373C3F"/>
<path opacity="0.1" d="M32.5208 24.0949C32.614 24.1022 32.7049 24.1277 32.7882 24.1701C32.8715 24.2125 32.9455 24.2709 33.006 24.3419C33.0683 24.4174 33.1138 24.5053 33.1393 24.5996C33.1648 24.694 33.1699 24.7927 33.1542 24.8892C33.1384 24.9856 33.1022 25.0776 33.048 25.1591C32.9937 25.2405 32.9227 25.3095 32.8395 25.3615C32.7476 25.4177 32.6436 25.4515 32.5361 25.4603C32.4286 25.469 32.3205 25.4525 32.2206 25.4119C32.1207 25.3713 32.0317 25.3078 31.961 25.2266C31.8903 25.1455 31.8398 25.0488 31.8136 24.9446C31.7874 24.8403 31.7861 24.7314 31.81 24.6266C31.8339 24.5218 31.8822 24.4241 31.9511 24.3414C32.02 24.2586 32.1074 24.1932 32.2064 24.1504C32.3054 24.1076 32.4131 24.0886 32.5208 24.0949ZM31.9257 25.118C31.9943 25.1983 32.0845 25.2574 32.1857 25.2881C32.2869 25.3188 32.3949 25.3199 32.4967 25.2913C32.5986 25.2627 32.69 25.2055 32.7602 25.1267C32.8304 25.0478 32.8764 24.9505 32.8927 24.8464C32.9086 24.7428 32.8947 24.6368 32.8526 24.5407C32.8105 24.4446 32.7418 24.3624 32.6546 24.3037C32.5675 24.2449 32.4653 24.212 32.3601 24.2088C32.2549 24.2056 32.151 24.2322 32.0603 24.2855C31.992 24.3275 31.9335 24.3837 31.8889 24.4502C31.8443 24.5168 31.8146 24.5921 31.8019 24.6711C31.7891 24.7501 31.7936 24.8309 31.8149 24.908C31.8363 24.9851 31.8741 25.0568 31.9257 25.118Z" fill="#373C3F"/>
<path d="M53.009 44.3669C53.009 44.3669 55.5061 31.3772 55.8744 9.90303C55.8744 9.90303 25.8922 6.09645 8.62891 9.65961C8.62891 9.65961 9.59585 36.094 11.3739 43.7001C11.3739 43.7001 33.0858 44.8361 53.009 44.3669Z" fill="#B8C7CF"/>
<path d="M8.66016 10.5056C8.84434 15.0918 9.78648 36.9047 11.3733 43.6994C11.3733 43.6994 32.2493 44.7931 51.8431 44.405C52.2292 42.2318 54.2622 30.0007 54.5704 10.9642C54.5704 10.9501 25.8101 7.29875 8.66016 10.5056Z" fill="white"/>
<path d="M29.1462 30.7894C29.0866 31.6186 29.3086 32.4437 29.7767 33.1319C30.0269 33.4956 30.3641 33.7915 30.7578 33.9927C31.1576 34.188 31.5949 34.2951 32.04 34.3067C32.4931 34.326 32.9425 34.2186 33.3375 33.9966C33.7325 33.7747 34.0572 33.447 34.2749 33.0508C34.684 32.332 34.8655 31.5069 34.7956 30.6836C34.5943 31.422 34.2621 32.1185 33.8145 32.7403C33.6138 33.0185 33.347 33.2428 33.0379 33.393C32.7288 33.5432 32.3872 33.6148 32.0435 33.6012C31.6948 33.6033 31.3496 33.5321 31.0304 33.3923C30.7112 33.2524 30.4252 33.0471 30.1911 32.7897C29.6999 32.2072 29.3432 31.5244 29.1462 30.7894Z" fill="#373C3F"/>
<path d="M44.3895 29.5862C46.6527 29.5474 46.5607 34.056 44.4638 34.0913C42.367 34.1266 42.4945 29.6179 44.3895 29.5862Z" fill="#373C3F"/>
<path d="M18.8127 29.2854C21.0724 29.2466 20.9839 33.7552 18.887 33.7905C16.7902 33.8258 16.9142 29.3172 18.8127 29.2854Z" fill="#373C3F"/>
<path d="M12.0157 29.6217C11.1326 23.9737 10.6885 18.2663 10.6875 12.5503V11.9858C13.7754 11.281 16.9155 10.8268 20.0771 10.6276C23.0359 10.4194 26.006 10.4265 28.9637 10.6487C23.1656 11.3543 17.2755 11.9399 11.5765 13.2311L12.1113 12.5467C12.1113 13.9579 12.1113 15.369 12.1291 16.8049C12.1291 21.0771 12.1786 25.3494 12.0228 29.6217H12.0157Z" fill="#C3D4DC"/>
<path d="M17.0417 53.3476C16.5423 55.8524 17.2896 58.3395 18.7135 58.911C20.1373 59.4826 21.6957 57.9126 22.1952 55.4114C22.6946 52.9101 21.9472 50.4194 20.5234 49.8479C19.0995 49.2764 17.5482 50.8463 17.0417 53.3476Z" fill="#37474F"/>
<path d="M17.0853 53.3603C16.6603 55.477 17.2943 57.5726 18.502 58.0524L18.5693 58.0771C19.7559 58.4863 21.0274 57.1739 21.4418 55.0996C21.796 53.2333 21.3604 51.3706 20.4147 50.6333C20.2968 50.5419 20.1669 50.4671 20.0286 50.411C18.8208 49.9312 17.5032 51.2506 17.0853 53.3603Z" fill="#455A64"/>
<path d="M17.5478 53.6076C17.1759 55.4774 17.6293 57.3437 18.5714 58.081C19.758 58.4902 21.0295 57.1779 21.4439 55.1035C21.7981 53.2372 21.3624 51.3745 20.4168 50.6372C19.2231 50.2279 17.9516 51.5403 17.5478 53.6076Z" fill="#373C3F"/>
<path d="M18.6081 52.6562L19.9257 53.0514C20.0603 53.0902 20.2409 53.7393 20.1453 54.4237C20.0497 55.1081 19.7132 55.5668 19.5786 55.5279L18.2539 55.1328L18.6081 52.6562Z" fill="#37474F"/>
<path d="M18.6098 52.6545C18.3725 52.5875 18.1033 53.0849 18.0041 53.7693C17.905 54.4537 18.0219 55.064 18.2592 55.1311C18.4965 55.1981 18.7657 54.7007 18.8613 54.0163C18.9569 53.3318 18.84 52.7215 18.6098 52.6545Z" fill="#455A64"/>
<path d="M18.8935 80.0076C18.8935 80.0076 15.1001 81.3941 11.792 80.4804C7.98089 79.422 7.1875 77.4852 7.1875 77.4852C7.1875 77.4852 11.8805 58.8333 15.4224 53.866C16.6869 52.0845 18.2241 49.8407 19.7223 51.1496C20.5086 51.834 21.171 56.3532 20.8593 58.5123C20.0836 63.8464 18.8935 80.0076 18.8935 80.0076Z" fill="#009FE7"/>
<path d="M17.4039 67.8902C17.4039 67.8902 12.9517 67.4421 10.5043 65.7734L9.82422 68.0419C9.82422 68.0419 12.4169 69.6435 17.156 70.1339L17.4039 67.8902Z" fill="#373C3F"/>
<path d="M17.899 72.7929C19.3618 72.9411 20.7077 71.4876 20.9025 69.5367C21.0796 67.8115 20.311 66.2734 19.1316 65.8112C18.9654 65.747 18.7916 65.7044 18.6145 65.6842C17.1446 65.5219 15.7809 66.979 15.5861 68.9405C15.3913 70.902 16.422 72.6306 17.899 72.7929Z" fill="#373C3F"/>
<path d="M17.9008 72.7967C19.3636 72.9449 20.7095 71.4914 20.9043 69.5405C21.0814 67.8154 20.3128 66.2772 19.1333 65.8151C17.6705 65.6669 16.3281 67.1239 16.1298 69.0748C15.9562 70.7999 16.7284 72.3346 17.9008 72.7967Z" fill="#37474F"/>
<path d="M47.1639 53.3476C47.6633 55.8524 46.916 58.3395 45.4921 58.911C44.0683 59.4826 42.5098 57.9126 42.0104 55.4114C41.511 52.9101 42.2584 50.4194 43.6822 49.8479C45.1061 49.2764 46.6645 50.8463 47.1639 53.3476Z" fill="#37474F"/>
<path d="M47.1191 53.3603C47.5442 55.477 46.9102 57.5726 45.7024 58.0524L45.6351 58.0771C44.4485 58.4863 43.177 57.1739 42.7626 55.0996C42.3907 53.2333 42.8441 51.3706 43.7898 50.6333C43.9076 50.5419 44.0375 50.4671 44.1758 50.411C45.3836 49.9312 46.7012 51.2506 47.1191 53.3603Z" fill="#455A64"/>
<path d="M46.6665 53.6076C47.0207 55.4774 46.585 57.3437 45.6429 58.081C44.4564 58.4902 43.1848 57.1779 42.7704 55.1035C42.3985 53.2372 42.8519 51.3745 43.7976 50.6372C44.9806 50.2279 46.2521 51.5403 46.6665 53.6076Z" fill="#373C3F"/>
<path d="M45.6027 52.6562L44.2816 53.0514C44.147 53.0902 43.9663 53.7393 44.062 54.4237C44.1576 55.1081 44.4941 55.5668 44.6287 55.5279L45.9498 55.1328L45.6027 52.6562Z" fill="#37474F"/>
<path d="M45.6014 52.6545C45.8352 52.5875 46.1044 53.0849 46.2036 53.7693C46.3027 54.4537 46.1859 55.064 45.9485 55.1311C45.7112 55.1981 45.4421 54.7007 45.3464 54.0163C45.2508 53.3318 45.3641 52.7215 45.6014 52.6545Z" fill="#455A64"/>
<path d="M55.4179 67.2727C51.2774 63.8718 47.3388 60.4251 45.7945 58.8058C44.183 57.13 42.8973 53.327 43.1487 52.251C43.634 50.1978 46.3365 51.1926 48.5501 51.9511C51.2739 52.8931 55.8819 56.0293 60.1605 59.2221C59.7745 62.8311 58.634 65.8862 55.4179 67.2727Z" fill="#009FE7"/>
<path d="M68.9285 54.7089C69.0808 54.7513 71.4964 52.7615 71.6416 52.564C71.866 52.0354 71.8899 51.4436 71.7089 50.8988C71.4893 50.2462 70.7066 49.5582 70.4764 49.5547C70.2461 49.5512 67.5189 51.0435 67.3276 51.3186C67.1363 51.5938 67.3559 54.2715 68.9285 54.7089Z" fill="#37474F"/>
<path d="M67.328 51.3147C67.5193 51.0431 70.2466 49.5508 70.4768 49.5508C70.5785 49.5703 70.6735 49.6152 70.7531 49.6813C69.9668 50.341 68.6917 51.3994 68.4685 51.6463C68.1604 51.9991 68.0258 53.3609 68.1144 54.1758C67.282 53.2445 67.1757 51.5264 67.328 51.3147Z" fill="#373C3F"/>
<path d="M68.0217 44.6564C67.9438 44.2084 66.9981 43.7109 65.9249 43.7109C65.4468 43.7109 63.821 45.4537 63.5235 46.1381C63.1165 47.1207 62.7618 48.124 62.4609 49.1439C62.4609 49.3591 65.2378 49.4967 65.4503 49.3309C65.6628 49.165 66.3039 46.9389 66.8671 46.1769C67.4302 45.4149 68.0465 44.8116 68.0217 44.6564Z" fill="#37474F"/>
<path d="M63.2383 49.3327C64.0175 48.927 64.655 47.6005 64.9844 47.1595C65.2572 46.7714 67.0246 45.0428 67.8003 44.3125C67.9099 44.4033 67.9869 44.5271 68.0199 44.6653C68.0447 44.824 67.4036 45.4308 66.8475 46.1893C66.2914 46.9478 65.6539 49.181 65.4307 49.3433C65.3068 49.435 64.0777 49.4173 63.2383 49.3327Z" fill="#373C3F"/>
<path d="M67.8123 51.572C68.0142 51.5544 70.699 48.6721 70.7663 48.4886C70.9398 48.0441 70.3554 46.9187 69.8949 46.5695C69.4345 46.2202 67.7946 46.1567 67.614 46.199C66.8838 46.6442 66.1855 47.1393 65.5242 47.6808C64.87 48.559 64.2884 49.4887 63.7852 50.4607C63.8135 50.563 67.575 51.5967 67.8123 51.572Z" fill="#37474F"/>
<path d="M58.782 50.9065C59.1716 50.5537 62.5719 47.9254 63.1775 47.9219C63.7832 47.9184 65.5081 48.6592 66.5601 49.4671C67.9556 50.5255 69.1209 52.6881 69.2519 53.8311C69.383 54.9741 66.1881 58.816 65.8446 58.7701C65.501 58.7243 62.5364 57.6624 61.0984 56.1736C59.4054 54.4379 58.4314 51.2205 58.782 50.9065Z" fill="#37474F"/>
<path d="M62.7969 48.1016C63.4869 48.3415 64.1601 48.6267 64.8122 48.9553C65.4715 49.2695 66.0708 49.6957 66.5832 50.2148C67.0753 50.7541 67.5064 51.3456 67.8689 51.9787C68.2359 52.6088 68.567 53.2589 68.8606 53.9261C68.5888 53.2488 68.268 52.5921 67.9008 51.9611C67.5413 51.3287 67.1138 50.7372 66.6257 50.1971C66.1052 49.6737 65.4977 49.244 64.8299 48.9271C64.1759 48.5973 63.496 48.3212 62.7969 48.1016Z" fill="#373C3F"/>
<path d="M62.3203 48.4297C63.0418 48.6762 63.7449 48.9733 64.4242 49.3187C65.111 49.6464 65.7354 50.0905 66.2695 50.6311C66.784 51.1902 67.2331 51.8056 67.6084 52.4656C67.9938 53.1204 68.3391 53.7978 68.6426 54.4941C68.3593 53.788 68.0255 53.103 67.6438 52.4444C67.2705 51.7796 66.8238 51.1584 66.312 50.5923C65.7693 50.0516 65.1366 49.6087 64.4419 49.2834C63.7594 48.9413 63.0498 48.6558 62.3203 48.4297Z" fill="#373C3F"/>
<path d="M61.8828 48.7383C62.6301 48.993 63.358 49.3007 64.0611 49.6591C64.772 49.9975 65.4181 50.4572 65.9702 51.0173C66.502 51.5969 66.9676 52.2335 67.3586 52.9153C67.7553 53.5989 68.1102 54.3058 68.4212 55.032C68.128 54.3026 67.7824 53.5952 67.3869 52.9153C66.999 52.2267 66.5357 51.5831 66.0056 50.9961C65.445 50.4359 64.7905 49.9775 64.0717 49.6414C63.3684 49.2807 62.6362 48.9786 61.8828 48.7383Z" fill="#373C3F"/>
<path d="M61.582 49.125C62.3281 49.3827 63.0559 49.6904 63.7603 50.0458C64.4705 50.3855 65.1164 50.845 65.6694 51.404C66.2015 51.9846 66.6672 52.6224 67.0578 53.3055C67.4553 53.9888 67.8101 54.6957 68.1204 55.4223C67.8271 54.6929 67.4815 53.9855 67.0862 53.3055C66.6974 52.6176 66.2342 51.974 65.7048 51.3864C65.1433 50.8273 64.4891 50.369 63.7709 50.0317C63.0666 49.6721 62.3347 49.3689 61.582 49.125Z" fill="#373C3F"/>
<path d="M61.1133 49.457C61.8872 49.7204 62.6412 50.0387 63.3695 50.4096C64.107 50.7614 64.777 51.239 65.3494 51.8207C65.8997 52.4212 66.3819 53.0802 66.7874 53.7857C67.1979 54.4893 67.5669 55.2161 67.8925 55.9624C67.5914 55.2067 67.2363 54.4733 66.8299 53.7681C66.4333 53.0545 65.9581 52.3872 65.4132 51.7784C64.8317 51.1962 64.1535 50.7188 63.4084 50.3672C62.67 50.0011 61.9023 49.6966 61.1133 49.457Z" fill="#373C3F"/>
<path d="M60.5859 49.7891C61.3798 50.0625 62.1538 50.3902 62.9023 50.7698C63.6586 51.1303 64.3464 51.6184 64.9354 52.2127C65.5027 52.8262 66.0015 53.4993 66.423 54.2201C66.845 54.9426 67.2235 55.6895 67.5564 56.4568C67.2431 55.6792 66.875 54.9247 66.4549 54.1989C66.0419 53.4682 65.5502 52.7845 64.9885 52.1598C64.391 51.5654 63.6948 51.0785 62.9307 50.7204C62.1752 50.3485 61.3911 50.037 60.5859 49.7891Z" fill="#373C3F"/>
<path d="M60.0938 50.125C60.9183 50.4072 61.7219 50.7467 62.4987 51.141C63.2894 51.5136 64.0087 52.021 64.6239 52.6404C65.2122 53.2872 65.7265 53.9971 66.1575 54.7571C66.5948 55.5078 66.9886 56.2829 67.3369 57.0784C67.0097 56.2719 66.6262 55.4892 66.1894 54.7359C65.7619 53.9764 65.2511 53.2665 64.6664 52.6192C64.05 52.0021 63.331 51.496 62.5412 51.1234C61.7542 50.7245 60.9356 50.3906 60.0938 50.125Z" fill="#373C3F"/>
<path d="M59.5938 50.4141C60.4433 50.7035 61.2718 51.0513 62.0731 51.4548C62.8791 51.841 63.6124 52.3625 64.2407 52.9965C64.8452 53.6542 65.3739 54.3772 65.8169 55.152C66.2663 55.9231 66.6707 56.7194 67.0282 57.5369C66.6918 56.7096 66.2977 55.9068 65.8488 55.1344C65.4113 54.3522 64.8861 53.6219 64.2832 52.9577C63.6481 52.3224 62.9061 51.8029 62.0908 51.423C61.2879 51.0186 60.4526 50.6811 59.5938 50.4141Z" fill="#373C3F"/>
<path d="M52.3516 60.4273C55.3516 54.9344 58.5039 49.9071 58.5039 49.9071C58.5039 49.9071 60.459 49.1275 63.8628 51.1313C66.8203 52.8741 68.446 56.5572 68.446 56.5572C68.446 56.5572 64.3515 62.3429 59.2016 66.3365C53.531 65.6133 53.9773 63.4718 52.3516 60.4273Z" fill="#009FE7"/>
<path d="M55.0083 63.9966C55.0083 63.9966 55.7166 58.091 54.6328 55.3392L55.3766 55.2969C55.3766 55.2969 57.856 59.5586 57.2645 64.2683L55.0083 63.9966Z" fill="#373C3F"/>
<path d="M59.6947 65.5865C59.5105 67.04 57.7856 68.0137 55.8305 67.7597C54.1056 67.541 52.7774 66.4473 52.5967 65.1879C52.5719 65.0123 52.5719 64.8342 52.5967 64.6587C52.7703 63.1946 54.5023 62.2103 56.468 62.4608C58.4338 62.7113 59.8718 64.1189 59.6947 65.5865Z" fill="#373C3F"/>
<path d="M59.6956 65.6058C59.5115 67.0593 57.7866 68.033 55.8314 67.779C54.1065 67.5603 52.7783 66.4666 52.5977 65.2072C52.7854 63.7572 54.5103 62.7835 56.4654 63.0305C58.1833 63.2527 59.5115 64.3499 59.6956 65.6058Z" fill="#37474F"/>
<path d="M66.418 0.15625V14.9204H68.4971V18.5012L72.0921 14.9204H91.8241V0.15625H66.418Z" fill="white"/>
<path d="M66.4135 0.102637L66.3688 0.090561V0.155859V0.166262V0.166442L66.2625 14.9303H66.2625V14.9306V15.0365V15.0865H66.3125H66.4188H68.3337L68.3172 18.42L68.2995 18.4378L68.3171 18.4449L68.3168 18.5041V18.5044V18.8183V18.9374L68.4018 18.854L68.6285 18.6318L68.6287 18.6316L72.2076 15.0879C72.2345 15.0919 72.2783 15.0954 72.336 15.0986C72.4574 15.1052 72.6493 15.1109 72.9011 15.1158C73.4052 15.1255 74.1518 15.1319 75.0612 15.136C76.8802 15.144 79.3512 15.1425 81.8368 15.1385C82.8468 15.1369 83.8591 15.1349 84.8311 15.1329C86.2512 15.1301 87.5852 15.1275 88.6996 15.1265C89.6382 15.1257 90.421 15.126 90.9683 15.1284C91.242 15.1297 91.4566 15.1314 91.6023 15.1338C91.666 15.1348 91.7163 15.136 91.7524 15.1372L91.7501 15.1429H91.8249H91.9984H92.0484V15.0929V14.92V14.92L92.0236 0.155859V0.155775V0.00415959V-0.0364031L91.9839 -0.0447662C91.9783 -0.0459626 91.9715 -0.0463802 91.9678 -0.0466077L91.9485 -0.0474276C91.9331 -0.0479114 91.912 -0.0483177 91.8853 -0.0486553C91.8321 -0.0493314 91.7559 -0.0497432 91.6587 -0.0499117C91.4641 -0.0502487 91.1841 -0.0496126 90.8311 -0.0481483C90.1249 -0.0452195 89.1261 -0.0389764 87.932 -0.03057C85.9806 -0.0168314 83.5077 0.00268608 80.939 0.0229592C80.3642 0.0274956 79.7847 0.0320697 79.2051 0.0366254C76.0353 0.0615411 72.8648 0.0859052 70.4737 0.100513C69.2781 0.107816 68.2774 0.11268 67.5692 0.113955C67.215 0.114592 66.9341 0.114332 66.7385 0.113032C66.6407 0.112381 66.5644 0.111472 66.511 0.110292C66.4945 0.109926 66.4803 0.109537 66.4684 0.109127L66.4682 0.0753879L66.4135 0.102637ZM66.4692 0.216871L91.601 0.366932L91.5804 14.7134C91.5747 14.7134 91.5689 14.7135 91.563 14.7135C91.4132 14.715 91.1965 14.716 90.9225 14.7167C90.3744 14.7181 89.5973 14.718 88.6676 14.7172C87.8529 14.7166 86.9209 14.7153 85.9231 14.714C84.644 14.7123 83.2569 14.7105 81.8704 14.7095C79.4021 14.7078 76.935 14.7086 75.0808 14.7177C74.1537 14.7222 73.3796 14.7288 72.8352 14.7381C72.563 14.7427 72.3478 14.748 72.1995 14.7542C72.1255 14.7572 72.0674 14.7605 72.0271 14.764C72.0071 14.7658 71.9903 14.7677 71.9777 14.7699C71.9716 14.771 71.9649 14.7724 71.9587 14.7744C71.9557 14.7753 71.9512 14.777 71.9464 14.7796C71.9439 14.781 71.9378 14.7845 71.9319 14.7911L68.6647 18.0711V14.9306V14.8142V14.7642H68.6147H68.4979H66.5739L66.4692 0.216871Z" fill="#373C3F" stroke="#373C3F" stroke-width="0.1"/>
<path d="M83.9219 7.53932C83.9219 7.77656 83.9925 8.00846 84.1248 8.20572C84.2572 8.40297 84.4452 8.55671 84.6653 8.6475C84.8853 8.73828 85.1275 8.76203 85.3611 8.71575C85.5947 8.66947 85.8092 8.55523 85.9777 8.38748C86.1461 8.21973 86.2608 8.00601 86.3072 7.77333C86.3537 7.54065 86.3299 7.29948 86.2387 7.0803C86.1476 6.86113 85.9932 6.67379 85.7952 6.54199C85.5971 6.41019 85.3643 6.33984 85.1261 6.33984C84.968 6.33984 84.8114 6.37087 84.6653 6.43115C84.5192 6.49143 84.3864 6.57978 84.2746 6.69116C84.1628 6.80254 84.0741 6.93477 84.0135 7.0803C83.953 7.22583 83.9219 7.38181 83.9219 7.53932Z" fill="#373C3F"/>
<path d="M77.9219 7.53932C77.9219 7.77656 77.9925 8.00846 78.1248 8.20572C78.2572 8.40297 78.4452 8.55671 78.6653 8.6475C78.8853 8.73828 79.1275 8.76203 79.3611 8.71575C79.5947 8.66947 79.8092 8.55523 79.9777 8.38748C80.1461 8.21973 80.2608 8.00601 80.3072 7.77333C80.3537 7.54065 80.3299 7.29948 80.2387 7.0803C80.1476 6.86113 79.9932 6.67379 79.7952 6.54199C79.5971 6.41019 79.3643 6.33984 79.1261 6.33984C78.968 6.33984 78.8114 6.37087 78.6653 6.43115C78.5192 6.49143 78.3864 6.57978 78.2746 6.69116C78.1628 6.80254 78.0741 6.93477 78.0135 7.0803C77.953 7.22583 77.9219 7.38181 77.9219 7.53932Z" fill="#373C3F"/>
<path d="M71.9023 7.53932C71.9023 7.77656 71.973 8.00846 72.1053 8.20572C72.2376 8.40297 72.4257 8.55671 72.6457 8.6475C72.8658 8.73828 73.1079 8.76203 73.3415 8.71575C73.5751 8.66947 73.7897 8.55523 73.9581 8.38748C74.1265 8.21973 74.2412 8.00601 74.2877 7.77333C74.3342 7.54065 74.3103 7.29948 74.2192 7.0803C74.128 6.86113 73.9737 6.67379 73.7756 6.54199C73.5776 6.41019 73.3448 6.33984 73.1066 6.33984C72.9484 6.33984 72.7919 6.37087 72.6457 6.43115C72.4996 6.49143 72.3669 6.57978 72.2551 6.69116C72.1432 6.80254 72.0545 6.93477 71.994 7.0803C71.9335 7.22583 71.9023 7.38181 71.9023 7.53932Z" fill="#373C3F"/>
</svg>
