<svg width="19" height="14" viewBox="0 0 19 14" fill="none" xmlns="http://www.w3.org/2000/svg">
<path d="M10.8363 9.02586C10.3885 9.3244 9.86834 9.48222 9.33203 9.48222C8.79576 9.48222 8.27559 9.3244 7.82777 9.02586L0.451879 4.10845C0.410957 4.08116 0.37109 4.05272 0.332031 4.02347V12.0812C0.332031 13.005 1.08174 13.7382 1.98905 13.7382H16.675C17.5988 13.7382 18.332 12.9885 18.332 12.0812V4.02344C18.2929 4.05276 18.2529 4.08127 18.2119 4.10859L10.8363 9.02586Z" fill="white"/>
<path d="M1.03691 3.23175L8.4128 8.14919C8.69201 8.33535 9.012 8.42841 9.332 8.42841C9.65202 8.42841 9.97205 8.33531 10.2513 8.14919L17.6271 3.23175C18.0685 2.93767 18.332 2.44548 18.332 1.91427C18.332 1.00088 17.5889 0.257812 16.6756 0.257812H1.98849C1.07513 0.257848 0.332031 1.00091 0.332031 1.91515C0.332031 2.44548 0.595562 2.93767 1.03691 3.23175Z" fill="white"/>
</svg>
