<svg width="18" height="16" viewBox="0 0 18 16" fill="none" xmlns="http://www.w3.org/2000/svg">
<path fill-rule="evenodd" clip-rule="evenodd" d="M1.23741 6.95047C6.06923 4.81669 9.29121 3.40997 10.9033 2.73031C15.5063 0.789752 16.4627 0.452656 17.0861 0.441525C17.2232 0.439077 17.5298 0.473519 17.7284 0.636848C17.8961 0.774759 17.9422 0.961057 17.9643 1.09181C17.9864 1.22257 18.0139 1.52043 17.992 1.75317C17.7426 4.40965 16.6633 10.8562 16.1142 13.8315C15.8818 15.0905 15.4244 15.5126 14.9815 15.5539C14.0189 15.6437 13.288 14.9092 12.3558 14.2898C10.897 13.3205 10.0729 12.7171 8.65691 11.7713C7.02048 10.6783 8.08131 10.0775 9.0139 9.09571C9.25797 8.83877 13.4988 4.9289 13.5809 4.57422C13.5912 4.52986 13.6007 4.36451 13.5038 4.2772C13.4069 4.18989 13.2639 4.21974 13.1606 4.24349C13.0143 4.27715 10.6839 5.83842 6.16938 8.92729C5.5079 9.3877 4.90875 9.61202 4.37193 9.60026C3.78013 9.5873 2.64175 9.2611 1.79548 8.98227C0.757494 8.64027 -0.0674757 8.45946 0.00436067 7.87864C0.0417775 7.57612 0.452793 7.26673 1.23741 6.95047Z" fill="white"/>
</svg>
