<svg width="19" height="18" viewBox="0 0 19 18" fill="none" xmlns="http://www.w3.org/2000/svg">
<path d="M18.6139 5.28941C18.5701 4.33139 18.4179 3.67715 18.1954 3.10476C17.9695 2.50422 17.6152 1.96025 17.1573 1.51063C16.7079 1.05277 16.1638 0.698324 15.5632 0.472278C14.9907 0.249941 14.3366 0.0979164 13.3786 0.0543827C12.4188 0.0104371 12.1122 0 9.66797 0C7.22379 0 6.91713 0.0104371 5.95734 0.0541081C4.99933 0.0979164 4.34523 0.250078 3.77271 0.472553C3.17216 0.698461 2.6282 1.05277 2.17859 1.51063C1.72073 1.96011 1.36629 2.50408 1.14024 3.10462C0.917908 3.67715 0.765884 4.33139 0.722351 5.28927C0.678406 6.24921 0.667969 6.55573 0.667969 8.99993C0.667969 11.4443 0.678406 11.7509 0.722351 12.7107C0.766022 13.6686 0.918182 14.3228 1.14066 14.8954C1.36656 15.4958 1.72087 16.0399 2.17873 16.4894C2.6282 16.9472 3.1723 17.3015 3.77284 17.5274C4.34523 17.7501 4.99947 17.9021 5.95747 17.9459C6.9174 17.9897 7.22392 18 9.66811 18C12.1123 18 12.4189 17.9897 13.3787 17.9459C14.3367 17.9021 14.9908 17.7501 15.5634 17.5274C16.7723 17.06 17.728 16.1043 18.1954 14.8954C18.418 14.3228 18.5701 13.6686 18.6139 12.7107C18.6575 11.7508 18.668 11.4443 18.668 9.00007C18.668 6.55573 18.6575 6.24921 18.6139 5.28941ZM16.9938 12.637C16.9538 13.5145 16.8072 13.9911 16.684 14.3082C16.3812 15.0931 15.7608 15.7135 14.9759 16.0163C14.6588 16.1395 14.1823 16.2861 13.3047 16.3261C12.3559 16.3695 12.0712 16.3785 9.66797 16.3785C7.26457 16.3785 6.98003 16.3695 6.03108 16.3261C5.15369 16.2861 4.67715 16.1395 4.35992 16.0163C3.96909 15.8719 3.61546 15.6419 3.32515 15.3429C3.02618 15.0526 2.79616 14.6991 2.65182 14.3082C2.52864 13.9911 2.38197 13.5145 2.34201 12.637C2.29875 11.688 2.28955 11.4033 2.28955 9.00021C2.28955 6.59693 2.29875 6.31238 2.34201 5.36329C2.38211 4.48575 2.52864 4.00922 2.65182 3.69212C2.79616 3.30114 3.02632 2.94752 3.32515 2.6572C3.61546 2.35823 3.96909 2.12821 4.36006 1.98401C4.67715 1.86069 5.15369 1.71415 6.03122 1.67405C6.98016 1.6308 7.26485 1.62159 9.66797 1.62159C12.0711 1.62159 12.3556 1.6308 13.3047 1.67419C14.1823 1.71415 14.6586 1.86082 14.9759 1.98401C15.3667 2.12834 15.7203 2.35837 16.0107 2.6572C16.3096 2.94752 16.5396 3.30114 16.6838 3.69212C16.8072 4.00922 16.9538 4.48575 16.9938 5.36329C17.037 6.31224 17.0462 6.59693 17.0462 9.00007C17.0462 11.4033 17.0372 11.6879 16.9938 12.637Z" fill="white"/>
<path d="M9.66778 4.37836C7.11538 4.37836 5.04624 6.44765 5.04624 9.00007C5.04624 11.5525 7.11538 13.6216 9.66778 13.6216C12.2203 13.6216 14.2894 11.5525 14.2894 9.00007C14.2894 6.44765 12.2203 4.37836 9.66778 4.37836ZM9.66778 12C8.01104 11.9999 6.66782 10.6568 6.66796 8.99993C6.66796 7.34318 8.01104 5.99995 9.66791 5.99995C11.3248 6.00009 12.6679 7.34318 12.6679 8.99993C12.6679 10.6568 11.3247 12 9.66778 12Z" fill="white"/>
<path d="M15.5522 4.19585C15.5522 4.79227 15.0686 5.27581 14.4722 5.27581C13.8756 5.27581 13.3921 4.79227 13.3921 4.19585C13.3921 3.59929 13.8756 3.11575 14.4722 3.11575C15.0686 3.11575 15.5522 3.59929 15.5522 4.19585Z" fill="white"/>
</svg>
