<svg xmlns="http://www.w3.org/2000/svg" width="16" height="16" viewBox="0 0 16 16" fill="none">
    <circle cx="8" cy="8" r="8" fill="#15E8E2"/>
    <path d="M12.2717 5.30207L11.6133 4.64362C11.5175 4.54788 11.4037 4.5 11.272 4.5C11.1405 4.5 11.0266 4.54788 10.9309 4.64362L7.0584 8.51613L5.48437 6.94199C5.38859 6.84618 5.27484 6.79837 5.14321 6.79837C5.01156 6.79837 4.89785 6.84618 4.80205 6.94199L4.14368 7.60035C4.04792 7.69611 4 7.80986 4 7.94158C4 8.07323 4.04792 8.18693 4.14368 8.28274L6.71732 10.8564C6.81311 10.9522 6.92686 11 7.05849 11C7.19012 11 7.30384 10.9522 7.39965 10.8564L12.2717 5.98437C12.3674 5.88863 12.4154 5.77486 12.4154 5.64321C12.4154 5.51156 12.3675 5.39781 12.2717 5.30207Z" fill="white"/>
</svg>
