<svg width="20" height="20" viewBox="0 0 20 20" fill="none" xmlns="http://www.w3.org/2000/svg">
<path d="M8.85116 13.125C8.95262 13.125 9.0503 13.0862 9.12189 13.0166L13.5817 8.7086C13.8061 8.49221 13.8061 8.14084 13.5817 7.92411L13.311 7.66255C13.0869 7.44582 12.7232 7.44582 12.4987 7.66255L8.85116 11.1857L7.50129 9.88185C7.2769 9.66512 6.91347 9.66512 6.68902 9.88185L6.41829 10.1434C6.1939 10.3597 6.1939 10.7112 6.41829 10.9279L8.58043 13.0166C8.65202 13.0862 8.7497 13.125 8.85116 13.125Z" fill="#15E8E2"/>
<path fill-rule="evenodd" clip-rule="evenodd" d="M20 10C20 15.5228 15.5228 20 10 20C4.47715 20 0 15.5228 0 10C0 4.47715 4.47715 0 10 0C15.5228 0 20 4.47715 20 10ZM18.75 10C18.75 14.8325 14.8325 18.75 10 18.75C5.16751 18.75 1.25 14.8325 1.25 10C1.25 5.16751 5.16751 1.25 10 1.25C14.8325 1.25 18.75 5.16751 18.75 10Z" fill="#15E8E2"/>
</svg>
