<svg width="20" height="20" viewBox="0 0 20 20" fill="none" xmlns="http://www.w3.org/2000/svg">
<path fill-rule="evenodd" clip-rule="evenodd" d="M20 10C20 15.5228 15.5228 20 10 20C4.47715 20 0 15.5228 0 10C0 4.47715 4.47715 0 10 0C15.5228 0 20 4.47715 20 10ZM18.75 10C18.75 14.8325 14.8325 18.75 10 18.75C5.16751 18.75 1.25 14.8325 1.25 10C1.25 5.16751 5.16751 1.25 10 1.25C14.8325 1.25 18.75 5.16751 18.75 10Z" fill="#009FE7"/>
<path fill-rule="evenodd" clip-rule="evenodd" d="M12.2439 10.2276L12.2444 10.2271L12.245 10.2266C12.7175 9.78183 12.9457 9.17297 12.9457 8.42225C12.9457 7.68275 12.7355 7.09265 12.2915 6.68057C11.8531 6.26794 11.1962 6.0781 10.3556 6.0781H8.65994C8.52866 6.0781 8.42225 6.18452 8.42225 6.31579V9.73356H7.8438C7.71253 9.73356 7.60611 9.83998 7.60611 9.97125V10.6337C7.60611 10.765 7.71253 10.8714 7.8438 10.8714H8.42225V11.4668H7.8438C7.71253 11.4668 7.60611 11.5732 7.60611 11.7044V12.2514C7.60611 12.3827 7.71253 12.4891 7.8438 12.4891H8.42225V13.68C8.42225 13.8112 8.52866 13.9177 8.65994 13.9177H9.36839C9.49967 13.9177 9.60608 13.8112 9.60608 13.68V12.4891H10.9162C11.0475 12.4891 11.1539 12.3827 11.1539 12.2514V11.7044C11.1539 11.5732 11.0475 11.4668 10.9162 11.4668H9.60608V10.8714H10.2243C11.0869 10.8714 11.7698 10.6661 12.2439 10.2276ZM11.3317 9.44643L11.331 9.44685L11.3304 9.44729C11.0566 9.63123 10.6539 9.73356 10.1023 9.73356H9.60608V7.21598H10.2806C10.819 7.21598 11.1795 7.32862 11.3973 7.5203C11.6115 7.70871 11.7337 8.00792 11.7337 8.45376C11.7337 8.96945 11.5843 9.28 11.3317 9.44643Z" fill="#009FE7"/>
</svg>
