<svg width="20" height="20" viewBox="0 0 20 20" xmlns="http://www.w3.org/2000/svg">
<g clip-path="url(#clip0_1699_23418)">
<path d="M10.7312 10.7108C10.7312 11.0883 10.4252 11.3943 10.0476 11.3943C9.67006 11.3943 9.36401 11.0883 9.36401 10.7108L9.36401 6.30868C9.36401 5.93114 9.67006 5.62506 10.0476 5.62506C10.4252 5.62506 10.7312 5.9311 10.7312 6.30865L10.7312 10.7108Z" />
<path d="M9.12476 13.1543C9.12476 12.6446 9.53793 12.2314 10.0476 12.2314C10.5573 12.2314 10.9705 12.6446 10.9705 13.1543C10.9705 13.664 10.5573 14.0771 10.0476 14.0771C9.53793 14.0771 9.12476 13.664 9.12476 13.1543Z" />
<path fill-rule="evenodd" clip-rule="evenodd" d="M20 10C20 15.5228 15.5228 20 10 20C4.47715 20 0 15.5228 0 10C0 4.47715 4.47715 0 10 0C15.5228 0 20 4.47715 20 10ZM18.75 10C18.75 14.8325 14.8325 18.75 10 18.75C5.16751 18.75 1.25 14.8325 1.25 10C1.25 5.16751 5.16751 1.25 10 1.25C14.8325 1.25 18.75 5.16751 18.75 10Z" />
</g>
<defs>
<clipPath id="clip0_1699_23418">
<rect width="20" height="20" fill="white"/>
</clipPath>
</defs>
</svg>
