<svg width="24" height="24" viewBox="0 0 24 24" fill="none" xmlns="http://www.w3.org/2000/svg">
<g clip-path="url(#clip0_269_11541)">
<path d="M12 24C18.6274 24 24 18.6274 24 12C24 5.3726 18.6274 0 12 0C5.3726 0 0 5.3726 0 12C0 18.6274 5.3726 24 12 24Z" fill="#00384F"/>
<path d="M16.9601 13.16H13.3281L13.9721 14.624H15.8681L16.9601 13.16ZM18.7121 10.416H12.1201L12.7641 11.88H17.6161L18.7121 10.416Z" fill="#009A61"/>
<path d="M12.1039 6.3999L6.98389 17.5879H8.93189L12.0999 10.3719L15.2719 17.5999H17.2239L12.1039 6.3999Z" fill="white"/>
<path d="M5.28809 10.416L6.36009 11.88H12.7641L12.1201 10.416H5.28809ZM7.23609 13.16L8.30809 14.624H13.9681L13.3241 13.16H7.23609Z" fill="#009A61"/>
</g>
<defs>
<clipPath id="clip0_269_11541">
<rect width="24" height="24" fill="white"/>
</clipPath>
</defs>
</svg>
