<svg width="24" height="24" viewBox="0 0 24 24" fill="none" xmlns="http://www.w3.org/2000/svg">
<g clip-path="url(#clip0_269_11651)">
<path d="M24 0H0V24H24V0Z" fill="#FF0032"/>
<path d="M7.30113 1.8457L5.53725 5.50892L3.77337 1.8457H1.84863V7.38286H3.19765V3.42049L4.92201 6.76762H6.15249L7.87685 3.42049V7.38286H9.22869V1.8457H7.30113Z" fill="white"/>
<path d="M15.9907 1.8457V2.94918H18.4009L18.3952 7.38286H19.7443L19.7499 2.94918H22.1629V1.8457H15.9907Z" fill="white"/>
<path d="M20.8109 20.3056C20.7771 20.5257 20.6896 20.7092 20.5456 20.8446C20.4102 20.9744 20.2296 21.0647 20.0038 21.1184C19.7808 21.1692 19.4563 21.2002 19.1091 21.2002C18.762 21.2002 18.4346 21.1551 18.1665 21.0619C17.9069 20.9744 17.7009 20.8192 17.5569 20.6019C17.4102 20.3846 17.3368 20.0685 17.3368 19.6678V19.1005C17.3368 18.6969 17.4102 18.3837 17.5569 18.1663C17.7009 17.949 17.9069 17.7966 18.1665 17.7063C18.4346 17.616 18.7507 17.568 19.1091 17.568C19.4676 17.568 19.7808 17.5991 20.0038 17.6499C20.2296 17.7007 20.4102 17.7938 20.5456 17.9236C20.6868 18.0619 20.7771 18.2425 20.8109 18.4627H22.1628C22.1261 18.0055 21.9709 17.616 21.6999 17.3056C21.4516 17.0205 21.1101 16.8117 20.6839 16.6847C20.2691 16.5605 19.7272 16.4956 19.112 16.4956C18.4657 16.4956 17.9041 16.5887 17.4412 16.7722C16.9727 16.9584 16.6115 17.2689 16.3603 17.695C16.1204 18.1043 15.9963 18.6489 15.9878 19.3178V19.3799L16.0612 19.3827L15.9878 19.3855V19.4476C15.9963 20.1165 16.1204 20.6612 16.3603 21.0704C16.6087 21.4965 16.9727 21.807 17.4412 21.9933C17.9012 22.1767 18.4629 22.2698 19.112 22.2698C19.7583 22.2698 20.2719 22.2049 20.6839 22.0807C21.1101 21.9537 21.4516 21.7449 21.6999 21.4599C21.9709 21.1494 22.1261 20.76 22.1628 20.3028L20.8109 20.3056Z" fill="white"/>
</g>
<defs>
<clipPath id="clip0_269_11651">
<rect width="24" height="24" fill="white"/>
</clipPath>
</defs>
</svg>
