<svg xmlns="http://www.w3.org/2000/svg" width="48" height="48" viewBox="0 0 48 48" fill="none">
    <g clip-path="url(#clip0_305_6194)">
        <path fill-rule="evenodd" clip-rule="evenodd" d="M0 0H48V48H0V0ZM11.0745 11.0178L14.6023 3.69141H18.4574V14.7657H15.7537V6.84098L12.305 13.5352H9.84402L6.39529 6.84098V14.7657H3.69727V3.69141H7.54675L11.0745 11.0178ZM31.981 5.89837V3.69141H44.3253V5.89837H39.4993L39.488 14.7657H36.79L36.8013 5.89837H31.981ZM41.6219 40.6115C41.5541 41.0518 41.3792 41.4187 41.0913 41.6896C40.8204 41.9492 40.4591 42.1299 40.0076 42.2371C39.5617 42.3387 38.9126 42.4008 38.2183 42.4008C37.524 42.4008 36.8693 42.3105 36.3331 42.1242C35.8138 41.9492 35.4017 41.6388 35.1139 41.2042C34.8204 40.7696 34.6736 40.1374 34.6736 39.3359V38.2014C34.6736 37.3942 34.8204 36.7677 35.1139 36.3331C35.4017 35.8984 35.8138 35.5936 36.3331 35.413C36.8693 35.2324 37.5015 35.1365 38.2183 35.1365C38.9351 35.1365 39.5617 35.1985 40.0076 35.3001C40.4591 35.4017 40.8204 35.588 41.0913 35.8476C41.3735 36.1242 41.5541 36.4855 41.6219 36.9257H44.3255C44.2522 36.0113 43.9417 35.2324 43.3999 34.6115C42.9032 34.0414 42.2202 33.6238 41.3679 33.3698C40.5381 33.1214 39.4544 32.9916 38.2239 32.9916C36.9314 32.9916 35.8081 33.1778 34.8825 33.5447C33.9455 33.9173 33.223 34.5381 32.7206 35.3904C32.2409 36.2089 31.9925 37.2983 31.9756 38.636V38.7602L32.1223 38.7658L31.9756 38.7714V38.8956C31.9925 40.2333 32.2409 41.3227 32.7206 42.1412C33.2174 42.9935 33.9455 43.6143 34.8825 43.9869C35.8025 44.3538 36.9257 44.54 38.2239 44.54C39.5165 44.54 40.5438 44.4102 41.3679 44.1618C42.2202 43.9079 42.9032 43.4902 43.3999 42.9201C43.9417 42.2992 44.2522 41.5203 44.3255 40.6059L41.6219 40.6115Z" fill="#6B7279"/>
    </g>
    <defs>
        <clipPath id="clip0_305_6194">
            <rect width="48" height="48" fill="white"/>
        </clipPath>
    </defs>
</svg>
