<svg xmlns="http://www.w3.org/2000/svg" width="48" height="42" viewBox="0 0 48 42" fill="none">
    <path fill-rule="evenodd" clip-rule="evenodd" d="M19.2604 22.453C18.9235 22.1153 18.5233 21.8471 18.0827 21.6639C17.6422 21.4807 17.1699 21.3861 16.6927 21.3855C16.2156 21.3849 15.743 21.4783 15.302 21.6602C14.861 21.8423 14.46 22.1093 14.1222 22.4463C13.7844 22.7833 13.5163 23.1834 13.3331 23.624C13.1499 24.0645 13.0553 24.5368 13.0547 25.014C13.0541 25.4911 13.1475 25.9637 13.3294 26.4047C13.5115 26.8458 13.7785 27.2467 14.1155 27.5845L28.1785 41.612L33.3241 36.4795L19.2604 22.453Z" fill="#4F555A"/>
    <path fill-rule="evenodd" clip-rule="evenodd" d="M33.8833 14.4119L19.8208 0.385498L14.6758 5.51748L28.7384 19.5445C29.075 19.884 29.4753 20.1537 29.9164 20.3382C30.3575 20.5228 30.8307 20.6185 31.3087 20.6198C31.7869 20.6211 32.2605 20.528 32.7027 20.3459C33.1447 20.1639 33.5465 19.8963 33.885 19.5586C34.2236 19.221 34.4921 18.8198 34.6752 18.3781C34.8584 17.9365 34.9526 17.463 34.9525 16.9849C34.9523 16.5068 34.8578 16.0334 34.6743 15.5918C34.4908 15.1503 34.222 14.7494 33.8833 14.4119Z" fill="#4F555A"/>
    <path fill-rule="evenodd" clip-rule="evenodd" d="M20.3459 1.13889L19.8195 0.385498L1.06439 19.0486C0.382873 19.7301 -1.8999e-08 20.6544 0 21.6183C1.8999e-08 22.582 0.382873 23.5064 1.06439 24.1879C1.74591 24.8694 2.67024 25.2523 3.63404 25.2523C4.59786 25.2523 5.52219 24.8694 6.20371 24.1879L20.2476 10.2123C23.246 7.2287 21.6228 2.97323 20.3459 1.13889Z" fill="#6B7279"/>
    <path fill-rule="evenodd" clip-rule="evenodd" d="M46.9383 17.8182C46.2553 17.1379 45.331 16.7555 44.3671 16.7542C43.4032 16.7531 42.4779 17.1334 41.7933 17.812L27.7506 31.787C24.7522 34.77 26.3753 39.0261 27.6528 40.8593L28.1775 41.6138L46.9327 22.9502C47.2703 22.6138 47.5384 22.2141 47.7215 21.774C47.9046 21.3339 47.9991 20.862 47.9997 20.3854C48.0002 19.9087 47.9067 19.4367 47.7246 18.9961C47.5424 18.5556 47.2753 18.1553 46.9383 17.8182Z" fill="#6B7279"/>
</svg>
