<svg width="24" height="24" viewBox="0 0 24 24" fill="none" xmlns="http://www.w3.org/2000/svg">
<g clip-path="url(#clip0_2310_4196)">
<path d="M12 24C18.6274 24 24 18.6274 24 12C24 5.37258 18.6274 0 12 0C5.37258 0 0 5.37258 0 12C0 18.6274 5.37258 24 12 24Z" fill="#26A17B"/>
<path fill-rule="evenodd" clip-rule="evenodd" d="M13.4411 13.0363V13.0348C13.3586 13.0408 12.9334 13.0663 11.9846 13.0663C11.2271 13.0663 10.6939 13.0438 10.5064 13.0348V13.037C7.59036 12.9088 5.41386 12.401 5.41386 11.7935C5.41386 11.1868 7.59036 10.679 10.5064 10.5485V12.5315C10.6969 12.545 11.2429 12.5773 11.9974 12.5773C12.9026 12.5773 13.3564 12.5398 13.4411 12.5323V10.55C16.3511 10.6798 18.5224 11.1875 18.5224 11.7935C18.5224 12.401 16.3511 12.9073 13.4411 13.0363ZM13.4411 10.3438V8.56928H17.5016V5.86328H6.44586V8.56928H10.5064V10.343C7.20636 10.4945 4.72461 11.1485 4.72461 11.9315C4.72461 12.7145 7.20636 13.3678 10.5064 13.52V19.2065H13.4411V13.5185C16.7359 13.367 19.2116 12.7138 19.2116 11.9315C19.2116 11.1493 16.7359 10.496 13.4411 10.3438Z" fill="white"/>
</g>
<defs>
<clipPath id="clip0_2310_4196">
<rect width="24" height="24" fill="white"/>
</clipPath>
</defs>
</svg>
