<svg width="24" height="24" viewBox="0 0 24 24" fill="none" xmlns="http://www.w3.org/2000/svg">
<g clip-path="url(#clip0_2310_4222)">
<path d="M0 12.0002C0 18.6281 5.37181 24 12.0009 24C18.6269 24 24 18.6281 24 12.0002C24 5.37186 18.6269 0 12.0009 0C5.37181 0 0 5.37186 0 12.0002Z" fill="#141414"/>
<path d="M3.58594 10.7943V11.6741L5.95997 11.413V10.4608L3.58594 10.7943ZM4.34353 11.7275V14.7421H5.21269V11.6388L4.34353 11.7275ZM6.28059 10.4158V14.7421H7.19644V10.2871L6.28059 10.4158M7.36706 10.2631V11.2583L8.68955 11.1129V10.0773L7.36706 10.2631M7.36706 11.9991V13.0124L8.23519 12.9651V11.9244L7.36706 11.999M7.36706 13.7429V14.7421H8.68955V13.703L7.36706 13.7428M12.1096 9.59526V14.7421H13.3102V9.42662L12.1096 9.59531M13.5345 9.39508V10.579L15.2841 10.3867V9.14921L13.5345 9.39508ZM13.5345 11.4694V12.6752L14.6812 12.6126V11.3712L13.5345 11.4694ZM13.5345 13.5566V14.7422H15.2841V13.5037L13.5345 13.5566ZM9.03947 10.0281V14.7422H10.0827V9.88148L9.03947 10.0281M10.2774 13.6551V14.7421H11.7918V13.6094L10.2774 13.6551M19.2067 9.09101C18.8273 8.73263 18.2709 8.58563 17.6624 8.67303V9.98612C17.9088 9.97243 18.1085 10.0639 18.1975 10.2479C18.338 10.5381 18.193 10.9735 17.8511 11.3769C17.3234 11.9995 15.9201 13.2737 15.9201 13.2737L17.9346 13.2075C19.1655 12.0053 19.6075 11.2756 19.6868 10.3649C19.7285 9.88312 19.5536 9.41884 19.2067 9.09101ZM19.7578 14.7422V13.3682L15.6718 13.4913M15.6718 13.4912L15.6722 14.7421H19.7578M17.4275 8.70245C16.2405 8.95521 15.6576 9.8282 15.7249 11.2527L16.9905 11.1404C16.9328 10.3356 17.1791 10.1447 17.4281 10.0398L17.4275 8.7025" fill="white"/>
</g>
<defs>
<clipPath id="clip0_2310_4222">
<rect width="24" height="24" fill="white"/>
</clipPath>
</defs>
</svg>
