<svg width="24" height="24" viewBox="0 0 24 24" fill="none" xmlns="http://www.w3.org/2000/svg">
<g clip-path="url(#clip0_2310_1886)">
<path fill-rule="evenodd" clip-rule="evenodd" d="M12 0C18.64 0 24 5.36 24 12C24 18.64 18.64 24 12 24C5.36 24 0 18.64 0 12C0 5.36 5.36 0 12 0Z" fill="#F01010"/>
<path fill-rule="evenodd" clip-rule="evenodd" d="M11.48 8.12H10.48C10.32 8.12 10.12 8.12 9.91995 8.08C9.87995 8.08 9.83995 8.16 9.83995 8.24C9.83995 8.32 9.83995 8.36 9.87995 8.44H10.12C10.4 8.48 10.6 8.56 10.72 8.6C10.84 8.68 10.96 8.8 10.96 8.96C11 9.12 11 9.36 11 9.64C11 10.04 10.96 10.48 10.96 11.04C10.96 11.56 10.92 12.12 10.88 12.72C10.84 13.6 10.76 15.76 10.52 16.4C10.48 16.56 10.36 16.64 10.28 16.68C10.16 16.72 9.99995 16.8 9.79995 16.8L9.51995 16.84C9.47995 16.88 9.43995 16.92 9.47995 17.04C9.47995 17.08 9.47995 17.16 9.55995 17.2C9.79995 17.2 10.04 17.16 10.28 17.16H11.76C12.04 17.16 12.28 17.2 12.52 17.2C12.56 17.16 12.6 17.12 12.6 17.04C12.6 16.96 12.6 16.92 12.52 16.84L11.88 16.8C11.72 16.8 11.6 16.76 11.48 16.68C11.44 16.64 11.4 16.6 11.36 16.52C11.24 16.24 11.24 15.8 11.24 15.52C11.24 14.96 11.24 14.36 11.28 13.8C11.28 13.24 11.32 12.72 11.32 12.32C11.32 11.92 11.36 11.52 11.4 11.12C11.4 10.72 11.44 10.32 11.44 9.92H11.48C11.64 10.24 11.76 10.56 11.92 10.88C12.08 11.2 12.2 11.56 12.36 11.88L13.6 14.52C13.72 14.76 13.84 15 14 15.36C14.16 15.72 14.32 16.04 14.48 16.36C14.56 16.52 14.64 16.72 14.68 16.84C14.68 16.84 14.8 17.2 14.8 17.24C14.88 17.32 15 17.32 15.04 17.24C15.16 16.96 15.28 16.68 15.4 16.4C15.76 15.6 16.12 14.88 16.52 14.12L17.72 11.72C17.8 11.52 17.92 11.28 18.04 11.04C18.16 10.8 18.28 10.56 18.4 10.32C18.48 10.08 18.56 9.96 18.6 9.88L18.64 15.6C18.64 15.88 18.64 16.12 18.64 16.28C18.64 16.4 18.6 16.52 18.48 16.6C18.4 16.68 18.24 16.72 18 16.76L17.6 16.8C17.56 16.84 17.56 16.88 17.56 17C17.56 17.04 17.56 17.12 17.64 17.16C17.92 17.16 18.2 17.12 18.48 17.12H20.08C20.36 17.12 20.64 17.16 20.92 17.16C20.96 17.12 21 17.08 21 17C21 16.92 21 16.88 20.96 16.8H20.56C20.36 16.8 20.2 16.72 20.12 16.64C20.04 16.56 19.96 16.44 19.92 16.28C19.92 16.12 19.88 15.92 19.88 15.68C19.84 15 19.8 14.28 19.8 13.6C19.8 12.84 19.76 12.16 19.72 11.48V9.72C19.72 9.4 19.72 9.16 19.76 9C19.8 8.84 19.88 8.68 20 8.6C20.12 8.52 20.36 8.48 20.64 8.44H20.92C20.96 8.4 20.96 8.36 20.96 8.24C20.96 8.2 20.96 8.12 20.92 8.08C20.68 8.08 20.48 8.08 20.28 8.12H19.28C19.12 8.12 18.92 8.12 18.68 8.08C18.68 8.4 18.56 8.76 18.4 9.16C18.2 9.6 17.96 10.12 17.68 10.72L16.4 13.32C16.08 14.04 15.76 14.72 15.36 15.36H15.32C15 14.76 14.68 14.12 14.4 13.48L12.84 10.32C12.64 9.88 12.44 9.44 12.32 9.08C12.2 8.68 12.12 8.36 12.16 8.08C11.88 8.08 11.68 8.08 11.48 8.12ZM3.91996 15.12C3.91996 15.6 3.91996 15.96 3.87996 16.2C3.83996 16.68 3.51996 16.84 3.07996 16.88L2.79996 16.92C2.71996 17 2.71996 17.2 2.79996 17.28C3.39996 17.24 3.91996 17.24 4.47995 17.24C5.11995 17.24 5.67995 17.28 6.31995 17.28C6.35995 17.24 6.35995 17.2 6.39995 17.12C6.39995 17.04 6.39995 16.96 6.35995 16.92L5.99995 16.88C5.67995 16.88 5.47995 16.8 5.35995 16.72C5.35995 16.72 5.35995 16.72 5.31995 16.72C5.19995 16.64 5.11995 16.48 5.07995 16.24C5.03995 16 5.03995 15.64 5.03995 15.16V13.84C4.63995 13.84 4.23995 13.84 3.91996 13.8V15.12ZM2.67996 8.24C2.67996 8.32 2.67996 8.36 2.75996 8.44L3.23996 8.48C3.43996 8.48 3.59996 8.56 3.67996 8.64C3.75996 8.72 3.83996 8.84 3.83996 9.04C3.83996 9.24 3.87996 9.56 3.87996 9.96V12.76C4.23995 12.76 4.63995 12.76 4.99995 12.76V8.92C4.99995 8.76 4.99995 8.64 5.03995 8.56C5.03995 8.52 5.11995 8.44 5.23995 8.44C5.35995 8.44 5.55995 8.44 5.79995 8.44C6.51995 8.44 7.07995 8.64 7.43995 9.04C7.79995 9.44 7.99995 10 7.99995 10.68C7.99995 11.28 7.87995 11.8 7.55995 12.2C7.27995 12.56 6.87995 12.84 6.27995 12.96C5.71995 13.08 4.95995 13.16 3.91996 13.12C2.99996 13.12 2.03996 13.04 0.959961 12.92C2.15996 13.16 3.03996 13.32 3.59996 13.4C4.51995 13.52 5.43995 13.48 6.27995 13.36C6.71995 13.32 7.11995 13.2 7.47995 13.04C7.79995 12.88 8.15995 12.68 8.51995 12.44C8.71995 12.28 8.91995 12.04 9.07995 11.72C9.19995 11.4 9.27995 11.08 9.31995 10.64C9.31995 10.16 9.19995 9.76 8.99995 9.4C8.79995 9.04 8.55995 8.76 8.23995 8.56C7.91995 8.36 7.51995 8.2 7.07995 8.12C6.63995 8.04 6.11995 8 5.55995 8C4.99995 8 4.47995 8 4.03995 8C3.59996 8 3.15996 8.04 2.79996 8.08C2.71996 8.12 2.67996 8.16 2.67996 8.24Z" fill="white"/>
</g>
<defs>
<clipPath id="clip0_2310_1886">
<rect width="24" height="24" fill="white"/>
</clipPath>
</defs>
</svg>
