<svg width="24" height="24" viewBox="0 0 24 24" fill="none" xmlns="http://www.w3.org/2000/svg">
<g clip-path="url(#clip0_2310_4212)">
<path d="M24 12C24 18.628 18.628 24 12 24C7.984 24 4.424 22.024 2.248 18.992C1.964 18.6 1.708 18.188 1.472 17.76C0.532 16.052 0 14.088 0 12C0 5.372 5.372 0 12 0C16.476 0 20.38 2.452 22.444 6.084C22.716 6.56 22.956 7.06 23.16 7.572C23.7 8.944 24 10.436 24 12Z" fill="#1273BF"/>
<path d="M10.4444 11.1445H4.66839L3.98438 13.3285H9.76039L10.4444 11.1445Z" fill="#F0EFEB"/>
<path d="M19.792 9.63993C19.3 11.3799 18.792 13.1279 18.108 14.7959C17.528 16.2119 16.344 16.9959 14.756 16.9999C11.532 17.0079 8.31204 17.0039 5.08804 17.0039C4.88804 16.7279 4.70404 16.4359 4.54004 16.1359C4.66404 15.7479 4.79604 15.3359 4.88804 15.0399L5.03204 14.5919H5.44804C8.20004 14.5879 10.956 14.5879 13.708 14.5879C14.828 14.5879 14.828 14.5879 15.168 13.5319C15.52 12.4359 15.852 11.3359 16.224 10.2519C16.352 9.87592 16.276 9.81193 15.9 9.81593C12.972 9.83193 6.56404 9.82792 6.56404 9.82792L7.32404 7.44793C7.32404 7.44793 14.708 7.43992 18.22 7.45192C18.672 7.45192 19.064 7.61592 19.356 7.88792C19.64 8.15192 19.824 8.51992 19.86 8.93993C19.88 9.15992 19.86 9.39593 19.792 9.63993Z" fill="#F0EFEB"/>
<path d="M6.55957 9.84013L6.56357 9.82812H6.55957V9.84013Z" fill="#F0EFEB"/>
</g>
<defs>
<clipPath id="clip0_2310_4212">
<rect width="24" height="24" fill="white"/>
</clipPath>
</defs>
</svg>
