<svg width="24" height="24" viewBox="0 0 24 24" fill="none" xmlns="http://www.w3.org/2000/svg">
<g clip-path="url(#clip0_2310_2721)">
<path d="M23.9999 11.9999C23.9999 18.6274 18.6274 24 12 24C5.37255 24 0 18.6274 0 11.9999C0 5.37255 5.37255 0 12 0C18.6273 0 23.9999 5.37255 23.9999 11.9999Z" fill="#BEBEBE"/>
<path d="M21.4524 11.9992C21.4524 17.2192 17.2205 21.4515 12.0002 21.4515C6.78001 21.4515 2.54785 17.2192 2.54785 11.9992C2.54785 6.77882 6.78001 2.54688 12.0002 2.54688C17.2206 2.54688 21.4524 6.77874 21.4524 11.9992Z" fill="#BEBEBE"/>
<path d="M11.2983 15.2076L12.0777 12.2727L13.9231 11.5985L14.3821 9.87364L14.3664 9.83086L12.5499 10.4945L13.8587 5.56641H10.147L8.43541 11.9976L7.00637 12.5197L6.53418 14.2979L7.96213 13.7763L6.95338 17.5665H16.8317L17.465 15.2076H11.2983Z" fill="white"/>
</g>
<defs>
<clipPath id="clip0_2310_2721">
<rect width="24" height="24" fill="white"/>
</clipPath>
</defs>
</svg>
