<svg width="24" height="24" viewBox="0 0 24 24" fill="none" xmlns="http://www.w3.org/2000/svg">
<path fill-rule="evenodd" clip-rule="evenodd" d="M9.6302 12.7252C9.46176 12.5563 9.26164 12.4222 9.04137 12.3306C8.82109 12.239 8.58493 12.1917 8.34637 12.1914C8.10781 12.1911 7.87152 12.2378 7.65098 12.3288C7.43049 12.4198 7.23002 12.5533 7.06111 12.7218C6.89219 12.8903 6.75814 13.0904 6.66655 13.3106C6.57495 13.5309 6.52765 13.7671 6.52735 14.0056C6.52704 14.2442 6.57373 14.4805 6.66471 14.701C6.75574 14.9216 6.88927 15.122 7.05775 15.2909L14.0893 22.3047L16.6621 19.7384L9.6302 12.7252Z" fill="#F4A800"/>
<path fill-rule="evenodd" clip-rule="evenodd" d="M16.9416 8.7046L9.91039 1.69141L7.33789 4.25739L14.3692 11.2709C14.5375 11.4406 14.7377 11.5755 14.9582 11.6678C15.1787 11.7601 15.4153 11.8079 15.6544 11.8085C15.8935 11.8092 16.1303 11.7627 16.3513 11.6716C16.5723 11.5806 16.7733 11.4468 16.9425 11.278C17.1118 11.1091 17.2461 10.9085 17.3376 10.6877C17.4292 10.4669 17.4763 10.2302 17.4762 9.99109C17.4761 9.75205 17.4289 9.51536 17.3372 9.29456C17.2454 9.07381 17.111 8.87334 16.9416 8.7046Z" fill="#F4A800"/>
<path fill-rule="evenodd" clip-rule="evenodd" d="M10.1729 2.0681L9.90977 1.69141L0.532193 11.023C0.191437 11.3637 -9.49951e-09 11.8259 0 12.3078C9.49951e-09 12.7897 0.191437 13.2519 0.532193 13.5926C0.872954 13.9334 1.33512 14.1248 1.81702 14.1248C2.29893 14.1248 2.7611 13.9334 3.10186 13.5926L10.1238 6.60482C11.623 5.11301 10.8114 2.98527 10.1729 2.0681Z" fill="#FFBB13"/>
<path fill-rule="evenodd" clip-rule="evenodd" d="M23.4694 10.407C23.1279 10.0668 22.6658 9.87561 22.1838 9.875C21.7018 9.87443 21.2392 10.0646 20.8969 10.4039L13.8755 17.3914C12.3763 18.8829 13.1879 21.0109 13.8266 21.9275L14.089 22.3048L23.4666 12.973C23.6354 12.8048 23.7695 12.6049 23.861 12.3849C23.9526 12.1648 23.9998 11.9289 24.0001 11.6906C24.0003 11.4522 23.9536 11.2162 23.8625 10.9959C23.7715 10.7757 23.6379 10.5755 23.4694 10.407Z" fill="#FFBB13"/>
</svg>
