<svg width="24" height="24" viewBox="0 0 24 24" fill="none" xmlns="http://www.w3.org/2000/svg">
<g clip-path="url(#clip0_2310_3935)">
<path d="M12 24C18.6274 24 24 18.6274 24 12C24 5.3726 18.6274 0 12 0C5.3726 0 0 5.3726 0 12C0 18.6274 5.3726 24 12 24Z" fill="#8DC351"/>
<path d="M17.6196 9.96822C17.0516 9.68022 16.3676 9.62022 15.5756 9.79222C16.2596 8.90022 16.2836 7.92422 15.6476 6.87222C15.4196 6.48822 15.1436 6.19222 14.8156 5.98822C14.4876 5.78022 14.1276 5.66422 13.7236 5.63622C13.3236 5.60822 12.9116 5.63622 12.4996 5.71622C12.0836 5.80022 11.6276 5.93222 11.1276 6.12022L10.0316 3.82422L8.6276 4.49222L9.6916 6.72422C9.4476 6.84022 9.0796 7.02422 8.5876 7.27222L7.5156 5.02022L6.1116 5.68822L7.2076 7.98422C7.0116 8.08422 6.7156 8.22822 6.3276 8.41622L4.3916 9.32822L5.1036 10.8242L6.1156 10.3402C6.5756 10.1202 6.9476 10.1962 7.2236 10.5722L8.4716 13.1882C8.5316 13.1602 8.5836 13.1402 8.6236 13.1282L8.4796 13.1962L10.2276 16.8602C10.3276 17.1922 10.2236 17.4322 9.9196 17.5762L8.9076 18.0602L9.4196 19.8642L11.2436 18.9962C11.3596 18.9402 11.5276 18.8642 11.7476 18.7602C11.9676 18.6602 12.1316 18.5842 12.2436 18.5282L13.3516 20.8522L14.7556 20.1842L13.6596 17.8882C13.9196 17.7722 14.2916 17.6002 14.7756 17.3682L15.8676 19.6562L17.2716 18.9882L16.1636 16.6642C16.6516 16.4042 17.0716 16.1442 17.4236 15.8962C17.7756 15.6442 18.0956 15.3642 18.3796 15.0522C18.6636 14.7402 18.8716 14.4242 19.0076 14.0962C19.1436 13.7722 19.2116 13.4082 19.2076 13.0042C19.2076 12.6042 19.1236 12.1762 18.9596 11.7242C18.6356 10.8402 18.1916 10.2522 17.6196 9.96822ZM9.4036 8.89622C9.4476 8.87622 9.5636 8.81622 9.7596 8.72022C9.9556 8.62422 10.1196 8.54022 10.2476 8.47622C10.3756 8.41222 10.5556 8.33622 10.7876 8.24822C11.0196 8.16022 11.2156 8.09622 11.3836 8.05222C11.5516 8.00822 11.7396 7.98022 11.9556 7.96422C12.1716 7.94822 12.3556 7.96422 12.5156 8.01222C12.6716 8.06022 12.8276 8.14422 12.9756 8.26422C13.1236 8.38422 13.2476 8.54422 13.3436 8.74422C13.4236 8.91622 13.4716 9.08422 13.4836 9.24822C13.4956 9.41222 13.4676 9.56822 13.4036 9.71622C13.3396 9.86422 13.2676 10.0002 13.1836 10.1242C13.0996 10.2482 12.9796 10.3762 12.8236 10.5042C12.6636 10.6322 12.5236 10.7402 12.4036 10.8282C12.2796 10.9162 12.1236 11.0122 11.9276 11.1162C11.7316 11.2202 11.5836 11.3002 11.4796 11.3522C11.3796 11.4042 11.2356 11.4722 11.0556 11.5562C10.8756 11.6402 10.7676 11.6882 10.7396 11.7002L9.4036 8.89622ZM16.1956 13.2762C16.2036 13.4442 16.1876 13.6002 16.1476 13.7482C16.1036 13.8962 16.0276 14.0442 15.9196 14.1922C15.8076 14.3442 15.6956 14.4762 15.5796 14.5882C15.4636 14.7042 15.3156 14.8282 15.1356 14.9562C14.9556 15.0882 14.7956 15.1962 14.6516 15.2802C14.5116 15.3682 14.3396 15.4642 14.1356 15.5722C13.9316 15.6802 13.7756 15.7602 13.6596 15.8162C13.5436 15.8722 13.3956 15.9402 13.2196 16.0202C13.0436 16.1002 12.9276 16.1522 12.8796 16.1762L11.4116 13.0962C11.4596 13.0722 11.6036 13.0002 11.8396 12.8802C12.0756 12.7602 12.2716 12.6642 12.4236 12.5922C12.5756 12.5202 12.7876 12.4282 13.0636 12.3202C13.3396 12.2122 13.5756 12.1322 13.7756 12.0802C13.9756 12.0282 14.1996 11.9922 14.4516 11.9642C14.7036 11.9362 14.9236 11.9482 15.1076 11.9922C15.2916 12.0362 15.4716 12.1242 15.6436 12.2522C15.8156 12.3802 15.9556 12.5522 16.0596 12.7682C16.1436 12.9402 16.1876 13.1082 16.1956 13.2762Z" fill="white"/>
</g>
<defs>
<clipPath id="clip0_2310_3935">
<rect width="24" height="24" fill="white"/>
</clipPath>
</defs>
</svg>
