<svg width="24" height="24" viewBox="0 0 24 24" fill="none" xmlns="http://www.w3.org/2000/svg">
<g clip-path="url(#clip0_2310_1902)">
<path d="M12 24C18.6274 24 24 18.6274 24 12C24 5.37258 18.6274 0 12 0C5.37258 0 0 5.37258 0 12C0 18.6274 5.37258 24 12 24Z" fill="#FF060A"/>
<path d="M18.5588 9.19979C17.9595 8.77454 17.3182 8.32079 16.6912 7.87079C16.677 7.86029 16.6635 7.84979 16.6462 7.83929C16.5728 7.77896 16.4896 7.73153 16.4003 7.69904L16.3927 7.69529C14.7151 7.2836 13.0378 6.8701 11.361 6.45479L6.873 5.34704L6.75525 5.31554C6.62025 5.27729 6.46425 5.23454 6.29775 5.25554C6.25214 5.26253 6.20862 5.27943 6.17025 5.30504L6.12825 5.34029C6.07566 5.39422 6.03547 5.45898 6.0105 5.53004L6 5.55854V5.71979L6.0075 5.74454C6.9525 8.43329 7.923 11.161 8.859 13.8003C9.57975 15.8328 10.329 17.9373 11.0595 20.0043C11.1045 20.1445 11.2327 20.2368 11.3925 20.2503H11.427C11.4968 20.2521 11.5658 20.2351 11.6268 20.201C11.6877 20.167 11.7384 20.1172 11.7735 20.0568L14.5185 15.997C15.1867 15.0093 15.8558 14.0185 16.5248 13.0308L17.346 11.8143C17.796 11.1468 18.261 10.4575 18.7222 9.78629L18.7463 9.75179V9.70904C18.7568 9.58604 18.7598 9.33329 18.5588 9.19904M15.3428 10.6795C14.6978 11.02 14.04 11.3718 13.3777 11.7198L14.5358 10.4613C15.0173 9.93404 15.5198 9.38879 16.0118 8.85479L16.0223 8.84429C16.0635 8.78804 16.116 8.73554 16.1715 8.67929C16.209 8.64104 16.251 8.60204 16.2892 8.55629C16.5457 8.73629 16.8053 8.91854 17.055 9.09779C17.235 9.22754 17.4188 9.35804 17.6063 9.48779C16.8491 9.88003 16.0946 10.2773 15.3428 10.6795ZM13.6868 10.5108C13.191 11.0553 12.678 11.614 12.1688 12.166C11.1804 10.9499 10.1892 9.73617 9.195 8.52479L7.86075 6.89729L7.85775 6.89354C7.75725 6.77804 7.65975 6.65129 7.563 6.53204C7.50075 6.45104 7.43475 6.37379 7.36875 6.29279C7.77075 6.39779 8.1765 6.49679 8.57475 6.59129C8.925 6.67604 9.28875 6.76379 9.64575 6.85529L15.6795 8.34179C15.0105 9.06629 14.3378 9.80054 13.6868 10.5108ZM11.943 17.3613C11.9812 16.9923 12.0232 16.6128 12.0577 16.24C12.0892 15.9408 12.12 15.6355 12.1515 15.3438C12.1995 14.8758 12.252 14.3913 12.294 13.9165L12.3038 13.8325C12.3383 13.5295 12.3727 13.2175 12.3937 12.904C12.4341 12.8813 12.476 12.8612 12.519 12.844C12.5707 12.82 12.6225 12.799 12.6743 12.7675C13.4747 12.3409 14.2765 11.9167 15.0795 11.4948C15.8805 11.0733 16.7017 10.6368 17.5162 10.2048C16.7772 11.2902 16.0412 12.3777 15.3082 13.4673C14.688 14.3838 14.0505 15.3295 13.416 16.261C13.167 16.6338 12.9068 17.0133 12.6608 17.3785C12.3833 17.7865 12.099 18.2043 11.8222 18.6235C11.8567 18.2013 11.898 17.776 11.943 17.3613ZM7.113 7.12229C7.068 6.99554 7.0185 6.86579 6.97725 6.74279C7.91325 7.88879 8.85525 9.04154 9.774 10.159C10.2487 10.7388 10.7235 11.3155 11.1982 11.899C11.292 12.0078 11.3857 12.124 11.4757 12.2365C11.5935 12.3805 11.7113 12.532 11.8395 12.676C11.7975 13.0375 11.763 13.4035 11.7248 13.7545C11.7008 14.0005 11.6767 14.2473 11.649 14.497V14.5C11.6385 14.6575 11.6175 14.8165 11.6003 14.971L11.5208 15.6708L11.517 15.6948C11.4548 16.405 11.3783 17.122 11.3055 17.818C11.2748 18.106 11.247 18.4015 11.2155 18.697C11.1983 18.6445 11.178 18.5913 11.16 18.5418C11.1072 18.3985 11.0564 18.2545 11.0078 18.1098L10.6365 17.0658L7.11225 7.12229" fill="white"/>
</g>
<defs>
<clipPath id="clip0_2310_1902">
<rect width="24" height="24" fill="white"/>
</clipPath>
</defs>
</svg>
