<svg width="24" height="24" viewBox="0 0 24 24" fill="none" xmlns="http://www.w3.org/2000/svg">
<g clip-path="url(#clip0_2310_4145)">
<path d="M18.9192 15.0886C19.321 15.2432 19.4756 15.8451 19.5063 16.1077C19.5682 16.5867 19.4295 16.772 19.2749 16.772C19.1204 16.772 18.9039 16.5867 18.6725 16.2162C18.4407 15.8451 18.348 15.4285 18.4719 15.212C18.5487 15.0728 18.7181 15.0114 18.9192 15.0886ZM16.572 16.8339C16.8192 16.8339 17.0972 16.9419 17.3444 17.1579C17.8229 17.5597 17.9621 18.0229 17.7149 18.3627C17.5757 18.5326 17.3444 18.6406 17.0818 18.6406C16.8192 18.6406 16.5413 18.548 16.356 18.3781C15.9236 18.0075 15.8002 17.3893 16.0776 17.0499C16.1861 16.9107 16.356 16.8339 16.572 16.8339ZM11.1672 21.297C5.29831 21.297 0.541992 16.5402 0.541992 10.6717C0.541992 4.8032 5.29879 0.046875 11.1668 0.046875C17.0353 0.046875 21.7921 4.80368 21.7921 10.6717C21.7921 12.6637 21.2362 14.5328 20.2944 16.1235C20.2632 16.1696 20.186 16.1542 20.1706 16.0923C19.8 13.4826 18.2093 12.0459 15.8928 11.6139C15.6917 11.5827 15.661 11.4594 15.9236 11.4286C16.634 11.3667 17.6376 11.3821 18.1628 11.4747C18.1935 11.2122 18.2093 10.9342 18.2093 10.6563C18.2093 6.77984 15.0586 3.62912 11.1821 3.62912C7.30615 3.62912 4.15543 6.77984 4.15543 10.6563C4.15543 14.5328 7.30615 17.6835 11.1826 17.6835H11.5066C11.3965 17.0565 11.3499 16.42 11.3674 15.7837C11.3833 15.3512 11.4759 15.2893 11.6612 15.6291C12.6341 17.3125 14.0242 18.8259 16.742 19.4283C18.9658 19.9227 21.1896 20.4939 23.5834 23.5362C23.7994 23.7987 23.4754 24.0766 23.2282 23.8606C20.7884 21.6982 18.5645 20.9878 16.5413 20.9878C14.2709 21.0037 12.7272 21.297 11.1672 21.297Z" fill="#FF8C00"/>
</g>
<defs>
<clipPath id="clip0_2310_4145">
<rect width="24" height="24" fill="white"/>
</clipPath>
</defs>
</svg>
