<svg width="24" height="24" viewBox="0 0 24 24" fill="none" xmlns="http://www.w3.org/2000/svg">
<g clip-path="url(#clip0_2310_3019)">
<path d="M12 24C18.6274 24 24 18.6274 24 12C24 5.3726 18.6274 0 12 0C5.3726 0 0 5.3726 0 12C0 18.6274 5.3726 24 12 24Z" fill="#00384F"/>
<path d="M16.9601 13.1581H13.3281L13.9721 14.6221H15.8681L16.9601 13.1581ZM18.7121 10.4141H12.1201L12.7641 11.8781H17.6161L18.7121 10.4141Z" fill="#009A61"/>
<path d="M12.1044 6.39844L6.98438 17.5864H8.93238L12.1004 10.3704L15.2724 17.5984H17.2244L12.1044 6.39844Z" fill="white"/>
<path d="M5.28809 10.4141L6.36009 11.8781H12.7641L12.1201 10.4141H5.28809ZM7.23609 13.1581L8.30809 14.6221H13.9681L13.3241 13.1581H7.23609Z" fill="#009A61"/>
</g>
<defs>
<clipPath id="clip0_2310_3019">
<rect width="24" height="24" fill="white"/>
</clipPath>
</defs>
</svg>
