<svg width="24" height="24" viewBox="0 0 24 24" fill="none" xmlns="http://www.w3.org/2000/svg">
<path d="M15.4777 3.35938C10.732 3.35938 6.95703 7.1883 6.95703 11.8801C6.95703 16.6258 10.786 20.4008 15.4777 20.4008C20.1695 20.4008 23.9984 16.5719 23.9984 11.8801C23.9984 7.1883 20.1695 3.35938 15.4777 3.35938ZM15.4777 15.0619C13.752 15.0619 12.296 13.6058 12.296 11.8801C12.296 10.1544 13.752 8.6983 15.4777 8.6983C17.2034 8.6983 18.6595 10.1544 18.6595 11.8801C18.6057 13.6058 17.2034 15.0619 15.4777 15.0619Z" fill="#8B3FFD"/>
<path d="M6.90285 5.83984V18.2434H3.88286L0 5.83984H6.90285Z" fill="#8B3FFD"/>
</svg>
