<svg width="24" height="24" viewBox="0 0 24 24" fill="none" xmlns="http://www.w3.org/2000/svg">
<g clip-path="url(#clip0_2310_1878)">
<path d="M0.158203 12.0018C0.158203 18.5641 5.47731 23.8828 12.0413 23.8828C18.6023 23.8828 23.9227 18.5641 23.9227 12.0018C23.9227 5.4391 18.6023 0.120415 12.0413 0.120415C5.47731 0.120415 0.158203 5.4391 0.158203 12.0018Z" fill="url(#paint0_linear_2310_1878)"/>
<path d="M0.432881 14.5527C0.252993 13.7307 0.158203 12.8769 0.158203 12.0008C0.158203 11.1312 0.251594 10.2835 0.428898 9.46706H23.652C23.8155 10.2199 23.9077 10.9994 23.921 11.7981V12.2036C23.9075 13.0087 23.814 13.7943 23.648 14.5527H0.432881Z" fill="black"/>
<path d="M11.7721 23.8788C8.22536 23.8 5.06248 22.1683 2.9365 19.6367H21.1442C19.0181 22.1683 15.8556 23.8 12.3104 23.8788H11.7721Z" fill="black"/>
<path d="M12.2421 0.121094C15.8234 0.180454 19.0196 1.82447 21.1593 4.38264H2.92137C5.06107 1.82447 8.25756 0.180454 11.8404 0.121094H12.2421Z" fill="black"/>
</g>
<defs>
<linearGradient id="paint0_linear_2310_1878" x1="0.158626" y1="12.0099" x2="23.921" y2="12.0099" gradientUnits="userSpaceOnUse">
<stop stop-color="#FAA61A"/>
<stop offset="1" stop-color="#FFE100"/>
</linearGradient>
<clipPath id="clip0_2310_1878">
<rect width="24" height="24" fill="white"/>
</clipPath>
</defs>
</svg>
