<svg xmlns="http://www.w3.org/2000/svg" width="22" height="24" viewBox="0 0 22 24" fill="none">
    <path d="M21.2936 5.5043L11.705 0.180076C11.4912 0.0620802 11.249 0 11.0026 0C10.7561 0 10.514 0.0620802 10.3002 0.180076L0.711546 5.5043C0.497888 5.62308 0.320408 5.79386 0.196895 5.99952C0.0733823 6.20517 0.0081761 6.43848 0.0078125 6.67605V17.324C0.0078125 17.8049 0.277227 18.253 0.711546 18.4957L10.3002 23.82C10.5142 23.9386 10.757 24.0007 11.0039 24C11.2513 24 11.4939 23.9368 11.7076 23.82L21.2963 18.4957C21.5098 18.377 21.6873 18.2063 21.8108 18.0007C21.9343 17.7952 21.9995 17.562 22 17.3245V6.67605C22 6.19562 21.7306 5.74704 21.2963 5.5043H21.2936ZM11.2198 11.3398C11.1537 11.3764 11.0788 11.3956 11.0026 11.3956C10.9264 11.3956 10.8515 11.3764 10.7854 11.3398L1.46359 6.16426L10.7854 0.990745C10.8518 0.95514 10.9266 0.936452 11.0026 0.936452C11.0786 0.936452 11.1533 0.95514 11.2198 0.990745L20.5416 6.16527L11.2198 11.3398ZM10.3002 12.1469C10.3681 12.1847 10.4409 12.2167 10.5186 12.243V22.8581L1.19681 17.6861C1.13074 17.6495 1.07579 17.5968 1.03746 17.5334C0.999123 17.4699 0.978737 17.3979 0.978334 17.3245V6.9724L10.3002 12.1469Z" fill="black"/>
</svg>
