<svg width="24" height="24" viewBox="0 0 24 24" fill="none" xmlns="http://www.w3.org/2000/svg">
<g clip-path="url(#clip0_2310_4174)">
<path d="M0 12.0002C0 18.6281 5.37181 24 12.0009 24C18.6269 24 24 18.6281 24 12.0002C24 5.37186 18.6269 0 12.0009 0C5.37181 0 0 5.37186 0 12.0002Z" fill="#E30613"/>
<path fill-rule="evenodd" clip-rule="evenodd" d="M11.9998 5.97656C11.0997 5.97656 10.0325 6.83992 9.15227 8.2914C8.23482 9.79463 7.6875 11.6556 7.6875 13.2717C7.6875 15.6375 9.01821 18.0234 12 18.0234C14.9782 18.0234 16.3125 15.6375 16.3125 13.2717C16.3125 11.6556 15.7654 9.79463 14.8524 8.2914C13.9639 6.83992 12.8969 5.97656 11.9998 5.97656Z" fill="white"/>
</g>
<defs>
<clipPath id="clip0_2310_4174">
<rect width="24" height="24" fill="white"/>
</clipPath>
</defs>
</svg>
