<svg xmlns="http://www.w3.org/2000/svg" width="24" height="24" viewBox="0 0 24 24" fill="none">
    <g clip-path="url(#clip0_4294_14527)">
        <path d="M18.6667 0H5.33333C2.38781 0 0 2.38781 0 5.33333V18.6667C0 21.6122 2.38781 24 5.33333 24H18.6667C21.6122 24 24 21.6122 24 18.6667V5.33333C24 2.38781 21.6122 0 18.6667 0Z" fill="#FFDD2D"/>
        <path fill-rule="evenodd" clip-rule="evenodd" d="M22.1251 10.5819L21.256 10.6093C21.1821 10.6093 20.6484 10.5941 20.1303 10.2201C20.1691 10.2237 20.2076 10.2294 20.2472 10.2294C20.7801 10.2294 21.2967 9.91007 21.5032 9.45259L21.8771 8.62684C21.4079 8.63309 20.9793 8.57407 20.9793 8.57407C20.9759 8.5738 20.6377 8.53028 20.2469 8.13291C19.9668 7.84815 19.6197 7.69719 19.2443 7.69719C19.0797 7.69719 18.9329 7.72684 18.8061 7.76681C18.8261 7.69991 18.8444 7.63191 18.8553 7.56201C18.9751 6.78903 18.4757 6.19991 18.4755 6.20045L17.8212 5.39429L17.4159 6.34135C17.4145 6.34407 17.3119 6.56628 17.1289 6.67425C17.074 6.39601 16.938 6.08296 16.6477 5.78432C16.1005 5.22076 15.4348 5.13644 15.0864 5.13644C14.9252 5.13644 14.8099 5.15385 14.7817 5.15848L13.9924 5.31269C14.038 5.13753 14.1353 4.83155 14.3124 4.55631L14.7481 3.88123L13.6519 4.00525L13.3029 3.26736L12.6268 3.61415L12.0018 3L11.3784 3.61415L10.7009 3.26736L10.3525 4.00525L9.25657 3.88096L9.69301 4.55657C9.87039 4.83155 9.96713 5.13672 10.0122 5.31188L9.25903 5.16419L9.23307 5.15984C9.19563 5.15385 9.08112 5.13644 8.91879 5.13644C8.57061 5.13644 7.9046 5.22076 7.35884 5.78404C7.06833 6.08268 6.93196 6.39601 6.87649 6.67425C6.69475 6.56709 6.59281 6.34868 6.59281 6.34868L6.18671 5.39619L5.52261 6.20725C5.44117 6.31169 5.04135 6.86573 5.14984 7.56283C5.16104 7.63245 5.17936 7.69991 5.19903 7.76681C5.07304 7.72629 4.92601 7.69719 4.76176 7.69719C4.38599 7.69719 4.03919 7.84815 3.75824 8.13291C3.36853 8.52865 3.10336 8.55647 3.03567 8.57325C2.96797 8.59004 2.68012 8.63689 2.12997 8.62684L2.5022 9.45259C2.70881 9.91007 3.2256 10.2294 3.75769 10.2294C3.79787 10.2294 3.83613 10.2237 3.87548 10.2201C3.35843 10.5941 2.82468 10.6093 2.76019 10.6096L1.875 10.5819L2.14309 11.419C2.27811 11.8504 2.72931 12.5649 3.59263 12.6419C3.49861 13.0335 3.29037 13.4728 2.83288 13.6621L2.17343 13.9324L2.53308 14.5559C2.73587 14.892 3.21303 15.2853 3.89161 15.2853C4.03809 15.2848 4.17965 15.2701 4.31631 15.2412C4.35128 15.3949 4.39473 15.5489 4.44639 15.7017C4.64835 16.3004 4.47427 16.7176 4.47235 16.7223L4.14659 17.4011L4.87355 17.5917C4.88256 17.5945 5.10228 17.6545 5.37721 17.6545C5.50184 17.6545 5.62153 17.6417 5.73277 17.6152C5.81721 17.5956 5.89865 17.5695 5.97655 17.5379C6.07083 17.7057 6.18507 17.8591 6.31816 17.9964C6.78412 18.4721 7.44439 18.7132 8.28039 18.7132H8.28312L8.87997 18.7055L7.64689 19.216L8.58319 19.6664C8.92371 19.8313 9.32653 20.0263 9.73756 20.1756L9.62032 20.4941L9.94335 20.6404C9.97205 20.6535 10.5927 20.9296 11.6241 20.9885C11.6241 20.9885 11.8733 21 12.0105 21C12.1474 21 12.3934 20.9877 12.3934 20.9877C13.4185 20.9273 14.0343 20.6535 14.0629 20.6404L14.3865 20.4936L14.2684 20.1748C14.6907 20.0211 15.1091 19.8183 15.4353 19.6596L16.3539 19.2155L15.1249 18.7055L15.7243 18.7132C16.5616 18.7132 17.2219 18.4719 17.6871 17.9956C17.8196 17.8593 17.9336 17.7065 18.0284 17.5379C18.1065 17.5695 18.1885 17.5956 18.2732 17.6157C18.3845 17.6417 18.5036 17.6545 18.6283 17.6545C18.8985 17.6545 19.1204 17.5953 19.1264 17.5933L19.8564 17.4011L19.5383 16.7347C19.5309 16.7176 19.3568 16.3004 19.5591 15.7012C19.6101 15.5483 19.6533 15.3944 19.6887 15.2412C19.8259 15.2701 19.9691 15.2848 20.1168 15.2853C20.9813 15.2853 21.3956 14.6804 21.4756 14.5488L21.832 13.9319L21.1725 13.6627C20.714 13.4728 20.5063 13.0338 20.4133 12.6424C21.2655 12.5685 21.7227 11.8534 21.8624 11.4193L22.1251 10.5819Z" fill="#FEFEFE"/>
        <path fill-rule="evenodd" clip-rule="evenodd" d="M13.4423 5.04026C13.0446 4.81996 12.5289 4.69457 12.002 4.69457C11.4779 4.69457 10.9621 4.81996 10.5634 5.04026C10.5271 4.91922 10.4765 4.77209 10.4076 4.61814L10.5574 4.63582L10.7148 4.65241L10.7826 4.50934L10.981 4.08749L11.3489 4.27706L11.4915 4.34914L11.6049 4.23764L12.002 3.8457L12.3999 4.23764L12.5139 4.34914L12.6565 4.27706L13.0225 4.08749L13.2236 4.50934L13.29 4.65241L13.4478 4.63582L13.598 4.61814C13.5291 4.77209 13.478 4.91922 13.4423 5.04026ZM12.002 5.56444C11.3035 5.56525 10.7799 5.7929 10.6659 6.06081L12.002 6.58601L13.3384 6.06081C13.2255 5.7929 12.7016 5.56525 12.002 5.56444ZM12.0162 19.4559H12.0148H12.0033H11.9902H11.9891C11.5663 19.4586 10.9829 19.3721 10.7025 19.2907L10.3647 20.2003C10.5871 20.2791 11.342 20.4307 12.0033 20.4307C12.6633 20.4307 13.4184 20.2791 13.6406 20.2003L13.3034 19.2907C13.0219 19.3721 12.4392 19.4586 12.0162 19.4559ZM13.4332 19.0038C13.7596 18.905 14.3211 18.6923 14.5726 18.5507L14.4047 19.0973L14.9736 19.2855C14.6296 19.4574 14.2127 19.6178 13.7074 19.7551L13.4332 19.0038ZM9.43269 18.5507L9.60102 19.0973L9.03154 19.2855C9.3753 19.4574 9.79394 19.6178 10.2973 19.7551L10.5719 19.0038C10.2462 18.905 9.68409 18.6923 9.43269 18.5507ZM20.0406 9.5741C20.1092 9.59776 20.1786 9.6081 20.2475 9.6081C20.5456 9.6081 20.8331 9.41634 20.9324 9.19713C20.9324 9.19713 20.3863 9.16422 19.7987 8.57102C19.612 8.37873 19.4139 8.32133 19.2443 8.32133C18.9806 8.32133 18.7827 8.4595 18.7827 8.4595C19.1656 8.66244 19.384 8.93156 19.5675 9.15761C19.7238 9.35028 19.8547 9.51165 20.0406 9.5741ZM3.96273 9.5741C3.89605 9.59776 3.82636 9.6081 3.75749 9.6081C3.4596 9.6081 3.17128 9.41634 3.07317 9.1974C3.07317 9.1974 3.61893 9.16422 4.20569 8.57102C4.39344 8.37845 4.59102 8.32133 4.76182 8.32133C5.02392 8.32133 5.22233 8.45977 5.22233 8.45977C4.84042 8.66228 4.62185 8.93086 4.43806 9.15669C4.28094 9.34974 4.14926 9.51154 3.96273 9.5741ZM19.8268 13.9038C19.2778 13.6346 18.9315 12.9198 18.8476 12.6625C18.7564 14.0795 18.0614 15.0633 17.2486 16.0103C16.8267 16.5013 16.6796 16.9786 16.6796 16.9786C16.6796 16.9786 16.7611 16.4377 17.1256 15.9975C17.884 15.091 18.6047 13.9623 18.6583 12.6571C18.6948 11.7462 18.4599 11.0077 18.0926 10.3988C18.298 11.0328 18.2688 11.809 17.5714 12.5339C17.5714 12.5339 18.9603 10.8777 17.0188 9.17972C16.4672 8.72093 15.8784 8.38674 15.4267 8.13037C15.2422 8.02562 15.0804 7.93385 14.9535 7.85189C16.5348 8.3654 17.3071 7.80021 17.3071 7.80021C16.8023 8.23566 16.1483 8.22832 15.7431 8.16549C15.8532 8.2188 15.9675 8.27456 16.0904 8.34037C17.4238 9.06113 18.6222 10.2473 18.8266 11.8898V11.8773C19.1368 13.4902 19.8268 13.9038 19.8268 13.9038ZM20.2327 12.0247C20.2452 12.0255 20.2556 12.0255 20.2682 12.0255C21.0115 12.0255 21.2632 11.2332 21.2632 11.2332H21.2488C21.1124 11.2332 20.0072 11.2011 19.2262 10.2133C19.2043 10.1856 19.1826 10.1581 19.1611 10.1308C18.6755 9.51528 18.2551 8.98222 17.4583 8.76712L17.3763 8.75297L17.3587 8.66974C17.3355 8.54354 17.423 8.42469 17.6206 8.29685C18.7692 7.54836 17.989 6.59341 17.989 6.59341C17.989 6.59341 17.661 7.35714 16.9272 7.35714C16.9184 7.35714 16.9095 7.35688 16.9004 7.35661C16.8914 7.35633 16.882 7.35606 16.8728 7.35606L16.8566 7.35522C16.779 7.35122 16.7036 7.34734 16.628 7.33158L16.493 7.3052C16.493 7.3052 16.702 6.73865 16.197 6.21889C15.8166 5.82641 15.3539 5.75977 15.0866 5.75977C14.9522 5.75977 14.8666 5.77692 14.8666 5.77692C15.1203 6.10682 15.3036 6.65461 15.011 6.99269C14.9128 7.105 14.7602 7.17597 14.6098 7.24585C14.3715 7.35654 14.1391 7.46452 14.1391 7.72977C14.1391 7.91336 14.3116 8.12714 14.6204 8.31916C15.5499 8.90148 16.4724 9.67473 16.8564 10.7105C17.3355 12.0024 16.7955 12.86 16.0248 13.3519C16.0248 13.3519 16.2667 13.5734 16.6171 13.6017C16.6884 13.6085 16.758 13.6119 16.8231 13.6119C17.5632 13.6119 17.946 13.2663 17.946 13.2663C17.946 13.2663 17.883 13.7437 17.4979 14.1867C17.1423 14.5958 16.676 14.837 15.9644 14.8467C15.9644 14.8467 15.942 15.1757 16.2568 15.4601C16.4588 15.6397 16.9243 15.6978 16.9243 15.6978C16.9243 15.6978 16.0524 15.8738 15.9563 17.1551C15.904 17.8495 15.7256 18.091 15.7256 18.091H15.7411C17.7643 18.091 17.7127 16.3642 17.7127 16.3642C17.7127 16.3642 17.8531 16.8753 18.4178 17.0089C18.4858 17.0262 18.5586 17.0333 18.6279 17.0333C18.8094 17.0333 18.9674 16.9909 18.9674 16.9909C18.9674 16.9909 18.6716 16.3705 18.9652 15.5026C19.2082 14.7823 19.1691 14.249 19.1691 14.249C19.1691 14.249 19.4415 14.6589 20.1171 14.6627H20.1242C20.6868 14.6627 20.932 14.2381 20.932 14.2381C19.5831 13.6807 19.7164 11.8824 19.7164 11.8824C19.7164 11.8824 19.8916 12.0124 20.2327 12.0247ZM5.15681 12.6623C5.24864 14.0795 5.94361 15.0633 6.7561 16.0101C7.1778 16.5013 7.32673 16.9783 7.32673 16.9783C7.32673 16.9783 7.2442 16.4374 6.878 15.9979C6.12125 15.091 5.40058 13.9621 5.34757 12.6571C5.30958 11.7459 5.54488 11.0075 5.91273 10.3988C5.70749 11.033 5.73564 11.809 6.43389 12.5341C6.43389 12.5341 5.04476 10.8778 6.9873 9.17974C7.53848 8.72116 8.1264 8.3872 8.5777 8.13084C8.76236 8.02594 8.92416 7.93405 9.0512 7.85192C7.47049 8.36542 6.69817 7.79996 6.69817 7.79996C7.20266 8.23569 7.85637 8.22834 8.26221 8.16552L8.25289 8.17002C8.14584 8.22197 8.03357 8.27644 7.91485 8.34068C6.58093 9.06116 5.38337 10.2476 5.17813 11.8898V11.877C4.86849 13.4899 4.1787 13.9038 4.1787 13.9038C4.7272 13.6346 5.0729 12.9195 5.15681 12.6623ZM7.74898 15.4599C7.54702 15.6397 7.08106 15.6978 7.08106 15.6978C7.08106 15.6978 7.95368 15.8735 8.04961 17.1551C8.1018 17.8495 8.27862 18.0907 8.27862 18.0907H8.26441C6.24069 18.0907 6.29262 16.3639 6.29262 16.3639C6.29262 16.3639 6.15133 16.8753 5.58753 17.0089C5.52002 17.0262 5.44788 17.0333 5.37737 17.0333C5.1959 17.0333 5.03876 16.9909 5.03876 16.9909C5.03876 16.9909 5.33282 16.3707 5.03958 15.5026C4.79717 14.7823 4.83653 14.2487 4.83653 14.2487C4.83653 14.2487 4.56433 14.6589 3.88821 14.663H3.88138C3.31894 14.663 3.07326 14.2381 3.07326 14.2381C4.4214 13.6809 4.2894 11.8825 4.2894 11.8825C4.2894 11.8825 4.11422 12.0125 3.77233 12.0247C3.75977 12.0255 3.74856 12.0255 3.73681 12.0255C2.99318 12.0255 2.74121 11.2332 2.74121 11.2332H2.75624C2.89344 11.2332 3.99753 11.2011 4.77832 10.2133C4.80033 10.1855 4.82217 10.1578 4.84388 10.1303C5.32949 9.51526 5.75018 8.98244 6.54541 8.76714L6.62904 8.75273L6.64681 8.66977C6.67004 8.54357 6.58285 8.42444 6.38554 8.29688C5.2369 7.54837 6.01686 6.5937 6.01686 6.5937C6.01686 6.5937 6.3429 7.35717 7.07888 7.35717C7.08762 7.35717 7.09616 7.35697 7.10484 7.35677C7.11378 7.35656 7.12288 7.35636 7.13244 7.35636L7.1538 7.35518C7.22926 7.35106 7.30362 7.34701 7.3773 7.3316L7.51286 7.30522C7.51286 7.30522 7.3027 6.73868 7.80884 6.2189C8.18898 5.82644 8.65193 5.75953 8.91866 5.75953C9.05394 5.75953 9.1384 5.77693 9.1384 5.77693C8.88533 6.10685 8.70195 6.65462 8.99464 6.99244C9.09261 7.10489 9.24524 7.17593 9.39549 7.24588C9.63337 7.35661 9.86534 7.46458 9.86534 7.72978C9.86534 7.9131 9.69317 8.12716 9.38436 8.31918C8.45489 8.9015 7.53254 9.67502 7.14884 10.7105C6.67004 12.0027 7.21005 12.8603 7.98156 13.3519C7.98156 13.3519 7.73942 13.5734 7.38824 13.6017C7.31692 13.6085 7.24804 13.6118 7.18164 13.6118C6.44238 13.6118 6.0595 13.2663 6.0595 13.2663C6.0595 13.2663 6.12318 13.7437 6.50578 14.187C6.86352 14.5958 7.32948 14.837 8.04113 14.8469C8.04113 14.8469 8.06354 15.1757 7.74898 15.4599ZM11.5455 9.33417H12.0229H12.4989V9.6597C12.3871 9.52318 12.1685 9.5512 12.1685 9.5512V10.0203C12.1685 10.0203 12.177 10.2515 12.2581 10.3513H12.0229H11.7862C11.8687 10.2515 11.8761 10.0203 11.8761 10.0203V9.5512C11.8761 9.5512 11.6583 9.52318 11.5455 9.6597V9.33417ZM10.5063 9.38322C10.5394 9.41857 10.5719 9.45693 10.6036 9.49582L10.608 9.50106C10.6137 9.50802 10.6193 9.5148 10.6255 9.52329C10.6544 9.56164 10.6837 9.60244 10.7121 9.64433C10.7157 9.64904 10.7193 9.65429 10.7229 9.65973L10.7265 9.66496L10.7284 9.66782L10.7297 9.66965L10.7312 9.6718C10.7651 9.72265 10.7971 9.77542 10.8288 9.82982C11.1207 10.3311 11.5875 10.6311 12.002 10.6316C12.4169 10.6311 12.8834 10.3311 13.1761 9.82982C13.2083 9.77406 13.2411 9.71993 13.275 9.66934C13.2802 9.66228 13.2854 9.65493 13.2901 9.64732C13.3188 9.60408 13.3491 9.56218 13.3806 9.52138C13.3848 9.51582 13.389 9.5106 13.393 9.50557L13.3996 9.49718C13.4322 9.45693 13.4658 9.4183 13.4999 9.38186C13.5023 9.37956 13.5046 9.3773 13.5067 9.3751C13.5099 9.37185 13.513 9.36873 13.5163 9.36581C13.665 9.21458 13.842 9.099 14.0742 9.03508L13.9708 8.97524H13.9654L13.5546 8.73806L13.1326 8.49736L12.0053 9.10824L12.002 9.10552L11.9999 9.10824L10.8723 8.49736L10.4506 8.73806L10.039 8.97524H10.0343L9.93022 9.03508C10.1625 9.099 10.3391 9.21322 10.4883 9.36472C10.4909 9.36717 10.4931 9.36974 10.4954 9.37233C10.4988 9.37608 10.5021 9.37984 10.5063 9.38322ZM11.6427 7.57046V7.26425L11.0883 7.032C11.0883 7.032 11.0932 7.20985 11.3427 7.40294C11.4777 7.50898 11.5615 7.53621 11.5799 7.54221C11.5821 7.54293 11.5834 7.54334 11.5837 7.54354L11.6427 7.57046ZM11.9046 6.79544V8.7026L11.0066 8.2318L10.6849 6.3842L11.9046 6.79544ZM12.3622 7.26425L12.9166 7.032C12.9166 7.032 12.912 7.20985 12.6617 7.40294C12.5264 7.50949 12.4426 7.53648 12.4245 7.54229C12.4224 7.54296 12.4212 7.54334 12.4209 7.54354L12.3622 7.57046V7.26425ZM12.9983 8.2318L13.3188 6.3842L12.1 6.79544V8.7026L12.9983 8.2318ZM10.5163 13.1743C10.4428 13.1743 10.2985 13.1656 10.1799 13.1226C10.0491 13.0745 9.85394 12.8354 9.89876 12.5722C9.95533 12.5376 10.0865 12.4642 10.2092 12.4642C10.3037 12.4642 10.3682 12.5083 10.4136 12.6032C10.4529 12.6856 10.524 12.7402 10.5737 12.7715C10.5721 12.8485 10.5647 12.9678 10.5439 13.0736C10.5393 13.0973 10.5333 13.1191 10.527 13.1405C10.5246 13.1499 10.5217 13.1582 10.5193 13.1653L10.5179 13.1693C10.5174 13.1711 10.5168 13.1727 10.5163 13.1743ZM12.2214 12.7705L12.1958 12.7954C12.1909 12.8002 12.1877 12.8034 12.1863 12.8048L12.1592 12.8314L10.7583 12.8094C10.7575 12.9476 10.7348 13.0651 10.7129 13.151C10.7094 13.1654 10.7056 13.1804 10.7017 13.1954L12.3683 13.4934C12.5415 13.373 13.0187 13.0262 13.204 12.8902C13.0693 12.6946 13.0564 12.4621 13.087 12.2984C12.9982 12.2423 12.931 12.1787 12.8774 12.1112C12.6848 12.3201 12.3347 12.6604 12.2217 12.7703L12.2214 12.7705ZM12.1585 10.8984C12.435 10.871 12.7444 10.7529 13.0674 10.4344H15.1742C15.0824 10.6759 15.0064 10.9373 15.0064 11.1973L15.0072 12.8758C14.6547 12.8167 14.6128 12.4392 14.6115 12.4229L14.6052 12.3457L14.5295 12.3391C14.3759 12.3247 14.2748 12.2602 14.189 12.1773C14.0163 12.0051 14.016 11.7266 14.0163 11.7244C14.0163 11.7247 14.0162 11.725 14.016 11.7254C14.0158 11.726 14.0154 11.7268 14.015 11.7277C14.0139 11.7299 14.0122 11.7331 14.0099 11.7371C13.9786 11.7945 13.8492 12.0308 14.0442 12.2864C14.1355 12.4066 14.2686 12.4806 14.4404 12.5099C14.4808 12.7191 14.6372 13.015 15.0072 13.0599V13.8818H13.9674C13.488 13.6158 13.6914 13.1486 13.7004 13.1287L13.7411 13.0403L13.6492 13.0055C13.13 12.814 13.2729 12.2986 13.2798 12.276L13.3008 12.2012L13.2303 12.1681C12.8015 11.9701 12.8595 11.4375 12.8652 11.4152C12.7335 11.5215 12.6859 11.7386 12.7767 11.9513C12.7303 12.0044 12.6687 12.0678 12.6007 12.1378L12.6005 12.1379L12.5895 12.1493C12.1453 12.0364 12.1314 11.6303 12.1314 11.6121L12.1303 11.5496L12.0721 11.527C11.8988 11.4631 11.7797 11.3673 11.7212 11.2387C11.6553 11.0964 11.6786 10.9468 11.6966 10.875C11.7474 10.8864 11.7977 10.8941 11.8464 10.8984C11.8964 10.9036 11.9472 10.9066 11.9991 10.9066H12.0021H12.006C12.0576 10.9066 12.1079 10.9036 12.1585 10.8984ZM10.2686 11.2036L10.2402 12.2721L10.3626 12.2906L10.661 11.2653L10.5097 10.9499L10.2686 11.2036ZM10.8569 15.0951C10.8548 15.1299 10.8802 15.1593 10.9148 15.1601C10.9484 15.1631 10.9774 15.1373 10.9807 15.1033C10.982 15.0706 10.9572 15.0402 10.9222 15.0389C10.8881 15.0358 10.8599 15.0622 10.8569 15.0951ZM13.5888 16.1099C13.5791 16.1073 13.5687 16.1063 13.5596 16.1063C13.4995 16.1063 13.4732 16.1591 13.4732 16.1591C13.5135 16.2666 13.5236 16.3438 13.5327 16.4137C13.543 16.4915 13.552 16.5606 13.6003 16.6529C13.6578 16.7629 13.7532 16.8558 13.8118 16.9126C13.8224 16.9231 13.832 16.9323 13.8398 16.9403C13.8398 16.9403 13.826 17.0385 13.8119 17.1122L13.6818 17.7849C13.599 17.7962 13.512 17.8022 13.4219 17.8063L13.5583 17.1593C13.5782 17.0658 13.4651 17.0035 13.3144 16.9206C13.1559 16.8334 12.9557 16.7233 12.8245 16.5295C12.6993 16.6697 12.464 16.7115 12.2273 16.7115C12.0115 16.7115 11.7958 16.677 11.6644 16.6511C11.6313 16.6463 11.5996 16.6422 11.5682 16.6422C11.4925 16.6422 11.4233 16.6655 11.3755 16.7453L11.3381 16.8086L10.6316 16.6427L10.4556 16.933C10.431 16.9797 10.4294 17.0191 10.4693 17.063L10.5168 17.1149C10.484 17.2171 10.337 17.3722 10.337 17.3722L10.2321 17.2417C10.149 17.1491 10.1626 16.9797 10.2487 16.8231L10.5291 16.3526L11.1276 16.4382L11.035 16.2274C10.9476 16.0326 11.0142 15.8009 11.0692 15.6093L11.0692 15.6091C11.093 15.5262 11.1147 15.4509 11.1208 15.3891C11.114 15.4509 11.0568 15.465 10.9904 15.465C10.9582 15.465 10.9238 15.4617 10.8919 15.4586C10.8644 15.4558 10.8388 15.4534 10.818 15.4534C10.8002 15.4534 10.7852 15.4553 10.7773 15.461L10.6149 15.5591L10.4873 15.4469C10.4717 15.4254 10.4668 15.3742 10.5043 15.3363L10.8002 15.0059L10.4507 14.5993L10.9404 14.8441L11.0902 14.6638C11.1312 14.7035 11.1131 14.8085 11.1131 14.8085C11.2656 14.8123 11.6947 15.0478 11.7174 15.5989C11.7182 15.6157 11.7182 15.6345 11.7182 15.653C11.7182 15.653 11.7226 15.6595 11.73 15.671C11.7603 15.7123 11.8439 15.8183 11.9497 15.8285L12.6269 15.895H12.6294C12.658 15.895 12.6974 15.8822 12.746 15.8663C12.8235 15.8411 12.9244 15.8083 13.0412 15.8083C13.1442 15.8083 13.259 15.8345 13.3818 15.9114C13.3818 15.9114 13.4435 15.863 13.5432 15.8575C13.5508 15.857 13.5596 15.857 13.5664 15.857C13.8216 15.857 13.9514 16.0498 14.0831 16.2457C14.108 16.2829 14.1332 16.3202 14.1592 16.3563C14.2814 16.5295 14.4456 16.7861 14.4456 16.7861C14.385 16.8571 14.329 16.897 14.2347 16.897C14.209 16.897 14.1795 16.8951 14.1472 16.8883C13.96 16.8542 13.865 16.6193 13.7826 16.4158C13.7218 16.2655 13.6678 16.1323 13.5888 16.1099ZM9.9502 16.7182C9.9502 16.7182 10.1847 16.6222 10.2054 16.5542L10.174 16.4761C10.1519 16.4255 10.1551 16.3706 10.1978 16.3406L10.4505 16.1669L10.8727 16.2477C10.8727 16.2477 10.7965 16.1525 10.8039 16.0251L10.4005 15.9403L10.0207 16.1705C9.85756 16.2919 9.84581 16.4902 9.89965 16.6079L9.9502 16.7182ZM13.1888 17.8102C13.0973 17.8102 13.0134 17.8113 12.938 17.8146L13.1363 17.1997C13.1572 17.1426 13.0927 17.0742 13.0286 17.0062C12.9977 16.9734 12.967 16.9407 12.9459 16.9095C13.0437 16.9705 13.2965 17.1042 13.4183 17.1578C13.406 17.1777 13.1888 17.8102 13.1888 17.8102Z" fill="white"/>
        <path fill-rule="evenodd" clip-rule="evenodd" d="M13.6716 13.881H8.99804V11.1965C8.99804 10.9365 8.92152 10.6751 8.83105 10.4336H10.9373C11.1376 10.6316 11.3336 10.7551 11.5202 10.8228C11.4962 10.9183 11.4639 11.1155 11.5539 11.3124C11.6274 11.471 11.7602 11.5931 11.9529 11.6747C11.9733 11.8705 12.0985 12.1653 12.4426 12.2956C12.2915 12.4471 12.145 12.5899 12.0857 12.6473L10.6875 12.6253C10.6558 12.6095 10.6017 12.5738 10.5777 12.5238C10.5762 12.52 10.5742 12.5171 10.5722 12.5142C10.5705 12.5117 10.5688 12.5091 10.5673 12.5058L10.7955 12.5426C10.8004 12.5431 10.8053 12.5431 10.8102 12.5431C10.8542 12.5431 10.8928 12.5129 10.8999 12.468C10.9072 12.4175 10.8736 12.3712 10.8244 12.3639L10.5435 12.3198L10.855 11.2493L10.5599 10.6316L10.0874 11.1288L10.0587 12.2418L9.74112 12.1917C9.69192 12.1822 9.64519 12.2176 9.63644 12.267C9.62907 12.316 9.6624 12.3625 9.71215 12.3712L9.84551 12.3914C9.79796 12.4183 9.76653 12.4398 9.76271 12.4428L9.73565 12.4615L9.72827 12.4947C9.65093 12.8069 9.82556 13.1034 10.0147 13.2359L10.0076 13.2753C9.99992 13.3232 10.0111 13.37 10.0401 13.4094C10.0677 13.4494 10.1092 13.4733 10.1571 13.4817C10.1666 13.4837 10.177 13.4845 10.1866 13.4845C10.268 13.4845 10.3396 13.4281 10.3593 13.3454C10.4298 13.3542 10.4943 13.3556 10.5383 13.3556H10.5752L12.4095 13.6857L12.4409 13.665C12.5866 13.5636 13.1441 13.1597 13.3267 13.0253C13.3767 13.0686 13.4329 13.1072 13.5011 13.1396C13.4415 13.337 13.4379 13.6409 13.6716 13.881ZM8.99803 14.0621H15.0065L15.0077 16.3114C15.0077 17.057 14.568 17.5776 13.8747 17.7473L13.9908 17.1454L13.9923 17.1369C13.9983 17.1033 14.0048 17.0657 14.0096 17.0338C14.0424 17.0474 14.0772 17.0589 14.1143 17.0657C14.1577 17.0738 14.1976 17.078 14.2343 17.078C14.4113 17.078 14.5147 16.9852 14.5833 16.906L14.6724 16.8026L14.5996 16.6896C14.5931 16.6784 14.4316 16.4249 14.308 16.2513C14.2837 16.2173 14.2605 16.183 14.2371 16.1466C14.096 15.9366 13.9195 15.674 13.5661 15.674L13.5341 15.6745C13.4761 15.6782 13.4261 15.6894 13.3855 15.7049C13.2745 15.6536 13.1594 15.6264 13.0405 15.6264C12.8943 15.6264 12.7711 15.6664 12.6891 15.6944C12.6818 15.6964 12.6748 15.6986 12.6681 15.7006C12.653 15.7053 12.6394 15.7096 12.6279 15.7114L11.9671 15.6468C11.9589 15.6454 11.9315 15.6296 11.8987 15.5908V15.5874L12.0417 15.5304C12.0015 15.0562 11.5443 14.7646 11.289 14.666C11.2778 14.6184 11.2549 14.571 11.215 14.5324L11.0729 14.3984L10.948 14.547L10.8865 14.6233L9.96056 14.2446L10.5632 14.9973L10.3257 15.3554C10.2385 15.4477 10.3344 15.5396 10.3344 15.5396L10.5801 15.7082L10.8345 15.6136C10.8408 15.6136 10.8464 15.6145 10.852 15.6154C10.8545 15.6158 10.8571 15.6162 10.8597 15.6165C10.8526 15.638 10.8446 15.6948 10.837 15.7481C10.8311 15.7898 10.8255 15.8294 10.8209 15.848L10.379 15.7616L9.91492 16.0224C9.67633 16.1969 9.64381 16.4853 9.73236 16.6828L9.78375 16.7948L9.85671 16.953L10.0196 16.8862C10.0218 16.886 10.024 16.8848 10.0251 16.8837C9.96685 17.0692 9.99063 17.2457 10.0945 17.3613L10.1934 17.4845L10.3246 17.6493L10.4686 17.4957C10.5107 17.4538 10.6484 17.3004 10.6908 17.1696L10.7217 17.0692L10.6517 16.992L10.6397 16.9784L10.7192 16.8484L11.2959 16.9836L11.4254 17.0134L11.4943 16.9001L11.532 16.8384C11.5391 16.825 11.5407 16.823 11.5675 16.823C11.5877 16.823 11.6082 16.825 11.6304 16.8301C11.8482 16.8709 12.0488 16.8913 12.2267 16.8913C12.3997 16.8913 12.503 16.8848 12.6257 16.8442C12.6257 16.8442 12.9353 17.1944 12.946 17.2072L12.7566 17.79L12.7479 17.8248C12.389 17.8538 12.2141 17.9322 12.0029 18.1422C11.6962 17.8394 11.4784 17.8074 10.6539 17.8074C9.66677 17.8074 8.99803 17.2313 8.99803 16.3114V14.0621Z" fill="#FFDD2D"/>
        <path fill-rule="evenodd" clip-rule="evenodd" d="M10.7144 4.65081L10.5569 4.63421L10.4072 4.61626C10.476 4.77074 10.5266 4.91734 10.563 5.03865C10.9617 4.81862 11.4774 4.69324 12.0016 4.69324C12.5284 4.69324 13.0444 4.81862 13.4418 5.03865C13.4778 4.91734 13.5287 4.77074 13.5975 4.61626L13.4473 4.63421L13.2896 4.65081L13.2232 4.50801L13.0223 4.08589L12.6561 4.27546L12.5134 4.34781L12.3995 4.23576L12.0016 3.84409L11.6045 4.23576L11.491 4.34781L11.3484 4.27546L10.9805 4.08589L10.7821 4.50801L10.7144 4.65081ZM13.5815 5.39309C13.2702 5.14558 12.7061 4.91304 12.0016 4.91304C11.2981 4.91304 10.7363 5.14558 10.4228 5.39309C10.4228 5.39309 10.3307 4.83878 10.0148 4.35002L10.5821 4.41421L10.8786 3.78646L11.4501 4.07913L12.0016 3.53516L12.555 4.07913L13.1251 3.78646L13.4222 4.41421L13.9901 4.35002C13.6738 4.83878 13.5815 5.39309 13.5815 5.39309ZM10.922 15.0371C10.8878 15.0339 10.8594 15.0606 10.8567 15.0936C10.8543 15.1282 10.8799 15.1576 10.9146 15.1584C10.9482 15.1611 10.9772 15.1356 10.9804 15.1016C10.9818 15.069 10.957 15.0384 10.922 15.0371ZM13.7073 19.7535L13.4329 19.002C13.7591 18.9034 14.3207 18.6907 14.5721 18.549L14.4046 19.0959L14.9733 19.2838C14.6293 19.4557 14.2122 19.6159 13.7073 19.7535ZM12.003 20.429C11.3417 20.429 10.5868 20.2776 10.3644 20.1988L10.7022 19.289C10.9823 19.3706 11.5658 19.4569 11.9888 19.4542H11.9899H12.003H12.0145H12.0159C12.4387 19.4569 13.0213 19.3706 13.3031 19.289L13.6403 20.1988C13.4178 20.2776 12.663 20.429 12.003 20.429ZM9.03123 19.2838L9.6007 19.0958L9.4321 18.549C9.68323 18.6906 10.2456 18.9032 10.5713 19.002L10.2967 19.7534C9.79362 19.6158 9.37471 19.4557 9.03123 19.2838ZM14.9989 19.1169L14.6526 18.985L14.7482 18.6287L14.8534 18.2408C14.8534 18.2408 14.2402 18.572 13.3758 18.8207C13.1306 18.8906 12.9451 18.9224 12.9451 18.9224V19.1867C12.9451 19.1867 12.4827 19.2667 12.0159 19.2667H12.0102H12.003H11.994H11.9888C11.5212 19.2667 11.0596 19.1867 11.0596 19.1867V18.9224C11.0596 18.9224 10.8738 18.8906 10.6289 18.8207C9.76452 18.572 9.15207 18.2408 9.15207 18.2408L9.25566 18.6287L9.35295 18.985L9.00587 19.1169L8.6208 19.2602C8.66304 19.2806 8.70684 19.3018 8.75203 19.3236C9.1786 19.53 9.72739 19.7956 10.2335 19.9334L10.1015 20.2925C10.1015 20.2925 10.8115 20.6145 11.994 20.6174V20.6179H11.9976H12.003H12.0074H12.0102V20.6174C13.1943 20.6145 13.9035 20.2925 13.9035 20.2925L13.771 19.9334C14.2813 19.7944 14.8357 19.5256 15.2627 19.3184C15.3041 19.2984 15.3443 19.279 15.3831 19.2602L14.9989 19.1169ZM20.9317 14.2366C20.9317 14.2366 20.6866 14.6614 20.1237 14.6614H20.1167C19.4409 14.6574 19.1687 14.2472 19.1687 14.2472C19.1687 14.2472 19.2075 14.7809 18.9643 15.5007C18.6714 16.3693 18.967 16.9891 18.967 16.9891C18.967 16.9891 18.8089 17.0315 18.6274 17.0315C18.5579 17.0315 18.4855 17.0247 18.4169 17.0072C17.8526 16.8735 17.7121 16.3622 17.7121 16.3622C17.7121 16.3622 17.7638 18.0893 15.7406 18.0893H15.7247C15.7247 18.0893 15.9031 17.8478 15.9557 17.1537C16.0518 15.8723 16.9237 15.696 16.9237 15.696C16.9237 15.696 16.4582 15.6378 16.2569 15.4581C15.9411 15.1738 15.9635 14.845 15.9635 14.845C16.6755 14.8353 17.1421 14.5939 17.4973 14.1851C17.8823 13.742 17.9453 13.2648 17.9453 13.2648C17.9453 13.2648 17.5626 13.6099 16.8225 13.6099C16.7575 13.6099 16.6881 13.607 16.6165 13.5999C16.2663 13.5718 16.0242 13.3502 16.0242 13.3502C16.7946 12.8587 17.3353 12.0006 16.8559 10.7087C16.4719 9.67348 15.5493 8.89996 14.6201 8.31736C14.311 8.12534 14.1389 7.91156 14.1389 7.72797C14.1389 7.46278 14.371 7.3549 14.609 7.24426C14.7594 7.17436 14.9122 7.10336 15.0103 6.99089C15.303 6.65281 15.1194 6.1053 14.8661 5.77538C14.8661 5.77538 14.9513 5.75797 15.0861 5.75797C15.3535 5.75797 15.8163 5.82461 16.1965 6.21736C16.7014 6.73713 16.4921 7.30366 16.4921 7.30366L16.6274 7.32978C16.7045 7.34612 16.7814 7.34984 16.8606 7.35369L16.8722 7.35426C16.8813 7.35426 16.8905 7.35453 16.8995 7.3548C16.9087 7.35508 16.9179 7.35534 16.9269 7.35534C17.6605 7.35534 17.9883 6.59188 17.9883 6.59188C17.9883 6.59188 18.7683 7.54656 17.6199 8.29505C17.4223 8.42316 17.3353 8.54202 17.3582 8.66794L17.3759 8.75117L17.4577 8.7656C18.2538 8.98045 18.6739 9.51274 19.1587 10.1269L19.159 10.1273L19.1617 10.1306L19.1633 10.1325L19.1638 10.1332L19.1653 10.1351L19.1667 10.137L19.1678 10.1383C19.1869 10.1626 19.2062 10.187 19.2255 10.2115C20.0069 11.1996 21.1115 11.2314 21.2479 11.2314H21.263C21.263 11.2314 21.0107 12.0237 20.2677 12.0237C20.255 12.0237 20.2443 12.0237 20.2323 12.0229C19.891 12.0106 19.7158 11.8809 19.7158 11.8809C19.7158 11.8809 19.5827 13.679 20.9317 14.2366ZM20.2678 12.2663C21.179 12.2663 21.4839 11.3438 21.4962 11.3043L21.5982 10.979L21.2566 10.9896H21.2554C21.135 10.9896 20.1293 10.9633 19.4167 10.0616L19.3495 9.97813L19.3461 9.97369C18.8817 9.38592 18.4402 8.82726 17.6523 8.57224C17.6754 8.55184 17.7079 8.52654 17.7527 8.49744C18.1719 8.22356 18.4157 7.8901 18.4769 7.50333C18.5666 6.92156 18.1933 6.45728 18.1769 6.43852L17.9233 6.12654L17.7647 6.49672L17.7645 6.49717C17.751 6.52689 17.4843 7.11304 16.9271 7.11304H16.885C16.8751 7.11248 16.8654 7.11194 16.8557 7.11142C16.8279 7.10993 16.8006 7.10845 16.7741 7.10624C16.7937 6.84214 16.7454 6.4328 16.3721 6.04849C15.9235 5.58638 15.3737 5.51676 15.0862 5.51676C14.9507 5.51676 14.8554 5.53157 14.827 5.536C14.8231 5.53658 14.8206 5.537 14.8191 5.53716L14.4361 5.61277L14.6727 5.92282C14.8577 6.1619 15.0261 6.60306 14.8266 6.83316C14.7665 6.90249 14.6462 6.95945 14.5274 7.01572L14.5063 7.02573C14.2486 7.14377 13.8958 7.30886 13.8958 7.728C13.8958 7.99889 14.1073 8.28285 14.4907 8.52409C15.6251 9.23398 16.3253 9.97514 16.6275 10.793C17.0954 12.0512 16.4849 12.769 15.8927 13.147L15.6265 13.317L15.859 13.5298L15.8593 13.5299C15.8919 13.5585 16.1758 13.807 16.5955 13.8427C16.6754 13.8476 16.7514 13.8523 16.8227 13.8523C17.0919 13.8523 17.3217 13.8102 17.5083 13.7532C17.457 13.8427 17.3935 13.9344 17.3146 14.026C16.9757 14.4164 16.559 14.594 15.9599 14.6038L15.7371 14.6074L15.7202 14.8295C15.7181 14.8744 15.7011 15.2864 16.0933 15.6371C16.1531 15.6915 16.2255 15.736 16.3018 15.7722C16.0357 16.0104 15.7655 16.4255 15.7134 17.1359C15.6691 17.7294 15.5273 17.9487 15.5254 17.9511L15.2791 18.3251L15.7241 18.3311C16.459 18.3311 17.0214 18.1295 17.4114 17.7294C17.6421 17.4928 17.7738 17.2255 17.8517 16.9891C17.9793 17.0977 18.1443 17.1928 18.3599 17.2434C18.4417 17.2624 18.5307 17.2724 18.6275 17.2724C18.8294 17.2724 18.9998 17.231 19.0263 17.2246L19.0282 17.2241L19.3121 17.149L19.1866 16.8855L19.1861 16.8842C19.1709 16.8487 18.9445 16.3236 19.1954 15.5796C19.3053 15.253 19.3613 14.9606 19.3886 14.733C19.5677 14.8255 19.807 14.9022 20.1166 14.9032C20.8091 14.9032 21.1202 14.3958 21.1423 14.3598L21.1431 14.3584L21.2817 14.1186L21.0251 14.0133C20.1871 13.6671 20.0019 12.7374 19.9647 12.2345C20.0405 12.2489 20.127 12.2623 20.2246 12.265L20.2678 12.2663ZM19.7986 8.56953C19.6114 8.37696 19.4135 8.31957 19.2438 8.31957C18.9801 8.31957 18.7825 8.45829 18.7825 8.45829C19.1654 8.6611 19.3838 8.93012 19.5673 9.15609C19.7235 9.34862 19.8545 9.5099 20.0402 9.57234C20.1087 9.596 20.1779 9.60634 20.247 9.60634C20.5449 9.60634 20.8325 9.41458 20.9319 9.19592C20.9319 9.19592 20.3859 9.16273 19.7986 8.56953ZM19.3781 9.30826C19.2045 9.09421 19.0063 8.85269 18.6666 8.67264L18.3177 8.48578L18.6418 8.25868L18.6459 8.25601C18.6882 8.22912 18.9265 8.07753 19.2438 8.07753C19.5141 8.07753 19.7653 8.18822 19.9727 8.39848C20.4771 8.91117 20.9306 8.9525 20.947 8.95305L21.2993 8.97373L21.1535 9.29521C21.009 9.61588 20.6273 9.84734 20.2471 9.84734C20.1493 9.84734 20.0538 9.83265 19.9642 9.80192C19.7138 9.71945 19.5529 9.52238 19.3843 9.31604L19.3781 9.30826ZM18.8262 11.8756V11.8878C18.6217 10.2456 17.4237 9.05945 16.0899 8.33869C15.967 8.27286 15.8527 8.21738 15.7426 8.16406C16.1482 8.22662 16.8022 8.23397 17.3066 7.79852C17.3066 7.79852 16.5346 8.3637 14.9531 7.8502C15.0799 7.93217 15.2417 8.02393 15.4262 8.12868C15.8779 8.38505 16.4667 8.71924 17.0183 9.17804C18.9598 10.876 17.5709 12.5322 17.5709 12.5322C18.2683 11.8073 18.2973 11.0313 18.0921 10.3971C18.4597 11.0061 18.6947 11.7445 18.6578 12.6554C18.6042 13.9606 17.8838 15.0891 17.1251 15.9959C16.7606 16.4362 16.6794 16.977 16.6794 16.977C16.6794 16.977 16.8267 16.4996 17.2485 16.0087C18.0609 15.0616 18.7562 14.0784 18.8469 12.6608C18.9311 12.9181 19.2774 13.6329 19.8263 13.9022C19.8263 13.9022 19.1363 13.4885 18.8262 11.8756ZM6.29191 16.3622C6.29191 16.3622 6.24026 18.0893 8.2637 18.0893H8.27819C8.27819 18.0893 8.1011 17.8478 8.04916 17.1537C7.95298 15.8721 7.08063 15.696 7.08063 15.696C7.08063 15.696 7.54631 15.6379 7.74827 15.4581C8.06311 15.1738 8.0407 14.845 8.0407 14.845C7.32878 14.8353 6.86282 14.5939 6.50508 14.1851C6.12247 13.7422 6.05907 13.2648 6.05907 13.2648C6.05907 13.2648 6.44167 13.6099 7.18092 13.6099C7.24734 13.6099 7.3162 13.607 7.3878 13.5999C7.73871 13.5719 7.98112 13.3502 7.98112 13.3502C7.20962 12.8587 6.66932 12.0009 7.14812 10.7087C7.53183 9.67349 8.45419 8.89996 9.38392 8.31737C9.69274 8.12534 9.86464 7.91157 9.86464 7.72797C9.86464 7.46282 9.63284 7.35493 9.39503 7.24424C9.24474 7.17429 9.09204 7.10321 8.99394 6.99062C8.70151 6.65281 8.88462 6.10504 9.13742 5.7754C9.13742 5.7754 9.05351 5.75798 8.91823 5.75798C8.65095 5.75798 8.18855 5.82462 7.80812 6.21737C7.30172 6.73713 7.51215 7.30368 7.51215 7.30368L7.37687 7.32978C7.30163 7.34573 7.22568 7.34966 7.14902 7.35364L7.13174 7.35454C7.1222 7.35454 7.11323 7.35474 7.10435 7.35496C7.09568 7.35516 7.08708 7.35536 7.07816 7.35536C6.34247 7.35536 6.01616 6.59217 6.01616 6.59217C6.01616 6.59217 5.23646 7.54656 6.38483 8.29506C6.58242 8.4229 6.66932 8.54176 6.6461 8.66796L6.6286 8.75118L6.54498 8.7656C5.74924 8.98097 5.32856 9.51376 4.84275 10.129C4.82118 10.1564 4.79948 10.1838 4.7776 10.2115C3.9971 11.1996 2.893 11.2314 2.7558 11.2314H2.7405C2.7405 11.2314 2.99275 12.0237 3.73638 12.0237C3.74812 12.0237 3.75932 12.0237 3.77163 12.0229C4.11351 12.0107 4.2887 11.8809 4.2887 11.8809C4.2887 11.8809 4.4207 13.679 3.07282 14.2366C3.07282 14.2366 3.31824 14.6611 3.88094 14.6611H3.8875C4.5639 14.6574 4.83582 14.2472 4.83582 14.2472C4.83582 14.2472 4.79647 14.7809 5.03887 15.5007C5.33211 16.3693 5.03806 16.9891 5.03806 16.9891C5.03806 16.9891 5.19492 17.0315 5.37694 17.0315C5.44718 17.0315 5.51932 17.0247 5.58682 17.007C6.1509 16.8735 6.29191 16.3622 6.29191 16.3622ZM8.47832 17.9497C8.47874 17.9503 8.47896 17.9507 8.47899 17.9508L8.72523 18.3251L8.28031 18.3311C7.54543 18.3311 6.98355 18.1293 6.59247 17.7295C6.36263 17.4929 6.23036 17.2255 6.15302 16.9891C6.02622 17.0977 5.85951 17.1928 5.64388 17.2434C5.56299 17.2624 5.47362 17.2724 5.37715 17.2724C5.17107 17.2724 4.99644 17.2291 4.97672 17.2242L4.97651 17.2241L4.692 17.149L4.81799 16.8855L4.81886 16.8835C4.83658 16.8418 5.05883 16.3187 4.80898 15.5796C4.69911 15.2527 4.6431 14.9606 4.61576 14.733C4.43675 14.8255 4.19763 14.9022 3.8899 14.903C3.19114 14.903 2.87951 14.3886 2.8616 14.3591L2.86124 14.3584L2.72295 14.1183L2.97875 14.0133C3.81666 13.6671 4.0025 12.7374 4.04048 12.2345C3.96342 12.2489 3.87679 12.2623 3.78059 12.265L3.73659 12.2664C2.82488 12.2664 2.52072 11.3438 2.5087 11.3043L2.4043 10.979L2.74755 10.9896C2.86807 10.9896 3.87542 10.9633 4.58734 10.0616L4.65456 9.97813L4.65935 9.97208C5.12328 9.3849 5.56406 8.82704 6.35224 8.57225C6.3293 8.55185 6.29787 8.52656 6.25223 8.49745C5.83299 8.22356 5.58895 7.8901 5.52828 7.50334C5.43926 6.93256 5.79744 6.47488 5.8247 6.44006L5.8259 6.43852L6.08224 6.12656L6.2402 6.49672C6.25031 6.52012 6.51595 7.11304 7.07838 7.11304H7.11964C7.1291 7.1125 7.13844 7.112 7.1477 7.11149C7.17567 7.10997 7.20296 7.10849 7.23006 7.10624C7.21092 6.84188 7.25984 6.43308 7.63343 6.04822C8.0819 5.58638 8.63067 5.51676 8.91844 5.51676C9.05494 5.51676 9.14963 5.53169 9.17731 5.53605C9.18088 5.53661 9.18335 5.537 9.18463 5.53716L9.5697 5.61277L9.33194 5.92284C9.14636 6.16164 8.97802 6.60306 9.1778 6.83317C9.23727 6.90176 9.3556 6.958 9.47316 7.01388L9.4981 7.02573C9.75608 7.14377 10.1078 7.30888 10.1078 7.728C10.1078 7.9989 9.89792 8.28285 9.5145 8.5241C8.37842 9.23398 7.67935 9.97514 7.37708 10.793C6.91003 12.0512 7.51811 12.7687 8.11251 13.147L8.37842 13.317L8.14531 13.5298C8.11388 13.5575 7.82911 13.8068 7.40824 13.8427C7.32899 13.8476 7.25356 13.8523 7.18114 13.8523C6.91112 13.8523 6.68266 13.8102 6.49627 13.7532C6.5482 13.8427 6.6116 13.9342 6.69003 14.026C7.02864 14.4162 7.4465 14.594 8.04364 14.6038L8.26802 14.6074L8.28304 14.8295C8.28578 14.8744 8.30272 15.2864 7.91082 15.6371C7.8507 15.6915 7.77938 15.736 7.70203 15.7722C7.96876 16.0104 8.23878 16.4255 8.29179 17.1359C8.33546 17.7072 8.46774 17.9317 8.47832 17.9497ZM4.20536 8.56922C4.39311 8.37693 4.59071 8.31926 4.76124 8.31926C5.0236 8.31926 5.22228 8.45798 5.22228 8.45798C4.84043 8.66068 4.62188 8.92914 4.43816 9.15485C4.28092 9.34801 4.14919 9.50985 3.96242 9.5723C3.89572 9.59597 3.82631 9.6063 3.75716 9.6063C3.45955 9.6063 3.17123 9.41456 3.07286 9.19588C3.07286 9.19588 3.61888 9.1627 4.20536 8.56922ZM3.75706 9.84732C3.85488 9.84732 3.94999 9.83289 4.04018 9.80216C4.29154 9.71932 4.45255 9.52181 4.62103 9.31514L4.62666 9.30824L4.63156 9.30224C4.80496 9.08994 5.00015 8.85098 5.33722 8.67261L5.68703 8.48576L5.36208 8.25864L5.35771 8.25588C5.31504 8.22868 5.07782 8.0775 4.76112 8.0775C4.49028 8.0775 4.23886 8.18793 4.03143 8.39845C3.52694 8.91141 3.07464 8.95276 3.05824 8.95302L2.70624 8.97369L2.85082 9.29518C2.99594 9.61585 3.37772 9.84732 3.75706 9.84732ZM5.9123 10.3971C5.54444 11.0061 5.30942 11.7443 5.3474 12.6554C5.40015 13.9607 6.12054 15.0894 6.87755 15.9959C7.24376 16.4358 7.32603 16.977 7.32603 16.977C7.32603 16.977 7.17735 16.4996 6.75594 16.0084C5.94344 15.0616 5.24847 14.0779 5.15664 12.6609C5.07247 12.9182 4.72676 13.633 4.17854 13.9022C4.17854 13.9022 4.86806 13.4886 5.17768 11.8754V11.8882C5.38292 10.2456 6.58076 9.0595 7.9147 8.33874C8.02436 8.27978 8.12832 8.2289 8.22736 8.18044L8.26178 8.16358C7.85648 8.22669 7.2025 8.23404 6.69774 7.79858C6.69774 7.79858 7.47004 8.36377 9.05103 7.85026C8.9243 7.93212 8.76295 8.02374 8.5788 8.12832C8.12724 8.38474 7.53858 8.71905 6.98687 9.17809C5.04459 10.8761 6.434 12.5325 6.434 12.5325C5.73492 11.8074 5.70706 11.0311 5.9123 10.3971ZM11.5453 9.33264V9.65817C11.6581 9.52165 11.8759 9.54965 11.8759 9.54965V10.0188C11.8759 10.0188 11.8685 10.2499 11.786 10.3498H12.0226H12.2579C12.1768 10.2499 12.1683 10.0188 12.1683 10.0188V9.54965C12.1683 9.54965 12.3869 9.52165 12.4987 9.65817V9.33264H12.0226H11.5453ZM11.5798 7.54094C11.5618 7.53509 11.4779 7.50788 11.3424 7.40106C11.0926 7.20825 11.0877 7.03065 11.0877 7.03065L11.6424 7.26264V7.56913L11.5834 7.54221C11.5831 7.54201 11.5819 7.54162 11.5798 7.54094ZM12.6613 7.40106C12.9119 7.20825 12.9168 7.03065 12.9168 7.03065L12.3618 7.26264V7.56913L12.4206 7.54221C12.4209 7.54201 12.4221 7.54162 12.4242 7.54094C12.4422 7.53509 12.5261 7.50789 12.6613 7.40106ZM10.6655 6.05916L12.0016 6.58436L13.3381 6.05916C13.2251 5.79125 12.7012 5.56388 12.0016 5.56305C11.3031 5.56388 10.7795 5.79125 10.6655 6.05916ZM12.0997 8.70094L12.998 8.23041L13.3183 6.38226L12.0997 6.79405V8.70094ZM13.965 8.97348L13.5542 8.7363L13.1322 8.4956L12.0049 9.10648L12.0016 9.10402L11.9994 9.10648L10.8721 8.4956L10.4502 8.7363L10.0386 8.97348H10.0342L9.93008 9.03358C10.1621 9.09722 10.3384 9.21146 10.4881 9.36322C10.4905 9.36549 10.4927 9.36797 10.4949 9.37048C10.4982 9.37429 10.5016 9.37817 10.5059 9.38145C10.539 9.41681 10.5718 9.45542 10.6032 9.49405C10.6046 9.49573 10.6059 9.49737 10.6073 9.49901C10.6132 9.50616 10.6191 9.51317 10.6251 9.5218C10.654 9.55988 10.6833 9.60094 10.7117 9.64256C10.7152 9.64717 10.7187 9.6524 10.7223 9.65778C10.725 9.66192 10.7278 9.66616 10.7308 9.6703C10.7647 9.72089 10.7967 9.77393 10.8284 9.82832C11.1203 10.3296 11.587 10.6293 12.0016 10.6299C12.4168 10.6293 12.8833 10.3296 13.1757 9.82832C13.2079 9.77257 13.2407 9.71817 13.2746 9.66785C13.2795 9.66078 13.285 9.65316 13.2896 9.64582C13.3183 9.60257 13.3486 9.56041 13.3801 9.51989C13.3835 9.5154 13.387 9.51104 13.3903 9.50684C13.3934 9.5029 13.3965 9.49909 13.3993 9.49541C13.4318 9.45542 13.4654 9.41653 13.4995 9.38009C13.5022 9.37761 13.5047 9.37508 13.5073 9.37261C13.5101 9.36966 13.513 9.36682 13.5159 9.36432C13.6649 9.21282 13.8417 9.09722 14.0737 9.03358L13.9703 8.97348H13.965ZM15.0059 11.1956C15.0059 10.9356 15.0818 10.6742 15.1737 10.4327H13.0669C12.7444 10.7512 12.4348 10.8695 12.1579 10.8967C12.1079 10.9018 12.0571 10.9051 12.0057 10.9051H12.0016H11.9986C11.9472 10.9051 11.8958 10.9018 11.8461 10.8967C11.7977 10.8926 11.7469 10.885 11.6961 10.8733C11.678 10.9451 11.6548 11.0944 11.7207 11.2369C11.7797 11.3656 11.8983 11.4616 12.0718 11.5252L12.1303 11.5478L12.1312 11.6104C12.1312 11.6291 12.1448 12.0349 12.5889 12.1475L12.5916 12.1448C12.663 12.0716 12.7278 12.0051 12.7761 11.9498C12.6854 11.7369 12.7329 11.5198 12.8649 11.4134C12.8592 11.436 12.8013 11.9683 13.2298 12.166L13.3006 12.1998L13.2795 12.2748C13.2727 12.2971 13.1298 12.8123 13.6487 13.004L13.7406 13.0383L13.7001 13.1272C13.6909 13.1474 13.4875 13.6146 13.9669 13.8798H15.0067V13.0587C14.6373 13.0135 14.4803 12.7179 14.4399 12.5082C14.2683 12.4791 14.1351 12.4048 14.0437 12.2846C13.8489 12.0288 13.9781 11.7926 14.0094 11.7353C14.0131 11.7285 14.0155 11.7242 14.0158 11.7227C14.0155 11.7252 14.0158 12.0039 14.1887 12.1758C14.2741 12.2585 14.3759 12.323 14.529 12.3374L14.6047 12.3445L14.6115 12.4212C14.6129 12.4378 14.6542 12.815 15.0067 12.874L15.0059 11.1956ZM13.9909 17.1445L13.8747 17.7463C14.5681 17.5766 15.0078 17.056 15.0078 16.3106L15.0067 14.0612H8.99787V16.3106C8.99787 17.2307 9.66688 17.8065 10.654 17.8065C11.4788 17.8065 11.6961 17.8386 12.003 18.1413C12.2142 17.9314 12.3889 17.853 12.748 17.8239L12.7564 17.7888L12.9461 17.2067C12.9354 17.1931 12.6258 16.8434 12.6258 16.8434C12.5028 16.8839 12.3995 16.8907 12.2268 16.8907C12.0489 16.8907 11.848 16.87 11.6305 16.8292C11.6086 16.8243 11.5881 16.8225 11.5676 16.8225C11.5408 16.8225 11.5395 16.8243 11.5321 16.8374L11.4947 16.8991L11.4258 17.0126L11.2957 16.9826L10.7193 16.8475L10.6404 16.9775L10.6521 16.9914L10.7218 17.0683L10.6906 17.1684C10.6486 17.2995 10.5108 17.4529 10.4687 17.4947L10.3247 17.649L10.1935 17.4836L10.0949 17.3604C9.99128 17.2448 9.96723 17.0683 10.0257 16.8826C10.0244 16.8839 10.0219 16.8847 10.0197 16.8852L9.8571 16.9522L9.78414 16.7942L9.73248 16.6821C9.64394 16.4843 9.67646 16.196 9.91504 16.0214L10.3791 15.7608L10.821 15.8474C10.8258 15.8284 10.8315 15.7878 10.8375 15.7451C10.845 15.6926 10.8529 15.637 10.8598 15.6157C10.857 15.6153 10.8542 15.6148 10.8515 15.6143C10.8459 15.6134 10.8404 15.6123 10.8344 15.6123L10.5802 15.707L10.3345 15.539C10.3345 15.539 10.2389 15.4465 10.3255 15.3546L10.563 14.9963L9.96095 14.2438L10.8866 14.6223L10.9484 14.5462L11.0732 14.3974L11.2151 14.5315C11.2553 14.5702 11.2782 14.6174 11.2894 14.665C11.5441 14.7635 12.0016 15.0554 12.0421 15.5296L11.8989 15.5868V15.5898C11.9319 15.6287 11.9587 15.6444 11.9672 15.646L12.6283 15.7108C12.6392 15.7087 12.652 15.7047 12.6662 15.7005C12.6736 15.6982 12.6814 15.6958 12.6895 15.6934C12.7712 15.6659 12.8944 15.6254 13.0409 15.6254C13.1598 15.6254 13.2746 15.6523 13.3855 15.7041C13.4263 15.6889 13.4763 15.6774 13.5345 15.6738L13.5662 15.673C13.9197 15.673 14.0957 15.9351 14.2366 16.145L14.2371 16.1458C14.2606 16.1824 14.2838 16.2162 14.3082 16.2505C14.4319 16.4239 14.593 16.6772 14.5998 16.6886L14.6725 16.8018L14.5834 16.9051C14.5147 16.9843 14.4113 17.077 14.2341 17.077C14.1978 17.077 14.1582 17.073 14.1145 17.0647C14.077 17.0576 14.0426 17.0466 14.0098 17.033C14.0046 17.0675 13.9971 17.1089 13.9909 17.1445ZM10.205 16.5523L10.1738 16.4745C10.1514 16.4239 10.1544 16.369 10.1973 16.3391L10.4501 16.1655L10.8723 16.246C10.8723 16.246 10.796 16.1508 10.8034 16.0236L10.4004 15.9387L10.0203 16.1689C9.85711 16.2905 9.84536 16.4886 9.89947 16.6065L9.94975 16.7166C9.94975 16.7166 10.1845 16.6206 10.205 16.5523ZM13.6815 17.7834L13.8114 17.1104C13.8258 17.037 13.8395 16.9386 13.8395 16.9386C13.8322 16.9312 13.8235 16.9229 13.8138 16.9134C13.7555 16.8567 13.6583 16.7624 13.5998 16.6516C13.5515 16.5592 13.5425 16.4901 13.5322 16.4119C13.5231 16.3419 13.513 16.2648 13.473 16.1574C13.473 16.1574 13.499 16.1047 13.5591 16.1047C13.5683 16.1047 13.5787 16.1058 13.5886 16.1084C13.6674 16.1307 13.7213 16.2638 13.7821 16.4139C13.8643 16.6174 13.9595 16.8524 14.147 16.8868C14.1791 16.8931 14.2085 16.8954 14.2341 16.8954C14.3287 16.8954 14.3847 16.8557 14.4451 16.7843C14.4451 16.7843 14.2811 16.5282 14.159 16.3551C14.1331 16.3191 14.1082 16.2821 14.0833 16.245C13.9513 16.0486 13.8214 15.8552 13.5662 15.8552C13.5591 15.8552 13.5503 15.8553 13.543 15.8563C13.443 15.861 13.3814 15.9097 13.3814 15.9097C13.2588 15.833 13.144 15.8068 13.041 15.8068C12.924 15.8068 12.823 15.8396 12.7454 15.865C12.6969 15.8807 12.6576 15.8936 12.6291 15.8936H12.6264L11.9497 15.8267C11.8437 15.8169 11.7598 15.7109 11.7297 15.669C11.7223 15.6578 11.7182 15.651 11.7182 15.651C11.7182 15.633 11.7182 15.614 11.7171 15.5974C11.6942 15.0463 11.2654 14.8106 11.1126 14.8067C11.1126 14.8067 11.1306 14.7023 11.0894 14.662L10.9399 14.8423L10.4502 14.5976L10.8 15.0042L10.504 15.335C10.4666 15.3727 10.4712 15.4234 10.4868 15.4449L10.6147 15.5574L10.777 15.4598C10.7849 15.4535 10.8 15.4519 10.8175 15.4519C10.8382 15.4519 10.8638 15.4543 10.8913 15.457C10.9232 15.46 10.9577 15.4634 10.9902 15.4634C11.0563 15.4634 11.1134 15.4494 11.1203 15.3877C11.1142 15.4494 11.0925 15.5247 11.0688 15.6077C11.0138 15.7993 10.9473 16.0308 11.0347 16.2256L11.1276 16.4367L10.5289 16.3506L10.2487 16.8216C10.1621 16.9783 10.1487 17.1478 10.2315 17.2402L10.3365 17.3707C10.3365 17.3707 10.4835 17.2158 10.5163 17.1135L10.4687 17.0615C10.4286 17.0174 10.4308 16.9783 10.4554 16.9312L10.6308 16.6415L11.3375 16.807L11.3752 16.7438C11.4231 16.6644 11.4919 16.6407 11.5676 16.6407C11.5991 16.6407 11.631 16.6443 11.6641 16.6498C11.7953 16.6755 12.0109 16.7098 12.2268 16.7098C12.4635 16.7098 12.6991 16.6677 12.8242 16.5282C12.9553 16.7215 13.1553 16.8317 13.3137 16.9189C13.4646 17.0019 13.5777 17.0642 13.5578 17.1578L13.4214 17.8043C13.5115 17.8007 13.5987 17.7947 13.6815 17.7834ZM12.9376 17.8129C13.0128 17.8099 13.0972 17.8089 13.1882 17.8089C13.1882 17.8089 13.4058 17.1761 13.4181 17.1559C13.2962 17.1026 13.0434 16.969 12.9456 16.9078C12.9666 16.9393 12.9976 16.9722 13.0287 17.0051C13.0926 17.073 13.1569 17.1411 13.1358 17.1983L12.9376 17.8129ZM10.2681 11.2021L10.24 12.2703L10.3621 12.2891L10.6605 11.2636L10.5092 10.9484L10.2681 11.2021ZM10.5731 12.7698C10.5236 12.7385 10.4526 12.6839 10.4129 12.6015C10.3681 12.5066 10.3034 12.4625 10.2091 12.4625C10.0861 12.4625 9.95494 12.5359 9.89838 12.5705C9.85355 12.834 10.0487 13.0728 10.1796 13.1209C10.2982 13.1639 10.4422 13.1729 10.5159 13.1729C10.5169 13.1696 10.5181 13.1661 10.5194 13.1623C10.5217 13.1555 10.5243 13.1477 10.5266 13.1391C10.5329 13.1177 10.5389 13.0956 10.5438 13.0722C10.5643 12.9662 10.5717 12.8468 10.5731 12.7698ZM12.3678 13.4916C12.5411 13.3712 13.0185 13.0244 13.2035 12.8887C13.0688 12.6929 13.056 12.4603 13.0863 12.2971C12.998 12.2408 12.9308 12.1769 12.877 12.1095C12.6724 12.3315 12.2903 12.7016 12.203 12.786C12.1938 12.795 12.1879 12.8007 12.1858 12.8028L12.1588 12.83L10.7581 12.8077C10.757 12.9461 10.7346 13.0633 10.7128 13.1495C10.7107 13.1581 10.7083 13.1669 10.706 13.1758C10.7044 13.1818 10.7028 13.1878 10.7013 13.1939L12.3678 13.4916ZM11.5201 10.8216C11.334 10.7542 11.1378 10.6307 10.9372 10.4327H8.83091C8.92136 10.6742 8.99788 10.9356 8.99788 11.1956V13.8798H13.6717C13.4381 13.6399 13.4418 13.3362 13.5006 13.1392C13.4329 13.1066 13.3769 13.0677 13.3268 13.0247C13.144 13.1588 12.587 13.5624 12.4408 13.6642L12.4096 13.6846L10.5756 13.3551H10.5382C10.4942 13.3551 10.4299 13.3533 10.3594 13.3449C10.3398 13.4273 10.2681 13.4832 10.1864 13.4832C10.1771 13.4832 10.1668 13.4827 10.1572 13.4808C10.1094 13.4727 10.0678 13.4484 10.04 13.4084C10.0112 13.3692 10 13.3225 10.008 13.2746L10.0145 13.2349C9.82568 13.1025 9.65106 12.8063 9.72839 12.4938L9.73578 12.4606L9.76283 12.4418C9.76638 12.4388 9.79808 12.4174 9.84536 12.3907L9.71227 12.3703C9.66226 12.3616 9.62864 12.3151 9.63656 12.2664C9.64504 12.2169 9.69204 12.181 9.74124 12.1905L10.0588 12.2408L10.0878 11.1281L10.5603 10.6307L10.8552 11.2484L10.5439 12.3186L10.8243 12.3627C10.8738 12.3706 10.9074 12.4165 10.9 12.4671C10.8926 12.512 10.8544 12.5422 10.8101 12.5422C10.8052 12.5422 10.8005 12.5422 10.7956 12.5416L10.5677 12.5052C10.5691 12.5084 10.5708 12.5109 10.5725 12.5134C10.5744 12.5163 10.5763 12.5191 10.5778 12.5229C10.6018 12.5732 10.6559 12.6086 10.6876 12.6243L12.0855 12.6464L12.0912 12.6408C12.1538 12.5799 12.2965 12.4413 12.4427 12.2944C12.0984 12.1647 11.9735 11.8698 11.9524 11.6737C11.7603 11.5922 11.6275 11.47 11.5537 11.3115C11.4641 11.1148 11.4958 10.9176 11.5201 10.8216ZM11.9043 6.79405L10.6846 6.38226L11.006 8.23041L11.9043 8.70094V6.79405ZM12.0046 5.26822C12.8731 5.26822 13.6602 5.68681 13.6602 6.15217L13.6433 6.26668L13.2962 8.24836L13.6433 8.44964L14.5462 8.97348H14.543C14.543 8.97348 14.7459 9.0771 14.8386 9.14102C15.1838 9.37792 15.2559 9.72442 15.0565 9.86749C15.0067 9.58517 14.7829 9.29034 14.3634 9.29034C14.0609 9.29034 13.8307 9.44482 13.6433 9.67846C13.5966 9.73721 13.5511 9.80004 13.5082 9.86749C13.4558 9.95289 13.4038 10.0277 13.3519 10.0995H15.6746C15.5033 10.4411 15.3415 10.8026 15.3415 11.1956V16.3106C15.3415 17.5488 14.3861 18.1394 13.3506 18.1394C13.2903 18.1394 13.2339 18.1391 13.181 18.139C12.532 18.1366 12.4091 18.1362 12.003 18.5408C11.5951 18.1362 11.4721 18.1366 10.8234 18.139C10.7706 18.1391 10.7143 18.1394 10.654 18.1394C9.61934 18.1394 8.66255 17.5488 8.66255 16.3106V11.1956C8.66255 10.8026 8.5005 10.4411 8.32968 10.0995H10.6521C10.5999 10.0277 10.5474 9.95289 10.4952 9.86749C10.4532 9.80004 10.4075 9.73721 10.3594 9.67846C10.1738 9.44564 9.94319 9.29034 9.64094 9.29034C9.22088 9.29034 8.99679 9.58517 8.94759 9.86749C8.74836 9.72442 8.82134 9.37792 9.16459 9.14102C9.2586 9.0771 9.46138 8.97348 9.46138 8.97348H9.4581L10.3594 8.44964L10.7081 8.24836L10.3611 6.26668L10.3438 6.15217C10.3438 5.68681 11.1309 5.26822 11.9994 5.26822H12.0016H12.0038H12.0046Z" fill="#231F20"/>
    </g>
    <defs>
        <clipPath id="clip0_4294_14527">
            <rect width="24" height="24" fill="white"/>
        </clipPath>
    </defs>
</svg>
