<svg width="24" height="24" viewBox="0 0 24 24" fill="none" xmlns="http://www.w3.org/2000/svg">
<g clip-path="url(#clip0_2310_1933)">
<path d="M12 24C18.6274 24 24 18.6274 24 12C24 5.3726 18.6274 0 12 0C5.3726 0 0 5.3726 0 12C0 18.6274 5.3726 24 12 24Z" fill="#FF9400"/>
<path d="M17.9881 12.4136C17.5961 11.9096 17.0081 11.5616 16.2201 11.3736C17.2241 10.8616 17.6641 9.99356 17.5441 8.76956C17.5041 8.32556 17.3801 7.94156 17.1761 7.61356C16.9721 7.28556 16.6921 7.02556 16.3441 6.82556C15.9961 6.62556 15.6121 6.47356 15.2041 6.36956C14.7921 6.26556 14.3241 6.18956 13.7921 6.14156V3.60156H12.2361V6.07356C11.9681 6.07356 11.5561 6.08156 11.0041 6.09356V3.60156H9.44813V6.14556C9.22413 6.15356 8.90013 6.15756 8.46813 6.15756L6.32812 6.14556V7.80156H7.44813C7.96013 7.80156 8.26013 8.02956 8.34813 8.48956V11.3856C8.41613 11.3856 8.46813 11.3896 8.50813 11.3976H8.34813V15.4576C8.29613 15.8016 8.10013 15.9736 7.76413 15.9736H6.64413L6.33213 17.8216H8.35212C8.48012 17.8216 8.66413 17.8216 8.90813 17.8256C9.15213 17.8296 9.33212 17.8296 9.45212 17.8296V20.4016H11.0081V17.8576C11.2921 17.8656 11.7001 17.8696 12.2401 17.8696V20.4016H13.7961V17.8256C14.3481 17.7976 14.8361 17.7496 15.2641 17.6736C15.6921 17.5976 16.1001 17.4816 16.4921 17.3256C16.8841 17.1656 17.2081 16.9696 17.4721 16.7336C17.7361 16.4976 17.9521 16.1976 18.1241 15.8336C18.2961 15.4696 18.4041 15.0496 18.4521 14.5696C18.5281 13.6416 18.3801 12.9216 17.9881 12.4136ZM11.0321 7.91356C11.0801 7.91356 11.2121 7.91356 11.4321 7.90956C11.6521 7.90556 11.8321 7.90156 11.9761 7.89756C12.1201 7.89356 12.3161 7.90156 12.5601 7.92156C12.8041 7.94156 13.0121 7.96956 13.1801 8.00156C13.3481 8.03356 13.5321 8.08956 13.7361 8.16956C13.9401 8.24556 14.1001 8.34156 14.2201 8.45356C14.3401 8.56556 14.4441 8.70556 14.5281 8.87756C14.6121 9.04956 14.6561 9.24556 14.6561 9.46956C14.6561 9.65756 14.6241 9.82956 14.5641 9.98556C14.5041 10.1416 14.4121 10.2696 14.2921 10.3736C14.1721 10.4776 14.0481 10.5696 13.9201 10.6456C13.7921 10.7216 13.6281 10.7856 13.4321 10.8336C13.2321 10.8816 13.0601 10.9176 12.9121 10.9456C12.7641 10.9736 12.5801 10.9896 12.3561 11.0016C12.1321 11.0136 11.9641 11.0176 11.8521 11.0216C11.7361 11.0256 11.5801 11.0256 11.3841 11.0216C11.1841 11.0176 11.0681 11.0176 11.0361 11.0176L11.0321 7.91356ZM15.2761 14.7896C15.2121 14.9456 15.1281 15.0776 15.0281 15.1936C14.9281 15.3096 14.7921 15.4096 14.6281 15.4976C14.4641 15.5856 14.3041 15.6576 14.1481 15.7096C13.9921 15.7656 13.8081 15.8096 13.5881 15.8496C13.3681 15.8896 13.1761 15.9176 13.0121 15.9336C12.8481 15.9496 12.6521 15.9656 12.4201 15.9736C12.1921 15.9816 12.0121 15.9896 11.8841 15.9896C11.7561 15.9896 11.5961 15.9896 11.4001 15.9856C11.2041 15.9816 11.0801 15.9816 11.0281 15.9816V12.5696C11.0801 12.5696 11.2401 12.5656 11.5081 12.5576C11.7721 12.5496 11.9921 12.5496 12.1601 12.5496C12.3281 12.5496 12.5601 12.5576 12.8561 12.5816C13.1521 12.6016 13.4001 12.6336 13.6041 12.6736C13.8041 12.7136 14.0281 12.7776 14.2641 12.8616C14.5041 12.9456 14.6961 13.0496 14.8441 13.1696C14.9921 13.2896 15.1161 13.4456 15.2161 13.6336C15.3161 13.8216 15.3681 14.0376 15.3681 14.2816C15.3721 14.4616 15.3401 14.6336 15.2761 14.7896Z" fill="white"/>
</g>
<defs>
<clipPath id="clip0_2310_1933">
<rect width="24" height="24" fill="white"/>
</clipPath>
</defs>
</svg>
