<svg xmlns="http://www.w3.org/2000/svg" width="24" height="24" viewBox="0 0 24 24" fill="none">
    <path d="M22.4503 15.8487L5.94428 18.7592C4.92447 18.939 3.952 18.258 3.77219 17.2383L1.95531 6.93436C1.7755 5.91454 2.45645 4.94208 3.47622 4.76226L19.9822 1.85179C21.002 1.67198 21.9745 2.35294 22.1543 3.3727L23.9712 13.6766C24.151 14.6964 23.4701 15.6689 22.4503 15.8487Z" fill="url(#paint0_linear_5131_619)"/>
    <path d="M18.2812 21.5789H1.875C0.839484 21.5789 0 20.7395 0 19.7039V9.49841C0 8.4629 0.839484 7.62341 1.875 7.62341H18.2812C19.3168 7.62341 20.1562 8.4629 20.1562 9.49841V19.7039C20.1562 20.7395 19.3168 21.5789 18.2812 21.5789Z" fill="url(#paint1_linear_5131_619)"/>
    <path d="M0 11.4113H20.1562V14.6011H0V11.4113Z" fill="#ECF6FD"/>
    <path d="M5.58218 19.0813H2.39233C2.00402 19.0813 1.68921 19.3961 1.68921 19.7844C1.68921 20.1727 2.00402 20.4875 2.39233 20.4875H5.58218C5.97049 20.4875 6.2853 20.1727 6.2853 19.7844C6.2853 19.3961 5.97049 19.0813 5.58218 19.0813Z" fill="#EAF6FF"/>
    <defs>
        <linearGradient id="paint0_linear_5131_619" x1="1.92651" y1="10.3055" x2="24" y2="10.3055" gradientUnits="userSpaceOnUse">
            <stop stop-color="#47A6D2"/>
            <stop offset="1" stop-color="#0686C0"/>
        </linearGradient>
        <linearGradient id="paint1_linear_5131_619" x1="0" y1="14.6012" x2="20.1563" y2="14.6012" gradientUnits="userSpaceOnUse">
            <stop stop-color="#59CBFF"/>
            <stop offset="1" stop-color="#009FE7"/>
        </linearGradient>
    </defs>
</svg>
