<svg width="24" height="24" viewBox="0 0 24 24" fill="none" xmlns="http://www.w3.org/2000/svg">
<g clip-path="url(#clip0_2310_4206)">
<path d="M0 12.0002C0 18.6281 5.37181 24 12.0009 24C18.6269 24 24 18.6281 24 12.0002C24 5.37186 18.6269 0 12.0009 0C5.37181 0 0 5.37186 0 12.0002Z" fill="#00985F"/>
<path fill-rule="evenodd" clip-rule="evenodd" d="M6.02344 12C6.02344 8.6953 8.69531 6.02344 12 6.02344V11.8945C12 11.9297 11.9648 11.9648 11.9297 11.9648H11.1914C10.9453 12 10.7344 12.2109 10.7344 12.457V17.8359C8.02734 17.2734 6.02344 14.8828 6.02344 12ZM10.1016 10.207C10.1016 10.5937 10.418 10.9453 10.8398 10.9453C11.2617 10.9453 11.5781 10.5937 11.5781 10.207C11.5781 9.82029 11.2617 9.46873 10.8398 9.46873C10.4531 9.46873 10.1016 9.78514 10.1016 10.207Z" fill="white"/>
<path fill-rule="evenodd" clip-rule="evenodd" d="M12.7383 12.211V6.05865C15.6914 6.41021 17.9766 8.94145 17.9766 12C17.9766 15.3047 15.3047 17.9766 12 17.9766C11.8897 17.9766 11.7891 17.967 11.693 17.9578C11.6053 17.9494 11.5214 17.9414 11.4375 17.9414V12.7735C11.4375 12.7383 11.4727 12.7031 11.5078 12.7031H12.2461C12.5273 12.7031 12.7383 12.4922 12.7383 12.211ZM11.8594 14.5313C11.8594 14.918 12.1758 15.2695 12.5977 15.2695C13.0195 15.2695 13.3711 14.918 13.3359 14.5313C13.3359 14.1445 13.0195 13.793 12.5977 13.793C12.2109 13.793 11.8594 14.1094 11.8594 14.5313ZM13.6172 14.5313C13.6172 14.918 13.9336 15.2695 14.3555 15.2695C14.7773 15.2695 15.0938 14.918 15.0938 14.5313C15.0938 14.1445 14.7773 13.793 14.3555 13.793C13.9688 13.793 13.6172 14.1094 13.6172 14.5313ZM15.375 14.5313C15.375 14.918 15.6914 15.2695 16.1133 15.2695C16.5352 15.2695 16.8516 14.918 16.8516 14.5313C16.8516 14.1445 16.5352 13.793 16.1133 13.793C15.7266 13.793 15.375 14.1094 15.375 14.5313Z" fill="white"/>
</g>
<defs>
<clipPath id="clip0_2310_4206">
<rect width="24" height="24" fill="white"/>
</clipPath>
</defs>
</svg>
