<svg xmlns="http://www.w3.org/2000/svg" width="24" height="24" viewBox="0 0 24 24" fill="none">
    <g clip-path="url(#clip0_4298_14527)">
        <path d="M12 24C18.6274 24 24 18.6274 24 12C24 5.37258 18.6274 0 12 0C5.37258 0 0 5.37258 0 12C0 18.6274 5.37258 24 12 24Z" fill="#13DC20"/>
        <path d="M12 24C18.6274 24 24 18.6274 24 12C24 5.37258 18.6274 0 12 0C5.37258 0 0 5.37258 0 12C0 18.6274 5.37258 24 12 24Z" fill="url(#paint0_radial_4298_14527)"/>
        <path d="M12 24C18.6274 24 24 18.6274 24 12C24 5.37258 18.6274 0 12 0C5.37258 0 0 5.37258 0 12C0 18.6274 5.37258 24 12 24Z" fill="url(#paint1_radial_4298_14527)"/>
        <path d="M12 24C18.6274 24 24 18.6274 24 12C24 5.37258 18.6274 0 12 0C5.37258 0 0 5.37258 0 12C0 18.6274 5.37258 24 12 24Z" fill="url(#paint2_radial_4298_14527)"/>
        <path d="M17.143 7.98828H7.42871C5.21957 7.98828 3.42871 9.77914 3.42871 11.9883C3.42871 14.1974 5.21957 15.9883 7.42871 15.9883H17.143C19.3521 15.9883 21.143 14.1974 21.143 11.9883C21.143 9.77914 19.3521 7.98828 17.143 7.98828Z" fill="#08B64E"/>
        <path fill-rule="evenodd" clip-rule="evenodd" d="M16.5717 16.5706H7.42885C6.21643 16.5706 5.05367 16.089 4.19636 15.2317C3.33905 14.3743 2.85742 13.2116 2.85742 11.9992C2.85742 10.7867 3.33905 9.62398 4.19636 8.76667C5.05367 7.90937 6.21643 7.42773 7.42885 7.42773H16.5717C17.7841 7.42773 18.9469 7.90937 19.8042 8.76667C20.6615 9.62398 21.1431 10.7867 21.1431 11.9992C21.1431 13.2116 20.6615 14.3743 19.8042 15.2317C18.9469 16.089 17.7841 16.5706 16.5717 16.5706ZM6.24142 12.0483V11.3266L7.19799 11.9266L9.18657 10.4632C9.30657 10.6174 9.40771 10.7849 9.48828 10.9626L7.19799 12.6483L6.24142 12.0483ZM9.13056 11.9443V11.9957C9.13131 12.4281 8.98724 12.8482 8.72133 13.1891C8.45541 13.53 8.08298 13.772 7.66346 13.8766C7.24394 13.9811 6.8015 13.9421 6.40673 13.7658C6.01196 13.5895 5.68761 13.286 5.48544 12.9039C5.28326 12.5217 5.21491 12.0829 5.29128 11.6573C5.36765 11.2318 5.58435 10.8441 5.9068 10.556C6.22925 10.268 6.63888 10.0963 7.07031 10.0683C7.50175 10.0403 7.93014 10.1576 8.28714 10.4014L8.77799 10.0414C8.31935 9.67074 7.74499 9.47305 7.15534 9.48294C6.5657 9.49282 5.99829 9.70966 5.55233 10.0955C5.10637 10.4814 4.81024 11.0118 4.71572 11.5939C4.6212 12.176 4.73429 12.7728 5.03524 13.2799C5.33619 13.7871 5.80583 14.1723 6.36205 14.3683C6.91827 14.5642 7.52567 14.5585 8.07805 14.3519C8.63043 14.1454 9.09263 13.7513 9.38384 13.2385C9.67506 12.7256 9.77675 12.1268 9.67114 11.5466L9.13056 11.9443ZM12.2083 13.51V12.4849H12.7157C13.6791 12.4849 14.1957 12.0997 14.1957 11.334C14.1957 10.5912 13.7546 10.2197 12.7157 10.2197H11.6209V13.5094L12.2083 13.51ZM12.2083 11.9443V10.7603H12.77C13.3426 10.7603 13.5871 10.9146 13.5871 11.3192C13.5871 11.7654 13.3054 11.9437 12.7603 11.9437L12.2083 11.9443ZM14.5054 11.3243C14.6603 11.2083 14.9426 11.1129 15.3471 11.1129C16.0329 11.1129 16.3717 11.3477 16.3717 11.9586V13.5094H15.8546V13.0866C15.742 13.3586 15.4557 13.5472 15.0791 13.5472C14.6049 13.5472 14.3231 13.2786 14.3231 12.8186C14.3231 12.2826 14.7129 12.1323 15.2906 12.1323H15.822V12.0294C15.822 11.6957 15.662 11.5917 15.3471 11.5917C14.9146 11.5917 14.666 11.7614 14.5066 12.01L14.5054 11.3243ZM15.8209 12.6797V12.49H15.3563C15.0317 12.49 14.8763 12.5512 14.8763 12.762C14.8763 12.9403 15.0077 13.0534 15.2529 13.0534C15.6237 13.0534 15.798 12.842 15.8209 12.6797ZM17.2569 11.1597H16.6437L17.6323 13.5214C17.5431 13.838 17.4163 13.9506 17.2477 13.9506C17.1421 13.9487 17.0411 13.9066 16.9654 13.8329V14.346C17.0346 14.4066 17.1951 14.4489 17.3414 14.4489C17.6517 14.4489 17.8626 14.322 18.07 13.7586L19.0094 11.1597H18.4266L17.9009 12.7712L17.2569 11.1597Z" fill="white"/>
    </g>
    <defs>
        <radialGradient id="paint0_radial_4298_14527" cx="0" cy="0" r="1" gradientUnits="userSpaceOnUse" gradientTransform="translate(23.9998 -0.000473785) rotate(135) scale(23.4194)">
            <stop stop-color="#3BDFB4"/>
            <stop offset="1" stop-color="#3BDFB4" stop-opacity="0"/>
        </radialGradient>
        <radialGradient id="paint1_radial_4298_14527" cx="0" cy="0" r="1" gradientUnits="userSpaceOnUse" gradientTransform="translate(20.6996 3.30024) rotate(135) scale(23.3345)">
            <stop stop-color="#19CCDC"/>
            <stop offset="0.223" stop-color="#19CCDC" stop-opacity="0.75"/>
            <stop offset="1" stop-color="#19CCDC" stop-opacity="0"/>
        </radialGradient>
        <radialGradient id="paint2_radial_4298_14527" cx="0" cy="0" r="1" gradientUnits="userSpaceOnUse" gradientTransform="translate(-8.17123e-05 23.9998) rotate(-45) scale(16.9706)">
            <stop stop-color="#F5ED01"/>
            <stop offset="0.332" stop-color="#F5ED01" stop-opacity="0.8"/>
            <stop offset="1" stop-color="#F5ED01" stop-opacity="0"/>
        </radialGradient>
        <clipPath id="clip0_4298_14527">
            <rect width="24" height="24" fill="white"/>
        </clipPath>
    </defs>
</svg>
