<svg width="16" height="16" viewBox="0 0 16 16" fill="none" xmlns="http://www.w3.org/2000/svg">
<path d="M15.9987 8.1777C16.0083 7.62752 15.9503 7.07734 15.8277 6.54297H8.16211V9.51205H12.6627C12.4917 10.565 11.8884 11.5009 10.9948 12.108L10.9786 12.206L13.4015 14.0463L13.5693 14.0621C15.1082 12.6677 15.9987 10.6156 15.9987 8.1777Z" fill="#4285F4"/>
<path d="M8.16241 16.0001C10.3659 16.0001 12.2178 15.2886 13.5696 14.0618L10.9951 12.1045C10.1595 12.6547 9.169 12.933 8.16564 12.9045C6.04922 12.8919 4.178 11.5512 3.51984 9.57812L3.42305 9.58761L0.903356 11.4974L0.871094 11.586C2.25193 14.2958 5.07489 16.0032 8.16241 16.0001Z" fill="#34A853"/>
<path d="M3.51661 9.58126C3.33917 9.07218 3.2456 8.53781 3.2456 7.99712C3.24883 7.45958 3.33917 6.92521 3.51016 6.41297L3.50693 6.30863L0.954969 4.36719L0.871087 4.40513C-0.290362 6.66593 -0.290362 9.3283 0.871087 11.5891L3.51661 9.58126Z" fill="#FBBC05"/>
<path d="M8.163 3.09288C9.33413 3.0739 10.4633 3.50077 11.3183 4.28494L13.6218 2.08105C12.1442 0.721407 10.1859 -0.0216531 8.15978 0.000480624C5.07226 0.000480624 2.24929 1.70478 0.865234 4.41141L3.5043 6.41926C4.16891 4.4462 6.04336 3.10552 8.163 3.09288Z" fill="#EB4335"/>
</svg>
