<svg width="16" height="16" viewBox="0 0 16 16" fill="none" xmlns="http://www.w3.org/2000/svg">
<path d="M8.80798 13.5992C3.41147 13.5992 0.129676 9.68882 0 3.19922H2.74314C2.83292 7.97282 4.91771 9.99042 6.51372 10.4064V3.19922H9.12718V7.31762C10.6733 7.14082 12.2793 5.26882 12.818 3.19922H15.4115C15.2128 4.26124 14.8076 5.26958 14.2209 6.16211C13.6341 7.05464 12.8783 7.81244 12 8.38882C12.9793 8.91721 13.8413 9.65398 14.5303 10.5515C15.2193 11.449 15.72 12.4873 16 13.5992H13.1671C12.5686 11.6232 11.1022 10.0944 9.12718 9.88642V13.5992H8.82793H8.80798Z" fill="white" fill-opacity="0.8"/>
</svg>
