<svg xmlns="http://www.w3.org/2000/svg" width="14" height="14" viewBox="0 0 14 14" fill="none">
    <g clip-path="url(#clip0_4240_14545)">
        <path fill-rule="evenodd" clip-rule="evenodd" d="M7 14C10.866 14 14 10.866 14 7C14 3.13401 10.866 0 7 0C3.13401 0 0 3.13401 0 7C0 10.866 3.13401 14 7 14ZM7 3.5C7.32217 3.5 7.58333 3.76117 7.58333 4.08333V6.41667H9.91667C10.2388 6.41667 10.5 6.67783 10.5 7C10.5 7.32217 10.2388 7.58333 9.91667 7.58333H7.58333V9.91667C7.58333 10.2388 7.32217 10.5 7 10.5C6.67783 10.5 6.41667 10.2388 6.41667 9.91667V7.58333H4.08333C3.76117 7.58333 3.5 7.32217 3.5 7C3.5 6.67783 3.76117 6.41667 4.08333 6.41667H6.41667V4.08333C6.41667 3.76117 6.67783 3.5 7 3.5Z" fill="white"/>
    </g>
    <defs>
        <clipPath id="clip0_4240_14545">
            <rect width="14" height="14" fill="white"/>
        </clipPath>
    </defs>
</svg>
