<svg width="20" height="20" viewBox="0 0 20 20" xmlns="http://www.w3.org/2000/svg">
<g clip-path="url(#clip0_1699_23327)">
<path d="M15.9531 9.91318C16.0156 9.79801 16.0156 9.65869 15.9531 9.54352C14.8067 7.43288 12.5707 6 10 6C7.42928 6 5.19326 7.4329 4.04691 9.54352C3.98436 9.65869 3.98436 9.79801 4.04691 9.91318C5.19328 12.0238 7.42925 13.4567 9.99999 13.4567C12.5707 13.4567 14.8067 12.0238 15.9531 9.91318ZM9.99999 12.5883C8.4205 12.5883 7.14009 11.3078 7.14009 9.72836C7.14009 8.1489 8.4205 6.86845 9.99999 6.86845C11.5795 6.86845 12.8599 8.14888 12.8599 9.72836C12.8599 11.3078 11.5795 12.5883 9.99999 12.5883Z"/>
<path d="M9.99955 8.271C9.87924 8.271 9.7624 8.28568 9.65057 8.31315C9.7651 8.4457 9.83455 8.61831 9.83455 8.80723C9.83455 9.22488 9.49598 9.56347 9.07832 9.56347C8.8894 9.56347 8.71679 9.49404 8.58424 9.37949C8.55677 9.49131 8.54208 9.60816 8.54208 9.72847C8.54208 10.5334 9.19461 11.1859 9.99953 11.1859C10.8045 11.1859 11.457 10.5334 11.457 9.72847C11.457 8.92355 10.8045 8.271 9.99955 8.271Z"/>
<path d="M16.3304 4.06514L14.4567 4.32564C14.1393 4.37005 13.854 4.15476 13.8195 3.84488C13.7851 3.53503 14.0146 3.2477 14.332 3.20335L14.797 3.13863C12.1795 1.27225 8.61627 1.13018 5.71793 2.80354C2.39845 4.72005 0.748305 8.54466 1.69954 12.1127C1.77963 12.4132 1.59372 12.7286 1.28431 12.8175C0.974873 12.9062 0.659341 12.7348 0.579253 12.4344C-0.50399 8.37085 1.37824 4.00808 5.15459 1.82781C8.47075 -0.086784 12.5587 0.0888387 15.5459 2.24916L15.4914 1.75508C15.457 1.4452 15.6864 1.15811 16.004 1.11361C16.3214 1.06924 16.6066 1.28464 16.6411 1.59447L16.8429 3.42355C16.8773 3.73344 16.6478 4.02073 16.3304 4.06514ZM3.35894 18.4055L3.15708 16.5764C3.12279 16.2665 3.35216 15.9792 3.66964 15.935L5.54343 15.6742C5.86091 15.6299 6.14604 15.8452 6.18046 16.1551C6.21489 16.4649 5.98537 16.7522 5.66797 16.7966L5.20292 16.8612C7.82043 18.7277 11.3837 18.8698 14.282 17.1964C17.6015 15.2799 19.2518 11.4552 18.3004 7.88722C18.2205 7.58668 18.4064 7.27123 18.7157 7.18244C19.025 7.09358 19.3407 7.26528 19.4207 7.56559C20.5041 11.629 18.6217 15.9919 14.8454 18.1721C11.5294 20.0866 7.44126 19.9111 4.45412 17.7508L4.50868 18.2448C4.54312 18.5547 4.31351 18.8419 3.99611 18.8863C3.67855 18.9307 3.39336 18.7153 3.35894 18.4055Z"/>
</g>
<defs>
<linearGradient id="paint0_linear_1699_23327" x1="4" y1="9.72836" x2="16" y2="9.72836" gradientUnits="userSpaceOnUse">
<stop stop-color="#59CBFF"/>
<stop offset="1" stop-color="#009FE7"/>
</linearGradient>
<linearGradient id="paint1_linear_1699_23327" x1="8.54208" y1="9.72846" x2="11.457" y2="9.72846" gradientUnits="userSpaceOnUse">
<stop stop-color="#59CBFF"/>
<stop offset="1" stop-color="#009FE7"/>
</linearGradient>
<linearGradient id="paint2_linear_1699_23327" x1="0.27561" y1="9.99996" x2="19.7244" y2="9.99996" gradientUnits="userSpaceOnUse">
<stop stop-color="#59CBFF"/>
<stop offset="1" stop-color="#009FE7"/>
</linearGradient>
<clipPath id="clip0_1699_23327">
<rect width="20" height="20" fill="white"/>
</clipPath>
</defs>
</svg>
