<svg width="20" height="20" viewBox="0 0 20 20" fill="none" xmlns="http://www.w3.org/2000/svg">
<g clip-path="url(#clip0_1699_23322)">
<path d="M19.9218 10.3081C20.0261 10.1161 20.0261 9.88396 19.9218 9.692C18.0112 6.17426 14.2846 3.78613 10 3.78613C5.71547 3.78613 1.98877 6.1743 0.0781863 9.692C-0.0260621 9.88396 -0.0260621 10.1161 0.0781863 10.3081C1.98881 13.8258 5.71541 16.214 9.99998 16.214C14.2846 16.214 18.0112 13.8258 19.9218 10.3081ZM9.99998 14.7666C7.3675 14.7666 5.23348 12.6325 5.23348 10.0001C5.23348 7.36762 7.3675 5.23355 9.99998 5.23355C12.6325 5.23355 14.7665 7.36759 14.7665 10.0001C14.7665 12.6325 12.6325 14.7666 9.99998 14.7666Z" fill="url(#paint0_linear_1699_23322)"/>
<path d="M9.99992 7.57104C9.7994 7.57104 9.60466 7.59552 9.41828 7.64131C9.60917 7.86222 9.72492 8.1499 9.72492 8.46477C9.72492 9.16085 9.16064 9.72517 8.46453 9.72517C8.14966 9.72517 7.86198 9.60945 7.64106 9.41853C7.59528 9.60491 7.5708 9.79965 7.5708 10.0002C7.5708 11.3417 8.65835 12.4293 9.99989 12.4293C11.3414 12.4293 12.429 11.3417 12.429 10.0002C12.429 8.65863 11.3415 7.57104 9.99992 7.57104Z" fill="url(#paint1_linear_1699_23322)"/>
</g>
<defs>
<linearGradient id="paint0_linear_1699_23322" x1="0" y1="10.0001" x2="20" y2="10.0001" gradientUnits="userSpaceOnUse">
<stop stop-color="#59CBFF"/>
<stop offset="1" stop-color="#009FE7"/>
</linearGradient>
<linearGradient id="paint1_linear_1699_23322" x1="7.5708" y1="10.0002" x2="12.429" y2="10.0002" gradientUnits="userSpaceOnUse">
<stop stop-color="#59CBFF"/>
<stop offset="1" stop-color="#009FE7"/>
</linearGradient>
<clipPath id="clip0_1699_23322">
<rect width="20" height="20" fill="white"/>
</clipPath>
</defs>
</svg>
