<svg width="20" height="20" viewBox="0 0 20 20" fill="none" xmlns="http://www.w3.org/2000/svg">
<path d="M19.4141 8.24219H18.2422C17.9183 8.24219 17.6562 8.50426 17.6562 8.82812C17.6562 9.15199 17.9183 9.41406 18.2422 9.41406H19.4141C19.7379 9.41406 20 9.15199 20 8.82812C20 8.50426 19.7379 8.24219 19.4141 8.24219Z" fill="url(#paint0_linear_1699_23344)"/>
<path d="M19.8283 4.89821C19.5995 4.66935 19.2286 4.66935 18.9998 4.89821L17.8279 6.07009C17.599 6.29896 17.599 6.66978 17.8279 6.89865C18.0568 7.12755 18.4276 7.12755 18.6565 6.89865L19.8283 5.72677C20.0572 5.4979 20.0572 5.12708 19.8283 4.89821Z" fill="url(#paint1_linear_1699_23344)"/>
<path d="M19.8283 11.9295L18.6565 10.7576C18.4276 10.5287 18.0568 10.5287 17.8279 10.7576C17.599 10.9865 17.599 11.3573 17.8279 11.5861L18.9998 12.758C19.2286 12.9869 19.5994 12.9869 19.8283 12.758C20.0572 12.5291 20.0572 12.1583 19.8283 11.9295Z" fill="url(#paint2_linear_1699_23344)"/>
<path d="M14.6875 1.21094H13.5156C13.5142 1.21094 13.513 1.21172 13.5116 1.21172C13.5045 1.2118 13.4981 1.21566 13.4909 1.21594C13.2568 1.22621 13.6591 1.02746 7.49395 4.72656H4.14062C1.87926 4.72656 0 6.56676 0 8.82812C0 10.8889 1.57227 12.5831 3.55469 12.8705V17.0312C3.55469 18.0005 4.3432 18.7891 5.3125 18.7891C6.2818 18.7891 7.07031 18.0005 7.07031 17.0312V12.9297H7.49395C13.5696 16.5751 13.2863 16.4453 13.5156 16.4453H14.6875C15.6568 16.4453 16.4453 15.6568 16.4453 14.6875V2.96875C16.4453 1.99945 15.6568 1.21094 14.6875 1.21094ZM7.07031 11.7578C6.64625 11.7578 6.3225 11.7578 5.89844 11.7578V5.89844H7.07031V11.7578ZM15.2734 14.6875C15.2734 15.0108 15.0108 15.2734 14.6875 15.2734H14.1016V2.38281H14.6875C15.0108 2.38281 15.2734 2.64547 15.2734 2.96875V14.6875Z" fill="url(#paint3_linear_1699_23344)"/>
<defs>
<linearGradient id="paint0_linear_1699_23344" x1="17.6563" y1="8.82813" x2="20" y2="8.82813" gradientUnits="userSpaceOnUse">
<stop stop-color="#59CBFF"/>
<stop offset="1" stop-color="#009FE7"/>
</linearGradient>
<linearGradient id="paint1_linear_1699_23344" x1="17.6563" y1="5.89844" x2="20" y2="5.89844" gradientUnits="userSpaceOnUse">
<stop stop-color="#59CBFF"/>
<stop offset="1" stop-color="#009FE7"/>
</linearGradient>
<linearGradient id="paint2_linear_1699_23344" x1="17.6563" y1="11.7578" x2="20" y2="11.7578" gradientUnits="userSpaceOnUse">
<stop stop-color="#59CBFF"/>
<stop offset="1" stop-color="#009FE7"/>
</linearGradient>
<linearGradient id="paint3_linear_1699_23344" x1="0" y1="10" x2="16.4453" y2="10" gradientUnits="userSpaceOnUse">
<stop stop-color="#59CBFF"/>
<stop offset="1" stop-color="#009FE7"/>
</linearGradient>
</defs>
</svg>
