<svg xmlns="http://www.w3.org/2000/svg" width="20" height="20" viewBox="0 0 20 20" fill="none">
    <path d="M4.36203 11.6667H8.04277L7.28281 18.8509C7.27945 18.8725 7.27855 18.9366 7.27855 18.9583C7.27855 19.5325 7.74609 20 8.32027 20C8.64695 20 8.95855 19.8433 9.16531 19.5659L16.4453 9.16672C16.58 8.98614 16.6531 8.76701 16.6536 8.54172C16.6536 7.9675 16.1862 7.5 15.612 7.5H11.107L11.857 1.16406C11.8595 1.14 11.8611 1.06582 11.8611 1.04172C11.862 0.4675 11.3945 0 10.8203 0C10.4936 0 10.182 0.156719 9.96875 0.4425L3.52855 10C3.39383 10.1806 3.32082 10.3997 3.32031 10.625C3.32031 11.1992 3.78785 11.6667 4.36203 11.6667Z" fill="url(#paint0_linear_3055_15862)"/>
    <defs>
        <linearGradient id="paint0_linear_3055_15862" x1="3.32031" y1="10" x2="16.6536" y2="10" gradientUnits="userSpaceOnUse">
            <stop stop-color="#488AF0"/>
            <stop offset="1" stop-color="#847DFF"/>
        </linearGradient>
    </defs>
</svg>
