<svg width="20" height="20" viewBox="0 0 20 20" xmlns="http://www.w3.org/2000/svg">
<g clip-path="url(#clip0_1699_23340)">
<path d="M9.99974 9.78131C12.2234 9.78131 14.0262 7.59171 14.0262 4.89069C14.0262 2.1896 13.4343 0 9.99974 0C6.56517 0 5.97317 2.1896 5.97317 4.89069C5.97317 7.59171 7.77597 9.78131 9.99974 9.78131Z"/>
<path d="M17.5961 17.0513C17.5215 12.346 16.907 11.0053 12.2046 10.1566C12.2046 10.1566 11.5426 11.0001 9.99975 11.0001C8.4569 11.0001 7.79484 10.1566 7.79484 10.1566C3.1437 10.996 2.49181 12.3169 2.4061 16.8985C2.39907 17.2726 2.39581 17.2922 2.39455 17.2488C2.39484 17.3302 2.39518 17.4807 2.39518 17.7431C2.39518 17.7431 3.51472 20.0001 9.99975 20.0001C16.4847 20.0001 17.6043 17.7431 17.6043 17.7431C17.6043 17.5745 17.6044 17.4573 17.6046 17.3775C17.6034 17.4043 17.6008 17.3523 17.5961 17.0513Z"/>
</g>
<defs>
<linearGradient id="paint0_linear_1699_23340" x1="5.97317" y1="4.89066" x2="14.0262" y2="4.89066" gradientUnits="userSpaceOnUse">
<stop stop-color="#59CBFF"/>
<stop offset="1" stop-color="#009FE7"/>
</linearGradient>
<linearGradient id="paint1_linear_1699_23340" x1="2.39455" y1="15.0783" x2="17.6046" y2="15.0783" gradientUnits="userSpaceOnUse">
<stop stop-color="#59CBFF"/>
<stop offset="1" stop-color="#009FE7"/>
</linearGradient>
<clipPath id="clip0_1699_23340">
<rect width="20" height="20" fill="white"/>
</clipPath>
</defs>
</svg>
