<svg width="20" height="20" viewBox="0 0 20 20" fill="none" xmlns="http://www.w3.org/2000/svg">
<g clip-path="url(#clip0_1699_23406)">
<path d="M13.8073 13.8704C13.6502 14.1113 13.7182 14.434 13.9592 14.5911C14.2001 14.7483 14.5229 14.6803 14.68 14.4393C15.5149 13.1589 16 11.6293 16 9.98792C16 8.34655 15.5149 6.81692 14.68 5.53649C14.5229 5.29552 14.2001 5.22755 13.9592 5.38466C13.7182 5.54178 13.6502 5.86449 13.8073 6.10546C14.5352 7.22179 14.9582 8.55466 14.9582 9.98792C14.9582 11.4211 14.5352 12.754 13.8073 13.8704Z" fill="url(#paint0_linear_1699_23406)"/>
<path d="M6.0408 5.38466C6.28177 5.54177 6.34975 5.86449 6.19263 6.10546C5.46477 7.22179 5.04173 8.55466 5.04173 9.98792C5.04173 11.4211 5.46476 12.754 6.19263 13.8704C6.34975 14.1113 6.28177 14.434 6.0408 14.5911C5.79983 14.7483 5.47712 14.6803 5.32 14.4393C4.48514 13.1589 4 11.6293 4 9.98792C4 8.34655 4.48514 6.81692 5.32 5.53649C5.47712 5.29552 5.79983 5.22755 6.0408 5.38466Z" fill="url(#paint1_linear_1699_23406)"/>
<path d="M7.55812 7.48135C7.79178 7.64913 7.8452 7.97457 7.67742 8.20825C7.32985 8.69229 7.12532 9.28524 7.12532 9.9275C7.12532 10.5698 7.32985 11.1627 7.67742 11.6468C7.8452 11.8805 7.79178 12.2059 7.55812 12.3737C7.32444 12.5414 6.999 12.488 6.83122 12.2544C6.36073 11.5991 6.08359 10.7949 6.08359 9.9275C6.08359 9.06016 6.36073 8.25592 6.83122 7.60066C6.999 7.36699 7.32444 7.31357 7.55812 7.48135Z" fill="url(#paint2_linear_1699_23406)"/>
<path d="M10.0767 8.07812C9.02196 8.07812 8.1669 8.93318 8.1669 9.98797C8.1669 11.0428 9.02196 11.8978 10.0767 11.8978C11.1315 11.8978 11.9866 11.0428 11.9866 9.98797C11.9866 8.93318 11.1315 8.07812 10.0767 8.07812Z" fill="url(#paint3_linear_1699_23406)"/>
<path d="M12.4316 11.6468C12.2638 11.8805 12.3172 12.2059 12.5509 12.3737C12.7845 12.5415 13.11 12.488 13.2778 12.2544C13.7483 11.5991 14.0254 10.7949 14.0254 9.92749C14.0254 9.06014 13.7483 8.25593 13.2778 7.60066C13.11 7.36699 12.7845 7.31357 12.5509 7.48135C12.3172 7.64913 12.2638 7.97457 12.4316 8.20824C12.7791 8.69234 12.9837 9.28523 12.9837 9.92749C12.9837 10.5698 12.7791 11.1627 12.4316 11.6468Z" fill="url(#paint4_linear_1699_23406)"/>
<path d="M14.5786 2.62892L12.8362 3.36549C12.5411 3.49054 12.2098 3.35644 12.0963 3.06603C11.9829 2.77564 12.1302 2.43871 12.4253 2.31371L12.8577 2.13085C9.84637 1.00552 6.36775 1.79053 4.00126 4.15702C1.29091 6.86737 0.686884 10.9887 2.52919 14.189C2.68431 14.4585 2.58639 14.8114 2.31051 14.9773C2.03459 15.1431 1.68544 15.0591 1.53032 14.7897C-0.567725 11.145 0.121202 6.44371 3.20457 3.36033C5.91221 0.652694 9.90633 -0.235708 13.3508 1.07787L13.1704 0.614716C13.0569 0.324305 13.2042 -0.012391 13.4994 -0.137549C13.7946 -0.262571 14.1258 -0.128331 14.2393 0.162025L14.9076 1.87655C15.0211 2.16696 14.8737 2.50387 14.5786 2.62892ZM5.76074 19.8379L5.09234 18.1234C4.97901 17.8329 5.12622 17.496 5.42143 17.3711L7.16388 16.6343C7.45908 16.5094 7.79021 16.6435 7.90365 16.9339C8.01712 17.2243 7.86978 17.5612 7.57468 17.6862L7.14219 17.869C10.1536 18.9944 13.6322 18.2094 15.9987 15.8429C18.709 13.1325 19.3132 9.01108 17.4708 5.81088C17.3158 5.54127 17.4137 5.18844 17.6894 5.02265C17.9653 4.85675 18.3146 4.94089 18.4696 5.21026C20.5678 8.85482 19.8788 13.5562 16.7954 16.6396C14.0879 19.3471 10.0936 20.2356 6.64915 18.9221L6.82971 19.3851C6.94317 19.6755 6.79572 20.0124 6.50062 20.1374C6.20538 20.2625 5.87418 20.1283 5.76074 19.8379Z" fill="url(#paint5_linear_1699_23406)"/>
</g>
<defs>
<linearGradient id="paint0_linear_1699_23406" x1="13.7227" y1="9.98791" x2="16" y2="9.98791" gradientUnits="userSpaceOnUse">
<stop stop-color="#59CBFF"/>
<stop offset="1" stop-color="#009FE7"/>
</linearGradient>
<linearGradient id="paint1_linear_1699_23406" x1="4" y1="9.98791" x2="6.27724" y2="9.98791" gradientUnits="userSpaceOnUse">
<stop stop-color="#59CBFF"/>
<stop offset="1" stop-color="#009FE7"/>
</linearGradient>
<linearGradient id="paint2_linear_1699_23406" x1="6.08359" y1="9.92751" x2="7.77523" y2="9.92751" gradientUnits="userSpaceOnUse">
<stop stop-color="#59CBFF"/>
<stop offset="1" stop-color="#009FE7"/>
</linearGradient>
<linearGradient id="paint3_linear_1699_23406" x1="8.1669" y1="9.98797" x2="11.9866" y2="9.98797" gradientUnits="userSpaceOnUse">
<stop stop-color="#59CBFF"/>
<stop offset="1" stop-color="#009FE7"/>
</linearGradient>
<linearGradient id="paint4_linear_1699_23406" x1="12.3338" y1="9.92752" x2="14.0254" y2="9.92752" gradientUnits="userSpaceOnUse">
<stop stop-color="#59CBFF"/>
<stop offset="1" stop-color="#009FE7"/>
</linearGradient>
<linearGradient id="paint5_linear_1699_23406" x1="0.323944" y1="9.99994" x2="19.6761" y2="9.99994" gradientUnits="userSpaceOnUse">
<stop stop-color="#59CBFF"/>
<stop offset="1" stop-color="#009FE7"/>
</linearGradient>
<clipPath id="clip0_1699_23406">
<rect width="20" height="20" fill="white"/>
</clipPath>
</defs>
</svg>
