<svg width="20" height="20" viewBox="0 0 20 20" fill="none" xmlns="http://www.w3.org/2000/svg">
<g clip-path="url(#clip0_1699_23310)">
<path d="M13.0149 4.49374C11.8858 2.18828 9.52393 0.664062 6.87465 0.664062C3.08384 0.664062 -0.000187256 3.73059 -0.000187256 7.49984C-0.000187256 8.52419 0.219729 9.506 0.653782 10.4214L0.0111797 13.6348C-0.0706153 14.0439 0.290236 14.4054 0.699367 14.3245L3.95238 13.6813C4.39037 13.8891 4.84349 14.0471 5.30906 14.156C4.26546 9.21308 8.01209 4.57335 13.0149 4.49374Z" fill="url(#paint0_linear_1699_23310)"/>
<path d="M19.3454 15.4213C19.4577 15.1846 19.5553 14.9433 19.6388 14.6981H19.6173C21.0801 10.4046 18.0039 5.89204 13.4625 5.67232C13.4624 5.67208 13.4626 5.67255 13.4625 5.67232C9.55496 5.49224 6.30827 8.62022 6.30827 12.4997C6.30827 16.2658 9.36918 19.3299 13.134 19.3354C14.1552 19.334 15.134 19.1142 16.0468 18.6812C19.6094 19.3856 19.3316 19.3355 19.4134 19.3355C19.7837 19.3355 20.0603 18.9962 19.988 18.6347L19.3454 15.4213Z" fill="url(#paint1_linear_1699_23310)"/>
</g>
<defs>
<linearGradient id="paint0_linear_1699_23310" x1="-0.000488281" y1="10.0002" x2="19.9995" y2="10.0002" gradientUnits="userSpaceOnUse">
<stop stop-color="#59CBFF"/>
<stop offset="1" stop-color="#009FE7"/>
</linearGradient>
<linearGradient id="paint1_linear_1699_23310" x1="-0.000488281" y1="10.0002" x2="19.9995" y2="10.0002" gradientUnits="userSpaceOnUse">
<stop stop-color="#59CBFF"/>
<stop offset="1" stop-color="#009FE7"/>
</linearGradient>
<clipPath id="clip0_1699_23310">
<rect width="20" height="20" fill="white"/>
</clipPath>
</defs>
</svg>
