<svg width="20" height="20" viewBox="0 0 20 20" fill="none" xmlns="http://www.w3.org/2000/svg">
<g clip-path="url(#clip0_1699_23337)">
<path d="M12.5781 5.5C11.9812 5.5 11.434 5.68915 10.9516 6.0622C10.4892 6.41985 10.1813 6.87539 10 7.20663C9.81874 6.87537 9.51084 6.41985 9.04839 6.0622C8.56603 5.68915 8.01878 5.5 7.42188 5.5C5.75615 5.5 4.5 6.86247 4.5 8.66925C4.5 10.6212 6.06713 11.9567 8.43957 13.9784C8.84244 14.3218 9.29909 14.7109 9.77373 15.126C9.83629 15.1808 9.91664 15.2109 10 15.2109C10.0834 15.2109 10.1637 15.1808 10.2263 15.126C10.7009 14.7109 11.1576 14.3217 11.5607 13.9782C13.9329 11.9567 15.5 10.6212 15.5 8.66925C15.5 6.86247 14.2439 5.5 12.5781 5.5Z" fill="url(#paint0_linear_1699_23337)"/>
<path d="M5.4211 17.3711L7.16349 16.6345C7.45862 16.5095 7.78994 16.6436 7.90341 16.934C8.01685 17.2244 7.86953 17.5613 7.57441 17.6863L7.14203 17.8692C10.1533 18.9945 13.632 18.2095 15.9985 15.843C18.7088 13.1326 19.3128 9.01126 17.4705 5.81097C17.3154 5.5415 17.4133 5.18865 17.6892 5.02274C17.9651 4.85695 18.3143 4.94088 18.4694 5.21035C20.5674 8.85502 19.8785 13.5563 16.7951 16.6397C14.0875 19.3473 10.0934 20.2357 6.64888 18.9221L6.82935 19.3853C6.94282 19.6757 6.79548 20.0124 6.50029 20.1376C6.20514 20.2626 5.87391 20.1283 5.76044 19.838L5.0921 18.1235C4.97863 17.833 5.12597 17.4961 5.4211 17.3711ZM14.239 0.162117L14.9074 1.87664C15.0207 2.16714 14.8735 2.50397 14.5783 2.62888L12.8358 3.36572C12.5406 3.49064 12.2095 3.3565 12.0961 3.06612C11.9826 2.77571 12.1299 2.4388 12.425 2.31378L12.8575 2.13102C9.84612 1.00561 6.3675 1.79062 4.00102 4.15711C1.29067 6.86746 0.686502 10.9889 2.52895 14.1891C2.68393 14.4587 2.58598 14.8116 2.31027 14.9774C2.03445 15.1433 1.68508 15.0591 1.53007 14.7897C-0.568081 11.1452 0.120956 6.4438 3.20433 3.36043C5.91186 0.652896 9.90609 -0.235616 13.3506 1.07793L13.17 0.614917C13.0565 0.324507 13.204 -0.0123535 13.4991 -0.137374C13.7943 -0.262479 14.1255 -0.128267 14.239 0.162117Z" fill="url(#paint1_linear_1699_23337)"/>
</g>
<defs>
<linearGradient id="paint0_linear_1699_23337" x1="4.5" y1="10.3555" x2="15.5" y2="10.3555" gradientUnits="userSpaceOnUse">
<stop stop-color="#59CBFF"/>
<stop offset="1" stop-color="#009FE7"/>
</linearGradient>
<linearGradient id="paint1_linear_1699_23337" x1="0.32365" y1="10.0001" x2="19.6758" y2="10.0001" gradientUnits="userSpaceOnUse">
<stop stop-color="#59CBFF"/>
<stop offset="1" stop-color="#009FE7"/>
</linearGradient>
<clipPath id="clip0_1699_23337">
<rect width="20" height="20" fill="white"/>
</clipPath>
</defs>
</svg>
