<svg xmlns="http://www.w3.org/2000/svg" width="20" height="20" viewBox="0 0 20 20" fill="none">
    <g clip-path="url(#clip0_4240_15759)">
        <path d="M5.74976 1.77906C5.23199 1.77906 4.81226 2.19879 4.81226 2.71656V5.33403H6.64064V4.60938C6.64064 4.30734 6.88548 4.0625 7.18752 4.0625H17.6563C17.9583 4.0625 18.2031 4.30734 18.2031 4.60938V6.01562C18.2031 6.31766 17.9583 6.5625 17.6563 6.5625H16.4267C16.4501 6.67012 16.4625 6.78189 16.4625 6.89653V7.53906H17.6563C17.9583 7.53906 18.2031 7.78391 18.2031 8.08594V9.49219C18.2031 9.79422 17.9583 10.0391 17.6563 10.0391H16.4625V13.4075H19.0625C19.5803 13.4075 20 12.9878 20 12.47V2.71656C20 2.19879 19.5803 1.77906 19.0625 1.77906H5.74976Z" fill="url(#paint0_linear_4240_15759)"/>
        <path fill-rule="evenodd" clip-rule="evenodd" d="M0.935303 6.59246C0.417536 6.59246 -0.00219727 7.0122 -0.00219727 7.52996V17.2834C-0.00219727 17.8012 0.417536 18.2209 0.935303 18.2209H14.2481C14.7658 18.2209 15.1856 17.8012 15.1856 17.2834V7.52996C15.1856 7.0122 14.7658 6.59246 14.2481 6.59246H0.935303ZM1.79689 9.41407C1.79689 9.11204 2.04174 8.86719 2.34377 8.86719H12.8125C13.1145 8.86719 13.3594 9.11204 13.3594 9.41407V10.8203C13.3594 11.1223 13.1145 11.3672 12.8125 11.3672H2.34377C2.04174 11.3672 1.79689 11.1223 1.79689 10.8203V9.41407ZM1.79689 12.8906C1.79689 12.5886 2.04174 12.3438 2.34377 12.3438H12.8125C13.1145 12.3438 13.3594 12.5886 13.3594 12.8906V14.2969C13.3594 14.5989 13.1145 14.8438 12.8125 14.8438H2.34377C2.04174 14.8438 1.79689 14.5989 1.79689 14.2969V12.8906Z" fill="url(#paint1_linear_4240_15759)"/>
    </g>
    <defs>
        <linearGradient id="paint0_linear_4240_15759" x1="-0.00219727" y1="10" x2="20" y2="10" gradientUnits="userSpaceOnUse">
            <stop stop-color="#59CBFF"/>
            <stop offset="1" stop-color="#009FE7"/>
        </linearGradient>
        <linearGradient id="paint1_linear_4240_15759" x1="-0.00219727" y1="10" x2="20" y2="10" gradientUnits="userSpaceOnUse">
            <stop stop-color="#59CBFF"/>
            <stop offset="1" stop-color="#009FE7"/>
        </linearGradient>
        <clipPath id="clip0_4240_15759">
            <rect width="20" height="20" fill="white"/>
        </clipPath>
    </defs>
</svg>
