<svg width="20" height="20" viewBox="0 0 20 20" fill="none" xmlns="http://www.w3.org/2000/svg">
<g clip-path="url(#clip0_1947_16266)">
<path d="M8.18164 5.88632C8.18164 7.38082 11.1544 8.163 14.0907 8.163C17.0271 8.163 19.9999 7.38082 19.9999 5.88632C19.9998 2.89727 8.18164 2.89727 8.18164 5.88632Z" fill=""/>
<path d="M8.18164 5.88632C8.18164 7.38082 11.1544 8.163 14.0907 8.163C17.0271 8.163 19.9999 7.38082 19.9999 5.88632C19.9998 2.89727 8.18164 2.89727 8.18164 5.88632Z" fill="url(#paint0_linear_1947_16266)"/>
<path d="M19.7806 8.08893C19.6452 8.00711 19.4752 8.00131 19.3344 8.07516C18.1102 8.71726 16.2481 9.07121 14.0907 9.07121C11.9334 9.07121 10.0713 8.71726 8.84705 8.07516C8.70634 8.00135 8.53631 8.00711 8.40093 8.08893C8.26465 8.17117 8.18164 8.31925 8.18164 8.47846V8.61584C8.18164 10.1103 11.1544 10.8925 14.0907 10.8925C17.0271 10.8925 19.9999 10.1103 19.9999 8.61584V8.47846C19.9998 8.31925 19.9168 8.17117 19.7806 8.08893Z" fill=""/>
<path d="M19.7806 8.08893C19.6452 8.00711 19.4752 8.00131 19.3344 8.07516C18.1102 8.71726 16.2481 9.07121 14.0907 9.07121C11.9334 9.07121 10.0713 8.71726 8.84705 8.07516C8.70634 8.00135 8.53631 8.00711 8.40093 8.08893C8.26465 8.17117 8.18164 8.31925 8.18164 8.47846V8.61584C8.18164 10.1103 11.1544 10.8925 14.0907 10.8925C17.0271 10.8925 19.9999 10.1103 19.9999 8.61584V8.47846C19.9998 8.31925 19.9168 8.17117 19.7806 8.08893Z" fill="url(#paint1_linear_1947_16266)"/>
<path d="M2.72656 14.9918C2.72656 16.4863 5.69929 17.2685 8.63567 17.2685C11.5721 17.2685 14.5448 16.4863 14.5448 14.9918C14.5447 12.0027 2.72656 12.0027 2.72656 14.9918Z" fill=""/>
<path d="M2.72656 14.9918C2.72656 16.4863 5.69929 17.2685 8.63567 17.2685C11.5721 17.2685 14.5448 16.4863 14.5448 14.9918C14.5447 12.0027 2.72656 12.0027 2.72656 14.9918Z" fill="url(#paint2_linear_1947_16266)"/>
<path d="M14.3255 17.1982C14.1896 17.1168 14.0201 17.1105 13.8794 17.1844C12.6551 17.8265 10.793 18.1804 8.63567 18.1804C6.47835 18.1804 4.61622 17.8265 3.39197 17.1844C3.25126 17.1106 3.08124 17.1168 2.94585 17.1982C2.80957 17.2804 2.72656 17.4285 2.72656 17.5877V17.7251C2.72656 19.2196 5.69929 20.0018 8.63567 20.0018C11.5721 20.0018 14.5448 19.2196 14.5448 17.7251V17.5877C14.5447 17.4285 14.4617 17.2804 14.3255 17.1982Z" fill=""/>
<path d="M14.3255 17.1982C14.1896 17.1168 14.0201 17.1105 13.8794 17.1844C12.6551 17.8265 10.793 18.1804 8.63567 18.1804C6.47835 18.1804 4.61622 17.8265 3.39197 17.1844C3.25126 17.1106 3.08124 17.1168 2.94585 17.1982C2.80957 17.2804 2.72656 17.4285 2.72656 17.5877V17.7251C2.72656 19.2196 5.69929 20.0018 8.63567 20.0018C11.5721 20.0018 14.5448 19.2196 14.5448 17.7251V17.5877C14.5447 17.4285 14.4617 17.2804 14.3255 17.1982Z" fill="url(#paint3_linear_1947_16266)"/>
<path d="M5.90911 4.5185C6.523 4.5185 7.13694 4.48381 7.73395 4.41491C7.83116 4.40379 7.92218 4.36156 7.99364 4.2944C8.68211 3.64518 9.85842 3.16629 11.3952 2.90971C11.5577 2.88256 11.6931 2.76964 11.7485 2.61401C11.7956 2.48285 11.8182 2.36102 11.8182 2.24182C11.8182 -0.747268 0 -0.747268 0 2.24178C0 3.73633 2.97273 4.5185 5.90911 4.5185Z" fill=""/>
<path d="M5.90911 4.5185C6.523 4.5185 7.13694 4.48381 7.73395 4.41491C7.83116 4.40379 7.92218 4.36156 7.99364 4.2944C8.68211 3.64518 9.85842 3.16629 11.3952 2.90971C11.5577 2.88256 11.6931 2.76964 11.7485 2.61401C11.7956 2.48285 11.8182 2.36102 11.8182 2.24182C11.8182 -0.747268 0 -0.747268 0 2.24178C0 3.73633 2.97273 4.5185 5.90911 4.5185Z" fill="url(#paint4_linear_1947_16266)"/>
<path d="M5.90911 7.25195C6.28552 7.25195 6.65263 7.23904 7.0082 7.21547C7.1516 7.20567 7.28165 7.12922 7.35976 7.00824C7.43745 6.88773 7.45386 6.73701 7.40417 6.60226C7.31583 6.36435 7.27279 6.13002 7.27501 5.86147C7.27501 5.73695 7.22395 5.6178 7.13383 5.53198C7.04417 5.44615 6.91765 5.39412 6.79867 5.40656C6.5017 5.4208 6.20472 5.43056 5.90911 5.43056C3.75179 5.43056 1.88966 5.07661 0.665412 4.4345C0.524702 4.3607 0.354674 4.36649 0.21929 4.44827C0.0830114 4.5306 0 4.67868 0 4.83789V4.97527C0 6.46982 2.97273 7.25195 5.90911 7.25195Z" fill=""/>
<path d="M5.90911 7.25195C6.28552 7.25195 6.65263 7.23904 7.0082 7.21547C7.1516 7.20567 7.28165 7.12922 7.35976 7.00824C7.43745 6.88773 7.45386 6.73701 7.40417 6.60226C7.31583 6.36435 7.27279 6.13002 7.27501 5.86147C7.27501 5.73695 7.22395 5.6178 7.13383 5.53198C7.04417 5.44615 6.91765 5.39412 6.79867 5.40656C6.5017 5.4208 6.20472 5.43056 5.90911 5.43056C3.75179 5.43056 1.88966 5.07661 0.665412 4.4345C0.524702 4.3607 0.354674 4.36649 0.21929 4.44827C0.0830114 4.5306 0 4.67868 0 4.83789V4.97527C0 6.46982 2.97273 7.25195 5.90911 7.25195Z" fill="url(#paint5_linear_1947_16266)"/>
<path d="M5.90911 9.98241C6.28552 9.98241 6.65263 9.9695 7.0082 9.94594C7.1516 9.93613 7.28165 9.85968 7.35976 9.7387C7.43745 9.61819 7.45386 9.46747 7.40417 9.33273C7.31583 9.09481 7.27279 8.86048 7.27279 8.59193C7.27279 8.46741 7.22174 8.34827 7.13161 8.26244C7.04195 8.17662 6.91765 8.1277 6.79645 8.13703C6.50037 8.15126 6.20429 8.16102 5.90911 8.16102C3.75179 8.16102 1.88966 7.80707 0.665412 7.16497C0.524702 7.09117 0.354674 7.09696 0.21929 7.17874C0.0830114 7.26107 0 7.40915 0 7.56831V7.7057C0 9.20024 2.97273 9.98241 5.90911 9.98241Z" fill=""/>
<path d="M5.90911 9.98241C6.28552 9.98241 6.65263 9.9695 7.0082 9.94594C7.1516 9.93613 7.28165 9.85968 7.35976 9.7387C7.43745 9.61819 7.45386 9.46747 7.40417 9.33273C7.31583 9.09481 7.27279 8.86048 7.27279 8.59193C7.27279 8.46741 7.22174 8.34827 7.13161 8.26244C7.04195 8.17662 6.91765 8.1277 6.79645 8.13703C6.50037 8.15126 6.20429 8.16102 5.90911 8.16102C3.75179 8.16102 1.88966 7.80707 0.665412 7.16497C0.524702 7.09117 0.354674 7.09696 0.21929 7.17874C0.0830114 7.26107 0 7.40915 0 7.56831V7.7057C0 9.20024 2.97273 9.98241 5.90911 9.98241Z" fill="url(#paint6_linear_1947_16266)"/>
<path d="M19.781 13.5542C19.6448 13.4711 19.4756 13.4666 19.3349 13.5405C18.4795 13.9892 17.2761 14.3026 15.8552 14.4463C15.6155 14.4707 15.4447 14.7509 15.4548 14.9919C15.4548 15.2227 15.4176 15.4432 15.3412 15.6651C15.2906 15.8123 15.3186 15.9755 15.4153 16.0973C15.5024 16.2063 15.6333 16.269 15.7709 16.269C15.7869 16.269 15.8033 16.2681 15.8197 16.2663C18.4374 15.9835 20.0003 15.1667 20.0003 14.0812V13.9438C20.0003 13.7846 19.9173 13.6365 19.781 13.5542Z" fill=""/>
<path d="M19.781 13.5542C19.6448 13.4711 19.4756 13.4666 19.3349 13.5405C18.4795 13.9892 17.2761 14.3026 15.8552 14.4463C15.6155 14.4707 15.4447 14.7509 15.4548 14.9919C15.4548 15.2227 15.4176 15.4432 15.3412 15.6651C15.2906 15.8123 15.3186 15.9755 15.4153 16.0973C15.5024 16.2063 15.6333 16.269 15.7709 16.269C15.7869 16.269 15.8033 16.2681 15.8197 16.2663C18.4374 15.9835 20.0003 15.1667 20.0003 14.0812V13.9438C20.0003 13.7846 19.9173 13.6365 19.781 13.5542Z" fill="url(#paint7_linear_1947_16266)"/>
<path d="M8.63616 11.8021L8.93756 11.8074C8.94025 11.8074 8.94289 11.8074 8.94557 11.8074C9.15774 11.8074 9.34196 11.6602 9.38901 11.4526C9.43652 11.2418 9.32999 11.0271 9.13375 10.9376L9.03655 10.8941C8.97174 10.8656 8.90649 10.8371 8.84611 10.8055C8.70451 10.7313 8.53674 10.738 8.40046 10.8202C8.26461 10.9024 8.18164 11.0501 8.18164 11.2093V11.3467C8.1816 11.5985 8.38491 11.8021 8.63616 11.8021Z" fill=""/>
<path d="M8.63616 11.8021L8.93756 11.8074C8.94025 11.8074 8.94289 11.8074 8.94557 11.8074C9.15774 11.8074 9.34196 11.6602 9.38901 11.4526C9.43652 11.2418 9.32999 11.0271 9.13375 10.9376L9.03655 10.8941C8.97174 10.8656 8.90649 10.8371 8.84611 10.8055C8.70451 10.7313 8.53674 10.738 8.40046 10.8202C8.26461 10.9024 8.18164 11.0501 8.18164 11.2093V11.3467C8.1816 11.5985 8.38491 11.8021 8.63616 11.8021Z" fill="url(#paint8_linear_1947_16266)"/>
<path d="M19.7803 10.8233C19.6449 10.7415 19.4749 10.7357 19.3341 10.8095C18.1099 11.4516 16.2478 11.8056 14.0904 11.8056L13.7904 11.7998C13.607 11.7842 13.3877 11.9457 13.3411 12.156C13.2941 12.3663 13.4006 12.5806 13.5964 12.6695C14.0887 12.8936 14.4908 13.16 14.7914 13.461C14.877 13.5464 14.9925 13.594 15.1128 13.594C15.1221 13.594 15.1318 13.5936 15.1416 13.5931C17.3824 13.4508 19.9996 12.778 19.9996 11.3502V11.2128C19.9995 11.0536 19.9165 10.9055 19.7803 10.8233Z" fill=""/>
<path d="M19.7803 10.8233C19.6449 10.7415 19.4749 10.7357 19.3341 10.8095C18.1099 11.4516 16.2478 11.8056 14.0904 11.8056L13.7904 11.7998C13.607 11.7842 13.3877 11.9457 13.3411 12.156C13.2941 12.3663 13.4006 12.5806 13.5964 12.6695C14.0887 12.8936 14.4908 13.16 14.7914 13.461C14.877 13.5464 14.9925 13.594 15.1128 13.594C15.1221 13.594 15.1318 13.5936 15.1416 13.5931C17.3824 13.4508 19.9996 12.778 19.9996 11.3502V11.2128C19.9995 11.0536 19.9165 10.9055 19.7803 10.8233Z" fill="url(#paint9_linear_1947_16266)"/>
<path d="M3.80148 12.5714C3.85828 12.5714 3.91513 12.5608 3.96882 12.5394C4.76962 12.2224 5.74615 12.004 6.87188 11.8907C7.11158 11.8667 7.28293 11.5634 7.2727 11.3224C7.2727 11.1979 7.22165 11.0787 7.13152 10.9929C7.04186 10.9071 6.91756 10.8613 6.79637 10.8675C6.50029 10.8817 6.20421 10.8915 5.90902 10.8915C3.75171 10.8915 1.88958 10.5375 0.665327 9.89544C0.524617 9.82164 0.354588 9.82743 0.219205 9.90921C0.0830114 9.99149 0 10.1395 0 10.2987V10.4361C0 11.4424 1.39739 12.2392 3.73845 12.5669C3.75933 12.5701 3.78064 12.5714 3.80148 12.5714Z" fill=""/>
<path d="M3.80148 12.5714C3.85828 12.5714 3.91513 12.5608 3.96882 12.5394C4.76962 12.2224 5.74615 12.004 6.87188 11.8907C7.11158 11.8667 7.28293 11.5634 7.2727 11.3224C7.2727 11.1979 7.22165 11.0787 7.13152 10.9929C7.04186 10.9071 6.91756 10.8613 6.79637 10.8675C6.50029 10.8817 6.20421 10.8915 5.90902 10.8915C3.75171 10.8915 1.88958 10.5375 0.665327 9.89544C0.524617 9.82164 0.354588 9.82743 0.219205 9.90921C0.0830114 9.99149 0 10.1395 0 10.2987V10.4361C0 11.4424 1.39739 12.2392 3.73845 12.5669C3.75933 12.5701 3.78064 12.5714 3.80148 12.5714Z" fill="url(#paint10_linear_1947_16266)"/>
</g>
<defs>
<linearGradient id="paint0_linear_1947_16266" x1="8.18164" y1="5.90376" x2="19.9999" y2="5.90376" gradientUnits="userSpaceOnUse">
<stop stop-color="#59CBFF"/>
<stop offset="1" stop-color="#009FE7"/>
</linearGradient>
<linearGradient id="paint1_linear_1947_16266" x1="8.18164" y1="9.45798" x2="19.9999" y2="9.45798" gradientUnits="userSpaceOnUse">
<stop stop-color="#59CBFF"/>
<stop offset="1" stop-color="#009FE7"/>
</linearGradient>
<linearGradient id="paint2_linear_1947_16266" x1="2.72656" y1="15.0092" x2="14.5448" y2="15.0092" gradientUnits="userSpaceOnUse">
<stop stop-color="#59CBFF"/>
<stop offset="1" stop-color="#009FE7"/>
</linearGradient>
<linearGradient id="paint3_linear_1947_16266" x1="2.72656" y1="18.5673" x2="14.5448" y2="18.5673" gradientUnits="userSpaceOnUse">
<stop stop-color="#59CBFF"/>
<stop offset="1" stop-color="#009FE7"/>
</linearGradient>
<linearGradient id="paint4_linear_1947_16266" x1="0" y1="2.25925" x2="11.8182" y2="2.25925" gradientUnits="userSpaceOnUse">
<stop stop-color="#59CBFF"/>
<stop offset="1" stop-color="#009FE7"/>
</linearGradient>
<linearGradient id="paint5_linear_1947_16266" x1="0" y1="5.81738" x2="7.43244" y2="5.81738" gradientUnits="userSpaceOnUse">
<stop stop-color="#59CBFF"/>
<stop offset="1" stop-color="#009FE7"/>
</linearGradient>
<linearGradient id="paint6_linear_1947_16266" x1="0" y1="8.54785" x2="7.43244" y2="8.54785" gradientUnits="userSpaceOnUse">
<stop stop-color="#59CBFF"/>
<stop offset="1" stop-color="#009FE7"/>
</linearGradient>
<linearGradient id="paint7_linear_1947_16266" x1="15.3164" y1="14.8786" x2="20.0003" y2="14.8786" gradientUnits="userSpaceOnUse">
<stop stop-color="#59CBFF"/>
<stop offset="1" stop-color="#009FE7"/>
</linearGradient>
<linearGradient id="paint8_linear_1947_16266" x1="8.18164" y1="11.2807" x2="9.40025" y2="11.2807" gradientUnits="userSpaceOnUse">
<stop stop-color="#59CBFF"/>
<stop offset="1" stop-color="#009FE7"/>
</linearGradient>
<linearGradient id="paint9_linear_1947_16266" x1="13.3301" y1="12.1759" x2="19.9996" y2="12.1759" gradientUnits="userSpaceOnUse">
<stop stop-color="#59CBFF"/>
<stop offset="1" stop-color="#009FE7"/>
</linearGradient>
<linearGradient id="paint10_linear_1947_16266" x1="0" y1="11.2076" x2="7.27314" y2="11.2076" gradientUnits="userSpaceOnUse">
<stop stop-color="#59CBFF"/>
<stop offset="1" stop-color="#009FE7"/>
</linearGradient>
<clipPath id="clip0_1947_16266">
<rect width="20" height="20" fill="white"/>
</clipPath>
</defs>
</svg>
