<svg width="20" height="20" viewBox="0 0 20 20" fill="none" xmlns="http://www.w3.org/2000/svg">
<g clip-path="url(#clip0_1699_23431)">
<path d="M10 0C4.47305 0 0 4.47254 0 10C0 15.527 4.47254 20 10 20C15.527 20 20 15.5275 20 10C20 4.47305 15.5275 0 10 0ZM10 16.4417C4.52277 16.4417 1.62172 10.0832 4.99602 5.93855L4.81703 5.75957C4.45426 5.39684 4.62125 4.77672 5.11594 4.64426L6.82668 4.18586C7.32188 4.05305 7.7757 4.50758 7.64316 5.00234L7.1848 6.71309C7.05273 7.20594 6.43332 7.3759 6.06941 7.01199L5.94523 6.88781C3.41359 10.1759 5.69926 15.1084 10 15.1084C10.3682 15.1084 10.6667 15.4069 10.6667 15.7751C10.6667 16.1432 10.3682 16.4417 10 16.4417ZM15.183 14.2404C15.5457 14.6031 15.3787 15.2232 14.8841 15.3557L13.1733 15.8141C12.6787 15.9467 12.224 15.4932 12.3568 14.9976L12.8152 13.2869C12.948 12.7914 13.5684 12.6259 13.9306 12.988L14.0548 13.1121C16.6245 9.77441 14.242 4.89152 9.99996 4.89152C9.6318 4.89152 9.33328 4.59305 9.33328 4.22484C9.33328 3.85668 9.63176 3.55816 9.99996 3.55816C15.4132 3.55816 18.419 9.86668 15.0039 14.0613L15.183 14.2404Z" fill="url(#paint0_linear_1699_23431)"/>
</g>
<defs>
<linearGradient id="paint0_linear_1699_23431" x1="0" y1="10" x2="20" y2="10" gradientUnits="userSpaceOnUse">
<stop stop-color="#59CBFF"/>
<stop offset="1" stop-color="#009FE7"/>
</linearGradient>
<clipPath id="clip0_1699_23431">
<rect width="20" height="20" fill="white"/>
</clipPath>
</defs>
</svg>
