<svg width="20" height="20" viewBox="0 0 20 20" fill="none" xmlns="http://www.w3.org/2000/svg">
<path d="M17.1695 2.68359H2.83047C1.26992 2.68359 0 3.95352 0 5.51445V14.4855C0 16.0465 1.26992 17.3164 2.83047 17.3164H17.1695C18.7301 17.3164 20 16.0465 20 14.4855V5.51445C20 3.95352 18.7301 2.68359 17.1695 2.68359ZM7.2582 7.18711L4.28047 10.1648L6.92852 12.8129C7.15742 13.0418 7.15742 13.4129 6.92852 13.6414C6.7 13.8703 6.32891 13.8703 6.1 13.6414L3.0375 10.5789C2.80859 10.35 2.80859 9.9793 3.0375 9.75039L6.4293 6.35859C6.6582 6.12969 7.0293 6.12969 7.2582 6.35859C7.48672 6.58711 7.48672 6.9582 7.2582 7.18711ZM12.0914 5.80859L8.99297 14.5816C8.88516 14.8871 8.55039 15.0469 8.24531 14.9391C7.94023 14.8312 7.78008 14.4965 7.88789 14.1914L10.9863 5.41836C11.0941 5.11328 11.4285 4.95312 11.734 5.06094C12.0391 5.16875 12.1992 5.50352 12.0914 5.80859ZM16.9625 10.2496L13.5707 13.6414C13.3418 13.8703 12.9707 13.8703 12.7418 13.6414C12.5133 13.4129 12.5133 13.0418 12.7418 12.8129L15.7195 9.83516L13.0715 7.18711C12.8426 6.9582 12.8426 6.58711 13.0715 6.35859C13.3 6.12969 13.6711 6.12969 13.9 6.35859L16.9625 9.42109C17.1914 9.65 17.1914 10.0207 16.9625 10.2496Z" fill="url(#paint0_linear_1699_23437)"/>
<defs>
<linearGradient id="paint0_linear_1699_23437" x1="0" y1="10" x2="20" y2="10" gradientUnits="userSpaceOnUse">
<stop stop-color="#59CBFF"/>
<stop offset="1" stop-color="#009FE7"/>
</linearGradient>
</defs>
</svg>
