<svg xmlns="http://www.w3.org/2000/svg" width="20" height="20" viewBox="0 0 20 20">
    <g clip-path="url(#clip0_1947_23391)">
        <path fill-rule="evenodd" clip-rule="evenodd" d="M10 20C15.5228 20 20 15.5228 20 10C20 4.47715 15.5228 0 10 0C4.47715 0 0 4.47715 0 10C0 15.5228 4.47715 20 10 20ZM10 5C10.4602 5 10.8333 5.3731 10.8333 5.83333V9.16667H14.1667C14.6269 9.16667 15 9.53976 15 10C15 10.4602 14.6269 10.8333 14.1667 10.8333H10.8333V14.1667C10.8333 14.6269 10.4602 15 10 15C9.53976 15 9.16667 14.6269 9.16667 14.1667V10.8333H5.83333C5.3731 10.8333 5 10.4602 5 10C5 9.53976 5.3731 9.16667 5.83333 9.16667H9.16667V5.83333C9.16667 5.3731 9.53976 5 10 5Z" />
    </g>
    <defs>
        <linearGradient id="paint0_linear_1947_23391" x1="0" y1="10" x2="20" y2="10" gradientUnits="userSpaceOnUse">
            <stop stop-color="#59CBFF"/>
            <stop offset="1" stop-color="#009FE7"/>
        </linearGradient>
        <clipPath id="clip0_1947_23391">
            <rect width="20" height="20" fill="transparent"/>
        </clipPath>
    </defs>
</svg>
