<svg width="20" height="20" viewBox="0 0 20 20" fill="none" xmlns="http://www.w3.org/2000/svg">
<path d="M4.14136 0H15.8597C16.1832 0 16.4457 0.262492 16.4457 0.585919V2.4218H6.48503C5.51592 2.4218 4.72728 3.21045 4.72728 4.17956V7.10915H3.55544V0.585919C3.55544 0.262492 3.81793 0 4.14136 0Z" fill="url(#paint0_linear_1699_23451)"/>
<path d="M6.48503 3.59364H18.2034C18.5268 3.59364 18.7893 3.85613 18.7893 4.17956V12.3824C18.7893 12.7059 18.5268 12.9683 18.2034 12.9683H15.2738V8.86691C15.2738 7.8978 14.4852 7.10915 13.5161 7.10915H5.89912V4.17956C5.89912 3.85613 6.16161 3.59364 6.48503 3.59364Z" fill="url(#paint1_linear_1699_23451)"/>
<path d="M5.72752 19.8277L7.8996 17.6557H13.5161C13.8396 17.6557 14.102 17.3934 14.102 17.0698V8.86691C14.102 8.54333 13.8396 8.28099 13.5161 8.28099H1.79768C1.4741 8.28099 1.21176 8.54333 1.21176 8.86691V17.0698C1.21176 17.3934 1.4741 17.6557 1.79768 17.6557H4.72728V19.4135C4.72728 19.9339 5.35898 20.1963 5.72752 19.8277Z" fill="url(#paint2_linear_1699_23451)"/>
<defs>
<linearGradient id="paint0_linear_1699_23451" x1="1.21176" y1="9.99999" x2="18.7893" y2="9.99999" gradientUnits="userSpaceOnUse">
<stop stop-color="#59CBFF"/>
<stop offset="1" stop-color="#009FE7"/>
</linearGradient>
<linearGradient id="paint1_linear_1699_23451" x1="1.21176" y1="9.99999" x2="18.7893" y2="9.99999" gradientUnits="userSpaceOnUse">
<stop stop-color="#59CBFF"/>
<stop offset="1" stop-color="#009FE7"/>
</linearGradient>
<linearGradient id="paint2_linear_1699_23451" x1="1.21176" y1="9.99999" x2="18.7893" y2="9.99999" gradientUnits="userSpaceOnUse">
<stop stop-color="#59CBFF"/>
<stop offset="1" stop-color="#009FE7"/>
</linearGradient>
</defs>
</svg>
