<svg width="20" height="20" viewBox="0 0 20 20" fill="none" xmlns="http://www.w3.org/2000/svg">
<g clip-path="url(#clip0_1699_23439)">
<path d="M19.6045 18.8591C19.3579 18.7155 17.8567 17.7859 17.0535 16.105C18.9294 14.3509 19.9963 11.9108 19.9963 9.41356C19.9963 4.24521 15.4897 0.0012207 9.99816 0.0012207C4.5066 0.0012207 0 4.24521 0 9.41356C0 14.5819 4.5066 18.8259 9.99816 18.8259C10.7354 18.8259 11.5272 18.7568 12.6197 18.5273C15.4911 20.0531 18.0684 20.0102 19.0489 19.9947C19.4855 19.9893 19.8024 20.0681 19.9655 19.6171C20.0759 19.3146 19.9126 18.9652 19.6045 18.8591ZM11.1698 14.1393C11.1698 14.7863 10.6453 15.3109 9.99816 15.3109C9.35105 15.3109 8.82648 14.7863 8.82648 14.1393V9.41356C8.82648 8.76646 9.35105 8.24188 9.99816 8.24188C10.6453 8.24188 11.1698 8.76646 11.1698 9.41356V14.1393ZM9.99816 6.44536C9.35105 6.44536 8.82648 5.92071 8.82648 5.27368C8.82648 4.62657 9.35105 4.102 9.99816 4.102C10.6453 4.102 11.1698 4.62657 11.1698 5.27368C11.1698 5.92075 10.6453 6.44536 9.99816 6.44536Z" fill="url(#paint0_linear_1699_23439)"/>
</g>
<defs>
<linearGradient id="paint0_linear_1699_23439" x1="0" y1="9.99996" x2="20" y2="9.99996" gradientUnits="userSpaceOnUse">
<stop stop-color="#59CBFF"/>
<stop offset="1" stop-color="#009FE7"/>
</linearGradient>
<clipPath id="clip0_1699_23439">
<rect width="20" height="20" fill="white"/>
</clipPath>
</defs>
</svg>
