<svg width="20" height="20" viewBox="0 0 20 20" fill="none" xmlns="http://www.w3.org/2000/svg">
<g clip-path="url(#clip0_1699_23465)">
<path d="M19.9476 7.27534C19.8835 7.07711 19.7627 6.90212 19.6002 6.77208C19.4377 6.64205 19.2406 6.56271 19.0335 6.54392L13.2601 6.01875L10.9784 0.666498C10.8099 0.273269 10.4266 0.0195312 9.99996 0.0195312C9.57331 0.0195312 9.18987 0.273269 9.02248 0.666498L6.7408 6.01875L0.966483 6.54392C0.543155 6.58305 0.184711 6.87033 0.0522871 7.27534C-0.01224 7.47375 -0.0172593 7.68676 0.0378509 7.888C0.092961 8.08923 0.205779 8.26985 0.362332 8.40748L4.72659 12.2417L3.43981 17.9202C3.34567 18.3378 3.50739 18.7696 3.85317 19.02C4.03428 19.152 4.25253 19.223 4.47651 19.2229C4.66849 19.2229 4.85687 19.1707 5.02155 19.0718L9.99996 16.0893L14.9775 19.0718C15.156 19.1788 15.362 19.231 15.5699 19.2218C15.7778 19.2126 15.9784 19.1424 16.1468 19.02C16.4925 18.7696 16.6543 18.3378 16.5602 17.9202L15.2733 12.2417L19.6376 8.40752C19.7942 8.2699 19.907 8.08929 19.9621 7.88805C20.0172 7.68681 20.0122 7.47375 19.9476 7.27534Z" fill="url(#paint0_linear_1699_23465)"/>
</g>
<defs>
<linearGradient id="paint0_linear_1699_23465" x1="-9.15527e-05" y1="9.6212" x2="20" y2="9.6212" gradientUnits="userSpaceOnUse">
<stop stop-color="#59CBFF"/>
<stop offset="1" stop-color="#009FE7"/>
</linearGradient>
<clipPath id="clip0_1699_23465">
<rect width="20" height="20" fill="white"/>
</clipPath>
</defs>
</svg>
