<svg width="20" height="20" viewBox="0 0 20 20" fill="none" xmlns="http://www.w3.org/2000/svg">
<g clip-path="url(#clip0_1699_23447)">
<path d="M4.82746 11.0245C4.83906 11.0129 4.83984 11.012 4.82746 11.0245V11.0245Z" fill="url(#paint0_linear_1699_23447)"/>
<path d="M19.5566 8.26013L18.5621 8.02099C18.3459 7.07696 17.9734 6.17985 17.4528 5.34571L17.9568 4.49954C18.0941 4.26899 18.0569 3.97489 17.8675 3.78552L16.2158 2.13376C16.0264 1.94497 15.7329 1.9072 15.5018 2.0445L14.6556 2.54853C13.8214 2.0279 12.9243 1.65544 11.9803 1.43919L11.7412 0.444658C11.6759 0.184346 11.442 0.0012207 11.173 0.0012207H8.82961C8.5607 0.0012207 8.32672 0.184307 8.26148 0.444658L8.02234 1.43919C7.07832 1.65544 6.18121 2.0279 5.34707 2.54853L4.5009 2.0445C4.27035 1.90716 3.97625 1.94438 3.78687 2.13376L2.13504 3.78548C1.94566 3.97485 1.90847 4.26892 2.04578 4.4995L2.5498 5.34567C2.02918 6.17981 1.65672 7.07692 1.44047 8.02095L0.445935 8.26009C0.185622 8.32532 0.00249699 8.55931 0.00249699 8.82821V11.1716C0.00249699 11.4406 0.185583 11.6751 0.446481 11.7398L1.44101 11.9789C1.58519 12.6045 1.80218 13.2054 2.08086 13.7818C2.51113 13.3498 4.67215 11.1796 4.82746 11.0245C4.8198 10.985 4.73609 10.2345 4.73386 10.0884C4.68402 7.10294 7.08867 4.72771 10.0036 4.72771C12.9384 4.72771 15.2787 7.09419 15.2676 10.0182C15.255 12.7224 13.2367 15.0245 10.4178 15.235C10.2959 15.2444 9.74453 15.3258 8.97605 15.1743L6.2264 17.9239C6.80062 18.2009 7.39933 18.4165 8.0223 18.5601L8.26144 19.5552C8.32668 19.8156 8.56066 19.9987 8.82957 19.9987H11.173C11.4419 19.9987 11.6759 19.8156 11.7411 19.5552L11.9803 18.5607C12.9243 18.3445 13.8214 17.972 14.6555 17.4514L15.5017 17.9554C15.7311 18.0927 16.0258 18.055 16.2157 17.8661L17.8675 16.2144C18.0569 16.025 18.0941 15.7309 17.9568 15.5004L17.4527 14.6542C17.9739 13.82 18.3458 12.9229 18.5621 11.9783L19.556 11.7398C19.8169 11.6751 20 11.4406 20 11.1716V8.82821C20 8.55935 19.8169 8.32532 19.5566 8.26013Z" fill="url(#paint1_linear_1699_23447)"/>
<path d="M13.9655 8.92892C13.9141 8.7272 13.7584 8.56853 13.5575 8.51353C13.3568 8.45845 13.1423 8.51583 12.9951 8.66302L11.6582 10C11.2012 10.457 10.4583 10.457 10.0012 10C9.54469 9.54345 9.54469 8.7997 10.0012 8.34309L11.3387 7.0056C11.4859 6.85841 11.5428 6.64356 11.4877 6.4429C11.4327 6.24224 11.2742 6.08626 11.0725 6.03501C8.60039 5.40677 6.3757 7.01704 5.96769 9.24075C5.83668 9.9731 5.89504 10.7025 6.13472 11.3742C5.80136 11.7076 0.65238 16.8565 0.513981 16.995C-0.173167 17.6822 -0.173167 18.8001 0.524841 19.4981C1.21633 20.1536 2.27535 20.1811 3.00617 19.4872L8.62695 13.8665C9.52707 14.1877 10.5309 14.1812 11.5133 13.8345C13.2834 13.2099 14.5223 11.1137 13.9655 8.92892Z" fill="url(#paint2_linear_1699_23447)"/>
</g>
<defs>
<linearGradient id="paint0_linear_1699_23447" x1="-3.05176e-05" y1="9.99996" x2="20" y2="9.99996" gradientUnits="userSpaceOnUse">
<stop stop-color="#59CBFF"/>
<stop offset="1" stop-color="#009FE7"/>
</linearGradient>
<linearGradient id="paint1_linear_1699_23447" x1="-3.05176e-05" y1="9.99996" x2="20" y2="9.99996" gradientUnits="userSpaceOnUse">
<stop stop-color="#59CBFF"/>
<stop offset="1" stop-color="#009FE7"/>
</linearGradient>
<linearGradient id="paint2_linear_1699_23447" x1="-3.05176e-05" y1="9.99996" x2="20" y2="9.99996" gradientUnits="userSpaceOnUse">
<stop stop-color="#59CBFF"/>
<stop offset="1" stop-color="#009FE7"/>
</linearGradient>
<clipPath id="clip0_1699_23447">
<rect width="20" height="20" fill="white"/>
</clipPath>
</defs>
</svg>
