<svg width="20" height="20" viewBox="0 0 20 20" fill="none" xmlns="http://www.w3.org/2000/svg">
<path d="M10.0069 5.42969C9.55887 5.42969 9.19434 5.79453 9.19434 6.24252V7.86865H10.8197V6.24252C10.8197 5.79453 10.4553 5.42969 10.0069 5.42969Z" fill="url(#paint0_linear_1699_23455)"/>
<path d="M14.7432 5.42969C14.2952 5.42969 13.9307 5.79453 13.9307 6.24252V9.1037C13.9307 9.5517 14.2952 9.91653 14.7432 9.91653H15.556V6.24252C15.556 5.79453 15.1917 5.42969 14.7432 5.42969Z" fill="url(#paint1_linear_1699_23455)"/>
<path fill-rule="evenodd" clip-rule="evenodd" d="M3.54767 0H16.4946C18.4273 0 20 1.56906 20 3.49747V11.8709C20 13.8068 18.4285 15.3818 16.4969 15.3818L7.93045 15.3813C5.73898 15.3813 3.63785 16.1899 2.01477 17.6582C1.79108 17.8618 1.50238 17.9688 1.20941 17.9688C1.04568 17.9688 0.880432 17.9355 0.724945 17.8671C0.284424 17.673 0 17.2449 0 16.7763V3.53928C0 1.58783 1.59134 0 3.54767 0ZM7.47025 8.48587C7.47025 8.16208 7.20779 7.90009 6.88431 7.90009H4.673V5.7486C4.673 5.57236 4.81598 5.42908 4.99222 5.42908H6.88431C7.20779 5.42908 7.47025 5.16693 7.47025 4.84314C7.47025 4.51981 7.20779 4.2572 6.88431 4.2572H4.99222C4.16992 4.2572 3.50113 4.9263 3.50113 5.7486V10.5019C3.50113 10.8252 3.76328 11.0878 4.08707 11.0878C4.41055 11.0878 4.673 10.8253 4.673 10.5019V9.07181H6.88431C7.20779 9.07181 7.47025 8.80936 7.47025 8.48587ZM11.4058 11.0878C11.7293 11.0878 11.9917 10.8253 11.9917 10.5019V6.24191C11.9917 5.14786 11.1015 4.2572 10.007 4.2572C8.91296 4.2572 8.02261 5.14786 8.02261 6.24191V10.5019C8.02261 10.8253 8.28476 11.0878 8.60855 11.0878C8.93204 11.0878 9.19449 10.8253 9.19449 10.5019V9.03992H10.8199V10.5019C10.8199 10.8253 11.0825 11.0878 11.4058 11.0878ZM14.7433 11.0878H17.1922C17.5156 11.0878 17.7782 10.8253 17.7782 10.5019C17.7782 10.1781 17.5156 9.91592 17.1922 9.91592H16.7281V6.24191C16.7281 5.14786 15.8379 4.2572 14.7433 4.2572C13.6493 4.2572 12.7589 5.14786 12.7589 6.24191V9.10309C12.7589 10.1976 13.6493 11.0878 14.7433 11.0878Z" fill="url(#paint2_linear_1699_23455)"/>
<defs>
<linearGradient id="paint0_linear_1699_23455" x1="0" y1="8.98438" x2="20" y2="8.98438" gradientUnits="userSpaceOnUse">
<stop stop-color="#59CBFF"/>
<stop offset="1" stop-color="#009FE7"/>
</linearGradient>
<linearGradient id="paint1_linear_1699_23455" x1="0" y1="8.98438" x2="20" y2="8.98438" gradientUnits="userSpaceOnUse">
<stop stop-color="#59CBFF"/>
<stop offset="1" stop-color="#009FE7"/>
</linearGradient>
<linearGradient id="paint2_linear_1699_23455" x1="0" y1="8.98438" x2="20" y2="8.98438" gradientUnits="userSpaceOnUse">
<stop stop-color="#59CBFF"/>
<stop offset="1" stop-color="#009FE7"/>
</linearGradient>
</defs>
</svg>
