<svg width="20" height="20" viewBox="0 0 20 20" fill="none" xmlns="http://www.w3.org/2000/svg">
<g clip-path="url(#clip0_1699_23435)">
<path d="M19.3711 6.50781C19.5 6.84375 19.3906 7.22266 19.125 7.46875L17.4336 9.00781C17.4766 9.33203 17.5 9.66406 17.5 10C17.5 10.3359 17.4766 10.668 17.4336 10.9922L19.125 12.5312C19.3906 12.7773 19.5 13.1562 19.3711 13.4922C19.1992 13.957 18.9922 14.4063 18.7578 14.832L18.5742 15.1484C18.3164 15.5781 18.0273 15.9844 17.7109 16.3711C17.4766 16.6484 17.0977 16.7461 16.7539 16.6367L14.5781 15.9414C14.0547 16.3438 13.4414 16.6797 12.8594 16.9375L12.3711 19.168C12.293 19.5195 12.0195 19.7695 11.6602 19.8633C11.1211 19.9531 10.5664 20 9.96485 20C9.4336 20 8.87891 19.9531 8.33985 19.8633C7.98047 19.7695 7.70703 19.5195 7.62891 19.168L7.14063 16.9375C6.52344 16.6797 5.94531 16.3438 5.42188 15.9414L3.24766 16.6367C2.90234 16.7461 2.52149 16.6484 2.29024 16.3711C1.97344 15.9844 1.68438 15.5781 1.42656 15.1484L1.24375 14.832C1.00664 14.4063 0.800392 13.957 0.627345 13.4922C0.500783 13.1562 0.607423 12.7773 0.875392 12.5312L2.56524 10.9922C2.52227 10.668 2.5 10.3359 2.5 10C2.5 9.66406 2.52227 9.33203 2.56524 9.00781L0.875392 7.46875C0.607423 7.22266 0.500783 6.84766 0.627345 6.50781C0.800392 6.04297 1.00703 5.59375 1.24375 5.16797L1.42617 4.85156C1.68438 4.42188 1.97344 4.01562 2.29024 3.63086C2.52149 3.35156 2.90234 3.25469 3.24766 3.36484L5.42188 4.05859C5.94531 3.65469 6.52344 3.31875 7.14063 3.06367L7.62891 0.833203C7.70703 0.478516 7.98047 0.196875 8.33985 0.137109C8.87891 0.0469141 9.43359 0 10 0C10.5664 0 11.1211 0.0469141 11.6602 0.137109C12.0195 0.196875 12.293 0.478516 12.3711 0.833203L12.8594 3.06367C13.4414 3.31875 14.0547 3.65469 14.5781 4.05859L16.7539 3.36484C17.0977 3.25469 17.4766 3.35156 17.7109 3.63086C18.0273 4.01562 18.3164 4.42188 18.5742 4.85156L18.7578 5.16797C18.9922 5.59375 19.1992 6.04297 19.3711 6.50781ZM10 13.125C11.7266 13.125 13.125 11.7266 13.125 9.96484C13.125 8.27344 11.7266 6.83984 10 6.83984C8.27344 6.83984 6.875 8.27344 6.875 9.96484C6.875 11.7266 8.27344 13.125 10 13.125Z" fill="url(#paint0_linear_1699_23435)"/>
</g>
<defs>
<linearGradient id="paint0_linear_1699_23435" x1="0.574295" y1="10" x2="19.4251" y2="10" gradientUnits="userSpaceOnUse">
<stop stop-color="#59CBFF"/>
<stop offset="1" stop-color="#009FE7"/>
</linearGradient>
<clipPath id="clip0_1699_23435">
<rect width="20" height="20" fill="white"/>
</clipPath>
</defs>
</svg>
