<svg width="20" height="20" viewBox="0 0 20 20" fill="none" xmlns="http://www.w3.org/2000/svg">
<path d="M8.50792 9.5409C9.76325 9.5409 10.9177 9.10266 11.8255 8.3722C12.6536 8.84915 13.3694 9.49883 13.9228 10.2714C10.8758 10.2879 8.41086 12.7631 8.41086 15.814C8.41086 16.2266 8.45594 16.6286 8.54145 17.0155H2.37611C2.09129 17.0155 1.86047 16.7856 1.86047 16.502V14.1065C1.86047 11.6589 3.20145 9.51748 5.19013 8.37209C6.09809 9.10266 7.25258 9.5409 8.50792 9.5409Z" fill="url(#paint0_linear_1699_23463)"/>
<path d="M12.7519 4.24419C12.7519 1.90397 10.8481 0 8.50776 0C6.16754 0 4.26357 1.90397 4.26357 4.24419C4.26357 6.5844 6.16754 8.48837 8.50776 8.48837C10.8481 8.48837 12.7519 6.5844 12.7519 4.24419Z" fill="url(#paint1_linear_1699_23463)"/>
<path d="M13.9535 11.6279C11.6416 11.6279 9.76746 13.502 9.76746 15.8139C9.76746 18.1258 11.6416 20 13.9535 20C16.2654 20 18.1396 18.1258 18.1396 15.8139C18.1396 13.502 16.2654 11.6279 13.9535 11.6279ZM16.355 15.0759L13.6912 17.7398C13.4683 17.9627 13.1069 17.9627 12.8839 17.7398L11.552 16.4078C11.3291 16.1849 11.3291 15.8235 11.552 15.6006C11.7749 15.3777 12.1363 15.3777 12.3593 15.6006L13.2875 16.5289L15.5477 14.2687C15.7707 14.0457 16.1321 14.0457 16.355 14.2687C16.5779 14.4916 16.578 14.853 16.355 15.0759Z" fill="url(#paint2_linear_1699_23463)"/>
<defs>
<linearGradient id="paint0_linear_1699_23463" x1="1.86047" y1="9.99998" x2="18.1396" y2="9.99998" gradientUnits="userSpaceOnUse">
<stop stop-color="#59CBFF"/>
<stop offset="1" stop-color="#009FE7"/>
</linearGradient>
<linearGradient id="paint1_linear_1699_23463" x1="1.86047" y1="9.99998" x2="18.1396" y2="9.99998" gradientUnits="userSpaceOnUse">
<stop stop-color="#59CBFF"/>
<stop offset="1" stop-color="#009FE7"/>
</linearGradient>
<linearGradient id="paint2_linear_1699_23463" x1="1.86047" y1="9.99998" x2="18.1396" y2="9.99998" gradientUnits="userSpaceOnUse">
<stop stop-color="#59CBFF"/>
<stop offset="1" stop-color="#009FE7"/>
</linearGradient>
</defs>
</svg>
