<svg width="20" height="20" viewBox="0 0 20 20" fill="none" xmlns="http://www.w3.org/2000/svg">
<g clip-path="url(#clip0_1699_23461)">
<path d="M15.5485 14.1965C16.646 13.0988 18.432 13.0989 19.5295 14.1965C19.7585 14.4255 19.7585 14.7968 19.5294 15.0257L15.3159 19.2393C14.8253 19.7298 14.1731 19.9999 13.4795 19.9999L3.39068 19.9972V14.2392C3.3918 14.2393 3.39291 14.2393 3.39402 14.2394C3.39544 14.2394 3.39685 14.2395 3.39826 14.2396C3.46369 13.4697 4.00325 12.8028 4.75386 12.5861C5.45488 12.3836 6.17414 12.3051 6.89176 12.3529C7.71217 12.4075 8.41381 12.7389 9.09236 13.0594C9.73936 13.3651 10.3506 13.6538 10.987 13.6538H12.9341C13.2581 13.6538 13.5206 13.9167 13.5205 14.2407C13.5205 14.4103 13.5058 14.5765 13.4776 14.7381C13.3548 15.4419 12.7351 15.9506 12.0206 15.9506H8.467C8.13372 15.9506 7.8654 16.2286 7.88125 16.5654C7.89612 16.8808 8.16784 17.1234 8.48359 17.1234H11.9797C12.3906 17.1234 12.7848 16.9602 13.0753 16.6696L15.5485 14.1965Z" fill="url(#paint0_linear_1699_23461)"/>
<path d="M0.884356 14.2374H2.21958L2.21962 19.9992H0.884356C0.560955 19.9992 0.298767 19.737 0.298767 19.4136V14.8229C0.298767 14.4995 0.560955 14.2374 0.884356 14.2374Z" fill="url(#paint1_linear_1699_23461)"/>
<path d="M11.9048 5.73846C12.1555 5.73846 12.3712 5.71222 12.5519 5.65975C12.7327 5.60145 12.8726 5.51109 12.9717 5.38867C13.0708 5.26624 13.1203 5.11175 13.1203 4.92519C13.1203 4.65702 13.0358 4.4588 12.8667 4.33055C12.6977 4.19646 12.4324 4.12942 12.071 4.12942H11.4676V5.73846H11.9048Z" fill="url(#paint2_linear_1699_23461)"/>
<path fill-rule="evenodd" clip-rule="evenodd" d="M11.5947 12.2583C14.9797 12.2583 17.7239 9.5142 17.7239 6.12916C17.7239 2.74412 14.9797 0 11.5947 0C8.20965 0 5.46553 2.74412 5.46553 6.12916C5.46553 9.5142 8.20965 12.2583 11.5947 12.2583ZM10.1862 8.93749C10.1862 9.13154 10.3435 9.28884 10.5375 9.28884H11.1162C11.3103 9.28884 11.4676 9.13154 11.4676 8.93749V8.35315H12.4629C12.657 8.35315 12.8143 8.19584 12.8143 8.0018V7.85626C12.8143 7.66221 12.657 7.5049 12.4629 7.5049H11.4676V6.82281H12.036C12.6423 6.82281 13.1203 6.73245 13.4701 6.55172C13.8258 6.371 14.0794 6.13197 14.2309 5.83465C14.3825 5.53733 14.4583 5.2196 14.4583 4.88147C14.4583 4.31014 14.2717 3.86124 13.8986 3.53477C13.5314 3.2083 12.9455 3.04506 12.1409 3.04506H10.5375C10.3435 3.04506 10.1862 3.20237 10.1862 3.39641V5.73846H9.83793C9.64388 5.73846 9.48658 5.89576 9.48658 6.08981V6.47146C9.48658 6.6655 9.64388 6.82281 9.83793 6.82281H10.1862V7.5049H9.83793C9.64388 7.5049 9.48658 7.66221 9.48658 7.85626V8.0018C9.48658 8.19584 9.64388 8.35315 9.83793 8.35315H10.1862V8.93749Z" fill="url(#paint3_linear_1699_23461)"/>
</g>
<defs>
<linearGradient id="paint0_linear_1699_23461" x1="0.298767" y1="9.99997" x2="19.7012" y2="9.99997" gradientUnits="userSpaceOnUse">
<stop stop-color="#59CBFF"/>
<stop offset="1" stop-color="#009FE7"/>
</linearGradient>
<linearGradient id="paint1_linear_1699_23461" x1="0.298767" y1="9.99997" x2="19.7012" y2="9.99997" gradientUnits="userSpaceOnUse">
<stop stop-color="#59CBFF"/>
<stop offset="1" stop-color="#009FE7"/>
</linearGradient>
<linearGradient id="paint2_linear_1699_23461" x1="0.298767" y1="9.99997" x2="19.7012" y2="9.99997" gradientUnits="userSpaceOnUse">
<stop stop-color="#59CBFF"/>
<stop offset="1" stop-color="#009FE7"/>
</linearGradient>
<linearGradient id="paint3_linear_1699_23461" x1="0.298767" y1="9.99997" x2="19.7012" y2="9.99997" gradientUnits="userSpaceOnUse">
<stop stop-color="#59CBFF"/>
<stop offset="1" stop-color="#009FE7"/>
</linearGradient>
<clipPath id="clip0_1699_23461">
<rect width="20" height="20" fill="white"/>
</clipPath>
</defs>
</svg>
