<svg width="56" height="56" viewBox="0 0 56 56" fill="none" xmlns="http://www.w3.org/2000/svg">
<path d="M47.8917 8.43074C47.8917 6.6128 46.4664 5.1875 44.6484 5.1875C42.8305 5.1875 41.4052 6.6128 41.4052 8.43074C39.5872 8.43074 38.1619 9.85604 38.1619 11.674C38.1619 13.4919 39.5872 14.9172 41.4052 14.9172C41.4052 16.7352 42.8305 18.1605 44.6484 18.1605C46.4664 18.1605 47.8917 16.7352 47.8917 14.9172C49.7096 14.9172 51.1349 13.4919 51.1349 11.674C51.1349 9.85604 49.7096 8.43074 47.8917 8.43074ZM44.4322 19.9983C39.9601 19.9983 36.3241 16.3608 36.3241 11.8902C36.3241 10.9939 35.5988 10.2686 34.7025 10.2686H5.5133C2.83071 10.2686 0.648438 12.4509 0.648438 15.1334V44.3226C0.648438 47.0052 2.83071 49.1875 5.5133 49.1875H17.4854L20.2789 54.7777C20.5545 55.3272 21.115 55.674 21.7295 55.674C22.344 55.674 22.9045 55.3272 23.1801 54.7777L25.9736 49.1875H41.189C43.8716 49.1875 46.0538 47.0052 46.0538 44.3226V21.6199C46.0538 20.7236 45.3285 19.9983 44.4322 19.9983Z" fill="url(#paint0_linear_2236_10141)"/>
<path d="M44.6482 0.324219C38.389 0.324219 33.2969 5.41611 33.2969 11.6756C33.2969 17.935 38.389 23.0269 44.6482 23.0269C50.9074 23.0269 55.9996 17.935 55.9996 11.6756C55.9996 5.41611 50.9074 0.324219 44.6482 0.324219ZM47.8914 13.2972H46.2698V14.9188C46.2698 15.8268 45.5564 16.5404 44.6482 16.5404C43.74 16.5404 43.0266 15.8268 43.0266 14.9188V13.2972H41.405C40.4967 13.2972 39.7833 12.5836 39.7833 11.6756C39.7833 10.7674 40.4967 10.0539 41.405 10.0539H43.0266V8.43233C43.0266 7.52411 43.74 6.8107 44.6482 6.8107C45.5564 6.8107 46.2698 7.52411 46.2698 8.43233V10.0539H47.8914C48.7997 10.0539 49.5131 10.7674 49.5131 11.6756C49.5131 12.5836 48.7997 13.2972 47.8914 13.2972ZM29.8374 23.2431C29.8374 19.6657 26.9267 16.7566 23.3509 16.7566C19.7751 16.7566 16.8644 19.6657 16.8644 23.2431C16.8644 26.8205 19.7751 29.7296 23.3509 29.7296C26.9267 29.7296 29.8374 26.8205 29.8374 23.2431ZM34.7023 39.4594H33.0806V34.5945C33.0806 31.9119 30.8984 29.7296 28.2158 29.7296H23.3509H18.486C15.8034 29.7296 13.6212 31.9119 13.6212 34.5945V39.4594H11.9996C11.1032 39.4594 10.3779 40.1846 10.3779 41.081C10.3779 41.9773 11.1032 42.7026 11.9996 42.7026H34.7023C35.5986 42.7026 36.3239 41.9773 36.3239 41.081C36.3239 40.1846 35.5986 39.4594 34.7023 39.4594Z" fill="url(#paint1_linear_2236_10141)"/>
<defs>
<linearGradient id="paint0_linear_2236_10141" x1="0.648438" y1="30.4307" x2="51.1349" y2="30.4307" gradientUnits="userSpaceOnUse">
<stop stop-color="#59CBFF"/>
<stop offset="1" stop-color="#009FE7"/>
</linearGradient>
<linearGradient id="paint1_linear_2236_10141" x1="33.1887" y1="42.7026" x2="33.1887" y2="16.6236" gradientUnits="userSpaceOnUse">
<stop stop-color="#ADDCFF"/>
<stop offset="0.5028" stop-color="#EAF6FF"/>
<stop offset="1" stop-color="#EAF6FF"/>
</linearGradient>
</defs>
</svg>
