<svg width="20" height="20" viewBox="0 0 20 20" fill="none" xmlns="http://www.w3.org/2000/svg">
<g clip-path="url(#clip0_1699_23429)">
<path d="M15 3.75V0H10.625C9.58945 0 8.75 0.839453 8.75 1.875V13.125C8.75 14.1605 9.58945 15 10.625 15H18.125C19.1605 15 20 14.1605 20 13.125V5H16.2852C15.5625 5 15 4.4375 15 3.75ZM16.25 0V3.75H20L16.25 0ZM7.5 13.75V5H1.875C0.839453 5 0 5.83945 0 6.875V18.125C0 19.1605 0.839453 20 1.875 20H9.375C10.4105 20 11.25 19.1605 11.25 18.125V16.25H10C8.62109 16.25 7.5 15.1289 7.5 13.75Z" fill="url(#paint0_linear_1699_23429)"/>
</g>
<defs>
<linearGradient id="paint0_linear_1699_23429" x1="0" y1="10" x2="20" y2="10" gradientUnits="userSpaceOnUse">
<stop stop-color="#59CBFF"/>
<stop offset="1" stop-color="#009FE7"/>
</linearGradient>
<clipPath id="clip0_1699_23429">
<rect width="20" height="20" fill="white"/>
</clipPath>
</defs>
</svg>
