<svg width="20" height="20" viewBox="0 0 20 20" fill="none" xmlns="http://www.w3.org/2000/svg">
<path d="M15.8984 2H4.10156C1.8399 2 0 3.84351 0 6.10959V12.4568C0 14.265 1.18484 15.8399 2.90176 16.344L4.88266 18.3289C4.99268 18.439 5.1416 18.5009 5.29709 18.5009C5.45242 18.5009 5.6015 18.439 5.71136 18.3289L7.52853 16.508H15.8984C18.1601 16.508 20 14.6645 20 12.3984V6.10959C20 3.84351 18.1601 2 15.8984 2ZM5.69366 10.2916C5.69366 9.96737 5.95596 9.70456 6.2796 9.70456H13.7204C14.044 9.70456 14.3063 9.96737 14.3063 10.2916C14.3063 10.6159 14.044 10.8787 13.7204 10.8787H6.2796C5.95596 10.8787 5.69366 10.6159 5.69366 10.2916ZM13.7204 8.80345H6.2796C5.95596 8.80345 5.69366 8.54064 5.69366 8.21636C5.69366 7.89225 5.95596 7.62928 6.2796 7.62928H13.7204C14.044 7.62928 14.3063 7.89225 14.3063 8.21636C14.3063 8.54064 14.044 8.80345 13.7204 8.80345Z" fill="url(#paint0_linear_1699_23457)"/>
<defs>
<linearGradient id="paint0_linear_1699_23457" x1="0" y1="10.2504" x2="20" y2="10.2504" gradientUnits="userSpaceOnUse">
<stop stop-color="#59CBFF"/>
<stop offset="1" stop-color="#009FE7"/>
</linearGradient>
</defs>
</svg>
