<svg width="20" height="20" viewBox="0 0 20 20" fill="none" xmlns="http://www.w3.org/2000/svg">
<path d="M19.976 11.0004L18.4637 2.42383C18.3302 1.66665 17.6718 1.13391 16.9286 1.13391C16.8387 1.13391 3.68543 3.44489 3.68543 3.44489C2.8366 3.59458 2.2698 4.40403 2.41949 5.25286L2.56527 6.07969H14.4361C15.9421 6.07969 17.1673 7.30489 17.1673 8.81086V13.0803L18.7101 12.8083C19.5589 12.6586 20.1257 11.8492 19.976 11.0004Z" fill="url(#paint0_linear_1699_23443)"/>
<path d="M0.00191406 8.73481H15.9948C15.9552 7.90821 15.2725 7.25024 14.4361 7.25024H1.56066C0.724258 7.25024 0.0416016 7.90821 0.00191406 8.73481Z" fill="url(#paint1_linear_1699_23443)"/>
<path fill-rule="evenodd" clip-rule="evenodd" d="M16 10.0002H0V17.3058C0 18.1677 0.69875 18.8665 1.56066 18.8665H14.4361C15.298 18.8665 15.9968 18.1677 15.9968 17.3058V14.0002H16V10.0002ZM1.99129 17.4604H4.64637C4.96961 17.4604 5.2316 17.1983 5.2316 16.8751C5.2316 16.5519 4.96957 16.2899 4.64637 16.2899H1.99129C1.66809 16.2899 1.40605 16.5519 1.40605 16.8751C1.40605 17.1983 1.66809 17.4604 1.99129 17.4604Z" fill="url(#paint2_linear_1699_23443)"/>
<defs>
<linearGradient id="paint0_linear_1699_23443" x1="0" y1="10.0002" x2="20" y2="10.0002" gradientUnits="userSpaceOnUse">
<stop stop-color="#59CBFF"/>
<stop offset="1" stop-color="#009FE7"/>
</linearGradient>
<linearGradient id="paint1_linear_1699_23443" x1="0" y1="10.0002" x2="20" y2="10.0002" gradientUnits="userSpaceOnUse">
<stop stop-color="#59CBFF"/>
<stop offset="1" stop-color="#009FE7"/>
</linearGradient>
<linearGradient id="paint2_linear_1699_23443" x1="0" y1="10.0002" x2="20" y2="10.0002" gradientUnits="userSpaceOnUse">
<stop stop-color="#59CBFF"/>
<stop offset="1" stop-color="#009FE7"/>
</linearGradient>
</defs>
</svg>
