<svg xmlns="http://www.w3.org/2000/svg" width="20" height="20" viewBox="0 0 20 20" fill="none">
    <g clip-path="url(#clip0_3020_16732)">
        <path d="M0.272626 10.0257C0.0576336 10.1049 -0.0531829 10.3432 0.0251347 10.559L0.286805 11.279L2.2792 9.28655L0.272626 10.0257ZM2.15838 16.4255L3.35834 19.7254C3.37692 19.7769 3.40558 19.8242 3.44263 19.8645C3.47968 19.9049 3.52439 19.9375 3.57415 19.9604C3.62922 19.986 3.68921 19.9994 3.74996 19.9995C3.79914 19.9995 3.84746 19.9912 3.89414 19.9737L5.21827 19.4854L2.15838 16.4255ZM19.9744 13.6081L18.6012 9.83239L15.3055 13.1281L16.9387 12.5264C17.1529 12.4448 17.3945 12.5564 17.4737 12.7731C17.5537 12.9889 17.4429 13.2289 17.227 13.3081L15.1521 14.0731C15.106 14.0902 15.0571 14.0989 15.0079 14.0989C14.8388 14.0989 14.6788 13.9947 14.6171 13.8264C14.6163 13.8239 14.6171 13.8214 14.6163 13.8189L11.1239 17.3113L19.7269 14.1414C19.9428 14.0622 20.0536 13.8239 19.9744 13.6081ZM19.8778 6.78832L13.2113 0.121871C13.0488 -0.0406236 12.7846 -0.0406236 12.6222 0.121871L0.122592 12.6214C-0.0399021 12.7839 -0.0399021 13.0481 0.122592 13.2106L6.78904 19.877C6.8275 19.9159 6.87331 19.9468 6.92382 19.9678C6.97432 19.9889 7.0285 19.9996 7.08321 19.9995C7.18988 19.9995 7.29652 19.9587 7.3782 19.8779L19.8778 7.3783C19.9558 7.29996 19.9996 7.19389 19.9996 7.08331C19.9996 6.97273 19.9558 6.86665 19.8778 6.78832ZM4.87828 11.5448L3.21166 13.2114C3.13325 13.2893 3.0272 13.333 2.91667 13.333C2.80614 13.333 2.7001 13.2893 2.62168 13.2114C2.45919 13.0489 2.45919 12.7847 2.62168 12.6223L4.28831 10.9556C4.4508 10.7931 4.71497 10.7931 4.87746 10.9556C5.03996 11.1182 5.04078 11.3815 4.87828 11.5448ZM12.0739 12.0739C11.7789 12.3689 11.3781 12.5106 10.9322 12.5106C10.1956 12.5106 9.33477 12.1248 8.61479 11.404C8.08813 10.8773 7.71815 10.2473 7.57401 9.63072C7.41402 8.94324 7.54569 8.34494 7.94482 7.94496C8.34398 7.54497 8.94228 7.41329 9.63058 7.57415C10.2472 7.71832 10.8772 8.08745 11.4038 8.61493C12.5613 9.77153 12.8563 11.2915 12.0739 12.0739ZM17.3778 7.3783L15.7112 9.04492C15.6328 9.12281 15.5268 9.16653 15.4162 9.16653C15.3057 9.16653 15.1997 9.12281 15.1212 9.04492C14.9588 8.88242 14.9588 8.61825 15.1212 8.45576L16.7879 6.78914C16.9504 6.62664 17.2145 6.62664 17.377 6.78914C17.5395 6.95163 17.5403 7.21498 17.3778 7.3783Z" fill="white"/>
    </g>
    <defs>
        <clipPath id="clip0_3020_16732">
            <rect width="20" height="20" fill="white"/>
        </clipPath>
    </defs>
</svg>
