<svg width="20" height="20" viewBox="0 0 20 20" fill="none" xmlns="http://www.w3.org/2000/svg">
<g clip-path="url(#clip0_1699_23467)">
<path d="M0.272657 10.0259C0.0576641 10.1051 -0.0531523 10.3434 0.0251652 10.5592L0.286836 11.2792L2.27923 9.28679L0.272657 10.0259ZM2.15841 16.4257L3.35837 19.7256C3.37695 19.7771 3.40561 19.8244 3.44266 19.8648C3.47971 19.9051 3.52442 19.9377 3.57418 19.9606C3.62925 19.9862 3.68924 19.9996 3.75 19.9998C3.79917 19.9998 3.84749 19.9915 3.89417 19.974L5.2183 19.4857L2.15841 16.4257ZM19.9745 13.6083L18.6012 9.83263L15.3055 13.1283L16.9388 12.5267C17.1529 12.445 17.3946 12.5567 17.4737 12.7733C17.5537 12.9892 17.4429 13.2292 17.2271 13.3083L15.1521 14.0733C15.106 14.0904 15.0572 14.0991 15.008 14.0991C14.8388 14.0991 14.6788 13.9949 14.6172 13.8266C14.6163 13.8241 14.6172 13.8216 14.6163 13.8191L11.124 17.3115L19.727 14.1416C19.9428 14.0625 20.0536 13.8241 19.9745 13.6083ZM19.8778 6.78856L13.2113 0.122115C13.0488 -0.0403794 12.7847 -0.0403794 12.6222 0.122115L0.122623 12.6217C-0.0398715 12.7842 -0.0398715 13.0483 0.122623 13.2108L6.78907 19.8773C6.82753 19.9162 6.87334 19.9471 6.92385 19.9681C6.97435 19.9891 7.02853 19.9999 7.08324 19.9998C7.18991 19.9998 7.29655 19.959 7.37823 19.8781L19.8778 7.37854C19.9558 7.3002 19.9997 7.19413 19.9997 7.08355C19.9997 6.97297 19.9558 6.8669 19.8778 6.78856ZM4.87832 11.5451L3.21169 13.2117C3.13328 13.2895 3.02723 13.3333 2.9167 13.3333C2.80617 13.3333 2.70013 13.2895 2.62171 13.2117C2.45922 13.0492 2.45922 12.785 2.62171 12.6225L4.28834 10.9559C4.45083 10.7934 4.715 10.7934 4.87749 10.9559C5.03999 11.1184 5.04081 11.3817 4.87832 11.5451ZM12.0739 12.0742C11.7789 12.3692 11.3781 12.5109 10.9322 12.5109C10.1956 12.5109 9.3348 12.1251 8.61482 11.4042C8.08816 10.8776 7.71818 10.2476 7.57404 9.63096C7.41405 8.94348 7.54572 8.34519 7.94485 7.9452C8.34401 7.54521 8.94231 7.41354 9.63061 7.57439C10.2473 7.71857 10.8772 8.08769 11.4039 8.61518C12.5614 9.77178 12.8564 11.2917 12.0739 12.0742ZM17.3779 7.37854L15.7113 9.04516C15.6328 9.12305 15.5268 9.16677 15.4163 9.16677C15.3057 9.16677 15.1997 9.12305 15.1213 9.04516C14.9588 8.88267 14.9588 8.6185 15.1213 8.456L16.7879 6.78938C16.9504 6.62689 17.2146 6.62689 17.3771 6.78938C17.5396 6.95187 17.5404 7.21523 17.3779 7.37854Z" fill="url(#paint0_linear_1699_23467)"/>
</g>
<defs>
<linearGradient id="paint0_linear_1699_23467" x1="3.05176e-05" y1="10" x2="20" y2="10" gradientUnits="userSpaceOnUse">
<stop stop-color="#59CBFF"/>
<stop offset="1" stop-color="#009FE7"/>
</linearGradient>
<clipPath id="clip0_1699_23467">
<rect width="20" height="20" fill="white"/>
</clipPath>
</defs>
</svg>
