<svg width="12" height="12" viewBox="0 0 12 12" fill="none" xmlns="http://www.w3.org/2000/svg">
<circle cx="6" cy="6" r="6" fill="#FF3535"/>
<path d="M8.25102 3.74898C8.00238 3.50034 7.59925 3.50034 7.35061 3.74898L6 5.09959L4.64939 3.74898C4.40075 3.50034 3.99762 3.50034 3.74898 3.74898C3.50034 3.99762 3.50034 4.40075 3.74898 4.64939L5.09959 6L3.74898 7.35061C3.50034 7.59925 3.50034 8.00238 3.74898 8.25102C3.99762 8.49966 4.40075 8.49966 4.64939 8.25102L6 6.90041L7.35061 8.25102C7.59925 8.49966 8.00238 8.49966 8.25102 8.25102C8.49966 8.00238 8.49966 7.59925 8.25102 7.35061L6.90041 6L8.25102 4.64939C8.49966 4.40075 8.49966 3.99762 8.25102 3.74898Z" fill="white"/>
</svg>
