<svg width="20" height="20" viewBox="0 0 20 20" fill="none" xmlns="http://www.w3.org/2000/svg">
<path d="M10.5564 9.67178L12.8062 11.5127C13.0825 11.7384 13.1387 12.1659 12.9312 12.4666C12.8087 12.6466 12.6212 12.74 12.4306 12.74C12.3 12.74 12.1687 12.6957 12.0562 12.6036L9.55644 10.5582C9.39895 10.43 9.30645 10.2275 9.30645 10.0127V5.92183C9.30645 5.54478 9.58581 5.24 9.93142 5.24C10.277 5.24 10.5564 5.54478 10.5564 5.92183V9.67178Z" fill="#FFD600"/>
<path fill-rule="evenodd" clip-rule="evenodd" d="M10 20C15.5228 20 20 15.5228 20 10C20 4.47715 15.5228 0 10 0C4.47715 0 0 4.47715 0 10C0 15.5228 4.47715 20 10 20ZM10 18.75C14.8325 18.75 18.75 14.8325 18.75 10C18.75 5.16751 14.8325 1.25 10 1.25C5.16751 1.25 1.25 5.16751 1.25 10C1.25 14.8325 5.16751 18.75 10 18.75Z" fill="#FFD600"/>
</svg>
