<svg width="16" height="16" viewBox="0 0 16 16" fill="none" xmlns="http://www.w3.org/2000/svg">
<path fill-rule="evenodd" clip-rule="evenodd" d="M15.1998 0.137273C15.3829 -0.0457578 15.6797 -0.0457578 15.8627 0.137273C16.0458 0.320305 16.0458 0.617117 15.8627 0.800148L0.800211 15.8626C0.708711 15.9542 0.588742 16 0.468773 16C0.348805 16 0.228867 15.9542 0.137336 15.8627C-0.0457265 15.6796 -0.0457265 15.3828 0.137336 15.1998L3.65693 11.6801C3.22512 11.3926 2.79471 11.0652 2.36899 10.6991C0.979773 9.50462 0.123992 8.3234 0.0882422 8.27368C-0.0294141 8.11015 -0.0294141 7.88974 0.0882422 7.72624C0.123992 7.67652 0.979805 6.49534 2.36899 5.30077C3.19071 4.59427 4.02984 4.02996 4.86302 3.62355C5.92402 3.10609 6.97949 2.84371 8.00002 2.84371C9.02056 2.84371 10.076 3.10609 11.137 3.62359C11.2636 3.6853 11.3903 3.75102 11.5171 3.82002L15.1998 0.137273ZM8.00002 4.71871C6.19074 4.71871 4.71877 6.19068 4.71877 7.99996C4.71877 8.73593 4.96234 9.41605 5.37309 9.96402L6.04559 9.29152C5.79984 8.9209 5.65627 8.47696 5.65627 7.99996C5.65627 6.70762 6.70768 5.65621 8.00002 5.65621C8.47706 5.65621 8.92099 5.79977 9.29159 6.04552L9.96409 5.37302C9.41612 4.96227 8.73599 4.71871 8.00002 4.71871Z" fill="#828FA4"/>
<path d="M13.6311 5.30077C13.459 5.1528 13.2861 5.01146 13.1126 4.87609L11.0907 6.89799C11.2139 7.24259 11.2813 7.61355 11.2813 7.99996C11.2813 9.80924 9.80931 11.2812 8.00002 11.2812C7.61362 11.2812 7.24265 11.2139 6.89805 11.0906L5.38062 12.6081C6.26674 12.9716 7.14565 13.1562 8.00002 13.1562C9.02055 13.1562 10.076 12.8938 11.137 12.3764C11.9702 11.97 12.8093 11.4056 13.6311 10.6991C15.0203 9.50458 15.8761 8.3234 15.9118 8.27368C16.0295 8.11018 16.0295 7.88977 15.9118 7.72624C15.8761 7.67652 15.0203 6.49534 13.6311 5.30077Z" fill="#828FA4"/>
<path d="M8.00002 10.3437C9.29237 10.3437 10.3438 9.2923 10.3438 7.99996C10.3438 7.88752 10.3353 7.77702 10.3199 7.66877L7.66884 10.3199C7.77712 10.3353 7.88759 10.3437 8.00002 10.3437Z" fill="#828FA4"/>
</svg>
