<svg width="16" height="16" viewBox="0 0 16 16" fill="none" xmlns="http://www.w3.org/2000/svg">
<path d="M8.00003 10.3411C9.29299 10.3411 10.3411 9.29296 10.3411 8C10.3411 6.70704 9.29299 5.65889 8.00003 5.65889C6.70707 5.65889 5.65891 6.70704 5.65891 8C5.65891 9.29296 6.70707 10.3411 8.00003 10.3411Z" fill="#828FA4"/>
<path fill-rule="evenodd" clip-rule="evenodd" d="M4.48118 3.82006C4.60793 3.75106 4.73464 3.68534 4.86124 3.62362C5.92224 3.10613 6.97771 2.84375 7.99824 2.84375H8.00002C9.02055 2.84375 10.076 3.10613 11.137 3.62362C11.2636 3.68534 11.3903 3.75106 11.5171 3.82006C12.117 4.14751 12.728 4.56128 13.3216 5.04357C13.4244 5.12706 13.527 5.21279 13.6293 5.30076C15.0185 6.49529 15.8743 7.67651 15.91 7.72623C15.9394 7.76712 15.9615 7.81157 15.9762 7.8578C16.0078 7.95708 16.0055 8.06457 15.9692 8.16264C15.9548 8.20151 15.9351 8.2389 15.91 8.27372C15.8743 8.32344 15.0185 9.50466 13.6293 10.6992C13.5266 10.7875 13.4236 10.8736 13.3204 10.9574C12.7272 11.4392 12.1265 11.8467 11.527 12.1739L11.5171 12.1799C11.3903 12.2489 11.2636 12.3146 11.137 12.3763C10.076 12.8938 9.02055 13.1562 8.00002 13.1562H7.99824C6.97771 13.1562 5.92224 12.8938 4.86124 12.3763C4.73464 12.3146 4.60793 12.2489 4.48118 12.1799C3.88159 11.8526 3.27095 11.4391 2.67768 10.9572C2.57454 10.8734 2.47163 10.7874 2.36899 10.6992C0.979773 9.50466 0.123992 8.32344 0.0882422 8.27372C0.0294396 8.19199 2.5553e-05 8.09605 2.59657e-08 8.00011C-3.19029e-05 7.90408 0.0293824 7.80804 0.0882431 7.72623C0.123992 7.67651 0.979773 6.49529 2.36899 5.30076C2.47146 5.21265 2.57421 5.12678 2.67718 5.04316C3.27062 4.56105 3.87155 4.1534 4.4713 3.82605L4.48118 3.82006ZM11.2747 8C11.2747 9.81649 9.80216 11.289 7.98566 11.289C6.16917 11.289 4.69662 9.81649 4.69662 8C4.69662 6.18351 6.16917 4.71095 7.98566 4.71095C9.80216 4.71095 11.2747 6.18351 11.2747 8Z" fill="#828FA4"/>
</svg>
