<svg width="20" height="20" viewBox="0 0 20 20" fill="none" xmlns="http://www.w3.org/2000/svg">
<g clip-path="url(#clip0_1699_23357)">
<path d="M15.6484 9.21875H14.9453C14.751 9.21875 14.5938 9.37599 14.5938 9.57031C14.5938 9.76463 14.751 9.92188 14.9453 9.92188H15.6484C15.8428 9.92188 16 9.76463 16 9.57031C16 9.37599 15.8428 9.21875 15.6484 9.21875Z" fill="url(#paint0_linear_1699_23357)"/>
<path d="M15.897 7.21237C15.7597 7.07504 15.5372 7.07504 15.3999 7.21237L14.6967 7.91549C14.5594 8.05281 14.5594 8.2753 14.6967 8.41262C14.8341 8.54997 15.0566 8.54997 15.1939 8.41262L15.897 7.7095C16.0343 7.57218 16.0343 7.34969 15.897 7.21237Z" fill="url(#paint1_linear_1699_23357)"/>
<path d="M15.897 11.4311L15.1939 10.728C15.0566 10.5907 14.8341 10.5907 14.6967 10.728C14.5594 10.8653 14.5594 11.0878 14.6967 11.2251L15.3999 11.9282C15.5372 12.0656 15.7596 12.0656 15.897 11.9282C16.0343 11.7909 16.0343 11.5684 15.897 11.4311Z" fill="url(#paint2_linear_1699_23357)"/>
<path d="M12.8125 5H12.1094C12.1085 5 12.1078 5.00047 12.107 5.00047C12.1027 5.00052 12.0989 5.00284 12.0946 5.003C11.9541 5.00916 12.1954 4.88991 8.49637 7.10938H6.48438C5.12755 7.10938 4 8.21349 4 9.57031C4 10.8068 4.94336 11.8233 6.13281 11.9957V14.4922C6.13281 15.0738 6.60592 15.5469 7.1875 15.5469C7.76908 15.5469 8.24219 15.0738 8.24219 14.4922V12.0312H8.49637C12.1418 14.2185 11.9718 14.1406 12.1094 14.1406H12.8125C13.3941 14.1406 13.8672 13.6675 13.8672 13.0859V6.05469C13.8672 5.47311 13.3941 5 12.8125 5ZM8.24219 11.3281C7.98775 11.3281 7.7935 11.3281 7.53906 11.3281V7.8125H8.24219V11.3281ZM13.1641 13.0859C13.1641 13.2799 13.0065 13.4375 12.8125 13.4375H12.4609V5.70312H12.8125C13.0065 5.70312 13.1641 5.86072 13.1641 6.05469V13.0859Z" fill="url(#paint3_linear_1699_23357)"/>
<path d="M5.42137 17.3711L7.16376 16.6345C7.45889 16.5095 7.7902 16.6436 7.90367 16.934C8.01711 17.2244 7.8698 17.5613 7.57467 17.6863L7.14229 17.8692C10.1536 18.9945 13.6322 18.2095 15.9987 15.843C18.7091 13.1326 19.3131 9.01126 17.4708 5.81097C17.3157 5.5415 17.4136 5.18864 17.6895 5.02274C17.9654 4.85695 18.3145 4.94088 18.4697 5.21035C20.5677 8.85502 19.8788 13.5563 16.7954 16.6397C14.0878 19.3473 10.0936 20.2357 6.64914 18.9221L6.82962 19.3853C6.94308 19.6757 6.79574 20.0124 6.50056 20.1376C6.2054 20.2626 5.87417 20.1283 5.7607 19.838L5.09236 18.1235C4.97889 17.833 5.12624 17.4961 5.42137 17.3711ZM14.2392 0.162117L14.9076 1.87664C15.021 2.16714 14.8738 2.50397 14.5786 2.62888L12.8361 3.36572C12.5409 3.49064 12.2098 3.3565 12.0963 3.06612C11.9829 2.77571 12.1302 2.4388 12.4253 2.31378L12.8578 2.13102C9.84639 1.00561 6.36777 1.79063 4.00128 4.15711C1.29093 6.86746 0.686765 10.9889 2.52921 14.1891C2.68419 14.4587 2.58624 14.8116 2.31053 14.9774C2.03471 15.1433 1.68535 15.0591 1.53034 14.7897C-0.567818 11.1452 0.121219 6.4438 3.20459 3.36043C5.91212 0.652897 9.90635 -0.235616 13.3508 1.07793L13.1703 0.614917C13.0568 0.324507 13.2043 -0.0123534 13.4994 -0.137374C13.7946 -0.262479 14.1258 -0.128267 14.2392 0.162117Z" fill="url(#paint4_linear_1699_23357)"/>
</g>
<defs>
<linearGradient id="paint0_linear_1699_23357" x1="14.5938" y1="9.57031" x2="16" y2="9.57031" gradientUnits="userSpaceOnUse">
<stop stop-color="#59CBFF"/>
<stop offset="1" stop-color="#009FE7"/>
</linearGradient>
<linearGradient id="paint1_linear_1699_23357" x1="14.5938" y1="7.8125" x2="16" y2="7.8125" gradientUnits="userSpaceOnUse">
<stop stop-color="#59CBFF"/>
<stop offset="1" stop-color="#009FE7"/>
</linearGradient>
<linearGradient id="paint2_linear_1699_23357" x1="14.5938" y1="11.3281" x2="16" y2="11.3281" gradientUnits="userSpaceOnUse">
<stop stop-color="#59CBFF"/>
<stop offset="1" stop-color="#009FE7"/>
</linearGradient>
<linearGradient id="paint3_linear_1699_23357" x1="4" y1="10.2734" x2="13.8672" y2="10.2734" gradientUnits="userSpaceOnUse">
<stop stop-color="#59CBFF"/>
<stop offset="1" stop-color="#009FE7"/>
</linearGradient>
<linearGradient id="paint4_linear_1699_23357" x1="0.323914" y1="10.0001" x2="19.676" y2="10.0001" gradientUnits="userSpaceOnUse">
<stop stop-color="#59CBFF"/>
<stop offset="1" stop-color="#009FE7"/>
</linearGradient>
<clipPath id="clip0_1699_23357">
<rect width="20" height="20" fill="white"/>
</clipPath>
</defs>
</svg>
