<svg width="20" height="20" viewBox="0 0 20 20" fill="none" xmlns="http://www.w3.org/2000/svg">
<g clip-path="url(#clip0_1699_23319)">
<path d="M10.0255 4.5C10.0225 4.5 10.0165 4.5 10.0075 4.5C6.97012 4.5 4.5 6.92557 4.5 9.90816C4.5 11.1254 4.92319 12.3072 5.69754 13.2592L4.89618 15.0894C4.83015 15.2397 4.90218 15.4136 5.05225 15.4755C5.10628 15.499 5.1663 15.5049 5.22333 15.4961L8.16166 14.9892C8.74993 15.1984 9.36821 15.3045 9.99249 15.3016C13.0299 15.3016 15.5 12.876 15.5 9.89342C15.506 6.91967 13.0539 4.50295 10.0255 4.5ZM8.14065 8.82063H9.76139C9.92646 8.82063 10.0615 8.95326 10.0615 9.11536C10.0615 9.27745 9.92646 9.41008 9.76139 9.41008H8.14065C7.97558 9.41008 7.84052 9.27745 7.84052 9.11536C7.84052 8.95326 7.97558 8.82063 8.14065 8.82063ZM11.8623 10.8837H8.14065C7.97558 10.8837 7.84052 10.7511 7.84052 10.589C7.84052 10.4269 7.97558 10.2942 8.14065 10.2942H11.8623C12.0274 10.2942 12.1625 10.4269 12.1625 10.589C12.1625 10.7511 12.0274 10.8837 11.8623 10.8837Z" fill="url(#paint0_linear_1699_23319)"/>
<path d="M5.42137 17.3711L7.16376 16.6345C7.45889 16.5095 7.79021 16.6436 7.90368 16.934C8.01712 17.2244 7.8698 17.5613 7.57468 17.6863L7.1423 17.8691C10.1536 18.9945 13.6322 18.2095 15.9987 15.843C18.7091 13.1326 19.3131 9.01126 17.4708 5.81097C17.3157 5.5415 17.4136 5.18865 17.6895 5.02274C17.9654 4.85695 18.3146 4.94088 18.4697 5.21035C20.5677 8.85502 19.8788 13.5563 16.7954 16.6397C14.0878 19.3473 10.0937 20.2357 6.64915 18.9221L6.82962 19.3853C6.94309 19.6757 6.79575 20.0124 6.50057 20.1375C6.20541 20.2626 5.87418 20.1283 5.76071 19.838L5.09237 18.1234C4.9789 17.833 5.12625 17.4961 5.42137 17.3711ZM14.2392 0.162117L14.9076 1.87664C15.021 2.16714 14.8738 2.50397 14.5786 2.62888L12.8361 3.36572C12.5409 3.49064 12.2098 3.3565 12.0963 3.06612C11.9829 2.77571 12.1302 2.4388 12.4253 2.31378L12.8578 2.13102C9.84639 1.00561 6.36777 1.79062 4.00129 4.15711C1.29094 6.86746 0.686773 10.9889 2.52922 14.1891C2.6842 14.4587 2.58625 14.8116 2.31054 14.9773C2.03472 15.1432 1.68536 15.0591 1.53034 14.7897C-0.56781 11.1452 0.121226 6.44379 3.2046 3.36042C5.91213 0.652894 9.90635 -0.235617 13.3508 1.07793L13.1703 0.614917C13.0568 0.324506 13.2043 -0.0123536 13.4994 -0.137374C13.7946 -0.262479 14.1258 -0.128267 14.2392 0.162117Z" fill="url(#paint1_linear_1699_23319)"/>
</g>
<defs>
<linearGradient id="paint0_linear_1699_23319" x1="4.5" y1="10" x2="15.5" y2="10" gradientUnits="userSpaceOnUse">
<stop stop-color="#59CBFF"/>
<stop offset="1" stop-color="#009FE7"/>
</linearGradient>
<linearGradient id="paint1_linear_1699_23319" x1="0.323921" y1="10.0001" x2="19.676" y2="10.0001" gradientUnits="userSpaceOnUse">
<stop stop-color="#59CBFF"/>
<stop offset="1" stop-color="#009FE7"/>
</linearGradient>
<clipPath id="clip0_1699_23319">
<rect width="20" height="20" fill="white"/>
</clipPath>
</defs>
</svg>
