<svg width="20" height="20" viewBox="0 0 20 20" fill="none" xmlns="http://www.w3.org/2000/svg">
<path fill-rule="evenodd" clip-rule="evenodd" d="M9.45819 2.52327C9.51131 2.26293 9.65676 2.03214 9.86631 1.87574C10.0759 1.71933 10.3345 1.64847 10.5921 1.6769C10.8497 1.70534 11.0878 1.83105 11.2602 2.02962C11.4325 2.2282 11.5269 2.48545 11.5249 2.75144L11.1138 7.81683C11.0804 8.20472 11.3138 8.56979 11.6804 8.69528H11.7027C11.8801 8.76281 12.0512 8.84682 12.2138 8.94627C12.5471 9.1174 12.9916 9.40261 13.4138 9.80191C13.5759 9.95622 13.791 10.0381 14.0119 10.0295C14.2328 10.021 14.4413 9.92269 14.5916 9.75628C14.7419 9.58986 14.8216 9.36896 14.8133 9.14218C14.805 8.91539 14.7092 8.70129 14.5472 8.54697C14.0332 8.06028 13.4531 7.65292 12.8249 7.33767L13.1916 2.89975C13.2202 2.19452 12.9869 1.50445 12.5388 0.96917C12.0907 0.433891 11.4613 0.0933821 10.7779 0.0165487C10.0945 -0.0602846 9.40826 0.132295 8.85795 0.555318C8.30763 0.978341 7.93438 1.60022 7.81372 2.2951L7.70261 3.03666L7.68039 2.9682C7.46467 2.32314 7.02756 1.78079 6.45075 1.44254C5.87394 1.10429 5.19689 0.993286 4.54617 1.13027C3.89544 1.26725 3.31556 1.64285 2.91492 2.18686C2.51427 2.73087 2.32028 3.40606 2.36919 4.08624L2.74698 9.20867C2.05389 9.83455 1.53757 10.6404 1.25215 11.5416C0.966724 12.4429 0.922714 13.4064 1.12473 14.3311C1.73585 17.4114 4.65812 20.1266 9.15819 19.8642H9.21374C9.43476 19.8506 9.64146 19.7474 9.78836 19.5773C9.93527 19.4072 10.0103 19.1842 9.99709 18.9573C9.98383 18.7303 9.88331 18.5181 9.71765 18.3673C9.55199 18.2164 9.33476 18.1393 9.11374 18.153H9.06929C5.32479 18.3811 3.18032 16.1793 2.7692 13.9888C2.61208 13.3103 2.65259 12.5993 2.88569 11.9442C3.11878 11.289 3.5342 10.7187 4.08033 10.3039C4.46627 10.0391 4.90258 9.86149 5.36039 9.78282C5.81819 9.70415 6.28705 9.72622 6.73593 9.84755C7.36927 10.0871 7.65816 10.6461 7.64705 11.2052C7.6509 11.4769 7.56011 11.7412 7.39103 11.9504C7.22195 12.1595 6.9857 12.2998 6.72482 12.346C6.36925 12.4259 6.18036 12.4487 6.11369 12.4487C5.89268 12.4487 5.68071 12.5388 5.52443 12.6993C5.36815 12.8598 5.28035 13.0774 5.28035 13.3043C5.28035 13.5313 5.36815 13.7489 5.52443 13.9094C5.68071 14.0698 5.89268 14.16 6.11369 14.16C6.38037 14.16 6.73593 14.0915 7.06926 14.0231C7.69893 13.8966 8.26654 13.5502 8.67568 13.0428C9.08483 12.5354 9.31028 11.8981 9.31374 11.2394C9.33173 10.5475 9.12226 9.86958 8.7191 9.31489C8.31594 8.76021 7.74259 8.36109 7.09149 8.1819C6.75815 8.09063 5.64702 7.83965 4.347 8.28458L4.02477 3.94934C4.00128 3.68093 4.07499 3.41304 4.23181 3.19693C4.38863 2.98083 4.61754 2.83167 4.87476 2.77801C5.13197 2.72434 5.39943 2.76993 5.62596 2.90605C5.85249 3.04217 6.02219 3.25927 6.10258 3.51581L6.9026 5.92301V5.94583C6.98375 6.16384 7.07649 6.37712 7.18038 6.58471C7.22482 6.66457 7.34705 6.82429 7.55816 6.92696C7.8915 7.09809 8.28039 7.05246 8.5804 6.83569C8.76929 6.68738 8.85818 6.49344 8.89151 6.41358C8.94803 6.18806 8.99254 5.95956 9.02485 5.72907L9.03596 5.70625L9.45819 2.52327ZM15.6249 19.2938L17.1583 18.3811L17.2028 18.3469C17.4472 18.21 17.725 18.0503 17.9361 17.8906C18.1583 17.7194 18.5583 17.4114 18.7917 16.8638C19.0694 16.2363 19.0694 15.5062 18.7917 14.8673C18.6033 14.4512 18.3073 14.096 17.9361 13.8405L17.2028 13.3842L17.1583 13.3614L15.6249 12.4487L15.5805 12.4259C15.3361 12.2776 15.0583 12.1178 14.8249 12.0038C14.4256 11.8011 13.9799 11.7143 13.536 11.7528C12.8582 11.8212 12.2471 12.1863 11.8471 12.7453C11.5138 13.2245 11.436 13.7379 11.4138 14.0231C11.3916 14.2969 11.3916 14.6163 11.3916 14.9129V16.8296C11.3916 17.1262 11.3916 17.4456 11.4138 17.7194C11.436 17.9932 11.5138 18.518 11.8582 18.9858C12.2471 19.5562 12.8582 19.9099 13.5249 19.9897C14.1027 20.0468 14.5694 19.8528 14.8249 19.7387C15.0583 19.6247 15.3361 19.4535 15.5805 19.3166L15.6249 19.2938ZM16.325 14.8445C16.8916 15.1867 17.1805 15.3465 17.2694 15.5632C17.3583 15.7572 17.3583 15.9739 17.2694 16.1679C17.1805 16.396 16.8916 16.5558 16.325 16.898L14.7916 17.8107C14.2249 18.153 13.936 18.3127 13.7027 18.2899C13.6011 18.2785 13.5031 18.2452 13.4149 18.1922C13.3268 18.1391 13.2507 18.0674 13.1916 17.9818C13.0582 17.7879 13.0582 17.4684 13.0582 16.7839V14.9586C13.0582 14.2855 13.0582 13.9432 13.1916 13.7493C13.3138 13.5781 13.5027 13.4755 13.7027 13.4526C13.936 13.4298 14.2249 13.601 14.7916 13.9318L16.325 14.8445Z" fill="url(#paint0_linear_1699_23308)"/>
<defs>
<linearGradient id="paint0_linear_1699_23308" x1="1" y1="10" x2="19" y2="10" gradientUnits="userSpaceOnUse">
<stop stop-color="#59CBFF"/>
<stop offset="1" stop-color="#009FE7"/>
</linearGradient>
</defs>
</svg>
