<svg xmlns="http://www.w3.org/2000/svg" width="20" height="20" viewBox="0 0 20 20" fill="none">
    <g clip-path="url(#clip0_4725_6725)">
        <path fill-rule="evenodd" clip-rule="evenodd" d="M9.46639 16.6369L4.96556 19.3941C4.49755 19.6808 3.88574 19.5338 3.59905 19.0658C3.45902 18.8372 3.41728 18.5618 3.48327 18.302L4.18 15.5597C4.4315 14.5697 5.10893 13.7422 6.02969 13.3001L10.9399 10.9427C11.1688 10.8328 11.2653 10.5581 11.1554 10.3292C11.0664 10.1438 10.8651 10.04 10.6624 10.0751L5.19677 11.0214C4.08573 11.2137 2.94637 10.9069 2.08213 10.1827L0.355486 8.73569C-0.0651708 8.38317 -0.120405 7.75638 0.232118 7.33573C0.403572 7.13113 0.650126 7.00411 0.916249 6.98329L6.19168 6.57044C6.56437 6.54127 6.88917 6.30541 7.03225 5.96004L9.06742 1.04728C9.27746 0.540229 9.85879 0.299463 10.3658 0.509514C10.6093 0.610372 10.8027 0.803813 10.9036 1.04728L12.9388 5.96004C13.0818 6.30541 13.4066 6.54127 13.7793 6.57044L19.0838 6.98556C19.631 7.02838 20.0397 7.50666 19.9969 8.05383C19.9764 8.31704 19.8518 8.56125 19.6509 8.73253L15.6055 12.1814C15.3206 12.4242 15.1965 12.8064 15.284 13.1702L16.5277 18.3368C16.6562 18.8704 16.3277 19.4071 15.7942 19.5355C15.5377 19.5973 15.2673 19.5545 15.0424 19.4167L10.5046 16.6369C10.1861 16.4417 9.78495 16.4417 9.46639 16.6369Z" fill="url(#paint0_linear_4725_6725)"/>
    </g>
    <defs>
        <linearGradient id="paint0_linear_4725_6725" x1="0" y1="9.99837" x2="20" y2="9.99837" gradientUnits="userSpaceOnUse">
            <stop stop-color="#59CBFF"/>
            <stop offset="1" stop-color="#009FE7"/>
        </linearGradient>
        <clipPath id="clip0_4725_6725">
            <rect width="20" height="20" fill="white"/>
        </clipPath>
    </defs>
</svg>
