<svg width="20" height="20" viewBox="0 0 20 20" fill="none" xmlns="http://www.w3.org/2000/svg">
<path d="M17.5005 3.12402H5.00493C4.31482 3.12402 3.75537 3.68348 3.75537 4.37358C3.75537 5.06369 4.31482 5.62315 5.00493 5.62315H17.5005C18.1906 5.62315 18.7501 5.06369 18.7501 4.37358C18.7501 3.68348 18.1906 3.12402 17.5005 3.12402Z" fill="url(#paint0_linear_1699_23371)"/>
<path d="M2.50612 4.37345C2.50471 4.04259 2.37214 3.72579 2.1375 3.49251C1.65013 3.00803 0.862988 3.00803 0.37562 3.49251C0.140937 3.72579 0.0083662 4.04259 0.00699949 4.37345C-0.00233316 4.4544 -0.00233316 4.53617 0.00699949 4.61711C0.0211351 4.69853 0.0441739 4.77815 0.0757253 4.85453C0.109268 4.92853 0.148981 4.9996 0.194434 5.06696C0.239301 5.13701 0.291665 5.20195 0.350629 5.26064C0.407484 5.31726 0.470313 5.36755 0.538063 5.41058C0.60386 5.4585 0.675202 5.49837 0.750488 5.52929C0.83331 5.57225 0.9216 5.6038 1.0129 5.62301C1.09384 5.63207 1.17561 5.63207 1.25656 5.62301C1.58652 5.62328 1.90321 5.49302 2.1375 5.26064C2.19646 5.20195 2.24883 5.13701 2.2937 5.06696C2.33915 4.9996 2.37886 4.92853 2.4124 4.85453C2.45227 4.77909 2.48371 4.69947 2.50612 4.61711C2.51545 4.53617 2.51545 4.4544 2.50612 4.37345Z" fill="url(#paint1_linear_1699_23371)"/>
<path d="M2.50596 9.9965C2.51525 9.91555 2.51525 9.83378 2.50596 9.75283C2.48436 9.6722 2.45289 9.59457 2.41224 9.52166C2.38006 9.44501 2.34027 9.37175 2.29353 9.30299C2.25023 9.23372 2.19767 9.17065 2.13734 9.11556C1.64997 8.63108 0.862824 8.63108 0.375456 9.11556C0.140773 9.34883 0.00820264 9.66564 0.00683594 9.9965C0.00925696 10.1612 0.0410036 10.324 0.100553 10.4776C0.13187 10.5515 0.169513 10.6226 0.213013 10.69C0.260536 10.7579 0.31497 10.8207 0.375456 10.8774C0.430671 10.9376 0.493696 10.9902 0.56289 11.0336C0.628688 11.0816 0.699991 11.1215 0.775316 11.1523C0.8515 11.1844 0.931198 11.2075 1.01273 11.2211C1.09267 11.239 1.17447 11.2474 1.2564 11.2461C1.33734 11.2554 1.41911 11.2554 1.50006 11.2461C1.57956 11.2324 1.65719 11.2094 1.73123 11.1773C1.80859 11.1466 1.882 11.1068 1.9499 11.0586C2.0191 11.0152 2.08212 10.9626 2.13734 10.9024C2.19755 10.8472 2.25011 10.7842 2.29353 10.715C2.34156 10.6492 2.38143 10.5779 2.41224 10.5026C2.45492 10.4196 2.48643 10.3314 2.50596 10.2402C2.51556 10.1592 2.51556 10.0774 2.50596 9.9965Z" fill="url(#paint2_linear_1699_23371)"/>
<path d="M2.50603 15.6195C2.51529 15.5386 2.51529 15.4568 2.50603 15.3759C2.48444 15.2933 2.45297 15.2136 2.41232 15.1385C2.37877 15.0645 2.33906 14.9934 2.29361 14.926C2.25019 14.8568 2.19763 14.7938 2.13741 14.7386C1.65005 14.2541 0.862901 14.2541 0.375533 14.7386C0.31532 14.7938 0.26276 14.8568 0.219338 14.926C0.173885 14.9934 0.134172 15.0645 0.10063 15.1385C0.0682191 15.2145 0.0451413 15.2943 0.0319037 15.3759C0.0142928 15.4559 0.00593632 15.5376 0.00691253 15.6195C0.00831829 15.9504 0.140889 16.2672 0.375533 16.5005C0.430748 16.5607 0.493773 16.6133 0.562967 16.6567C0.628764 16.7046 0.700067 16.7445 0.775392 16.7754C0.851577 16.8074 0.931275 16.8305 1.01281 16.8441C1.09274 16.862 1.17455 16.8704 1.25647 16.8691C1.33742 16.8784 1.41919 16.8784 1.50014 16.8691C1.57964 16.8555 1.65727 16.8324 1.73131 16.8004C1.80866 16.7697 1.88207 16.7298 1.94998 16.6817C2.01917 16.6382 2.0822 16.5857 2.13741 16.5255C2.19763 16.4703 2.25019 16.4072 2.29361 16.338C2.34168 16.2723 2.38155 16.201 2.41232 16.1256C2.45496 16.0426 2.48647 15.9544 2.50603 15.8632C2.51564 15.7823 2.51564 15.7005 2.50603 15.6195Z" fill="url(#paint3_linear_1699_23371)"/>
<path d="M18.7501 8.74683H5.00493C4.31482 8.74683 3.75537 9.30628 3.75537 9.99639C3.75537 10.6865 4.31482 11.2459 5.00493 11.2459H18.7501C19.4402 11.2459 19.9997 10.6865 19.9997 9.99639C19.9997 9.30628 19.4402 8.74683 18.7501 8.74683Z" fill="url(#paint4_linear_1699_23371)"/>
<path d="M13.1271 14.3699H5.00493C4.31482 14.3699 3.75537 14.9293 3.75537 15.6194C3.75537 16.3095 4.31482 16.869 5.00493 16.869H13.1271C13.8172 16.869 14.3766 16.3095 14.3766 15.6194C14.3766 14.9293 13.8172 14.3699 13.1271 14.3699Z" fill="url(#paint5_linear_1699_23371)"/>
<defs>
<linearGradient id="paint0_linear_1699_23371" x1="3.75537" y1="4.37358" x2="18.7501" y2="4.37358" gradientUnits="userSpaceOnUse">
<stop stop-color="#59CBFF"/>
<stop offset="1" stop-color="#009FE7"/>
</linearGradient>
<linearGradient id="paint1_linear_1699_23371" x1="0" y1="4.37948" x2="2.51312" y2="4.37948" gradientUnits="userSpaceOnUse">
<stop stop-color="#59CBFF"/>
<stop offset="1" stop-color="#009FE7"/>
</linearGradient>
<linearGradient id="paint2_linear_1699_23371" x1="0.00683594" y1="10.0026" x2="2.51316" y2="10.0026" gradientUnits="userSpaceOnUse">
<stop stop-color="#59CBFF"/>
<stop offset="1" stop-color="#009FE7"/>
</linearGradient>
<linearGradient id="paint3_linear_1699_23371" x1="0.00683594" y1="15.6257" x2="2.51324" y2="15.6257" gradientUnits="userSpaceOnUse">
<stop stop-color="#59CBFF"/>
<stop offset="1" stop-color="#009FE7"/>
</linearGradient>
<linearGradient id="paint4_linear_1699_23371" x1="3.75537" y1="9.99639" x2="19.9997" y2="9.99639" gradientUnits="userSpaceOnUse">
<stop stop-color="#59CBFF"/>
<stop offset="1" stop-color="#009FE7"/>
</linearGradient>
<linearGradient id="paint5_linear_1699_23371" x1="3.75537" y1="15.6194" x2="14.3766" y2="15.6194" gradientUnits="userSpaceOnUse">
<stop stop-color="#59CBFF"/>
<stop offset="1" stop-color="#009FE7"/>
</linearGradient>
</defs>
</svg>
