<svg xmlns="http://www.w3.org/2000/svg" width="20" height="20" viewBox="0 0 20 20" fill="none">
    <g clip-path="url(#clip0_4715_15516)">
        <path fill-rule="evenodd" clip-rule="evenodd" d="M9.64725 20.0005C7.57892 19.683 5.81602 17.9123 6.67001 14.1544C7.53463 15.4084 7.84928 14.7459 7.84928 14.7459C7.90142 10.4874 11.125 9.42213 11.125 9.42213C10.1608 11.5993 12.069 11.6598 12.1996 14.1304C12.9857 13.7286 13.2736 13.2787 13.2736 13.2787C15.8771 16.7792 13.9472 19.2835 11.4844 19.9262C15.4287 19.4201 18.8198 16.0802 17.1953 8.93169C15.563 11.2985 14.9696 10.0482 14.9696 10.0482C14.87 2.00973 8.78633 0 8.78633 0C10.6069 4.10944 7.00405 4.22293 6.75814 8.88694C5.27437 8.12799 4.73041 7.27952 4.73041 7.27952C-0.717007 14.6038 4.3507 19.6194 9.64725 20.0005Z" fill="url(#paint0_linear_4715_15516)"/>
    </g>
    <defs>
        <linearGradient id="paint0_linear_4715_15516" x1="2.38867" y1="10.0002" x2="17.6113" y2="10.0002" gradientUnits="userSpaceOnUse">
            <stop stop-color="#59CBFF"/>
            <stop offset="1" stop-color="#009FE7"/>
        </linearGradient>
        <clipPath id="clip0_4715_15516">
            <rect width="20" height="20" fill="white"/>
        </clipPath>
    </defs>
</svg>
