<svg width="20" height="20" viewBox="0 0 20 20" fill="none" xmlns="http://www.w3.org/2000/svg">
<g clip-path="url(#clip0_1699_23391)">
<path d="M7.7529 6H14.6256C15.0052 6 15.3129 6.3077 15.3129 6.68727C15.3129 7.06684 15.0052 7.37454 14.6256 7.37454H7.7529C7.37334 7.37454 7.06563 7.06684 7.06563 6.68727C7.06563 6.3077 7.37334 6 7.7529 6Z" fill="url(#paint0_linear_1699_23391)"/>
<path d="M6.17565 6.20268C6.3047 6.33098 6.37762 6.50523 6.37839 6.6872C6.38352 6.73172 6.38352 6.7767 6.37839 6.82122C6.36606 6.86651 6.34877 6.91031 6.32684 6.9518C6.3084 6.9925 6.28655 7.03159 6.26155 7.06864C6.23688 7.10717 6.20808 7.14288 6.17565 7.17516C6.04678 7.30297 5.8726 7.37462 5.69112 7.37447C5.6466 7.37945 5.60162 7.37945 5.5571 7.37447C5.50689 7.3639 5.45833 7.34655 5.41278 7.32293C5.37137 7.30592 5.33213 7.28399 5.29594 7.25764C5.25868 7.23397 5.22412 7.20631 5.19285 7.17516C5.16042 7.14288 5.13162 7.10717 5.10694 7.06864C5.08194 7.03159 5.0601 6.9925 5.04165 6.9518C5.0243 6.90979 5.01162 6.866 5.00385 6.82122C4.99872 6.7767 4.99872 6.73172 5.00385 6.6872C5.0046 6.50523 5.07752 6.33098 5.20659 6.20268C5.47465 5.93621 5.90759 5.93621 6.17565 6.20268Z" fill="url(#paint1_linear_1699_23391)"/>
<path d="M6.37812 9.77993C6.38323 9.73541 6.38323 9.69043 6.37812 9.64591C6.36624 9.60156 6.34893 9.55887 6.32658 9.51877C6.30888 9.47661 6.28699 9.43632 6.26128 9.3985C6.23747 9.36039 6.20856 9.32571 6.17538 9.2954C5.90732 9.02894 5.47438 9.02894 5.20633 9.2954C5.07725 9.42371 5.00433 9.59795 5.00358 9.77993C5.00491 9.8705 5.02237 9.96008 5.05513 10.0445C5.07235 10.0852 5.09305 10.1243 5.11698 10.1614C5.14312 10.1987 5.17306 10.2333 5.20633 10.2645C5.23669 10.2976 5.27136 10.3265 5.30942 10.3504C5.3456 10.3767 5.38482 10.3987 5.42625 10.4157C5.46815 10.4333 5.51199 10.446 5.55683 10.4535C5.6008 10.4633 5.64579 10.4679 5.69085 10.4672C5.73537 10.4723 5.78035 10.4723 5.82487 10.4672C5.8686 10.4597 5.91129 10.447 5.95201 10.4294C5.99456 10.4125 6.03494 10.3906 6.07229 10.3641C6.11034 10.3402 6.14501 10.3113 6.17538 10.2782C6.20849 10.2478 6.2374 10.2132 6.26128 10.1751C6.2877 10.1389 6.30963 10.0997 6.32658 10.0583C6.35005 10.0127 6.36738 9.96412 6.37812 9.91395C6.3834 9.86943 6.3834 9.82445 6.37812 9.77993Z" fill="url(#paint2_linear_1699_23391)"/>
<path d="M6.37816 12.7386C6.38325 12.7832 6.38325 12.8281 6.37816 12.8727C6.38345 12.9172 6.38345 12.9622 6.37816 13.0067C6.3674 13.0568 6.35007 13.1054 6.32662 13.151C6.30969 13.1925 6.28777 13.2317 6.26133 13.2678C6.23744 13.3059 6.20854 13.3406 6.17542 13.3709C6.14505 13.404 6.11039 13.433 6.07233 13.4568C6.03498 13.4833 5.9946 13.5052 5.95206 13.5221C5.91133 13.5397 5.86864 13.5524 5.82491 13.5599C5.78039 13.5651 5.73541 13.5651 5.69089 13.5599C5.64583 13.5607 5.60084 13.556 5.55688 13.5462C5.51203 13.5387 5.4682 13.526 5.42629 13.5084C5.38486 13.4914 5.34565 13.4695 5.30946 13.4431C5.2714 13.4192 5.23674 13.3903 5.20637 13.3572C5.07731 13.2289 5.0044 13.0546 5.00362 12.8727C5.00309 12.8276 5.00768 12.7826 5.01737 12.7386C5.02465 12.6938 5.03734 12.6499 5.05517 12.6081C5.07362 12.5674 5.09546 12.5283 5.12046 12.4912C5.14434 12.4532 5.17325 12.4185 5.20637 12.3881C5.47442 12.1217 5.90736 12.1217 6.17542 12.3881C6.20854 12.4185 6.23744 12.4532 6.26133 12.4912C6.28633 12.5283 6.30817 12.5674 6.32662 12.6081C6.34898 12.6494 6.36629 12.6932 6.37816 12.7386Z" fill="url(#paint3_linear_1699_23391)"/>
<path d="M15.3129 9.09259H7.7529C7.37334 9.09259 7.06563 9.40029 7.06563 9.77986C7.06563 10.1594 7.37334 10.4671 7.7529 10.4671H15.3129C15.6924 10.4671 16.0001 10.1594 16.0001 9.77986C16.0001 9.40029 15.6924 9.09259 15.3129 9.09259Z" fill="url(#paint4_linear_1699_23391)"/>
<path d="M7.7529 12.1853H12.2202C12.5997 12.1853 12.9074 12.493 12.9074 12.8726C12.9074 13.2522 12.5997 13.5599 12.2202 13.5599H7.7529C7.37334 13.5599 7.06563 13.2522 7.06563 12.8726C7.06563 12.493 7.37334 12.1853 7.7529 12.1853Z" fill="url(#paint5_linear_1699_23391)"/>
<path d="M14.5786 2.62892L12.8362 3.36549C12.5411 3.49054 12.2098 3.35644 12.0963 3.06603C11.9829 2.77564 12.1302 2.43871 12.4253 2.31371L12.8577 2.13085C9.84637 1.00552 6.36775 1.79053 4.00126 4.15702C1.29091 6.86737 0.686884 10.9887 2.52919 14.189C2.68431 14.4585 2.58639 14.8114 2.31051 14.9773C2.03459 15.1431 1.68544 15.0591 1.53032 14.7897C-0.567725 11.145 0.121202 6.44371 3.20457 3.36033C5.91221 0.652694 9.90633 -0.235708 13.3508 1.07787L13.1704 0.614716C13.0569 0.324305 13.2042 -0.012391 13.4994 -0.137549C13.7946 -0.262571 14.1258 -0.128331 14.2393 0.162025L14.9076 1.87655C15.0211 2.16696 14.8737 2.50387 14.5786 2.62892ZM5.76074 19.8379L5.09234 18.1234C4.97901 17.8329 5.12622 17.496 5.42143 17.3711L7.16388 16.6343C7.45908 16.5094 7.79021 16.6435 7.90365 16.9339C8.01712 17.2243 7.86978 17.5612 7.57468 17.6862L7.14219 17.869C10.1536 18.9944 13.6322 18.2094 15.9987 15.8429C18.709 13.1325 19.3132 9.01108 17.4708 5.81088C17.3158 5.54127 17.4137 5.18844 17.6894 5.02265C17.9653 4.85675 18.3146 4.94089 18.4696 5.21026C20.5678 8.85482 19.8788 13.5562 16.7954 16.6396C14.0879 19.3471 10.0936 20.2356 6.64915 18.9221L6.82971 19.3851C6.94317 19.6755 6.79572 20.0124 6.50062 20.1374C6.20538 20.2625 5.87418 20.1283 5.76074 19.8379Z" fill="url(#paint6_linear_1699_23391)"/>
</g>
<defs>
<linearGradient id="paint0_linear_1699_23391" x1="7.06563" y1="12.8726" x2="12.9074" y2="12.8726" gradientUnits="userSpaceOnUse">
<stop stop-color="#59CBFF"/>
<stop offset="1" stop-color="#009FE7"/>
</linearGradient>
<linearGradient id="paint1_linear_1699_23391" x1="7.06563" y1="12.8726" x2="12.9074" y2="12.8726" gradientUnits="userSpaceOnUse">
<stop stop-color="#59CBFF"/>
<stop offset="1" stop-color="#009FE7"/>
</linearGradient>
<linearGradient id="paint2_linear_1699_23391" x1="7.06563" y1="12.8726" x2="12.9074" y2="12.8726" gradientUnits="userSpaceOnUse">
<stop stop-color="#59CBFF"/>
<stop offset="1" stop-color="#009FE7"/>
</linearGradient>
<linearGradient id="paint3_linear_1699_23391" x1="7.06563" y1="12.8726" x2="12.9074" y2="12.8726" gradientUnits="userSpaceOnUse">
<stop stop-color="#59CBFF"/>
<stop offset="1" stop-color="#009FE7"/>
</linearGradient>
<linearGradient id="paint4_linear_1699_23391" x1="7.06563" y1="12.8726" x2="12.9074" y2="12.8726" gradientUnits="userSpaceOnUse">
<stop stop-color="#59CBFF"/>
<stop offset="1" stop-color="#009FE7"/>
</linearGradient>
<linearGradient id="paint5_linear_1699_23391" x1="7.06563" y1="12.8726" x2="12.9074" y2="12.8726" gradientUnits="userSpaceOnUse">
<stop stop-color="#59CBFF"/>
<stop offset="1" stop-color="#009FE7"/>
</linearGradient>
<linearGradient id="paint6_linear_1699_23391" x1="0.323944" y1="9.99994" x2="19.6761" y2="9.99994" gradientUnits="userSpaceOnUse">
<stop stop-color="#59CBFF"/>
<stop offset="1" stop-color="#009FE7"/>
</linearGradient>
<clipPath id="clip0_1699_23391">
<rect width="20" height="20" fill="white"/>
</clipPath>
</defs>
</svg>
