<svg width="20" height="20" viewBox="0 0 20 20" fill="none" xmlns="http://www.w3.org/2000/svg">
<path d="M10.0002 9.81426C11.8903 9.81426 13.4228 7.95303 13.4228 5.65716C13.4228 3.36123 12.9196 1.5 10.0002 1.5C7.08063 1.5 6.57752 3.36123 6.57752 5.65716C6.57757 7.95303 8.10997 9.81426 10.0002 9.81426Z" fill="url(#paint0_linear_1699_23312)"/>
<path d="M16.4572 15.9938C16.3939 11.9942 15.8716 10.8546 11.8744 10.1332C11.8744 10.1332 11.3116 10.8501 10.0002 10.8501C8.68875 10.8501 8.12609 10.1332 8.12609 10.1332C4.17253 10.8467 3.61832 11.9695 3.54548 15.8638C3.53955 16.1818 3.53682 16.1985 3.53574 16.1616C3.53595 16.2308 3.53626 16.3587 3.53626 16.5818C3.53626 16.5818 4.48792 18.5002 10.0003 18.5002C15.5126 18.5002 16.4643 16.5818 16.4643 16.5818C16.4643 16.4385 16.4645 16.3388 16.4646 16.271C16.4635 16.2938 16.4613 16.2496 16.4572 15.9938Z" fill="url(#paint1_linear_1699_23312)"/>
<path d="M14.7499 9.07196C16.2852 9.07196 17.5297 7.56032 17.5297 5.69564C17.5297 3.83091 17.1211 2.31927 14.7499 2.31927C14.3511 2.31927 14.0079 2.36218 13.7126 2.44229C14.2603 3.4519 14.3354 4.67819 14.3354 5.65706C14.3354 6.76538 14.0349 7.82352 13.4816 8.69966C13.8619 8.93715 14.2929 9.07196 14.7499 9.07196Z" fill="url(#paint2_linear_1699_23312)"/>
<path d="M19.994 14.0909C19.9425 10.8426 19.5183 9.917 16.2719 9.33105C16.2719 9.33105 15.8149 9.91339 14.7497 9.91339C14.7057 9.91339 14.663 9.91205 14.6209 9.91015C15.2977 10.2153 15.9134 10.6401 16.3668 11.2618C17.1506 12.3366 17.3308 13.7804 17.368 15.9015C19.5521 15.4699 19.9997 14.5686 19.9997 14.5686C19.9997 14.4511 19.9997 14.3706 20 14.3155C19.9991 14.3349 19.9973 14.3002 19.994 14.0909Z" fill="url(#paint3_linear_1699_23312)"/>
<path d="M5.25005 9.07199C5.70716 9.07199 6.13799 8.93717 6.51843 8.69973C5.96515 7.82359 5.66471 6.76545 5.66471 5.65713C5.66471 4.67822 5.73977 3.45192 6.28733 2.44236C5.99214 2.36225 5.64899 2.31934 5.25005 2.31934C2.87891 2.31934 2.47039 3.83098 2.47039 5.69571C2.47039 7.56034 3.71492 9.07199 5.25005 9.07199Z" fill="url(#paint4_linear_1699_23312)"/>
<path d="M5.37891 9.91007C5.33698 9.91197 5.29427 9.91331 5.25012 9.91331C4.18497 9.91331 3.72797 9.33097 3.72797 9.33097C0.481625 9.91692 0.0573376 10.8425 0.00592437 14.0909C0.00257581 14.3001 0.000875776 14.3348 0 14.3154C0.000103033 14.3704 0.000206065 14.451 0.000206065 14.5685C0.000206065 14.5685 0.447882 15.4698 2.63186 15.9014C2.66921 13.7803 2.84931 12.3365 3.63323 11.2617C4.08658 10.6401 4.70215 10.2152 5.37891 9.91007Z" fill="url(#paint5_linear_1699_23312)"/>
<defs>
<linearGradient id="paint0_linear_1699_23312" x1="0" y1="10.0001" x2="20" y2="10.0001" gradientUnits="userSpaceOnUse">
<stop stop-color="#59CBFF"/>
<stop offset="1" stop-color="#009FE7"/>
</linearGradient>
<linearGradient id="paint1_linear_1699_23312" x1="0" y1="10.0001" x2="20" y2="10.0001" gradientUnits="userSpaceOnUse">
<stop stop-color="#59CBFF"/>
<stop offset="1" stop-color="#009FE7"/>
</linearGradient>
<linearGradient id="paint2_linear_1699_23312" x1="0" y1="10.0001" x2="20" y2="10.0001" gradientUnits="userSpaceOnUse">
<stop stop-color="#59CBFF"/>
<stop offset="1" stop-color="#009FE7"/>
</linearGradient>
<linearGradient id="paint3_linear_1699_23312" x1="0" y1="10.0001" x2="20" y2="10.0001" gradientUnits="userSpaceOnUse">
<stop stop-color="#59CBFF"/>
<stop offset="1" stop-color="#009FE7"/>
</linearGradient>
<linearGradient id="paint4_linear_1699_23312" x1="0" y1="10.0001" x2="20" y2="10.0001" gradientUnits="userSpaceOnUse">
<stop stop-color="#59CBFF"/>
<stop offset="1" stop-color="#009FE7"/>
</linearGradient>
<linearGradient id="paint5_linear_1699_23312" x1="0" y1="10.0001" x2="20" y2="10.0001" gradientUnits="userSpaceOnUse">
<stop stop-color="#59CBFF"/>
<stop offset="1" stop-color="#009FE7"/>
</linearGradient>
</defs>
</svg>
