<svg width="20" height="20" viewBox="0 0 20 20" fill="none" xmlns="http://www.w3.org/2000/svg">
<g clip-path="url(#clip0_1699_23315)">
<path d="M10.0464 0C10.0409 0 10.03 0 10.0136 0C4.49113 0 0 4.41012 0 9.83302C0 12.0461 0.76944 14.1949 2.17735 15.9257L0.720327 19.2534C0.600272 19.5267 0.731241 19.8429 1.00409 19.9554C1.10232 19.9983 1.21146 20.009 1.31514 19.9929L6.65757 19.0712C7.72714 19.4517 8.85129 19.6446 9.98635 19.6392C15.5089 19.6392 20 15.2291 20 9.80622C20.0109 4.3994 15.5525 0.00535859 10.0464 0ZM6.61937 7.8557H9.56616C9.86629 7.8557 10.1119 8.09683 10.1119 8.39155C10.1119 8.68628 9.86629 8.92741 9.56616 8.92741H6.61937C6.31923 8.92741 6.07366 8.68628 6.07366 8.39155C6.07366 8.09683 6.31923 7.8557 6.61937 7.8557ZM13.3861 11.6067H6.61937C6.31923 11.6067 6.07366 11.3656 6.07366 11.0709C6.07366 10.7761 6.31923 10.535 6.61937 10.535H13.3861C13.6862 10.535 13.9318 10.7761 13.9318 11.0709C13.9318 11.3656 13.6862 11.6067 13.3861 11.6067Z" fill="url(#paint0_linear_1699_23315)"/>
</g>
<defs>
<linearGradient id="paint0_linear_1699_23315" x1="0" y1="10" x2="20" y2="10" gradientUnits="userSpaceOnUse">
<stop stop-color="#59CBFF"/>
<stop offset="1" stop-color="#009FE7"/>
</linearGradient>
<clipPath id="clip0_1699_23315">
<rect width="20" height="20" fill="white"/>
</clipPath>
</defs>
</svg>
