<svg width="16" height="14" viewBox="0 0 16 14" fill="none" xmlns="http://www.w3.org/2000/svg">
<g id="Group">
<g id="Group_2">
<path id="Vector" d="M13.0765 12.1537C12.8671 12.4749 12.9577 12.9052 13.279 13.1147C13.6003 13.3242 14.0306 13.2336 14.2401 12.9123C15.3533 11.205 16.0001 9.16554 16.0001 6.97706C16.0001 4.78857 15.3533 2.74906 14.2401 1.04182C14.0306 0.720527 13.6003 0.629891 13.279 0.839377C12.9577 1.04887 12.8671 1.47915 13.0765 1.80045C14.0471 3.28889 14.6111 5.06604 14.6111 6.97706C14.6111 8.88802 14.0471 10.6652 13.0765 12.1537Z" fill="#009FE7"/>
<path id="Vector_2" d="M2.72107 0.839377C3.04237 1.04886 3.133 1.47915 2.92351 1.80045C1.95303 3.28889 1.38898 5.06604 1.38898 6.97706C1.38898 8.88802 1.95302 10.6652 2.92351 12.1537C3.133 12.4749 3.04237 12.9052 2.72107 13.1147C2.39978 13.3242 1.96949 13.2336 1.76 12.9123C0.646857 11.205 0 9.16554 0 6.97706C0 4.78857 0.646857 2.74906 1.76 1.04182C1.96949 0.720527 2.39978 0.629891 2.72107 0.839377Z" fill="#009FE7"/>
<path id="Vector_3" d="M4.74411 3.6348C5.05567 3.85851 5.1269 4.29243 4.90319 4.604C4.43976 5.24938 4.16706 6.03999 4.16706 6.89634C4.16706 7.7527 4.43976 8.5433 4.90319 9.18872C5.1269 9.50031 5.05567 9.93423 4.74411 10.1579C4.43255 10.3816 3.99863 10.3104 3.77492 9.99886C3.1476 9.1251 2.77808 8.0529 2.77808 6.89634C2.77808 5.73988 3.1476 4.66757 3.77492 3.79388C3.99863 3.48232 4.43255 3.4111 4.74411 3.6348Z" fill="#009FE7"/>
<path id="Vector_4" d="M8.10237 4.43066C6.69598 4.43066 5.55591 5.57074 5.55591 6.97713C5.55591 8.38352 6.69598 9.52359 8.10237 9.52359C9.50876 9.52359 10.6488 8.38352 10.6488 6.97713C10.6488 5.57074 9.50876 4.43066 8.10237 4.43066Z" fill="#009FE7"/>
<path id="Vector_5" d="M11.2421 9.1887C11.0184 9.5003 11.0896 9.93421 11.4012 10.1579C11.7127 10.3816 12.1466 10.3103 12.3703 9.99885C12.9977 9.12518 13.3673 8.05289 13.3673 6.89633C13.3673 5.73986 12.9977 4.66757 12.3703 3.79388C12.1466 3.48232 11.7127 3.4111 11.4012 3.63481C11.0896 3.85851 11.0184 4.29243 11.2421 4.60399C11.7055 5.24946 11.9783 6.03997 11.9783 6.89633C11.9783 7.75268 11.7055 8.54329 11.2421 9.1887Z" fill="#009FE7"/>
</g>
</g>
</svg>
