<svg width="20" height="20" viewBox="0 0 20 20" fill="none" xmlns="http://www.w3.org/2000/svg">
<g clip-path="url(#clip0_1699_23395)">
<path d="M19.4469 13.2879C19.8053 12.2581 20 11.1518 20 10C20 4.47715 15.5228 0 10 0C4.47715 0 0 4.47715 0 10C0 11.1518 0.194732 12.2581 0.553069 13.2879C0.210876 13.8799 0 14.624 0 15.5556C0 19.2593 3.33333 20 5 20C6.66667 20 6.66667 18.0102 6.66667 15.5556C6.66667 13.101 6.66667 11.1111 5 11.1111C4.45369 11.1111 3.7283 11.1907 2.99994 11.4281C2.9063 10.9667 2.85714 10.4891 2.85714 10C2.85714 6.05511 6.05511 2.85714 10 2.85714C13.9449 2.85714 17.1429 6.05511 17.1429 10C17.1429 10.4891 17.0937 10.9667 17.0001 11.4281C16.2717 11.1907 15.5463 11.1111 15 11.1111C13.3333 11.1111 13.3333 13.101 13.3333 15.5556C13.3333 18.0102 13.3333 20 15 20C16.6667 20 20 19.2593 20 15.5556C20 14.624 19.7891 13.8799 19.4469 13.2879Z" fill="white"/>
<path d="M19.4469 13.2879C19.8053 12.2581 20 11.1518 20 10C20 4.47715 15.5228 0 10 0C4.47715 0 0 4.47715 0 10C0 11.1518 0.194732 12.2581 0.553069 13.2879C0.210876 13.8799 0 14.624 0 15.5556C0 19.2593 3.33333 20 5 20C6.66667 20 6.66667 18.0102 6.66667 15.5556C6.66667 13.101 6.66667 11.1111 5 11.1111C4.45369 11.1111 3.7283 11.1907 2.99994 11.4281C2.9063 10.9667 2.85714 10.4891 2.85714 10C2.85714 6.05511 6.05511 2.85714 10 2.85714C13.9449 2.85714 17.1429 6.05511 17.1429 10C17.1429 10.4891 17.0937 10.9667 17.0001 11.4281C16.2717 11.1907 15.5463 11.1111 15 11.1111C13.3333 11.1111 13.3333 13.101 13.3333 15.5556C13.3333 18.0102 13.3333 20 15 20C16.6667 20 20 19.2593 20 15.5556C20 14.624 19.7891 13.8799 19.4469 13.2879Z" fill="url(#paint0_linear_1699_23395)"/>
</g>
<defs>
<linearGradient id="paint0_linear_1699_23395" x1="0" y1="10" x2="20" y2="10" gradientUnits="userSpaceOnUse">
<stop stop-color="#59CBFF"/>
<stop offset="1" stop-color="#009FE7"/>
</linearGradient>
<clipPath id="clip0_1699_23395">
<rect width="20" height="20" fill="white"/>
</clipPath>
</defs>
</svg>
