<svg width="20" height="20" viewBox="0 0 20 20" fill="none" xmlns="http://www.w3.org/2000/svg">
<g clip-path="url(#clip0_1699_23304)">
<path d="M19.5997 14.5722L12.5929 2.4358C11.4484 0.430905 8.55425 0.430905 7.41389 2.4358L0.402931 14.5722C-0.741547 16.5771 0.682875 19.0678 2.99242 19.0678H16.9855C19.2951 19.0678 20.7442 16.5524 19.5997 14.5722ZM9.99926 16.3754C9.38997 16.3754 8.88359 15.869 8.88359 15.2597C8.88359 14.6504 9.38997 14.1441 9.99926 14.1441C10.6085 14.1441 11.1149 14.6504 11.0902 15.2885C11.119 15.869 10.5838 16.3754 9.99926 16.3754ZM11.0161 9.16269C10.9667 10.0272 10.9132 10.8876 10.8638 11.7522C10.8391 12.0321 10.8391 12.2874 10.8391 12.5632C10.8144 13.0202 10.4562 13.3742 9.99926 13.3742C9.54229 13.3742 9.18824 13.0449 9.15942 12.5879C9.08532 11.2417 9.0071 9.92019 8.933 8.57399C8.9083 8.21994 8.8836 7.86178 8.85478 7.50773C8.85478 6.92314 9.18412 6.44147 9.71931 6.28915C10.2545 6.16153 10.7856 6.41677 11.0161 6.92314C11.0943 7.10016 11.119 7.27719 11.119 7.48303C11.0943 8.04704 11.0408 8.60692 11.0161 9.16269Z" fill="url(#paint0_linear_1699_23304)"/>
</g>
<defs>
<linearGradient id="paint0_linear_1699_23304" x1="-0.000488281" y1="9.99996" x2="19.9995" y2="9.99996" gradientUnits="userSpaceOnUse">
<stop stop-color="#59CBFF"/>
<stop offset="1" stop-color="#009FE7"/>
</linearGradient>
<clipPath id="clip0_1699_23304">
<rect width="20" height="20" fill="white"/>
</clipPath>
</defs>
</svg>
