<svg width="20" height="20" viewBox="0 0 20 20" fill="none" xmlns="http://www.w3.org/2000/svg">
<g clip-path="url(#clip0_1699_23398)">
<path d="M16.3456 16.4422C16.0838 16.8438 16.1971 17.3817 16.5987 17.6435C17.0003 17.9054 17.5382 17.7921 17.8001 17.3905C19.1915 15.2564 20 12.707 20 9.97145C20 7.23584 19.1915 4.68645 17.8001 2.55239C17.5382 2.15078 17.0003 2.03749 16.5987 2.29934C16.1971 2.56121 16.0838 3.09906 16.3456 3.50068C17.5588 5.36123 18.2638 7.58268 18.2638 9.97145C18.2638 12.3601 17.5588 14.5816 16.3456 16.4422Z" fill="url(#paint0_linear_1699_23398)"/>
<path d="M3.40133 2.29934C3.80296 2.5612 3.91625 3.09906 3.65438 3.50068C2.44128 5.36123 1.73623 7.58268 1.73623 9.97145C1.73623 12.3601 2.44127 14.5816 3.65438 16.4422C3.91625 16.8438 3.80296 17.3817 3.40133 17.6435C2.99972 17.9054 2.46186 17.7921 2.20001 17.3905C0.808572 15.2564 0 12.707 0 9.97145C0 7.23584 0.808572 4.68645 2.20001 2.55239C2.46186 2.15078 2.99972 2.03749 3.40133 2.29934Z" fill="url(#paint1_linear_1699_23398)"/>
<path d="M5.9302 5.79375C6.31965 6.07339 6.40868 6.61578 6.12905 7.00524C5.54976 7.81197 5.20888 8.80023 5.20888 9.87067C5.20888 10.9411 5.54976 11.9294 6.12905 12.7361C6.40868 13.1256 6.31965 13.668 5.9302 13.9477C5.54075 14.2272 4.99835 14.1382 4.71871 13.7488C3.93456 12.6566 3.47266 11.3164 3.47266 9.87067C3.47266 8.42509 3.93456 7.0847 4.71871 5.99259C4.99835 5.60315 5.54075 5.51411 5.9302 5.79375Z" fill="url(#paint2_linear_1699_23398)"/>
<path d="M10.128 6.78845C8.36998 6.78845 6.94489 8.21355 6.94489 9.97153C6.94489 11.7295 8.36998 13.1546 10.128 13.1546C11.886 13.1546 13.311 11.7295 13.311 9.97153C13.311 8.21355 11.886 6.78845 10.128 6.78845Z" fill="url(#paint3_linear_1699_23398)"/>
<path d="M14.0527 12.7361C13.773 13.1256 13.862 13.668 14.2515 13.9477C14.6409 14.2273 15.1833 14.1382 15.463 13.7488C16.2471 12.6567 16.7091 11.3164 16.7091 9.87065C16.7091 8.42507 16.2471 7.08471 15.463 5.9926C15.1833 5.60314 14.6409 5.51412 14.2515 5.79375C13.862 6.07338 13.773 6.61579 14.0527 7.00523C14.6319 7.81207 14.9729 8.80021 14.9729 9.87065C14.9729 10.9411 14.6319 11.9294 14.0527 12.7361Z" fill="url(#paint4_linear_1699_23398)"/>
</g>
<defs>
<linearGradient id="paint0_linear_1699_23398" x1="16.2046" y1="9.97144" x2="20" y2="9.97144" gradientUnits="userSpaceOnUse">
<stop stop-color="#59CBFF"/>
<stop offset="1" stop-color="#009FE7"/>
</linearGradient>
<linearGradient id="paint1_linear_1699_23398" x1="0" y1="9.97144" x2="3.79541" y2="9.97144" gradientUnits="userSpaceOnUse">
<stop stop-color="#59CBFF"/>
<stop offset="1" stop-color="#009FE7"/>
</linearGradient>
<linearGradient id="paint2_linear_1699_23398" x1="3.47266" y1="9.87068" x2="6.29206" y2="9.87068" gradientUnits="userSpaceOnUse">
<stop stop-color="#59CBFF"/>
<stop offset="1" stop-color="#009FE7"/>
</linearGradient>
<linearGradient id="paint3_linear_1699_23398" x1="6.94489" y1="9.97153" x2="13.311" y2="9.97153" gradientUnits="userSpaceOnUse">
<stop stop-color="#59CBFF"/>
<stop offset="1" stop-color="#009FE7"/>
</linearGradient>
<linearGradient id="paint4_linear_1699_23398" x1="13.8896" y1="9.8707" x2="16.7091" y2="9.8707" gradientUnits="userSpaceOnUse">
<stop stop-color="#59CBFF"/>
<stop offset="1" stop-color="#009FE7"/>
</linearGradient>
<clipPath id="clip0_1699_23398">
<rect width="20" height="20" fill="white"/>
</clipPath>
</defs>
</svg>
