<svg width="24" height="24" viewBox="0 0 24 24" fill="none" xmlns="http://www.w3.org/2000/svg">
<g clip-path="url(#clip0_269_11490)">
<path d="M12 24C18.6274 24 24 18.6274 24 12C24 5.3726 18.6274 0 12 0C5.3726 0 0 5.3726 0 12C0 18.6274 5.3726 24 12 24Z" fill="#FF9400"/>
<path d="M17.9881 12.4121C17.5961 11.9081 17.0081 11.5601 16.2201 11.3721C17.2241 10.8601 17.6641 9.9921 17.5441 8.7681C17.5041 8.3241 17.3801 7.9401 17.1761 7.6121C16.9721 7.2841 16.6921 7.0241 16.3441 6.8241C15.9961 6.6241 15.6121 6.4721 15.2041 6.3681C14.7921 6.2641 14.3241 6.1881 13.7921 6.1401V3.6001H12.2361V6.0721C11.9681 6.0721 11.5561 6.0801 11.0041 6.0921V3.6001H9.44813V6.1441C9.22413 6.1521 8.90013 6.1561 8.46813 6.1561L6.32812 6.1441V7.8001H7.44813C7.96013 7.8001 8.26013 8.0281 8.34813 8.4881V11.3841C8.41613 11.3841 8.46813 11.3881 8.50813 11.3961H8.34813V15.4561C8.29613 15.8001 8.10013 15.9721 7.76413 15.9721H6.64413L6.33213 17.8201H8.35212C8.48012 17.8201 8.66413 17.8201 8.90813 17.8241C9.15213 17.8281 9.33212 17.8281 9.45212 17.8281V20.4001H11.0081V17.8561C11.2921 17.8641 11.7001 17.8681 12.2401 17.8681V20.4001H13.7961V17.8241C14.3481 17.7961 14.8361 17.7481 15.2641 17.6721C15.6921 17.5961 16.1001 17.4801 16.4921 17.3241C16.8841 17.1641 17.2081 16.9681 17.4721 16.7321C17.7361 16.4961 17.9521 16.1961 18.1241 15.8321C18.2961 15.4681 18.4041 15.0481 18.4521 14.5681C18.5281 13.6401 18.3801 12.9201 17.9881 12.4121ZM11.0321 7.9121C11.0801 7.9121 11.2121 7.9121 11.4321 7.9081C11.6521 7.9041 11.8321 7.9001 11.9761 7.8961C12.1201 7.8921 12.3161 7.9001 12.5601 7.9201C12.8041 7.9401 13.0121 7.9681 13.1801 8.0001C13.3481 8.0321 13.5321 8.0881 13.7361 8.1681C13.9401 8.2441 14.1001 8.3401 14.2201 8.4521C14.3401 8.5641 14.4441 8.7041 14.5281 8.8761C14.6121 9.0481 14.6561 9.2441 14.6561 9.4681C14.6561 9.6561 14.6241 9.8281 14.5641 9.9841C14.5041 10.1401 14.4121 10.2681 14.2921 10.3721C14.1721 10.4761 14.0481 10.5681 13.9201 10.6441C13.7921 10.7201 13.6281 10.7841 13.4321 10.8321C13.2321 10.8801 13.0601 10.9161 12.9121 10.9441C12.7641 10.9721 12.5801 10.9881 12.3561 11.0001C12.1321 11.0121 11.9641 11.0161 11.8521 11.0201C11.7361 11.0241 11.5801 11.0241 11.3841 11.0201C11.1841 11.0161 11.0681 11.0161 11.0361 11.0161L11.0321 7.9121ZM15.2761 14.7881C15.2121 14.9441 15.1281 15.0761 15.0281 15.1921C14.9281 15.3081 14.7921 15.4081 14.6281 15.4961C14.4641 15.5841 14.3041 15.6561 14.1481 15.7081C13.9921 15.7641 13.8081 15.8081 13.5881 15.8481C13.3681 15.8881 13.1761 15.9161 13.0121 15.9321C12.8481 15.9481 12.6521 15.9641 12.4201 15.9721C12.1921 15.9801 12.0121 15.9881 11.8841 15.9881C11.7561 15.9881 11.5961 15.9881 11.4001 15.9841C11.2041 15.9801 11.0801 15.9801 11.0281 15.9801V12.5681C11.0801 12.5681 11.2401 12.5641 11.5081 12.5561C11.7721 12.5481 11.9921 12.5481 12.1601 12.5481C12.3281 12.5481 12.5601 12.5561 12.8561 12.5801C13.1521 12.6001 13.4001 12.6321 13.6041 12.6721C13.8041 12.7121 14.0281 12.7761 14.2641 12.8601C14.5041 12.9441 14.6961 13.0481 14.8441 13.1681C14.9921 13.2881 15.1161 13.4441 15.2161 13.6321C15.3161 13.8201 15.3681 14.0361 15.3681 14.2801C15.3721 14.4601 15.3401 14.6321 15.2761 14.7881Z" fill="white"/>
</g>
<defs>
<clipPath id="clip0_269_11490">
<rect width="24" height="24" fill="white"/>
</clipPath>
</defs>
</svg>
