<svg width="24" height="24" viewBox="0 0 24 24" fill="none" xmlns="http://www.w3.org/2000/svg">
<g clip-path="url(#clip0_269_11550)">
<path d="M12 24C18.6274 24 24 18.6274 24 12C24 5.3726 18.6274 0 12 0C5.3726 0 0 5.3726 0 12C0 18.6274 5.3726 24 12 24Z" fill="#8DC351"/>
<path d="M17.6201 9.96822C17.0521 9.68022 16.3681 9.62022 15.5761 9.79222C16.2601 8.90022 16.2841 7.92422 15.6481 6.87222C15.4201 6.48822 15.1441 6.19222 14.8161 5.98822C14.4881 5.78022 14.1281 5.66422 13.7241 5.63622C13.3241 5.60822 12.9121 5.63622 12.5001 5.71622C12.0841 5.80022 11.6281 5.93222 11.1281 6.12022L10.0321 3.82422L8.62809 4.49222L9.69209 6.72422C9.44809 6.84022 9.08009 7.02422 8.58809 7.27222L7.51609 5.02022L6.11209 5.68822L7.20809 7.98422C7.01209 8.08422 6.71609 8.22822 6.32809 8.41622L4.39209 9.32822L5.10409 10.8242L6.11609 10.3402C6.57609 10.1202 6.94809 10.1962 7.22409 10.5722L8.47209 13.1882C8.53209 13.1602 8.58409 13.1402 8.62409 13.1282L8.48009 13.1962L10.2281 16.8602C10.3281 17.1922 10.2241 17.4322 9.92009 17.5762L8.90809 18.0602L9.42009 19.8642L11.2441 18.9962C11.3601 18.9402 11.5281 18.8642 11.7481 18.7602C11.9681 18.6602 12.1321 18.5842 12.2441 18.5282L13.3521 20.8522L14.7561 20.1842L13.6601 17.8882C13.9201 17.7722 14.2921 17.6002 14.7761 17.3682L15.8681 19.6562L17.2721 18.9882L16.1641 16.6642C16.6521 16.4042 17.0721 16.1442 17.4241 15.8962C17.7761 15.6442 18.0961 15.3642 18.3801 15.0522C18.6641 14.7402 18.8721 14.4242 19.0081 14.0962C19.1441 13.7722 19.2121 13.4082 19.2081 13.0042C19.2081 12.6042 19.1241 12.1762 18.9601 11.7242C18.6361 10.8402 18.1921 10.2522 17.6201 9.96822ZM9.40409 8.89622C9.44809 8.87622 9.56409 8.81622 9.76009 8.72022C9.95609 8.62422 10.1201 8.54022 10.2481 8.47622C10.3761 8.41222 10.5561 8.33622 10.7881 8.24822C11.0201 8.16022 11.2161 8.09622 11.3841 8.05222C11.5521 8.00822 11.7401 7.98022 11.9561 7.96422C12.1721 7.94822 12.3561 7.96422 12.5161 8.01222C12.6721 8.06022 12.8281 8.14422 12.9761 8.26422C13.1241 8.38422 13.2481 8.54422 13.3441 8.74422C13.4241 8.91622 13.4721 9.08422 13.4841 9.24822C13.4961 9.41222 13.4681 9.56822 13.4041 9.71622C13.3401 9.86422 13.2681 10.0002 13.1841 10.1242C13.1001 10.2482 12.9801 10.3762 12.8241 10.5042C12.6641 10.6322 12.5241 10.7402 12.4041 10.8282C12.2801 10.9162 12.1241 11.0122 11.9281 11.1162C11.7321 11.2202 11.5841 11.3002 11.4801 11.3522C11.3801 11.4042 11.2361 11.4722 11.0561 11.5562C10.8761 11.6402 10.7681 11.6882 10.7401 11.7002L9.40409 8.89622ZM16.1961 13.2762C16.2041 13.4442 16.1881 13.6002 16.1481 13.7482C16.1041 13.8962 16.0281 14.0442 15.9201 14.1922C15.8081 14.3442 15.6961 14.4762 15.5801 14.5882C15.4641 14.7042 15.3161 14.8282 15.1361 14.9562C14.9561 15.0882 14.7961 15.1962 14.6521 15.2802C14.5121 15.3682 14.3401 15.4642 14.1361 15.5722C13.9321 15.6802 13.7761 15.7602 13.6601 15.8162C13.5441 15.8722 13.3961 15.9402 13.2201 16.0202C13.0441 16.1002 12.9281 16.1522 12.8801 16.1762L11.4121 13.0962C11.4601 13.0722 11.6041 13.0002 11.8401 12.8802C12.0761 12.7602 12.2721 12.6642 12.4241 12.5922C12.5761 12.5202 12.7881 12.4282 13.0641 12.3202C13.3401 12.2122 13.5761 12.1322 13.7761 12.0802C13.9761 12.0282 14.2001 11.9922 14.4521 11.9642C14.7041 11.9362 14.9241 11.9482 15.1081 11.9922C15.2921 12.0362 15.4721 12.1242 15.6441 12.2522C15.8161 12.3802 15.9561 12.5522 16.0601 12.7682C16.1441 12.9402 16.1881 13.1082 16.1961 13.2762Z" fill="white"/>
</g>
<defs>
<clipPath id="clip0_269_11550">
<rect width="24" height="24" fill="white"/>
</clipPath>
</defs>
</svg>
