<svg width="24" height="24" viewBox="0 0 24 24" fill="none" xmlns="http://www.w3.org/2000/svg">
<g clip-path="url(#clip0_269_11533)">
<path d="M24.0003 11.9999C24.0003 18.6274 18.6279 24 12.0005 24C5.37304 24 0.000488281 18.6274 0.000488281 11.9999C0.000488281 5.37255 5.37304 0 12.0005 0C18.6278 0 24.0003 5.37255 24.0003 11.9999Z" fill="#BEBEBE"/>
<path d="M21.4524 12.0002C21.4524 17.2202 17.2205 21.4524 12.0002 21.4524C6.78001 21.4524 2.54785 17.2202 2.54785 12.0002C2.54785 6.77979 6.78001 2.54785 12.0002 2.54785C17.2206 2.54785 21.4524 6.77972 21.4524 12.0002Z" fill="#BEBEBE"/>
<path d="M11.2988 15.2056L12.0782 12.2707L13.9235 11.5965L14.3825 9.87169L14.3669 9.8289L12.5504 10.4925L13.8592 5.56445H10.1475L8.4359 11.9957L7.00686 12.5177L6.53467 14.2959L7.96261 13.7743L6.95387 17.5645H16.8322L17.4655 15.2056H11.2988Z" fill="white"/>
</g>
<defs>
<clipPath id="clip0_269_11533">
<rect width="24" height="24" fill="white"/>
</clipPath>
</defs>
</svg>
