<svg width="24" height="24" viewBox="0 0 24 24" fill="none" xmlns="http://www.w3.org/2000/svg">
<g clip-path="url(#clip0_269_11574)">
<path d="M12 24C18.6274 24 24 18.6274 24 12C24 5.37258 18.6274 0 12 0C5.37258 0 0 5.37258 0 12C0 18.6274 5.37258 24 12 24Z" fill="#FF060A"/>
<path d="M18.5588 9.1993C17.9595 8.77405 17.3182 8.3203 16.6912 7.8703C16.677 7.8598 16.6635 7.8493 16.6462 7.8388C16.5728 7.77847 16.4896 7.73105 16.4003 7.69855L16.3927 7.6948C14.7151 7.28312 13.0378 6.86961 11.361 6.4543L6.873 5.34655L6.75525 5.31505C6.62025 5.2768 6.46425 5.23405 6.29775 5.25505C6.25214 5.26204 6.20862 5.27894 6.17025 5.30455L6.12825 5.3398C6.07566 5.39373 6.03547 5.45849 6.0105 5.52955L6 5.55805V5.7193L6.0075 5.74405C6.9525 8.4328 7.923 11.1606 8.859 13.7998C9.57975 15.8323 10.329 17.9368 11.0595 20.0038C11.1045 20.1441 11.2327 20.2363 11.3925 20.2498H11.427C11.4968 20.2516 11.5658 20.2346 11.6268 20.2005C11.6877 20.1665 11.7384 20.1167 11.7735 20.0563L14.5185 15.9966C15.1867 15.0088 15.8558 14.0181 16.5248 13.0303L17.346 11.8138C17.796 11.1463 18.261 10.4571 18.7222 9.7858L18.7463 9.7513V9.70855C18.7568 9.58555 18.7598 9.3328 18.5588 9.19855M15.3428 10.6791C14.6978 11.0196 14.04 11.3713 13.3777 11.7193L14.5358 10.4608C15.0173 9.93355 15.5198 9.3883 16.0118 8.8543L16.0223 8.8438C16.0635 8.78755 16.116 8.73505 16.1715 8.6788C16.209 8.64055 16.251 8.60155 16.2892 8.5558C16.5457 8.7358 16.8053 8.91805 17.055 9.0973C17.235 9.22705 17.4188 9.35755 17.6063 9.4873C16.8491 9.87955 16.0946 10.2768 15.3428 10.6791ZM13.6868 10.5103C13.191 11.0548 12.678 11.6136 12.1688 12.1656C11.1804 10.9494 10.1892 9.73568 9.195 8.5243L7.86075 6.8968L7.85775 6.89305C7.75725 6.77755 7.65975 6.6508 7.563 6.53155C7.50075 6.45055 7.43475 6.3733 7.36875 6.2923C7.77075 6.3973 8.1765 6.4963 8.57475 6.5908C8.925 6.67555 9.28875 6.7633 9.64575 6.8548L15.6795 8.3413C15.0105 9.0658 14.3378 9.80005 13.6868 10.5103ZM11.943 17.3608C11.9812 16.9918 12.0232 16.6123 12.0577 16.2396C12.0892 15.9403 12.12 15.6351 12.1515 15.3433C12.1995 14.8753 12.252 14.3908 12.294 13.9161L12.3038 13.8321C12.3383 13.5291 12.3727 13.2171 12.3937 12.9036C12.4341 12.8808 12.476 12.8607 12.519 12.8436C12.5707 12.8196 12.6225 12.7986 12.6743 12.7671C13.4747 12.3404 14.2765 11.9162 15.0795 11.4943C15.8805 11.0728 16.7017 10.6363 17.5162 10.2043C16.7772 11.2897 16.0412 12.3772 15.3082 13.4668C14.688 14.3833 14.0505 15.3291 13.416 16.2606C13.167 16.6333 12.9068 17.0128 12.6608 17.3781C12.3833 17.7861 12.099 18.2038 11.8222 18.6231C11.8567 18.2008 11.898 17.7756 11.943 17.3608ZM7.113 7.1218C7.068 6.99505 7.0185 6.8653 6.97725 6.7423C7.91325 7.8883 8.85525 9.04105 9.774 10.1586C10.2487 10.7383 10.7235 11.3151 11.1982 11.8986C11.292 12.0073 11.3857 12.1236 11.4757 12.2361C11.5935 12.3801 11.7113 12.5316 11.8395 12.6756C11.7975 13.0371 11.763 13.4031 11.7248 13.7541C11.7008 14.0001 11.6767 14.2468 11.649 14.4966V14.4996C11.6385 14.6571 11.6175 14.8161 11.6003 14.9706L11.5208 15.6703L11.517 15.6943C11.4548 16.4046 11.3783 17.1216 11.3055 17.8176C11.2748 18.1056 11.247 18.4011 11.2155 18.6966C11.1983 18.6441 11.178 18.5908 11.16 18.5413C11.1072 18.3981 11.0564 18.254 11.0078 18.1093L10.6365 17.0653L7.11225 7.1218" fill="white"/>
</g>
<defs>
<clipPath id="clip0_269_11574">
<rect width="24" height="24" fill="white"/>
</clipPath>
</defs>
</svg>
