<svg width="20" height="20" viewBox="0 0 20 20" fill="none" xmlns="http://www.w3.org/2000/svg">
<path fill-rule="evenodd" clip-rule="evenodd" d="M13.3203 2.42188H15.8594C16.8302 2.42188 17.6172 3.20887 17.6172 4.17969V4.76562C17.6172 5.08922 17.3548 5.35156 17.0312 5.35156H2.96875C2.64516 5.35156 2.38281 5.08922 2.38281 4.76562V4.17969C2.38281 3.20887 3.1698 2.42188 4.14062 2.42188H6.67969V1.75781C6.67969 0.788555 7.46824 0 8.4375 0H11.5625C12.5318 0 13.3203 0.788555 13.3203 1.75781V2.42188ZM8.4375 1.17188C8.11441 1.17188 7.85156 1.43473 7.85156 1.75781V2.42188H12.1484V1.75781C12.1484 1.43473 11.8856 1.17188 11.5625 1.17188H8.4375Z" fill="#59CBFF"/>
<path fill-rule="evenodd" clip-rule="evenodd" d="M4.90492 19.4325C4.50723 19.0666 4.26352 18.5685 4.21863 18.03L3.25977 6.52344H16.7404L15.7815 18.03C15.7366 18.5686 15.4929 19.0667 15.0952 19.4326C14.6975 19.7985 14.1809 20 13.6405 20H6.35965C5.81926 20 5.30262 19.7985 4.90492 19.4325ZM13.1267 9.01867L12.5408 16.8312C12.5166 17.1539 12.7586 17.4351 13.0812 17.4593C13.4039 17.4835 13.6852 17.2415 13.7094 16.9188L14.2953 9.10633C14.3195 8.78363 14.0775 8.50242 13.7548 8.4782C13.4321 8.45398 13.1509 8.69598 13.1267 9.01867ZM10.0001 8.47656C9.67648 8.47656 9.41414 8.73891 9.41414 9.0625V16.875C9.41414 17.1986 9.67648 17.4609 10.0001 17.4609C10.3237 17.4609 10.586 17.1986 10.586 16.875V9.0625C10.586 8.73891 10.3237 8.47656 10.0001 8.47656ZM6.87344 9.01867C6.84922 8.69598 6.56801 8.45398 6.24531 8.4782C5.92262 8.50242 5.68066 8.78363 5.70484 9.10633L6.29078 16.9188C6.315 17.2415 6.59621 17.4835 6.91891 17.4593C7.2416 17.4351 7.48359 17.1539 7.45937 16.8312L6.87344 9.01867Z" fill="#59CBFF"/>
</svg>
