<svg width="20" height="20" viewBox="0 0 20 20" xmlns="http://www.w3.org/2000/svg">
<path d="M10.5859 16.2891C10.5859 16.6127 10.3236 16.875 10 16.875C9.67641 16.875 9.41406 16.6127 9.41406 16.2891V8.47656C9.41406 8.15297 9.67641 7.89062 10 7.89062C10.3236 7.89062 10.5859 8.15297 10.5859 8.47656V16.2891Z" />
<path d="M12.4953 16.8734C12.818 16.8976 13.0992 16.6556 13.1234 16.3329L13.7093 8.52042C13.7335 8.19772 13.4916 7.91651 13.1689 7.8923C12.8462 7.86808 12.565 8.11007 12.5407 8.43276L11.9548 16.2453C11.9306 16.568 12.1726 16.8492 12.4953 16.8734Z" />
<path d="M7.5048 16.8734C7.1821 16.8976 6.90089 16.6556 6.87667 16.3329L6.29073 8.52042C6.26651 8.19772 6.50851 7.91651 6.8312 7.8923C7.1539 7.86808 7.43511 8.11007 7.45933 8.43276L8.04526 16.2453C8.06948 16.568 7.82749 16.8492 7.5048 16.8734Z" />
<path fill-rule="evenodd" clip-rule="evenodd" d="M13.3203 2.42188H15.8594C16.8286 2.42188 17.6172 3.21043 17.6172 4.17969V5.35156C17.6172 5.67516 17.3548 5.9375 17.0312 5.9375H16.7891L15.7814 18.03C15.7366 18.5686 15.4928 19.0667 15.0951 19.4326C14.6975 19.7985 14.1808 20 13.6404 20H6.35957C5.81918 20 5.30254 19.7985 4.90484 19.4325C4.50715 19.0666 4.26344 18.5685 4.21855 18.03L3.21086 5.9375H2.96875C2.64516 5.9375 2.38281 5.67516 2.38281 5.35156V4.17969C2.38281 3.21043 3.17137 2.42188 4.14062 2.42188H6.67969V1.75781C6.67969 0.788555 7.46824 0 8.4375 0H11.5625C12.5318 0 13.3203 0.788555 13.3203 1.75781V2.42188ZM8.4375 1.17188C8.11441 1.17188 7.85156 1.43473 7.85156 1.75781V2.42188H12.1484V1.75781C12.1484 1.43473 11.8856 1.17188 11.5625 1.17188H8.4375ZM13.6404 18.8281C14.1443 18.8281 14.5718 18.4348 14.6136 17.9327L15.6132 5.9375H4.3868L5.38637 17.9327C5.42824 18.4348 5.8557 18.8281 6.35957 18.8281H13.6404ZM3.55469 4.76562H16.4453V4.17969C16.4453 3.8566 16.1825 3.59375 15.8594 3.59375H4.14062C3.81754 3.59375 3.55469 3.8566 3.55469 4.17969V4.76562Z" />
</svg>
