<svg width="20" height="20" viewBox="0 0 20 20" fill="none" xmlns="http://www.w3.org/2000/svg">
<path d="M18.1152 1.88482C15.602 -0.628301 11.5131 -0.628262 8.99997 1.88486C7.28337 3.60146 6.68712 6.13119 7.4304 8.42631L0.171725 15.685C0.0618427 15.7949 4.57764e-05 15.9437 4.57764e-05 16.0993V19.4141C4.57764e-05 19.7379 0.262116 20 0.585983 20H3.90075C4.05637 20 4.20516 19.9382 4.31501 19.8283L5.14356 18.9992C5.27001 18.8728 5.3318 18.6954 5.31122 18.5174L5.20821 17.6271L6.44188 17.5109C6.72227 17.4846 6.94372 17.2631 6.97005 16.9827L7.08622 15.749L7.97657 15.8526C8.14192 15.8749 8.30844 15.8194 8.43376 15.7084C8.55848 15.5969 8.63001 15.4378 8.63001 15.2707V14.1797H9.70118C9.8568 14.1797 10.0056 14.1179 10.1154 14.008L11.6181 12.5253C13.9126 13.2692 16.3986 12.7178 18.1152 11.0001C20.6283 8.48697 20.6283 4.39795 18.1152 1.88482ZM16.4575 6.02818C15.772 6.71369 14.6574 6.71369 13.9719 6.02818C13.2864 5.34268 13.2864 4.22803 13.9719 3.54252C14.6574 2.85701 15.772 2.85701 16.4575 3.54252C17.1431 4.22803 17.143 5.34268 16.4575 6.02818Z" fill="#009FE7"/>
</svg>
