<svg width="20" height="20" viewBox="0 0 20 20" fill="none" xmlns="http://www.w3.org/2000/svg">
<g clip-path="url(#clip0_1699_23555)">
<path d="M17.0711 2.92892C15.1823 1.04019 12.6712 0 10.0002 0C7.3291 0 4.81766 1.04019 2.92892 2.92892C1.04019 4.81766 0 7.32895 0 10C0 12.6711 1.04019 15.1823 2.92892 17.0711C4.81766 18.9598 7.32895 20 10 20C12.6711 20 15.1823 18.9598 17.0711 17.0711C18.9598 15.1823 20 12.6711 20 10C20 7.32895 18.9598 4.81766 17.0711 2.92892ZM17.7243 14.2702H14.7975C15.1897 13.1212 15.4259 11.8771 15.481 10.5859H18.8081C18.7207 11.9153 18.3377 13.165 17.7243 14.2702ZM10 18.7415C8.75275 17.9993 7.71835 16.8489 6.97433 15.442H13.0257C12.2816 16.8489 11.2473 17.9993 10 18.7415ZM6.4447 14.2702C6.01379 13.1396 5.75256 11.8913 5.69214 10.5859H14.3079C14.2474 11.8913 13.9861 13.1396 13.5551 14.2702H6.4447ZM1.19186 10.5859H4.51904C4.57413 11.8771 4.81033 13.1212 5.20248 14.2702H2.2757C1.66229 13.165 1.2793 11.9153 1.19186 10.5859ZM2.2757 5.72983H5.20248C4.81033 6.87881 4.57413 8.12286 4.51904 9.41406H1.19186C1.2793 8.08472 1.66229 6.83502 2.2757 5.72983ZM10 1.25854C11.2473 2.00073 12.2816 3.15109 13.0257 4.55795H6.97433C7.71835 3.15109 8.75275 2.00073 10 1.25854ZM13.5553 5.72983C13.9862 6.86035 14.2474 8.10867 14.3079 9.41406H5.69214C5.75256 8.10867 6.01395 6.86035 6.44485 5.72983H13.5553ZM18.8081 9.41406H15.481C15.4259 8.12286 15.1897 6.87881 14.7975 5.72983H17.7243C18.3377 6.83502 18.7207 8.08472 18.8081 9.41406ZM14.3283 4.55795C13.7714 3.35495 13.0304 2.29187 12.1408 1.43494C14.0717 1.91772 15.753 3.03757 16.9467 4.55795H14.3283ZM7.85919 1.43494C6.9696 2.29187 6.22864 3.35495 5.67169 4.55795H3.05328C4.24698 3.03757 5.92834 1.91772 7.85919 1.43494ZM5.67169 15.442C6.22864 16.6451 6.9696 17.7081 7.85919 18.5651C5.92834 18.0823 4.24698 16.9624 3.05328 15.442H5.67169ZM12.1408 18.5651C13.0304 17.7081 13.7714 16.6449 14.3283 15.442H16.9467C15.753 16.9624 14.0717 18.0823 12.1408 18.5651Z" fill="#828FA4"/>
</g>
<defs>
<clipPath id="clip0_1699_23555">
<rect width="20" height="20" fill="white"/>
</clipPath>
</defs>
</svg>
