<svg xmlns="http://www.w3.org/2000/svg" width="20" height="20" viewBox="0 0 20 20" >
    <path d="M17.6172 14.6875V4.6875H12.3438C12.0199 4.6875 11.7578 4.42543 11.7578 4.10156V0H6.48438C6.16051 0 5.89844 0.26207 5.89844 0.585938V3.51562H8.82812C9.20637 3.51562 9.58113 3.64094 9.88328 3.86809L14.5702 7.38312C15.0102 7.71219 15.2734 8.23805 15.2734 8.78906V15.2734H17.0312C17.3551 15.2734 17.6172 15.0114 17.6172 14.6875Z" />
    <path d="M14.1016 19.4141C14.1016 19.7379 13.8395 20 13.5156 20H2.96875C2.64488 20 2.38281 19.7379 2.38281 19.4141V5.27344C2.38281 4.94957 2.64488 4.6875 2.96875 4.6875H8.24219V8.78906C8.24219 9.11293 8.50426 9.375 8.82812 9.375H14.1016V19.4141Z" />
    <path d="M13.7105 8.20285H9.41406V4.98047L13.7105 8.20285Z" />
    <path d="M17.2262 3.51535H12.9297V0.292969L17.2262 3.51535Z" />
</svg>
