<svg width="20" height="20" viewBox="0 0 20 20" fill="none" xmlns="http://www.w3.org/2000/svg">
<path fill-rule="evenodd" clip-rule="evenodd" d="M18.9998 0.171592C19.2286 -0.0571973 19.5996 -0.0571973 19.8284 0.171592C20.0573 0.400381 20.0573 0.771397 19.8284 1.00019L1.00026 19.8283C0.885889 19.9427 0.735928 20 0.585967 20C0.436006 20 0.286084 19.9427 0.17167 19.8284C-0.0571582 19.5995 -0.0571582 19.2285 0.17167 18.9997L4.57116 14.6001C4.0314 14.2408 3.49339 13.8315 2.96124 13.3739C1.22472 11.8808 0.15499 10.4042 0.110303 10.3421C-0.0367676 10.1377 -0.0367676 9.86218 0.110303 9.6578C0.15499 9.59565 1.22476 8.11917 2.96124 6.62597C3.98839 5.74284 5.03729 5.03745 6.07878 4.52944C7.40503 3.88261 8.72437 3.55464 10 3.55464C11.2757 3.55464 12.595 3.88261 13.9213 4.52948C14.0795 4.60663 14.2379 4.68878 14.3964 4.77503L18.9998 0.171592ZM10 5.89839C7.73843 5.89839 5.89847 7.73835 5.89847 9.99995C5.89847 10.9199 6.20292 11.7701 6.71636 12.455L7.55698 11.6144C7.24979 11.1511 7.07034 10.5962 7.07034 9.99995C7.07034 8.38452 8.3846 7.07026 10 7.07026C10.5963 7.07026 11.1512 7.24972 11.6145 7.5569L12.4551 6.71628C11.7701 6.20284 10.92 5.89839 10 5.89839Z" fill="#828FA4"/>
<path d="M17.0388 6.62597C16.8237 6.44101 16.6076 6.26433 16.3908 6.09511L13.8634 8.62249C14.0174 9.05323 14.1016 9.51694 14.1016 9.99995C14.1016 12.2616 12.2616 14.1015 10 14.1015C9.51702 14.1015 9.05331 14.0173 8.62257 13.8633L6.72577 15.7601C7.83343 16.2145 8.93206 16.4453 10 16.4453C11.2757 16.4453 12.595 16.1173 13.9213 15.4705C14.9628 14.9625 16.0117 14.2571 17.0388 13.3739C18.7753 11.8807 19.8451 10.4042 19.8898 10.3421C20.0368 10.1377 20.0368 9.86222 19.8898 9.6578C19.8451 9.59565 18.7753 8.11917 17.0388 6.62597Z" fill="#828FA4"/>
<path d="M10 12.9296C11.6155 12.9296 12.9297 11.6154 12.9297 9.99995C12.9297 9.8594 12.9192 9.72128 12.8999 9.58597L9.58604 12.8998C9.7214 12.9191 9.85948 12.9296 10 12.9296Z" fill="#828FA4"/>
</svg>
