<svg width="20" height="20" viewBox="0 0 20 20" fill="none" xmlns="http://www.w3.org/2000/svg">
<path d="M15.7916 14.7861L13.4849 12.4798C14.184 11.5648 14.5674 10.455 14.5675 9.28383C14.5675 7.87251 14.0178 6.54556 13.0194 5.54761C12.0213 4.54967 10.6942 4 9.28242 4C7.8708 4 6.54358 4.54967 5.54542 5.54761C3.48486 7.60792 3.48486 10.9601 5.54542 13.0201C6.54358 14.0182 7.8708 14.5678 9.28242 14.5678C10.4538 14.5677 11.5639 14.1843 12.4791 13.4854L14.7858 15.7917C14.9246 15.9306 15.1067 16 15.2887 16C15.4707 16 15.6529 15.9306 15.7916 15.7917C16.0695 15.514 16.0695 15.0637 15.7916 14.7861ZM6.55122 12.0145C5.0453 10.5089 5.04548 8.05897 6.55122 6.5532C7.28073 5.82401 8.25075 5.42226 9.28242 5.42226C10.3143 5.42226 11.2841 5.82401 12.0136 6.5532C12.7431 7.28256 13.145 8.25238 13.145 9.28383C13.145 10.3155 12.7431 11.2851 12.0136 12.0145C11.2841 12.7438 10.3143 13.1456 9.28242 13.1456C8.25075 13.1456 7.28073 12.7438 6.55122 12.0145Z" fill="#828FA4"/>
</svg>
