<svg width="20" height="20" viewBox="0 0 20 20" fill="none" xmlns="http://www.w3.org/2000/svg">
<path d="M10 12.9264C11.6162 12.9264 12.9264 11.6162 12.9264 10C12.9264 8.3838 11.6162 7.07361 10 7.07361C8.3838 7.07361 7.07361 8.3838 7.07361 10C7.07361 11.6162 8.3838 12.9264 10 12.9264Z" fill="#828FA4"/>
<path fill-rule="evenodd" clip-rule="evenodd" d="M5.60144 4.77508C5.75987 4.68883 5.91827 4.60668 6.07651 4.52953C7.40276 3.88266 8.7221 3.55469 9.99776 3.55469H9.99999C11.2757 3.55469 12.595 3.88266 13.9212 4.52953C14.0795 4.60668 14.2379 4.68883 14.3963 4.77508C15.1462 5.18438 15.9099 5.7016 16.6519 6.30446C16.7804 6.40882 16.9087 6.51599 17.0366 6.62594C18.7731 8.11911 19.8428 9.59563 19.8875 9.65778C19.9243 9.7089 19.9518 9.76446 19.9702 9.82225C20.0097 9.94635 20.0068 10.0807 19.9614 10.2033C19.9434 10.2519 19.9188 10.2986 19.8875 10.3421C19.8428 10.4043 18.7731 11.8808 17.0366 13.374C16.9082 13.4844 16.7794 13.592 16.6504 13.6967C15.9089 14.299 15.1581 14.8083 14.4087 15.2174L14.3963 15.2249C14.2379 15.3111 14.0795 15.3933 13.9212 15.4704C12.595 16.1173 11.2757 16.4452 9.99999 16.4452H9.99776C8.7221 16.4452 7.40276 16.1173 6.07651 15.4704C5.91827 15.3933 5.75987 15.3111 5.60144 15.2249C4.85196 14.8158 4.08866 14.2989 3.34706 13.6965C3.21814 13.5918 3.0895 13.4843 2.96121 13.374C1.22468 11.8808 0.154956 10.4043 0.110268 10.3421C0.0367652 10.24 -2.39106e-06 10.1201 -3.42998e-05 10.0001C-7.4211e-05 9.8801 0.0366937 9.76004 0.110269 9.65778C0.154956 9.59563 1.22468 8.11911 2.96121 6.62594C3.0893 6.51581 3.21772 6.40848 3.34644 6.30395C4.08824 5.70132 4.83941 5.19175 5.5891 4.78256L5.60144 4.77508ZM14.0934 10C14.0934 12.2706 12.2527 14.1113 9.98205 14.1113C7.71143 14.1113 5.87074 12.2706 5.87074 10C5.87074 7.72939 7.71143 5.88869 9.98205 5.88869C12.2527 5.88869 14.0934 7.72939 14.0934 10Z" fill="#828FA4"/>
</svg>
