<svg width="20" height="20" viewBox="0 0 20 20" fill="none" xmlns="http://www.w3.org/2000/svg">
<g clip-path="url(#clip0_1699_23560)">
<path d="M13.593 4.61953L11.6466 1.24827C11.3039 0.654552 10.6899 0.300049 10.0043 0.300049C9.31873 0.300049 8.70473 0.654513 8.36195 1.24827L5.42575 6.33395L4.57028 5.84005C4.11814 5.579 3.57608 5.99492 3.71121 6.49925L4.61126 9.85824C4.69502 10.1709 5.01636 10.3564 5.32898 10.2726L8.68797 9.37259C9.19226 9.23745 9.28146 8.56009 8.82932 8.29903L7.97389 7.80514L10.0042 4.28835L11.0448 6.09071C11.2067 6.37099 11.5651 6.46706 11.8453 6.3052L13.3785 5.42003C13.6588 5.25821 13.7548 4.89984 13.593 4.61953Z" fill="#59CBFF"/>
<path d="M8.76462 13.782C8.39547 13.4128 7.76421 13.6743 7.76421 14.1964V15.1842H3.7034L4.74397 13.3819C4.90579 13.1016 4.80977 12.7432 4.52949 12.5813L2.99638 11.6962C2.71611 11.5344 2.3577 11.6304 2.19588 11.9107L0.264862 15.2553C-0.078429 15.8499 -0.0931967 16.5866 0.250915 17.1807C0.593971 17.773 1.20718 18.1265 1.89185 18.1265L7.76425 18.1265V19.1143C7.76425 19.6364 8.39547 19.8979 8.76466 19.5287L11.2236 17.0697C11.4525 16.8409 11.4525 16.4698 11.2236 16.241L8.76462 13.782Z" fill="#59CBFF"/>
<path d="M16.8068 10.1963L19.7429 15.282C20.0857 15.8757 20.0857 16.5846 19.743 17.1784C19.4002 17.7722 18.7862 18.1266 18.1006 18.1266H14.2078C13.8841 18.1266 13.6217 17.8643 13.6217 17.5406V15.7703C13.6217 15.4467 13.8841 15.1843 14.2078 15.1843H16.2891L14.2586 11.6675L13.4032 12.1614C12.9511 12.4224 12.409 12.0065 12.5441 11.5022L13.4441 8.14327C13.5279 7.83065 13.8492 7.64511 14.1619 7.72888L17.5209 8.62889C18.0251 8.76398 18.1143 9.44139 17.6622 9.70244L16.8068 10.1963Z" fill="#59CBFF"/>
</g>
<defs>
<clipPath id="clip0_1699_23560">
<rect width="20" height="20" fill="white"/>
</clipPath>
</defs>
</svg>
