<svg width="20" height="20" viewBox="0 0 20 20" fill="none" xmlns="http://www.w3.org/2000/svg">
<path d="M15.9904 1.46346L18.5365 4.00955C18.8352 4.30827 19 4.70582 19 5.12812V17.418C19 18.2903 18.2903 19 17.418 19H15.8359V11.0195C15.8359 10.1472 15.1263 9.4375 14.2539 9.4375H5.74609C4.87373 9.4375 4.16406 10.1472 4.16406 11.0195V19H2.58203C1.70966 19 1 18.2903 1 17.418V2.58203C1 1.70966 1.70966 1 2.58203 1H5.21875V5.74609C5.21875 6.61846 5.92841 7.32812 6.80078 7.32812H13.1992C14.0716 7.32812 14.7812 6.61846 14.7812 5.74609V1H14.8719C15.288 1 15.6959 1.16893 15.9904 1.46346Z" fill="#59CBFF"/>
<path d="M12.6719 4.69141V1H13.7266V5.74609C13.7266 6.03705 13.4897 6.27344 13.1992 6.27344H6.80078C6.51032 6.27344 6.27344 6.03705 6.27344 5.74609V1H11.6172V4.69141C11.6172 4.98289 11.8531 5.21875 12.1445 5.21875C12.436 5.21875 12.6719 4.98289 12.6719 4.69141Z" fill="#59CBFF"/>
<path d="M5.74609 10.4922H14.2539C14.5444 10.4922 14.7812 10.7286 14.7812 11.0195V11.5469H5.21875V11.0195C5.21875 10.7286 5.45563 10.4922 5.74609 10.4922Z" fill="#59CBFF"/>
<path d="M14.7812 12.6016H5.21875V19H14.7812V12.6016Z" fill="#59CBFF"/>
</svg>
