<svg width="24" height="24" viewBox="0 0 24 24"  xmlns="http://www.w3.org/2000/svg">
<g clip-path="url(#clip0_269_11457)">
<path d="M18.9192 15.0881C19.321 15.2427 19.4756 15.8446 19.5063 16.1072C19.5682 16.5862 19.4295 16.7715 19.2749 16.7715C19.1204 16.7715 18.9039 16.5862 18.6725 16.2157C18.4407 15.8446 18.348 15.428 18.4719 15.2115C18.5487 15.0723 18.7181 15.0109 18.9192 15.0881ZM16.572 16.8334C16.8192 16.8334 17.0972 16.9414 17.3444 17.1574C17.8229 17.5592 17.9621 18.0224 17.7149 18.3622C17.5757 18.5321 17.3444 18.6401 17.0818 18.6401C16.8192 18.6401 16.5413 18.5475 16.356 18.3776C15.9236 18.007 15.8002 17.3888 16.0776 17.0494C16.1861 16.9102 16.356 16.8334 16.572 16.8334ZM11.1672 21.2965C5.29831 21.2965 0.541992 16.5397 0.541992 10.6712C0.541992 4.80271 5.29879 0.0463867 11.1668 0.0463867C17.0353 0.0463867 21.7921 4.80319 21.7921 10.6712C21.7921 12.6632 21.2362 14.5323 20.2944 16.123C20.2632 16.1691 20.186 16.1537 20.1706 16.0918C19.8 13.4821 18.2093 12.0454 15.8928 11.6134C15.6917 11.5822 15.661 11.4589 15.9236 11.4281C16.634 11.3662 17.6376 11.3816 18.1628 11.4742C18.1935 11.2117 18.2093 10.9337 18.2093 10.6558C18.2093 6.77935 15.0586 3.62863 11.1821 3.62863C7.30615 3.62863 4.15543 6.77935 4.15543 10.6558C4.15543 14.5323 7.30615 17.683 11.1826 17.683H11.5066C11.3965 17.056 11.3499 16.4195 11.3674 15.7832C11.3833 15.3507 11.4759 15.2888 11.6612 15.6286C12.6341 17.312 14.0242 18.8254 16.742 19.4278C18.9658 19.9222 21.1896 20.4934 23.5834 23.5357C23.7994 23.7982 23.4754 24.0761 23.2282 23.8601C20.7884 21.6977 18.5645 20.9873 16.5413 20.9873C14.2709 21.0032 12.7272 21.2965 11.1672 21.2965Z" />
</g>
<defs>
<clipPath id="clip0_269_11457">
<rect width="24" height="24" fill="white"/>
</clipPath>
</defs>
</svg>
