<svg width="24" height="24" viewBox="0 0 24 24"  xmlns="http://www.w3.org/2000/svg">
<g clip-path="url(#clip0_269_11589)">
<path d="M23.0811 7.22983C21.9561 6.19108 20.3998 4.60483 19.1323 3.47983L19.0573 3.42733C18.9325 3.32712 18.7918 3.24853 18.6411 3.19483C15.5848 2.62483 1.36105 -0.0339198 1.08355 -0.000169807C1.0058 0.0107202 0.931473 0.0389122 0.866055 0.0823302L0.794805 0.13858C0.707071 0.22768 0.640436 0.335322 0.599805 0.45358L0.581055 0.50233V0.76858V0.80983C2.1823 5.26858 8.50481 19.8748 9.74981 23.3023C9.82481 23.5348 9.96731 23.9773 10.2336 23.9998H10.2936C10.4361 23.9998 11.0436 23.1973 11.0436 23.1973C11.0436 23.1973 21.9036 10.0273 23.0023 8.62483C23.1445 8.45207 23.2701 8.26624 23.3773 8.06983C23.4047 7.91615 23.3918 7.75801 23.3398 7.6108C23.2879 7.46359 23.1988 7.33234 23.0811 7.22983ZM13.8298 8.76358L18.4648 4.91983L21.1836 7.42483L13.8298 8.76358ZM12.0298 8.51233L4.0498 1.97233L16.9611 4.35358L12.0298 8.51233ZM12.7498 10.2261L20.9173 8.90983L11.5798 20.1598L12.7498 10.2261ZM2.96605 2.62483L11.3623 9.74983L10.1473 20.1673L2.96605 2.62483Z"/>
</g>
<defs>
<clipPath id="clip0_269_11589">
<rect width="24" height="24" fill="white"/>
</clipPath>
</defs>
</svg>
