<svg width="16" height="16" viewBox="0 0 16 16" fill="none" xmlns="http://www.w3.org/2000/svg">
<path d="M0 11.9663V4.00004C0 2.35015 1.33808 1.0127 2.98734 1.0127H5.22785C5.64175 1.0127 5.97468 1.3469 5.97468 1.75953C5.97468 2.17185 5.64175 2.50637 5.22785 2.50637H2.98734C2.16581 2.50637 1.49367 3.17852 1.49367 4.00004V11.9663C1.49367 12.7878 2.16581 13.46 2.98734 13.46H5.22785C5.64016 13.46 5.97468 13.7942 5.97468 14.2068C5.97468 14.6207 5.64175 14.9536 5.22785 14.9536H2.98734C1.33749 14.9536 0 13.6162 0 11.9663Z" fill="white"/>
<path fill-rule="evenodd" clip-rule="evenodd" d="M10.9929 12.7007L15.7353 8.54017C15.8971 8.40014 15.9873 8.19787 15.9873 7.98316C15.9873 7.76845 15.8971 7.56618 15.7353 7.42303L10.9929 3.26565C10.6879 2.99461 10.246 2.92832 9.86986 3.09698C9.5031 3.26223 9.26582 3.62507 9.26582 4.02183V5.74265H5.53165C4.8452 5.74265 4.28692 6.30092 4.28692 6.98738V8.97894C4.28692 9.66665 4.8452 10.2237 5.53165 10.2237H9.26582V11.9445C9.26582 12.3428 9.50231 12.7038 9.87137 12.8697C10.0094 12.9319 10.1562 12.9621 10.3021 12.9621C10.551 12.9621 10.8 12.8718 10.9929 12.7007Z" fill="white"/>
</svg>
