<svg width="22" height="22" viewBox="0 0 22 22" fill="none" xmlns="http://www.w3.org/2000/svg">
<path d="M6.53866 5.26399C6.18667 4.912 5.61598 4.912 5.26399 5.26399C4.91201 5.61598 4.912 6.18667 5.26399 6.53866L9.72534 11L5.26399 15.4613C4.912 15.8133 4.912 16.384 5.26399 16.736C5.61598 17.088 6.18667 17.088 6.53866 16.736L11 12.2747L15.4613 16.736C15.8133 17.088 16.384 17.088 16.736 16.736C17.088 16.384 17.088 15.8133 16.736 15.4613L12.2747 11L16.736 6.53868C17.088 6.18669 17.088 5.616 16.736 5.26401C16.384 4.91203 15.8133 4.91203 15.4613 5.26401L11 9.72533L6.53866 5.26399Z" fill="#009FE7"/>
</svg>
