<svg xmlns="http://www.w3.org/2000/svg" width="12" height="12" viewBox="0 0 12 12">
    <path d="M11.6484 1.40625H9.85505C9.69171 0.604898 8.98163 0 8.13281 0C7.284 0 6.57391 0.604898 6.41058 1.40625H0.351562C0.157242 1.40625 0 1.56349 0 1.75781C0 1.95213 0.157242 2.10938 0.351562 2.10938H6.41058C6.57391 2.91073 7.284 3.51563 8.13281 3.51563C8.98163 3.51563 9.69171 2.91073 9.85505 2.10938H11.6484C11.8428 2.10938 12 1.95213 12 1.75781C12 1.56349 11.8428 1.40625 11.6484 1.40625Z"/>
    <path d="M11.6484 5.64844H5.61286C5.44952 4.84709 4.73944 4.24219 3.89063 4.24219C3.04181 4.24219 2.33173 4.84709 2.16839 5.64844H0.351562C0.157242 5.64844 0 5.80568 0 6C0 6.19432 0.157242 6.35156 0.351562 6.35156H2.16839C2.33173 7.15291 3.04181 7.75781 3.89063 7.75781C4.73944 7.75781 5.44952 7.15291 5.61286 6.35156H11.6484C11.8428 6.35156 12 6.19432 12 6C12 5.80568 11.8428 5.64844 11.6484 5.64844Z"/>
    <path d="M9.85505 9.89062H11.6484C11.8428 9.89062 12 10.0479 12 10.2422C12 10.4365 11.8428 10.5938 11.6484 10.5938H9.85505C9.69171 11.3951 8.98163 12 8.13281 12C7.284 12 6.57391 11.3951 6.41058 10.5938H0.351562C0.157242 10.5938 0 10.4365 0 10.2422C0 10.0479 0.157242 9.89062 0.351562 9.89062H6.41058C6.57391 9.08927 7.284 8.48438 8.13281 8.48438C8.98163 8.48438 9.69171 9.08927 9.85505 9.89062Z"/>
</svg>
