<svg xmlns="http://www.w3.org/2000/svg" width="12" height="12" viewBox="0 0 12 12">
    <path fill-rule="evenodd" clip-rule="evenodd" d="M7.99219 1.45312H9.51562C10.0981 1.45312 10.5703 1.92532 10.5703 2.50781V2.85938C10.5703 3.05353 10.4129 3.21094 10.2188 3.21094H1.78125C1.58709 3.21094 1.42969 3.05353 1.42969 2.85938V2.50781C1.42969 1.92532 1.90188 1.45312 2.48438 1.45312H4.00781V1.05469C4.00781 0.473133 4.48095 0 5.0625 0H6.9375C7.51905 0 7.99219 0.473133 7.99219 1.05469V1.45312ZM5.0625 0.703125C4.86865 0.703125 4.71094 0.860836 4.71094 1.05469V1.45312H7.28906V1.05469C7.28906 0.860836 7.13135 0.703125 6.9375 0.703125H5.0625Z"/>
    <path fill-rule="evenodd" clip-rule="evenodd" d="M2.94295 11.6595C2.70434 11.44 2.55811 11.1411 2.53118 10.818L1.95586 3.91406H10.0442L9.46889 10.818C9.44199 11.1411 9.29571 11.44 9.05712 11.6595C8.81852 11.8791 8.50854 12 8.18428 12H3.81579C3.49155 12 3.18157 11.8791 2.94295 11.6595ZM7.87603 5.4112L7.52447 10.0987C7.50994 10.2923 7.65513 10.461 7.84875 10.4756C8.04237 10.4901 8.21109 10.3449 8.22563 10.1513L8.57719 5.4638C8.59172 5.27018 8.44652 5.10145 8.25291 5.08692C8.05929 5.07239 7.89056 5.21759 7.87603 5.4112ZM6.00005 5.08594C5.80589 5.08594 5.64848 5.24334 5.64848 5.4375V10.125C5.64848 10.3192 5.80589 10.4766 6.00005 10.4766C6.1942 10.4766 6.35161 10.3192 6.35161 10.125V5.4375C6.35161 5.24334 6.1942 5.08594 6.00005 5.08594ZM4.12406 5.4112C4.10953 5.21759 3.94081 5.07239 3.74719 5.08692C3.55357 5.10145 3.4084 5.27018 3.42291 5.4638L3.77447 10.1513C3.789 10.3449 3.95773 10.4901 4.15134 10.4756C4.34496 10.461 4.49016 10.2923 4.47563 10.0987L4.12406 5.4112Z"/>
</svg>
