<svg xmlns="http://www.w3.org/2000/svg" width="18" height="18" viewBox="0 0 18 18" fill="none">
    <path d="M7.65653 8.58681C8.78633 8.58681 9.82537 8.1924 10.6424 7.53498C11.3877 7.96424 12.0319 8.54895 12.5299 9.24426C9.78764 9.25913 7.56918 11.4868 7.56918 14.2326C7.56918 14.6039 7.60975 14.9658 7.68671 15.314H2.1379C1.88156 15.314 1.67383 15.107 1.67383 14.8518V12.6958C1.67383 10.493 2.88071 8.56573 4.67052 7.53488C5.48768 8.1924 6.52673 8.58681 7.65653 8.58681Z" fill="url(#paint0_linear_1947_19674)"/>
    <path d="M11.4762 3.81977C11.4762 1.71357 9.76268 0 7.65639 0C5.55019 0 3.83662 1.71357 3.83662 3.81977C3.83662 5.92596 5.55019 7.63953 7.65639 7.63953C9.76268 7.63953 11.4762 5.92596 11.4762 3.81977Z" fill="url(#paint1_linear_1947_19674)"/>
    <path d="M12.5576 10.4651C10.4769 10.4651 8.79011 12.1518 8.79011 14.2325C8.79011 16.3132 10.4769 18 12.5576 18C14.6382 18 16.325 16.3132 16.325 14.2325C16.325 12.1518 14.6382 10.4651 12.5576 10.4651ZM14.7189 13.5683L12.3215 15.9658C12.1208 16.1664 11.7956 16.1664 11.5949 15.9658L10.3962 14.7671C10.1956 14.5664 10.1956 14.2412 10.3962 14.0405C10.5968 13.8399 10.9221 13.8399 11.1227 14.0405L11.9582 14.876L13.9924 12.8418C14.193 12.6412 14.5183 12.6412 14.7189 12.8418C14.9195 13.0424 14.9196 13.3677 14.7189 13.5683Z" fill="url(#paint2_linear_1947_19674)"/>
    <defs>
        <linearGradient id="paint0_linear_1947_19674" x1="1.67383" y1="8.99998" x2="16.325" y2="8.99998" gradientUnits="userSpaceOnUse">
            <stop stop-color="#59CBFF"/>
            <stop offset="1" stop-color="#009FE7"/>
        </linearGradient>
        <linearGradient id="paint1_linear_1947_19674" x1="1.67383" y1="8.99998" x2="16.325" y2="8.99998" gradientUnits="userSpaceOnUse">
            <stop stop-color="#59CBFF"/>
            <stop offset="1" stop-color="#009FE7"/>
        </linearGradient>
        <linearGradient id="paint2_linear_1947_19674" x1="1.67383" y1="8.99998" x2="16.325" y2="8.99998" gradientUnits="userSpaceOnUse">
            <stop stop-color="#59CBFF"/>
            <stop offset="1" stop-color="#009FE7"/>
        </linearGradient>
    </defs>
</svg>
