<svg xmlns="http://www.w3.org/2000/svg" width="18" height="18" viewBox="0 0 18 18" fill="none">
    <g clip-path="url(#clip0_1947_19679)">
        <path d="M13.9943 12.7768C14.9821 11.789 16.5894 11.789 17.5772 12.7768C17.7833 12.9829 17.7833 13.3171 17.5771 13.5232L13.7849 17.3153C13.3434 17.7568 12.7565 17.9999 12.1322 17.9999L3.05226 17.9974V12.8153C3.05326 12.8154 3.05426 12.8154 3.05526 12.8154C3.05654 12.8155 3.05781 12.8156 3.05907 12.8157C3.11796 12.1227 3.60356 11.5225 4.27911 11.3275C4.91004 11.1453 5.55737 11.0746 6.20323 11.1176C6.9416 11.1667 7.57307 11.465 8.18377 11.7535C8.76607 12.0286 9.31622 12.2884 9.88892 12.2884H11.6414C11.9329 12.2884 12.1692 12.525 12.1691 12.8166C12.1691 12.9693 12.1559 13.1188 12.1305 13.2643C12.02 13.8977 11.4622 14.3556 10.8192 14.3556H7.62094C7.32099 14.3556 7.0795 14.6058 7.09377 14.9088C7.10715 15.1927 7.3517 15.4111 7.63587 15.4111H10.7824C11.1522 15.4111 11.5069 15.2642 11.7685 15.0026L13.9943 12.7768Z" fill="url(#paint0_linear_1947_19679)"/>
        <path d="M0.796561 12.8136H1.99826L1.99829 17.9992H0.796561C0.5055 17.9992 0.269531 17.7633 0.269531 17.4722V13.3406C0.269531 13.0496 0.5055 12.8136 0.796561 12.8136Z" fill="url(#paint1_linear_1947_19679)"/>
        <path d="M10.715 5.16461C10.9406 5.16461 11.1347 5.141 11.2974 5.09378C11.46 5.04131 11.586 4.95998 11.6752 4.8498C11.7644 4.73961 11.809 4.60057 11.809 4.43267C11.809 4.19132 11.7329 4.01292 11.5807 3.89749C11.4286 3.77681 11.1898 3.71647 10.8645 3.71647H10.3215V5.16461H10.715Z" fill="url(#paint2_linear_1947_19679)"/>
        <path fill-rule="evenodd" clip-rule="evenodd" d="M10.4359 11.0325C13.4824 11.0325 15.9521 8.56278 15.9521 5.51624C15.9521 2.46971 13.4824 0 10.4359 0C7.38933 0 4.91962 2.46971 4.91962 5.51624C4.91962 8.56278 7.38933 11.0325 10.4359 11.0325ZM9.16818 8.04374C9.16818 8.21838 9.30976 8.35996 9.4844 8.35996H10.0052C10.1799 8.35996 10.3215 8.21838 10.3215 8.04374V7.51783H11.2173C11.3919 7.51783 11.5335 7.37626 11.5335 7.20162V7.07063C11.5335 6.89599 11.3919 6.75441 11.2173 6.75441H10.3215V6.14053H10.833C11.3787 6.14053 11.809 6.0592 12.1238 5.89655C12.4438 5.7339 12.6721 5.51877 12.8085 5.25118C12.9449 4.98359 13.0131 4.69764 13.0131 4.39332C13.0131 3.87913 12.8452 3.47512 12.5094 3.18129C12.1789 2.88747 11.6515 2.74055 10.9275 2.74055H9.4844C9.30976 2.74055 9.16818 2.88213 9.16818 3.05677V5.16461H8.85478C8.68013 5.16461 8.53856 5.30619 8.53856 5.48083V5.82431C8.53856 5.99895 8.68013 6.14053 8.85478 6.14053H9.16818V6.75441H8.85478C8.68013 6.75441 8.53856 6.89599 8.53856 7.07063V7.20162C8.53856 7.37626 8.68013 7.51783 8.85478 7.51783H9.16818V8.04374Z" fill="url(#paint3_linear_1947_19679)"/>
    </g>
    <defs>
        <linearGradient id="paint0_linear_1947_19679" x1="0.269531" y1="8.99997" x2="17.7318" y2="8.99997" gradientUnits="userSpaceOnUse">
            <stop stop-color="#59CBFF"/>
            <stop offset="1" stop-color="#009FE7"/>
        </linearGradient>
        <linearGradient id="paint1_linear_1947_19679" x1="0.269531" y1="8.99997" x2="17.7318" y2="8.99997" gradientUnits="userSpaceOnUse">
            <stop stop-color="#59CBFF"/>
            <stop offset="1" stop-color="#009FE7"/>
        </linearGradient>
        <linearGradient id="paint2_linear_1947_19679" x1="0.269531" y1="8.99997" x2="17.7318" y2="8.99997" gradientUnits="userSpaceOnUse">
            <stop stop-color="#59CBFF"/>
            <stop offset="1" stop-color="#009FE7"/>
        </linearGradient>
        <linearGradient id="paint3_linear_1947_19679" x1="0.269531" y1="8.99997" x2="17.7318" y2="8.99997" gradientUnits="userSpaceOnUse">
            <stop stop-color="#59CBFF"/>
            <stop offset="1" stop-color="#009FE7"/>
        </linearGradient>
        <clipPath id="clip0_1947_19679">
            <rect width="18" height="18" fill="white"/>
        </clipPath>
    </defs>
</svg>
