<svg width="279" height="193" viewBox="0 0 279 193" fill="none" xmlns="http://www.w3.org/2000/svg">
<g clip-path="url(#clip0_1947_20245)">
<path fill-rule="evenodd" clip-rule="evenodd" d="M166.977 -102.505C131.996 -107.701 91.6389 -127.652 63.7537 -102.789C35.8145 -77.8768 48.7681 -26.223 37.9774 12.5174C27.2517 51.0244 -5.82656 83.2028 0.892405 122.894C7.73774 163.333 40.6079 191.338 71.701 211.736C100.458 230.602 133.886 232.67 166.977 231.854C199.37 231.055 230.152 223.321 259.332 207.107C294.331 187.661 336.001 170.877 351 129.604C366.241 87.6633 354.568 37.5221 335.407 -2.23152C318.146 -38.0447 297.007 -68.6078 265.406 -87.4215C238.436 -103.478 197.091 -98.0312 166.977 -102.505Z" fill="#59CBFF"/>
</g>
<defs>
<clipPath id="clip0_1947_20245">
<rect width="279" height="193" rx="16" fill="white"/>
</clipPath>
</defs>
</svg>
