<svg width="24" height="24" viewBox="0 0 24 24" xmlns="http://www.w3.org/2000/svg">
<path d="M15.4777 3.35986C10.732 3.35986 6.95703 7.18879 6.95703 11.8806C6.95703 16.6263 10.786 20.4013 15.4777 20.4013C20.1695 20.4013 23.9984 16.5724 23.9984 11.8806C23.9984 7.18879 20.1695 3.35986 15.4777 3.35986ZM15.4777 15.0624C13.752 15.0624 12.296 13.6063 12.296 11.8806C12.296 10.1549 13.752 8.69878 15.4777 8.69878C17.2034 8.69878 18.6595 10.1549 18.6595 11.8806C18.6057 13.6063 17.2034 15.0624 15.4777 15.0624Z"/>
<path d="M6.90285 5.84033V18.2439H3.88286L0 5.84033H6.90285Z"/>
</svg>
