<svg width="24" height="24" viewBox="0 0 24 24" xmlns="http://www.w3.org/2000/svg">
<path d="M0.87868 3.87868C1.44129 3.31607 2.20435 3 3 3H21C21.7956 3 22.5587 3.31607 23.1213 3.87868C23.6839 4.44129 24 5.20435 24 6V7.5H0V6C0 5.20435 0.31607 4.44129 0.87868 3.87868Z" />
<path fill-rule="evenodd" clip-rule="evenodd" d="M0 10.5H24V18C24 18.7956 23.6839 19.5587 23.1213 20.1213C22.5587 20.6839 21.7956 21 21 21H3C2.20435 21 1.44129 20.6839 0.87868 20.1213C0.31607 19.5587 0 18.7956 0 18V10.5ZM3.43934 15.4393C3.15804 15.7206 3 16.1022 3 16.5C3 16.8978 3.15804 17.2794 3.43934 17.5607C3.72064 17.842 4.10218 18 4.5 18H6C6.39782 18 6.77936 17.842 7.06066 17.5607C7.34196 17.2794 7.5 16.8978 7.5 16.5C7.5 16.1022 7.34196 15.7206 7.06066 15.4393C6.77936 15.158 6.39782 15 6 15H4.5C4.10218 15 3.72064 15.158 3.43934 15.4393ZM9.43934 15.4393C9.72064 15.158 10.1022 15 10.5 15H12C12.3978 15 12.7794 15.158 13.0607 15.4393C13.342 15.7206 13.5 16.1022 13.5 16.5C13.5 16.8978 13.342 17.2794 13.0607 17.5607C12.7794 17.842 12.3978 18 12 18H10.5C10.1022 18 9.72064 17.842 9.43934 17.5607C9.15804 17.2794 9 16.8978 9 16.5C9 16.1022 9.15804 15.7206 9.43934 15.4393Z" />
</svg>
