<svg width="14" height="14" viewBox="0 0 14 14"  xmlns="http://www.w3.org/2000/svg">
    <g clip-path="url(#clip0_1947_16066)">
        <path d="M7 0C3.13078 0 0 3.13105 0 7C0 10.8692 3.13105 14 7 14C10.8692 14 14 10.8689 14 7C14 3.13078 10.8689 0 7 0ZM7 12.9062C3.73535 12.9062 1.09375 10.2644 1.09375 7C1.09375 3.73535 3.73557 1.09375 7 1.09375C10.2647 1.09375 12.9062 3.73557 12.9062 7C12.9062 10.2647 10.2644 12.9062 7 12.9062Z" />
        <path d="M7 5.85938C6.69796 5.85938 6.45312 6.10421 6.45312 6.40625V9.92793C6.45312 10.23 6.69796 10.4748 7 10.4748C7.30204 10.4748 7.54688 10.2299 7.54688 9.92791V6.40625C7.54688 6.10421 7.30204 5.85938 7 5.85938Z"/>
        <path d="M7 5.19141C7.40774 5.19141 7.73828 4.86087 7.73828 4.45312C7.73828 4.04538 7.40774 3.71484 7 3.71484C6.59226 3.71484 6.26172 4.04538 6.26172 4.45312C6.26172 4.86087 6.59226 5.19141 7 5.19141Z" />
    </g>
    <defs>
        <clipPath id="clip0_1947_16066">
            <rect width="14" height="14" fill="white"/>
        </clipPath>
    </defs>
</svg>
