<svg width="70" height="71" viewBox="0 0 70 71" fill="none" xmlns="http://www.w3.org/2000/svg">
<path fill-rule="evenodd" clip-rule="evenodd" d="M45.952 27.473C48.6247 27.473 49.9632 24.2416 48.0733 22.3517L26.6003 0.878681C25.4288 -0.292892 23.5293 -0.292895 22.3577 0.878678L0.884693 22.3517C-1.0052 24.2416 0.333303 27.473 3.00602 27.473H11.006C12.6629 27.473 14.006 28.8162 14.006 30.473V67.0028C14.006 68.6596 15.3491 70.0028 17.006 70.0028H35.5427L46.9008 70.0028C48.5576 70.0028 49.9008 68.6596 49.9008 67.0028V55.7734C49.9008 54.1165 48.5576 52.7734 46.9008 52.7734H38.5427C36.8859 52.7734 35.5427 51.4302 35.5427 49.7734V30.473C35.5427 28.8162 36.8859 27.473 38.5427 27.473H45.952Z" fill="#E0F5FF"/>
</svg>
