<svg width="24" height="24" viewBox="0 0 24 24" fill="none" xmlns="http://www.w3.org/2000/svg">
<g clip-path="url(#clip0_269_11659)">
<path fill-rule="evenodd" clip-rule="evenodd" d="M0 0H24V24H0V0ZM5.53725 5.50892L7.30113 1.8457H9.22869V7.38286H7.87685V3.42049L6.15249 6.76762H4.92201L3.19765 3.42049V7.38286H1.84863V1.8457H3.77337L5.53725 5.50892ZM15.9905 2.94918V1.8457H22.1626V2.94918H19.7497L19.744 7.38286H18.395L18.4006 2.94918H15.9905ZM20.8109 20.3058C20.7771 20.5259 20.6896 20.7093 20.5456 20.8448C20.4102 20.9746 20.2296 21.0649 20.0038 21.1186C19.7808 21.1694 19.4563 21.2004 19.1091 21.2004C18.762 21.2004 18.4346 21.1552 18.1665 21.0621C17.9069 20.9746 17.7009 20.8194 17.5569 20.6021C17.4102 20.3848 17.3368 20.0687 17.3368 19.6679V19.1007C17.3368 18.6971 17.4102 18.3838 17.5569 18.1665C17.7009 17.9492 17.9069 17.7968 18.1665 17.7065C18.4346 17.6162 18.7507 17.5682 19.1091 17.5682C19.4676 17.5682 19.7808 17.5993 20.0038 17.6501C20.2296 17.7009 20.4102 17.794 20.5456 17.9238C20.6868 18.0621 20.7771 18.2427 20.8109 18.4629H22.1628C22.1261 18.0057 21.9709 17.6162 21.6999 17.3058C21.4516 17.0207 21.1101 16.8119 20.6839 16.6849C20.2691 16.5607 19.7272 16.4958 19.112 16.4958C18.4657 16.4958 17.9041 16.5889 17.4412 16.7724C16.9727 16.9586 16.6115 17.2691 16.3603 17.6952C16.1204 18.1044 15.9963 18.6491 15.9878 19.318V19.3801L16.0612 19.3829L15.9878 19.3857V19.4478C15.9963 20.1167 16.1204 20.6614 16.3603 21.0706C16.6087 21.4967 16.9727 21.8072 17.4412 21.9934C17.9012 22.1769 18.4629 22.27 19.112 22.27C19.7583 22.27 20.2719 22.2051 20.6839 22.0809C21.1101 21.9539 21.4516 21.7451 21.6999 21.46C21.9709 21.1496 22.1261 20.7601 22.1628 20.3029L20.8109 20.3058Z" fill="#F9F9FB"/>
</g>
<defs>
<clipPath id="clip0_269_11659">
<rect width="24" height="24" fill="white"/>
</clipPath>
</defs>
</svg>
