<svg width="24" height="24" viewBox="0 0 24 24" fill="none" xmlns="http://www.w3.org/2000/svg">
<g clip-path="url(#clip0_269_11666)">
<path fill-rule="evenodd" clip-rule="evenodd" d="M12.0009 24C5.37181 24 0 18.6281 0 12.0002C0 5.37186 5.37181 0 12.0009 0C18.6269 0 24 5.37186 24 12.0002C24 18.6281 18.6269 24 12.0009 24ZM3.58594 11.6741V10.7943L5.95997 10.4608V11.413L3.58594 11.6741ZM4.34353 14.7421V11.7275L5.21269 11.6388V14.7421H4.34353ZM6.28059 14.7421V10.4158L7.19644 10.2871V14.7421H6.28059ZM7.36706 11.2583V10.2631L8.68955 10.0773V11.1129L7.36706 11.2583ZM7.36706 13.0124V11.9991L8.23519 11.9244V12.9651L7.36706 13.0124ZM7.36706 14.7421V13.7429L8.68955 13.703V14.7421H7.36706ZM12.1096 14.7421V9.59531L13.3102 9.42662V14.7421H12.1096ZM13.5345 10.579V9.39508L15.2841 9.14921V10.3867L13.5345 10.579ZM13.5345 12.6752V11.4694L14.6812 11.3712V12.6126L13.5345 12.6752ZM13.5345 14.7422V13.5566L15.2841 13.5037V14.7422H13.5345ZM9.03947 14.7422V10.0281L10.0827 9.88148V14.7422H9.03947ZM10.2774 14.7421V13.6551L11.7918 13.6094V14.7421H10.2774ZM17.6624 8.67303C18.2709 8.58564 18.8273 8.73263 19.2067 9.09101C19.5536 9.41884 19.7285 9.88312 19.6868 10.3649C19.6075 11.2756 19.1655 12.0053 17.9346 13.2075L15.9201 13.2737C15.9201 13.2737 17.3234 11.9995 17.8511 11.3769C18.193 10.9735 18.338 10.5381 18.1975 10.2479C18.1085 10.0639 17.9088 9.97243 17.6624 9.98612V8.67303ZM19.7578 14.7422L15.6722 14.7421L15.6718 13.4913L19.7578 13.3682V14.7422ZM15.7249 11.2527C15.6576 9.8282 16.2405 8.95521 17.4275 8.70246L17.4281 10.0398C17.1791 10.1447 16.9328 10.3356 16.9905 11.1404L15.7249 11.2527Z" fill="#F9F9FB"/>
</g>
<defs>
<clipPath id="clip0_269_11666">
<rect width="24" height="24" fill="white"/>
</clipPath>
</defs>
</svg>
