<svg width="24" height="24" viewBox="0 0 24 24" fill="none" xmlns="http://www.w3.org/2000/svg">
<g clip-path="url(#clip0_269_11641)">
<path d="M0.158203 11.9999C0.158203 18.5622 5.47731 23.8809 12.0413 23.8809C18.6023 23.8809 23.9227 18.5622 23.9227 11.9999C23.9227 5.43714 18.6023 0.118462 12.0413 0.118462C5.47731 0.118462 0.158203 5.43714 0.158203 11.9999Z" fill="#4B4B63"/>
<path d="M0.432881 14.5518C0.252993 13.7298 0.158203 12.8759 0.158203 11.9999C0.158203 11.1303 0.251594 10.2825 0.428898 9.46608H23.652C23.8155 10.2189 23.9077 10.9984 23.921 11.7971V12.2026C23.9075 13.0077 23.814 13.7933 23.648 14.5518H0.432881Z" fill="#F9F9FB"/>
<path d="M11.7721 23.8779C8.22536 23.7991 5.06248 22.1673 2.9365 19.6358H21.1442C19.0181 22.1673 15.8556 23.7991 12.3104 23.8779H11.7721Z" fill="#F9F9FB"/>
<path d="M12.2421 0.120117C15.8234 0.179477 19.0196 1.8235 21.1593 4.38166H2.92137C5.06107 1.8235 8.25756 0.179477 11.8404 0.120117H12.2421Z" fill="#F9F9FB"/>
</g>
<defs>
<clipPath id="clip0_269_11641">
<rect width="24" height="24" fill="white"/>
</clipPath>
</defs>
</svg>
