<svg width="24" height="24" viewBox="0 0 24 24" fill="none" xmlns="http://www.w3.org/2000/svg">
<g clip-path="url(#clip0_269_11564)">
<path fill-rule="evenodd" clip-rule="evenodd" d="M12 24C18.628 24 24 18.628 24 12C24 10.436 23.7 8.944 23.16 7.572C22.956 7.06 22.716 6.56 22.444 6.084C20.38 2.452 16.476 0 12 0C5.372 0 0 5.372 0 12C0 14.088 0.532 16.052 1.472 17.76C1.708 18.188 1.964 18.6 2.248 18.992C4.424 22.024 7.984 24 12 24ZM19.792 9.64C19.3 11.38 18.792 13.128 18.108 14.796C17.528 16.212 16.344 16.996 14.756 17C12.3383 17.006 9.92283 17.0053 7.50626 17.0045C6.70033 17.0043 5.89427 17.004 5.08796 17.004C4.88796 16.728 4.70396 16.436 4.53996 16.136L4.57762 16.0182C4.69015 15.6662 4.80523 15.3062 4.88796 15.04L5.03196 14.592H5.44796C8.19933 14.588 10.9547 14.588 13.7061 14.588H13.708C14.2699 14.588 14.5499 14.588 14.7324 14.4546C14.9136 14.3221 14.9986 14.0581 15.168 13.532C15.2808 13.1808 15.3915 12.8292 15.5022 12.4778L15.5023 12.4774C15.7369 11.7325 15.9713 10.9884 16.224 10.252C16.352 9.876 16.276 9.812 15.9 9.816C12.972 9.832 6.56396 9.828 6.56396 9.828L7.32396 7.448C7.32396 7.448 14.708 7.44 18.22 7.452C18.672 7.452 19.064 7.616 19.356 7.888C19.64 8.152 19.824 8.52 19.86 8.94C19.88 9.16 19.86 9.396 19.792 9.64ZM6.56396 9.828L6.55992 9.83999V9.82799L6.56396 9.828ZM10.444 11.144H4.66804L3.98402 13.328H9.76004L10.444 11.144Z" fill="#F9F9FB"/>
</g>
<defs>
<clipPath id="clip0_269_11564">
<rect width="24" height="24" fill="white"/>
</clipPath>
</defs>
</svg>
