<svg width="24" height="24" viewBox="0 0 24 24" fill="none" xmlns="http://www.w3.org/2000/svg">
<g clip-path="url(#clip0_269_11649)">
<path d="M10.8398 10.9453C10.418 10.9453 10.1016 10.5937 10.1016 10.207C10.1016 9.78514 10.4531 9.46873 10.8398 9.46873C11.2617 9.46873 11.5781 9.8203 11.5781 10.207C11.5781 10.5937 11.2617 10.9453 10.8398 10.9453Z" fill="#F9F9FB"/>
<path d="M12.5977 15.2695C12.1758 15.2695 11.8594 14.918 11.8594 14.5313C11.8594 14.1094 12.2109 13.793 12.5977 13.793C13.0195 13.793 13.3359 14.1445 13.3359 14.5313C13.3711 14.918 13.0195 15.2695 12.5977 15.2695Z" fill="#F9F9FB"/>
<path d="M14.3555 15.2695C13.9336 15.2695 13.6172 14.918 13.6172 14.5313C13.6172 14.1094 13.9688 13.793 14.3555 13.793C14.7773 13.793 15.0938 14.1445 15.0938 14.5313C15.0938 14.918 14.7773 15.2695 14.3555 15.2695Z" fill="#F9F9FB"/>
<path d="M16.1133 15.2695C15.6914 15.2695 15.375 14.918 15.375 14.5313C15.375 14.1094 15.7266 13.793 16.1133 13.793C16.5352 13.793 16.8516 14.1445 16.8516 14.5313C16.8516 14.918 16.5352 15.2695 16.1133 15.2695Z" fill="#F9F9FB"/>
<path fill-rule="evenodd" clip-rule="evenodd" d="M12.0009 24C5.37181 24 0 18.6281 0 12.0002C0 5.37186 5.37181 0 12.0009 0C18.6269 0 24 5.37186 24 12.0002C24 18.6281 18.6269 24 12.0009 24ZM12 6.02344C8.69531 6.02344 6.02344 8.6953 6.02344 12C6.02344 14.8828 8.02734 17.2734 10.7344 17.8359V12.457C10.7344 12.2109 10.9453 12 11.1914 11.9648H11.9297C11.9648 11.9648 12 11.9297 12 11.8945V6.02344ZM12.7383 6.05865V12.211C12.7383 12.4922 12.5273 12.7031 12.2461 12.7031H11.5078C11.4727 12.7031 11.4375 12.7383 11.4375 12.7735V17.9414C11.5214 17.9414 11.6053 17.9494 11.693 17.9578C11.7891 17.967 11.8897 17.9766 12 17.9766C15.3047 17.9766 17.9766 15.3047 17.9766 12C17.9766 8.94145 15.6914 6.41021 12.7383 6.05865Z" fill="#F9F9FB"/>
</g>
<defs>
<clipPath id="clip0_269_11649">
<rect width="24" height="24" fill="white"/>
</clipPath>
</defs>
</svg>
