<svg width="24" height="24" viewBox="0 0 24 24" fill="none" xmlns="http://www.w3.org/2000/svg">
<path fill-rule="evenodd" clip-rule="evenodd" d="M9.6302 12.7266C9.46176 12.5578 9.26164 12.4237 9.04137 12.3321C8.82109 12.2405 8.58493 12.1932 8.34637 12.1929C8.10781 12.1926 7.87152 12.2393 7.65098 12.3302C7.43049 12.4213 7.23002 12.5548 7.06111 12.7233C6.89219 12.8918 6.75814 13.0918 6.66655 13.3121C6.57495 13.5324 6.52765 13.7685 6.52735 14.0071C6.52704 14.2457 6.57373 14.4819 6.66471 14.7025C6.75574 14.923 6.88927 15.1234 7.05775 15.2924L14.0893 22.3061L16.6621 19.7399L9.6302 12.7266Z" fill="#9C9CAF"/>
<path fill-rule="evenodd" clip-rule="evenodd" d="M16.9416 8.70606L9.91038 1.69287L7.33789 4.25886L14.3692 11.2724C14.5375 11.4421 14.7377 11.577 14.9582 11.6692C15.1787 11.7615 15.4153 11.8094 15.6544 11.81C15.8935 11.8107 16.1303 11.7641 16.3513 11.6731C16.5723 11.582 16.7733 11.4483 16.9425 11.2794C17.1118 11.1106 17.246 10.91 17.3376 10.6892C17.4292 10.4684 17.4763 10.2316 17.4762 9.99255C17.4761 9.75351 17.4289 9.51683 17.3372 9.29603C17.2454 9.07527 17.111 8.87481 16.9416 8.70606Z" fill="#9C9CAF"/>
<path fill-rule="evenodd" clip-rule="evenodd" d="M10.1729 2.06957L9.90977 1.69287L0.532193 11.0244C0.191437 11.3652 -9.49951e-09 11.8273 0 12.3092C9.49951e-09 12.7911 0.191437 13.2533 0.532193 13.5941C0.872954 13.9348 1.33512 14.1263 1.81702 14.1263C2.29893 14.1263 2.7611 13.9348 3.10186 13.5941L10.1238 6.60628C11.623 5.11447 10.8114 2.98674 10.1729 2.06957Z" fill="#F9F9FB"/>
<path fill-rule="evenodd" clip-rule="evenodd" d="M23.4694 10.4094C23.1279 10.0693 22.6658 9.87805 22.1838 9.87744C21.7018 9.87688 21.2392 10.067 20.8969 10.4063L13.8755 17.3938C12.3763 18.8853 13.1879 21.0134 13.8266 21.93L14.089 22.3072L23.4666 12.9754C23.6354 12.8072 23.7695 12.6074 23.861 12.3873C23.9526 12.1673 23.9998 11.9313 24.0001 11.693C24.0003 11.4547 23.9536 11.2186 23.8625 10.9984C23.7715 10.7781 23.6379 10.578 23.4694 10.4094Z" fill="#F9F9FB"/>
</svg>
