<svg width="24" height="24" viewBox="0 0 24 24" fill="none" xmlns="http://www.w3.org/2000/svg">
<g clip-path="url(#clip0_269_11555)">
<path d="M9.52496 8.8365C9.46596 8.866 9.42595 8.886 9.40395 8.896L10.74 11.7C10.768 11.688 10.876 11.64 11.056 11.556C11.236 11.472 11.38 11.404 11.48 11.352C11.5574 11.3133 11.6592 11.2591 11.787 11.191C11.8309 11.1676 11.8778 11.1426 11.928 11.116C12.124 11.012 12.28 10.916 12.404 10.828C12.524 10.74 12.664 10.632 12.824 10.504C12.98 10.376 13.1 10.248 13.184 10.124C13.268 10 13.34 9.864 13.404 9.716C13.468 9.568 13.496 9.412 13.484 9.248C13.472 9.084 13.424 8.916 13.344 8.744C13.248 8.544 13.124 8.384 12.976 8.264C12.828 8.144 12.672 8.06 12.516 8.012C12.356 7.964 12.172 7.948 11.956 7.964C11.74 7.98 11.552 8.008 11.384 8.052C11.216 8.096 11.02 8.16 10.788 8.248C10.556 8.336 10.376 8.412 10.248 8.476C10.2086 8.49568 10.1658 8.51725 10.1198 8.54048C10.0161 8.5928 9.89568 8.65352 9.75995 8.72C9.66196 8.768 9.58396 8.807 9.52496 8.8365Z" fill="#F9F9FB"/>
<path d="M16.148 13.748C16.188 13.6 16.204 13.444 16.196 13.276C16.188 13.108 16.144 12.94 16.06 12.768C15.956 12.552 15.816 12.38 15.644 12.252C15.472 12.124 15.292 12.036 15.108 11.992C14.924 11.948 14.704 11.936 14.452 11.964C14.2 11.992 13.976 12.028 13.776 12.08C13.576 12.132 13.34 12.212 13.064 12.32C12.788 12.428 12.576 12.52 12.424 12.592C12.272 12.664 12.076 12.76 11.84 12.88C11.604 13 11.46 13.072 11.412 13.096L12.88 16.176C12.9176 16.1572 12.997 16.1212 13.1143 16.068C13.1467 16.0533 13.1819 16.0373 13.22 16.02C13.396 15.94 13.544 15.872 13.66 15.816C13.776 15.76 13.932 15.68 14.136 15.572C14.34 15.464 14.512 15.368 14.652 15.28C14.796 15.196 14.956 15.088 15.136 14.956C15.316 14.828 15.464 14.704 15.58 14.588C15.696 14.476 15.808 14.344 15.92 14.192C16.028 14.044 16.104 13.896 16.148 13.748Z" fill="#F9F9FB"/>
<path fill-rule="evenodd" clip-rule="evenodd" d="M24 12C24 18.6274 18.6274 24 12 24C5.3726 24 0 18.6274 0 12C0 5.3726 5.3726 0 12 0C18.6274 0 24 5.3726 24 12ZM15.576 9.792C16.368 9.62 17.052 9.68 17.62 9.968C18.192 10.252 18.636 10.84 18.96 11.724C19.124 12.176 19.208 12.604 19.208 13.004C19.212 13.408 19.144 13.772 19.008 14.096C18.872 14.424 18.664 14.74 18.38 15.052C18.096 15.364 17.776 15.644 17.424 15.896C17.072 16.144 16.652 16.404 16.164 16.664L17.272 18.988L15.868 19.656L14.776 17.368C14.292 17.6 13.92 17.772 13.66 17.888L14.756 20.184L13.352 20.852L12.244 18.528C12.132 18.584 11.968 18.66 11.748 18.76C11.6419 18.8102 11.5479 18.8538 11.466 18.8918C11.378 18.9326 11.304 18.967 11.244 18.996L9.41995 19.864L8.90795 18.06L9.91995 17.576C10.224 17.432 10.328 17.192 10.228 16.86L8.47995 13.196L8.62395 13.128C8.58395 13.14 8.53195 13.16 8.47195 13.188L7.22395 10.572C6.94795 10.196 6.57595 10.12 6.11595 10.34L5.10395 10.824L4.39195 9.328L6.32795 8.416C6.71595 8.228 7.01195 8.084 7.20795 7.984L6.11195 5.688L7.51595 5.02L8.58795 7.272C9.07995 7.024 9.44795 6.84 9.69195 6.724L8.62795 4.492L10.032 3.824L11.128 6.12C11.628 5.932 12.084 5.8 12.5 5.716C12.912 5.636 13.324 5.608 13.724 5.636C14.128 5.664 14.488 5.78 14.816 5.988C15.144 6.192 15.42 6.488 15.648 6.872C16.284 7.924 16.26 8.9 15.576 9.792Z" fill="#F9F9FB"/>
</g>
<defs>
<clipPath id="clip0_269_11555">
<rect width="24" height="24" fill="white"/>
</clipPath>
</defs>
</svg>
