<svg width="24" height="24" viewBox="0 0 24 24" fill="none" xmlns="http://www.w3.org/2000/svg">
<g clip-path="url(#clip0_269_11603)">
<path fill-rule="evenodd" clip-rule="evenodd" d="M24 12C24 5.36 18.64 0 12 0C5.36 0 0 5.36 0 12C0 18.64 5.36 24 12 24C18.64 24 24 18.64 24 12ZM10.48 8.11998H11.48C11.68 8.07998 11.88 8.07998 12.16 8.07998C12.12 8.35998 12.2 8.67998 12.32 9.07998C12.44 9.43998 12.64 9.87998 12.84 10.32L14.4 13.48C14.68 14.12 15 14.76 15.32 15.36H15.36C15.76 14.72 16.08 14.04 16.4 13.32L17.68 10.72C17.96 10.12 18.2 9.59998 18.4 9.15998C18.56 8.75998 18.68 8.39998 18.68 8.07998C18.92 8.11998 19.12 8.11998 19.28 8.11998H20.28C20.48 8.07998 20.68 8.07998 20.92 8.07998C20.96 8.11998 20.96 8.19998 20.96 8.23998C20.96 8.35998 20.96 8.39998 20.92 8.43998H20.64C20.36 8.47998 20.12 8.51998 20 8.59998C19.88 8.67998 19.8 8.83998 19.76 8.99998C19.72 9.15998 19.72 9.39998 19.72 9.71998V11.48C19.76 12.16 19.8 12.84 19.8 13.6C19.8 14.28 19.84 15 19.88 15.68C19.88 15.8121 19.8921 15.9321 19.903 16.04C19.9119 16.1281 19.92 16.2081 19.92 16.28C19.96 16.44 20.04 16.56 20.12 16.64C20.2 16.72 20.36 16.8 20.56 16.8H20.96C21 16.88 21 16.92 21 17C21 17.08 20.96 17.12 20.92 17.16C20.78 17.16 20.64 17.15 20.5 17.14C20.36 17.13 20.22 17.12 20.08 17.12H18.48C18.34 17.12 18.2 17.13 18.06 17.14C17.92 17.15 17.78 17.16 17.64 17.16C17.56 17.12 17.56 17.04 17.56 17C17.56 16.88 17.56 16.84 17.6 16.8L18 16.76C18.24 16.72 18.4 16.68 18.48 16.6C18.6 16.52 18.64 16.4 18.64 16.28V15.6L18.6 9.87998C18.5914 9.8972 18.5809 9.91628 18.569 9.938C18.5256 10.0172 18.4628 10.1316 18.4 10.32L18.04 11.04C17.92 11.28 17.8 11.52 17.72 11.72L16.52 14.12C16.12 14.88 15.76 15.6 15.4 16.4L15.04 17.24C15 17.32 14.88 17.32 14.8 17.24C14.8 17.2 14.68 16.84 14.68 16.84C14.64 16.72 14.56 16.52 14.48 16.36C14.32 16.04 14.16 15.7199 14 15.36C13.84 15 13.72 14.76 13.6 14.52L12.36 11.88C12.28 11.72 12.21 11.55 12.14 11.38C12.07 11.21 12 11.04 11.92 10.88C11.84 10.72 11.77 10.56 11.7 10.4C11.63 10.24 11.56 10.08 11.48 9.91998H11.44C11.44 10.12 11.43 10.32 11.42 10.52C11.41 10.72 11.4 10.92 11.4 11.12C11.36 11.52 11.32 11.92 11.32 12.32C11.32 12.5032 11.3116 12.7116 11.3025 12.9375C11.2917 13.2047 11.28 13.4965 11.28 13.8C11.24 14.36 11.24 14.96 11.24 15.52C11.24 15.8 11.24 16.24 11.36 16.52C11.4 16.6 11.44 16.64 11.48 16.68C11.6 16.76 11.72 16.8 11.88 16.8L12.52 16.84C12.6 16.92 12.6 16.96 12.6 17.04C12.6 17.12 12.56 17.16 12.52 17.2C12.4046 17.2 12.2892 17.1907 12.1694 17.1811C12.04 17.1708 11.9054 17.16 11.76 17.16H10.28C10.16 17.16 10.04 17.17 9.91999 17.18C9.79999 17.19 9.67999 17.2 9.55999 17.2C9.47999 17.16 9.47999 17.08 9.47999 17.04C9.43999 16.92 9.47999 16.88 9.51999 16.84L9.79999 16.8C9.95843 16.8 10.0918 16.7498 10.2 16.709C10.2284 16.6983 10.2551 16.6883 10.28 16.68C10.36 16.64 10.48 16.56 10.52 16.4C10.7437 15.8034 10.8284 13.8863 10.8713 12.916C10.8744 12.8454 10.8773 12.7797 10.88 12.72C10.8827 12.6798 10.8853 12.6398 10.888 12.6C10.9252 12.0452 10.96 11.5252 10.96 11.04C10.96 10.7365 10.9717 10.4682 10.9825 10.2225C10.9916 10.0148 11 9.8232 11 9.63998C11 9.35998 11 9.11998 10.96 8.95998C10.96 8.79998 10.84 8.67998 10.72 8.59998C10.7018 8.59392 10.6818 8.58695 10.66 8.57934C10.5376 8.53668 10.3576 8.47392 10.12 8.43998H9.87999C9.83999 8.35998 9.83999 8.31998 9.83999 8.23998C9.83999 8.15998 9.87999 8.07998 9.91999 8.07998C10.12 8.11998 10.32 8.11998 10.48 8.11998ZM3.88 16.2C3.92 15.96 3.92 15.6 3.92 15.12V13.8C4.23999 13.84 4.63999 13.84 5.03999 13.84V15.16C5.03999 15.64 5.03999 16 5.07999 16.24C5.11999 16.48 5.19999 16.64 5.31999 16.72H5.35999C5.47999 16.8 5.67999 16.88 5.99999 16.88L6.35999 16.92C6.39999 16.96 6.39999 17.04 6.39999 17.12C6.38471 17.1505 6.37527 17.1753 6.36721 17.1964C6.35416 17.2305 6.34471 17.2553 6.31999 17.28C5.99999 17.28 5.69999 17.27 5.39999 17.26C5.09999 17.25 4.79999 17.24 4.47999 17.24C3.92 17.24 3.4 17.24 2.8 17.28C2.72 17.2 2.72 17 2.8 16.92L3.08 16.88C3.52 16.84 3.84 16.68 3.88 16.2ZM2.76 8.43998C2.68 8.35998 2.68 8.31998 2.68 8.23998C2.68 8.15998 2.72 8.11998 2.8 8.07998C3.16 8.03998 3.6 7.99998 4.03999 7.99998H5.55999C6.11999 7.99998 6.63999 8.03998 7.07999 8.11998C7.51999 8.19998 7.91999 8.35998 8.23999 8.55998C8.55999 8.75998 8.79999 9.03998 8.99999 9.39998C9.19999 9.75998 9.31999 10.16 9.31999 10.64C9.27999 11.08 9.19999 11.4 9.07999 11.72C8.91999 12.04 8.71999 12.28 8.51999 12.44C8.15999 12.68 7.79999 12.88 7.47999 13.04C7.11999 13.2 6.71999 13.32 6.27999 13.36C5.43999 13.48 4.51999 13.52 3.6 13.4C3.04 13.32 2.16 13.16 0.96 12.92C2.04 13.04 3 13.12 3.92 13.12C4.95999 13.16 5.71999 13.08 6.27999 12.96C6.87999 12.84 7.27999 12.56 7.55999 12.2C7.87999 11.8 7.99999 11.28 7.99999 10.68C7.99999 9.99998 7.79999 9.43998 7.43999 9.03998C7.07999 8.63998 6.51999 8.43998 5.79999 8.43998H5.23999C5.11999 8.43998 5.03999 8.51998 5.03999 8.55998C4.99999 8.63998 4.99999 8.75998 4.99999 8.91998V12.76H3.88V9.95998C3.88 9.72567 3.86627 9.5188 3.8549 9.34743C3.84686 9.22626 3.84 9.12282 3.84 9.03998C3.84 8.83998 3.76 8.71998 3.68 8.63998C3.6 8.55998 3.44 8.47998 3.24 8.47998L2.76 8.43998Z" fill="#F9F9FB"/>
</g>
<defs>
<clipPath id="clip0_269_11603">
<rect width="24" height="24" fill="white"/>
</clipPath>
</defs>
</svg>
