<svg width="24" height="24" viewBox="0 0 24 24" fill="none" xmlns="http://www.w3.org/2000/svg">
<g clip-path="url(#clip0_269_11548)">
<path d="M13.3235 13.16H10.876L11.438 11.88H12.7618L13.3235 13.16Z" fill="#F9F9FB"/>
<path d="M12.1193 10.416H12.0807L12.1 10.372L12.1193 10.416Z" fill="#F9F9FB"/>
<path fill-rule="evenodd" clip-rule="evenodd" d="M24 12C24 18.6274 18.6274 24 12 24C5.3726 24 0 18.6274 0 12C0 5.3726 5.3726 0 12 0C18.6274 0 24 5.3726 24 12ZM6.98402 17.588L8.34047 14.624H8.30797L7.23597 13.16H9.01044L9.59621 11.88H6.35997L5.28797 10.416H10.2662L12.104 6.40002L13.9399 10.416H18.712L17.616 11.88H14.6091L15.1943 13.16H16.96L15.868 14.624H15.8635L17.224 17.6H15.272L13.966 14.624H10.2333L8.93202 17.588H6.98402Z" fill="#F9F9FB"/>
</g>
<defs>
<clipPath id="clip0_269_11548">
<rect width="24" height="24" fill="white"/>
</clipPath>
</defs>
</svg>
