<svg width="24" height="24" viewBox="0 0 24 24" fill="none" xmlns="http://www.w3.org/2000/svg">
<g clip-path="url(#clip0_269_11495)">
<path d="M11.432 7.908C11.212 7.912 11.08 7.912 11.032 7.912L11.036 11.016C11.068 11.016 11.1841 11.016 11.384 11.02C11.58 11.024 11.736 11.024 11.852 11.02C11.8772 11.0191 11.9052 11.0182 11.936 11.0172C12.0423 11.0138 12.1823 11.0093 12.356 11C12.58 10.988 12.764 10.972 12.912 10.944C13.06 10.916 13.232 10.88 13.432 10.832C13.628 10.784 13.792 10.72 13.92 10.644C14.048 10.568 14.172 10.476 14.292 10.372C14.412 10.268 14.504 10.14 14.564 9.984C14.624 9.828 14.656 9.656 14.656 9.468C14.656 9.244 14.612 9.048 14.528 8.876C14.444 8.704 14.34 8.564 14.22 8.452C14.1 8.34 13.94 8.244 13.736 8.168C13.532 8.088 13.348 8.032 13.18 8C13.012 7.968 12.804 7.94 12.56 7.92C12.316 7.9 12.12 7.892 11.976 7.896C11.832 7.9 11.652 7.904 11.432 7.908Z" fill="#F9F9FB"/>
<path d="M15.028 15.192C15.128 15.076 15.212 14.944 15.276 14.788C15.34 14.632 15.372 14.46 15.368 14.28C15.368 14.036 15.316 13.82 15.216 13.632C15.116 13.444 14.992 13.288 14.844 13.168C14.696 13.048 14.504 12.944 14.264 12.86C14.028 12.776 13.804 12.712 13.604 12.672C13.4 12.632 13.152 12.6 12.856 12.58C12.56 12.556 12.328 12.548 12.16 12.548C11.992 12.548 11.772 12.548 11.508 12.556C11.24 12.564 11.08 12.568 11.028 12.568V15.98C11.08 15.98 11.2041 15.98 11.4 15.984C11.596 15.988 11.756 15.988 11.884 15.988C11.9832 15.988 12.1136 15.9832 12.2734 15.9773C12.3198 15.9756 12.3687 15.9738 12.42 15.972C12.652 15.964 12.848 15.948 13.012 15.932C13.176 15.916 13.368 15.888 13.588 15.848C13.808 15.808 13.992 15.764 14.148 15.708C14.304 15.656 14.464 15.584 14.628 15.496C14.792 15.408 14.928 15.308 15.028 15.192Z" fill="#F9F9FB"/>
<path fill-rule="evenodd" clip-rule="evenodd" d="M24 12C24 18.6274 18.6274 24 12 24C5.3726 24 0 18.6274 0 12C0 5.3726 5.3726 0 12 0C18.6274 0 24 5.3726 24 12ZM16.22 11.372C17.008 11.56 17.596 11.908 17.988 12.412C18.38 12.92 18.528 13.64 18.452 14.568C18.404 15.048 18.296 15.468 18.124 15.832C17.952 16.196 17.736 16.496 17.472 16.732C17.208 16.968 16.884 17.164 16.492 17.324C16.1 17.48 15.692 17.596 15.264 17.672C14.836 17.748 14.348 17.796 13.796 17.824V20.4H12.24V17.868C11.7 17.868 11.292 17.864 11.008 17.856V20.4H9.45201V17.828C9.33201 17.828 9.15201 17.828 8.90801 17.824C8.66401 17.82 8.48001 17.82 8.35201 17.82H6.33201L6.64401 15.972H7.76401C8.10001 15.972 8.29601 15.8 8.34801 15.456V11.396H8.50801C8.46801 11.388 8.41601 11.384 8.34801 11.384V8.488C8.26001 8.028 7.96001 7.8 7.44801 7.8H6.32801V6.144L8.46801 6.156C8.90001 6.156 9.22401 6.152 9.44801 6.144V3.6H11.004V6.092C11.556 6.08 11.968 6.072 12.236 6.072V3.6H13.792V6.14C14.324 6.188 14.792 6.264 15.204 6.368C15.612 6.472 15.996 6.624 16.344 6.824C16.692 7.024 16.972 7.284 17.176 7.612C17.38 7.94 17.504 8.324 17.544 8.768C17.664 9.992 17.224 10.86 16.22 11.372Z" fill="#F9F9FB"/>
</g>
<defs>
<clipPath id="clip0_269_11495">
<rect width="24" height="24" fill="white"/>
</clipPath>
</defs>
</svg>
