<svg width="24" height="24" viewBox="0 0 24 24" fill="none" xmlns="http://www.w3.org/2000/svg">
<g clip-path="url(#clip0_2006_25)">
<mask id="mask0_2006_25" style="mask-type:luminance" maskUnits="userSpaceOnUse" x="0" y="0" width="24" height="24">
<path d="M24 12C24 5.37258 18.6274 0 12 0C5.37258 0 0 5.37258 0 12C0 18.6274 5.37258 24 12 24C18.6274 24 24 18.6274 24 12Z" fill="white"/>
</mask>
<g mask="url(#mask0_2006_25)">
<path d="M24 0H0V24H24V0Z" fill="#100943"/>
<path d="M24 12C30.6275 12 36 6.62742 36 5.90628e-06C36 -6.62742 30.6275 -12 24 -12C17.3726 -12 12 -6.62742 12 5.90628e-06C12 6.62742 17.3726 12 24 12Z" fill="#ED143B"/>
<path d="M14.8248 11.4521H7.7343V8.64631H14.8248C15.2389 8.64631 15.5269 8.71851 15.6714 8.84456C15.816 8.97064 15.9055 9.20445 15.9055 9.54602V10.5535C15.9055 10.9133 15.816 11.1472 15.6714 11.2732C15.5269 11.3993 15.2389 11.4532 14.8248 11.4532V11.4521ZM15.3112 6.00107H4.72728V18H7.7343V14.0963H13.276L15.9055 18H19.2727L16.3736 14.0779C17.4424 13.9195 17.9224 13.592 18.3182 13.0522C18.714 12.5123 18.9126 11.6493 18.9126 10.4974V9.59775C18.9126 8.9146 18.8402 8.37478 18.714 7.96104C18.5878 7.54727 18.3722 7.1874 18.0658 6.86415C17.7423 6.55815 17.382 6.34264 16.9495 6.19825C16.517 6.0722 15.9767 6 15.3112 6V6.00107Z" fill="white"/>
</g>
</g>
<defs>
<clipPath id="clip0_2006_25">
<rect width="24" height="24" fill="white"/>
</clipPath>
</defs>
</svg>
