<svg width="87" height="66" viewBox="0 0 87 66" fill="none" xmlns="http://www.w3.org/2000/svg">
<g filter="url(#filter0_d_1947_15960)">
<path d="M66.7507 43.4809C66.6938 43.3619 66.6408 43.2633 66.5915 43.1843C65.776 41.7603 64.2177 40.0124 61.9175 37.9403L61.8689 37.8928L61.8446 37.8695L61.82 37.8457H61.7953C60.7514 36.8808 60.0903 36.232 59.8134 35.8998C59.3069 35.2671 59.1934 34.6266 59.4703 33.9776C59.6658 33.4873 60.4006 32.4519 61.6727 30.8698C62.3418 30.0314 62.8717 29.3594 63.2631 28.8531C66.0856 25.2149 67.3093 22.89 66.9339 21.8775L66.7881 21.6409C66.6901 21.4985 66.4373 21.3682 66.0299 21.2493C65.6216 21.1308 65.0997 21.1111 64.4633 21.1902L57.4159 21.2374C57.3017 21.1982 57.1387 21.2018 56.9263 21.2493C56.7142 21.2969 56.608 21.3207 56.608 21.3207L56.4854 21.3802L56.388 21.4515C56.3064 21.4987 56.2167 21.5818 56.1187 21.7004C56.0213 21.8187 55.9398 21.9575 55.8746 22.1156C55.1073 24.0296 54.235 25.8091 53.2559 27.454C52.6523 28.4349 52.0979 29.285 51.5916 30.0047C51.086 30.7242 50.6618 31.2543 50.3195 31.5941C49.9766 31.9343 49.6672 32.2068 49.3894 32.4126C49.1119 32.6186 48.9001 32.7056 48.7535 32.6737C48.6065 32.6419 48.4681 32.6103 48.337 32.5788C48.1088 32.4363 47.9252 32.2426 47.7867 31.9974C47.6477 31.7523 47.5541 31.4437 47.5052 31.072C47.4565 30.7 47.4277 30.3801 47.4195 30.1111C47.4118 29.8424 47.4154 29.4624 47.4319 28.9721C47.4489 28.4815 47.4565 28.1496 47.4565 27.9756C47.4565 27.3744 47.4686 26.722 47.4928 26.0181C47.5175 25.3142 47.5375 24.7565 47.5542 24.3456C47.5708 23.9343 47.5786 23.4992 47.5786 23.0405C47.5786 22.5817 47.5498 22.222 47.4928 21.9609C47.4366 21.7001 47.3503 21.447 47.2366 21.2016C47.1221 20.9564 46.9547 20.7668 46.7349 20.6321C46.5147 20.4977 46.241 20.391 45.9152 20.3117C45.0504 20.122 43.9493 20.0193 42.6113 20.0034C39.5771 19.9718 37.6274 20.1618 36.7628 20.573C36.4202 20.7468 36.1102 20.9842 35.833 21.2846C35.5393 21.6327 35.4983 21.8227 35.7103 21.8539C36.6893 21.9961 37.3824 22.3363 37.7903 22.874L37.9373 23.159C38.0516 23.3646 38.1658 23.7286 38.28 24.2505C38.3941 24.7724 38.4677 25.3497 38.5001 25.9821C38.5816 27.137 38.5816 28.1256 38.5001 28.948C38.4184 29.7707 38.3413 30.4112 38.2677 30.8699C38.1941 31.3286 38.084 31.7004 37.9373 31.985C37.7903 32.2697 37.6925 32.4437 37.6435 32.5069C37.5945 32.57 37.5537 32.6098 37.5213 32.6255C37.3093 32.7042 37.0887 32.7444 36.8605 32.7444C36.6319 32.7444 36.3547 32.6335 36.0285 32.412C35.7024 32.1904 35.3639 31.8861 35.0131 31.4985C34.6623 31.1108 34.2666 30.5691 33.826 29.8732C33.3857 29.1773 32.9289 28.3548 32.4558 27.4057L32.0643 26.7175C31.8196 26.2747 31.4853 25.63 31.0612 24.7839C30.6367 23.9375 30.2616 23.1188 29.9354 22.3279C29.8051 21.9957 29.6092 21.7428 29.3482 21.5688L29.2258 21.4974C29.1443 21.4343 29.0136 21.3672 28.8343 21.2957C28.6548 21.2243 28.4674 21.1731 28.2715 21.1416L21.5664 21.1888C20.8813 21.1888 20.4164 21.3393 20.1716 21.6399L20.0736 21.7821C20.0247 21.8613 20 21.9878 20 22.1619C20 22.3359 20.0489 22.5495 20.1469 22.8024C21.1257 25.0329 22.1902 27.184 23.3402 29.2561C24.4903 31.3282 25.4897 32.9974 26.3378 34.262C27.186 35.5276 28.0507 36.722 28.9317 37.8448C29.8127 38.9679 30.3959 39.6877 30.6812 40.0039C30.9669 40.3207 31.1913 40.5575 31.3544 40.7157L31.9663 41.285C32.3578 41.6647 32.9327 42.1195 33.6914 42.6492C34.4501 43.1794 35.2902 43.7012 36.2119 44.2157C37.1338 44.7294 38.2063 45.1486 39.43 45.4728C40.6535 45.7973 41.8444 45.9275 43.0027 45.8647H45.817C46.3877 45.8169 46.8201 45.6429 47.114 45.3425L47.2114 45.2236C47.2769 45.1292 47.3381 44.9825 47.3947 44.7852C47.452 44.5875 47.4804 44.3696 47.4804 44.1327C47.4637 43.4527 47.5171 42.8398 47.6392 42.2941C47.7611 41.7486 47.9001 41.3374 48.0556 41.0604C48.211 40.7836 48.3864 40.5501 48.5815 40.3608C48.7771 40.1711 48.9165 40.0562 48.9983 40.0166C49.0795 39.9768 49.1444 39.9498 49.1933 39.9336C49.5849 39.8071 50.0456 39.9296 50.5764 40.3016C51.1066 40.6734 51.604 41.1323 52.0693 41.6778C52.5342 42.2238 53.0929 42.8364 53.7453 43.5164C54.3982 44.1967 54.969 44.7024 55.4582 45.0351L55.9475 45.3198C56.2742 45.5097 56.6984 45.6838 57.2205 45.8419C57.7417 46 58.1984 46.0395 58.5905 45.9605L64.8548 45.8658C65.4744 45.8658 65.9565 45.7663 66.2985 45.5689C66.6412 45.3712 66.8448 45.1534 66.9104 44.9165C66.9759 44.6793 66.9794 44.4102 66.9228 44.1094C66.8648 43.8093 66.8076 43.5994 66.7507 43.4809Z" fill="white"/>
</g>
<defs>
<filter id="filter0_d_1947_15960" x="0" y="0" width="87" height="66" filterUnits="userSpaceOnUse" color-interpolation-filters="sRGB">
<feFlood flood-opacity="0" result="BackgroundImageFix"/>
<feColorMatrix in="SourceAlpha" type="matrix" values="0 0 0 0 0 0 0 0 0 0 0 0 0 0 0 0 0 0 127 0" result="hardAlpha"/>
<feOffset/>
<feGaussianBlur stdDeviation="10"/>
<feComposite in2="hardAlpha" operator="out"/>
<feColorMatrix type="matrix" values="0 0 0 0 1 0 0 0 0 1 0 0 0 0 1 0 0 0 0.4 0"/>
<feBlend mode="normal" in2="BackgroundImageFix" result="effect1_dropShadow_1947_15960"/>
<feBlend mode="normal" in="SourceGraphic" in2="effect1_dropShadow_1947_15960" result="shape"/>
</filter>
</defs>
</svg>
