<svg width="20" height="20" viewBox="0 0 20 20" fill="none" xmlns="http://www.w3.org/2000/svg">
<g clip-path="url(#clip0_1699_23501)">
<path d="M10 20C15.5228 20 20 15.5228 20 10C20 4.47715 15.5228 0 10 0C4.47715 0 0 4.47715 0 10C0 15.5228 4.47715 20 10 20Z" fill="url(#paint0_linear_1699_23501)"/>
<path d="M15.5 7.04779C15.0964 7.22695 14.6612 7.34638 14.2025 7.40248C14.6694 7.12561 15.0277 6.68405 15.196 6.16287C14.7599 6.41803 14.2767 6.60624 13.7627 6.70486C13.3519 6.26964 12.7656 6 12.1168 6C10.8709 6 9.8602 7.00165 9.8602 8.23674C9.8602 8.41137 9.88101 8.58148 9.91902 8.74706C8.04331 8.65296 6.38023 7.7608 5.26729 6.40808C5.07185 6.73834 4.96237 7.12561 4.96237 7.53459C4.96237 8.31093 5.35959 8.99408 5.96582 9.39673C5.59575 9.38587 5.24739 9.28272 4.94246 9.11713C4.94246 9.12437 4.94246 9.13433 4.94246 9.14337C4.94246 10.2283 5.72061 11.1322 6.75212 11.3376C6.56391 11.3892 6.36485 11.4181 6.15946 11.4181C6.01378 11.4181 5.87172 11.4018 5.73419 11.3765C6.02102 12.2632 6.85436 12.9111 7.84153 12.931C7.06881 13.5291 6.09612 13.8883 5.03837 13.8883C4.8556 13.8883 4.67644 13.8774 4.5 13.8566C5.49984 14.4891 6.68697 14.8601 7.96006 14.8601C12.1105 14.8601 14.3816 11.4516 14.3816 8.49461C14.3816 8.3978 14.378 8.30188 14.3744 8.20597C14.8169 7.8929 15.1987 7.4984 15.5 7.04779Z" fill="white"/>
</g>
<defs>
<linearGradient id="paint0_linear_1699_23501" x1="10" y1="0" x2="10" y2="19.8516" gradientUnits="userSpaceOnUse">
<stop stop-color="#00ACEE"/>
<stop offset="1" stop-color="#0193CC"/>
</linearGradient>
<clipPath id="clip0_1699_23501">
<rect width="20" height="20" fill="white"/>
</clipPath>
</defs>
</svg>
