<svg width="20" height="20" viewBox="0 0 20 20" fill="none" xmlns="http://www.w3.org/2000/svg">
<path fill-rule="evenodd" clip-rule="evenodd" d="M17.8252 3.61593C18.6819 3.84 19.3574 4.4959 19.5879 5.32801C20.0164 6.84788 19.9999 10.016 19.9999 10.016C19.9999 10.016 19.9999 13.1679 19.5881 14.6879C19.3574 15.5199 18.682 16.1759 17.8252 16.3998C16.2602 16.8 9.99996 16.8 9.99996 16.8C9.99996 16.8 3.75609 16.8 2.17467 16.384C1.3179 16.1599 0.642545 15.5039 0.411833 14.6719C0 13.1679 0 9.99995 0 9.99995C0 9.99995 0 6.84788 0.411833 5.32801C0.642392 4.49605 1.33438 3.82399 2.17452 3.60007C3.73961 3.19995 9.99981 3.19995 9.99981 3.19995C9.99981 3.19995 16.2602 3.19995 17.8252 3.61593ZM13.0233 10.2266L7.90698 13.1733V7.27995L13.0233 10.2266Z" fill="black"/>
</svg>
