<svg width="20" height="20" viewBox="0 0 20 20" fill="none" xmlns="http://www.w3.org/2000/svg">
<g clip-path="url(#clip0_1699_23508)">
<path d="M15.2 0H4.8C2.14903 0 0 2.14903 0 4.8V15.2C0 17.851 2.14903 20 4.8 20H15.2C17.851 20 20 17.851 20 15.2V4.8C20 2.14903 17.851 0 15.2 0Z" fill="#F2F2F2"/>
<path d="M15.25 4.75H4.75V15.25H15.25V4.75Z" fill="#ECEFF1"/>
<path d="M10 11.1043L15.25 15.2501V7.06531L10 11.1043Z" fill="#CFD8DC"/>
<path d="M15.6875 4.75H15.25L10 8.89575L4.75 4.75H4.3125C3.588 4.75 3 5.338 3 6.0625V13.9375C3 14.662 3.588 15.25 4.3125 15.25H4.75V7.06525L10 11.1034L15.25 7.06437V15.25H15.6875C16.412 15.25 17 14.662 17 13.9375V6.0625C17 5.338 16.412 4.75 15.6875 4.75Z" fill="#F44336"/>
</g>
<defs>
<clipPath id="clip0_1699_23508">
<rect width="20" height="20" fill="white"/>
</clipPath>
</defs>
</svg>
