<svg width="20" height="20" viewBox="0 0 20 20" fill="none" xmlns="http://www.w3.org/2000/svg">
<path d="M7.15396 10.3706C5.56675 10.3706 4.28448 11.6572 4.30793 13.234C4.32357 14.2459 4.8787 15.1245 5.69576 15.6148C5.4182 15.1873 5.254 14.6813 5.24618 14.1361C5.22273 12.5593 6.505 11.2728 8.0922 11.2728C8.40495 11.2728 8.70598 11.3238 8.98745 11.414V8.2565C8.69425 8.21335 8.39323 8.18982 8.0922 8.18982C8.07657 8.18982 8.06484 8.18982 8.0492 8.18982V10.5118C7.76773 10.4216 7.46671 10.3706 7.15396 10.3706Z" fill="#F00044"/>
<path d="M14.0149 0.9021H13.9915H13.1783C13.4129 2.08273 14.0736 3.11038 14.9962 3.80856C14.3902 3.00448 14.0228 2.00036 14.0149 0.9021Z" fill="#F00044"/>
<path d="M18.8 5.70702C18.4912 5.70702 18.1941 5.67564 17.9008 5.62073V7.88392C16.8375 7.88392 15.8054 7.67604 14.8359 7.26027C14.2104 6.99355 13.6279 6.65231 13.0923 6.24046L13.108 13.2183C13.1001 14.7873 12.4825 16.2581 11.3644 17.3682C10.4535 18.2703 9.30023 18.8469 8.04923 19.0312C7.75603 19.0744 7.45501 19.0979 7.15399 19.0979C5.81698 19.0979 4.54253 18.6625 3.50655 17.8585C3.62383 17.9997 3.74893 18.1369 3.88575 18.2703C5.01165 19.3842 6.50503 20.0001 8.09615 20.0001C8.39717 20.0001 8.69819 19.9765 8.99139 19.9334C10.2424 19.749 11.3957 19.1724 12.3065 18.2703C13.4246 17.1603 14.0423 15.6894 14.0501 14.1205L13.9915 7.1426C14.5232 7.55444 15.1056 7.89961 15.7351 8.16241C16.7085 8.57426 17.7406 8.78606 18.8 8.78606" fill="#F00044"/>
<path d="M3.87402 9.92746C4.9882 8.81744 6.46985 8.20163 8.04923 8.18986V7.3544C7.75603 7.31125 7.45501 7.28772 7.15399 7.28772C5.55896 7.28772 4.06167 7.90353 2.93578 9.02532C1.82942 10.1275 1.19611 11.6337 1.20001 13.1987C1.20001 14.7755 1.82161 16.2542 2.94359 17.3721C3.12343 17.5486 3.30717 17.7133 3.50263 17.8624C2.61912 16.8073 2.13826 15.4893 2.13435 14.1008C2.13826 12.5358 2.76767 11.0296 3.87402 9.92746Z" fill="#15E8E2"/>
<path d="M17.901 5.62072V4.78134H17.8931C16.8063 4.78134 15.8055 4.42048 15.0002 3.80859C15.7 4.73427 16.7242 5.39322 17.901 5.62072Z" fill="#15E8E2"/>
<path d="M7.93198 16.9132C8.30337 16.9328 8.65912 16.8818 8.98751 16.7759C10.1212 16.4033 10.9383 15.3442 10.9383 14.0969L10.9422 9.42932V0.90214H13.1784C13.1197 0.607964 13.0884 0.309865 13.0845 0H10.0039V8.52326L10 13.1909C10 14.4382 9.18297 15.4972 8.04926 15.8698C7.72087 15.9796 7.36512 16.0306 6.99373 16.0071C6.52069 15.9796 6.07893 15.8384 5.69582 15.6109C6.17667 16.3562 6.99764 16.8622 7.93198 16.9132Z" fill="#15E8E2"/>
<path d="M8.04929 19.0312C9.30029 18.8468 10.4536 18.2703 11.3644 17.3681C12.4825 16.2581 13.1002 14.7872 13.108 13.2183L13.0924 6.24041C13.6241 6.65226 14.2066 6.99743 14.836 7.26022C15.8094 7.67207 16.8415 7.88388 17.9009 7.88388V5.62068C16.7242 5.39319 15.6999 4.73423 15.0002 3.80856C14.0775 3.11038 13.4129 2.08273 13.1823 0.9021H10.9422V9.42536L10.9383 14.093C10.9383 15.3403 10.1213 16.3993 8.98754 16.7719C8.65915 16.8817 8.3034 16.9327 7.93201 16.9092C6.99376 16.8582 6.1767 16.3522 5.69585 15.6109C4.87879 15.1245 4.32366 14.242 4.30802 13.23C4.28457 11.6533 5.56684 10.3667 7.15405 10.3667C7.4668 10.3667 7.76782 10.4177 8.04929 10.5079V8.1859C6.46991 8.19766 4.98826 8.81347 3.87408 9.9235C2.76773 11.0257 2.13441 12.5319 2.13832 14.093C2.13832 15.4815 2.61918 16.7994 3.5066 17.8545C4.5465 18.6586 5.81704 19.0939 7.15405 19.0939C7.45507 19.0979 7.75609 19.0743 8.04929 19.0312Z" fill="black"/>
</svg>
