<svg version="1.0" xmlns="http://www.w3.org/2000/svg"
 width="1920.000000pt" height="1080.000000pt" viewBox="0 0 1920.000000 1080.000000"
 preserveAspectRatio="xMidYMid meet">

<g transform="translate(0.000000,1080.000000) scale(0.100000,-0.100000)"
fill="#000000" stroke="none">
<path d="M0 5400 l0 -5400 9600 0 9600 0 0 5400 0 5400 -9600 0 -9600 0 0
-5400z m8800 2810 l0 -800 400 0 400 0 0 400 0 400 400 0 400 0 0 400 0 400
1205 0 1205 0 0 -1205 0 -1205 -400 0 -400 0 0 -400 0 -400 -405 0 -405 0 0
-400 0 -400 403 -2 402 -3 3 -397 2 -398 400 0 400 0 0 -1205 0 -1205 -1205 0
-1205 0 0 400 0 400 -400 0 -400 0 0 400 0 400 -400 0 -400 0 0 -800 0 -800
-1205 0 -1205 0 0 3610 0 3610 1205 0 1205 0 0 -800z"/>
</g>
</svg>
