<svg width="20" height="20" viewBox="0 0 20 20" fill="none" xmlns="http://www.w3.org/2000/svg">
<g clip-path="url(#clip0_1699_23482)">
<path d="M10 20C15.5228 20 20 15.5228 20 10C20 4.47715 15.5228 0 10 0C4.47715 0 0 4.47715 0 10C0 15.5228 4.47715 20 10 20Z" fill="url(#paint0_linear_1699_23482)"/>
<path d="M4.52663 9.8944C7.44183 8.6243 9.38576 7.78696 10.3584 7.3824C13.1355 6.22731 13.7126 6.02666 14.0887 6.01996C14.1714 6.01858 14.3564 6.03908 14.4762 6.1363C14.5774 6.21839 14.6052 6.32928 14.6185 6.40711C14.6318 6.48494 14.6484 6.66224 14.6352 6.80077C14.4847 8.38201 13.8336 12.2193 13.5023 13.9903C13.3621 14.7396 13.0861 14.9909 12.8189 15.0155C12.2382 15.0689 11.7972 14.6317 11.2347 14.263C10.3546 13.6861 9.85738 13.3269 9.00306 12.764C8.01575 12.1133 8.65578 11.7557 9.21845 11.1713C9.3657 11.0184 11.9244 8.69109 11.9739 8.47997C11.9801 8.45356 11.9858 8.35514 11.9274 8.30317C11.8689 8.2512 11.7826 8.26897 11.7203 8.28311C11.632 8.30314 10.226 9.23247 7.50225 11.0711C7.10316 11.3451 6.74167 11.4787 6.41779 11.4717C6.06074 11.4639 5.37391 11.2698 4.86333 11.1038C4.23708 10.9002 3.73935 10.7926 3.78269 10.4469C3.80527 10.2668 4.05324 10.0827 4.52663 9.8944Z" fill="white"/>
</g>
<defs>
<linearGradient id="paint0_linear_1699_23482" x1="10" y1="0" x2="10" y2="19.8516" gradientUnits="userSpaceOnUse">
<stop stop-color="#2AABEE"/>
<stop offset="1" stop-color="#229ED9"/>
</linearGradient>
<clipPath id="clip0_1699_23482">
<rect width="20" height="20" fill="white"/>
</clipPath>
</defs>
</svg>
