<svg width="20" height="20" viewBox="0 0 20 20" fill="none" xmlns="http://www.w3.org/2000/svg">
<path d="M19.8939 14.5149C19.8697 14.4636 19.8471 14.4211 19.8262 14.3871C19.4792 13.7737 18.8161 13.0208 17.8372 12.1281L17.8166 12.1077L17.8062 12.0977L17.7957 12.0874H17.7852C17.341 11.6717 17.0597 11.3923 16.9419 11.2492C16.7263 10.9766 16.678 10.7007 16.7959 10.4212C16.8791 10.21 17.1917 9.7639 17.733 9.08241C18.0178 8.72124 18.2433 8.43177 18.4098 8.21369C19.6109 6.64643 20.1316 5.64494 19.9719 5.2088L19.9098 5.10689C19.8681 5.04553 19.7606 4.9894 19.5872 4.9382C19.4134 4.88712 19.1914 4.87867 18.9206 4.91272L15.9216 4.93305C15.8731 4.91615 15.8037 4.91773 15.7133 4.9382C15.623 4.95868 15.5779 4.96896 15.5779 4.96896L15.5257 4.99455L15.4843 5.0253C15.4495 5.04564 15.4114 5.0814 15.3697 5.13252C15.3282 5.18346 15.2935 5.24324 15.2658 5.31137C14.9393 6.13584 14.5681 6.90239 14.1515 7.61099C13.8946 8.03351 13.6587 8.3997 13.4432 8.70975C13.2281 9.01969 13.0476 9.24805 12.9019 9.39443C12.756 9.54095 12.6244 9.65833 12.5061 9.74701C12.388 9.83571 12.2979 9.8732 12.2355 9.85948C12.173 9.84577 12.1141 9.83217 12.0583 9.81857C11.9612 9.75721 11.8831 9.67376 11.8241 9.56816C11.765 9.46255 11.7252 9.32963 11.7043 9.16951C11.6836 9.00927 11.6714 8.87145 11.6679 8.75557C11.6646 8.63983 11.6661 8.47613 11.6732 8.26492C11.6804 8.0536 11.6836 7.91062 11.6836 7.83566C11.6836 7.57669 11.6888 7.29564 11.6991 6.99242C11.7096 6.68921 11.7181 6.44897 11.7252 6.27198C11.7323 6.09482 11.7356 5.90738 11.7356 5.70977C11.7356 5.51216 11.7233 5.35719 11.6991 5.24471C11.6752 5.13237 11.6384 5.02333 11.59 4.91762C11.5413 4.81201 11.4701 4.73032 11.3766 4.67233C11.2829 4.61441 11.1664 4.56844 11.0277 4.53429C10.6598 4.45256 10.1912 4.40835 9.62183 4.40148C8.33067 4.38788 7.50103 4.46971 7.1331 4.64688C6.98732 4.72173 6.8554 4.82401 6.73745 4.95338C6.61245 5.10334 6.59502 5.18518 6.68525 5.19864C7.10184 5.25989 7.39676 5.40641 7.57033 5.63806L7.63288 5.76082C7.68153 5.84938 7.73012 6.00618 7.77873 6.23099C7.82728 6.45581 7.85861 6.7045 7.87239 6.97692C7.90704 7.47441 7.90704 7.90027 7.87239 8.25453C7.83764 8.60894 7.80481 8.88484 7.77348 9.08244C7.74215 9.28005 7.69532 9.44018 7.63288 9.56279C7.57033 9.68543 7.52871 9.76039 7.50785 9.7876C7.48703 9.81481 7.46967 9.83196 7.45588 9.83869C7.36565 9.87262 7.2718 9.88991 7.17468 9.88991C7.0774 9.88991 6.95945 9.84216 6.82064 9.74672C6.68186 9.65128 6.53783 9.52019 6.38855 9.35322C6.23927 9.18622 6.07091 8.95285 5.88341 8.65308C5.69605 8.3533 5.50165 7.99901 5.30032 7.59019L5.13375 7.2937C5.02962 7.10297 4.88738 6.82525 4.70688 6.46078C4.52627 6.09618 4.36663 5.74349 4.22785 5.4028C4.17237 5.25971 4.08904 5.15078 3.97798 5.07581L3.92586 5.04506C3.89121 5.01786 3.83559 4.98897 3.75929 4.95818C3.68288 4.92743 3.60315 4.90538 3.51977 4.89181L0.66657 4.91214C0.37501 4.91214 0.177183 4.97697 0.0730178 5.10646L0.0313298 5.16771C0.0105041 5.20182 0 5.25631 0 5.33131C0 5.40627 0.0208258 5.49827 0.0625138 5.60721C0.479029 6.56803 0.93198 7.49468 1.42137 8.38727C1.91075 9.27987 2.33602 9.99888 2.69692 10.5437C3.05789 11.0888 3.42582 11.6034 3.80072 12.087C4.17562 12.5708 4.42378 12.8809 4.5452 13.0171C4.66676 13.1535 4.76224 13.2556 4.83165 13.3237L5.09203 13.569C5.25863 13.7325 5.50329 13.9284 5.82611 14.1566C6.149 14.385 6.50646 14.6098 6.89869 14.8314C7.29099 15.0527 7.74737 15.2333 8.26808 15.3729C8.78873 15.5127 9.29548 15.5688 9.7884 15.5417H10.9859C11.2288 15.5211 11.4128 15.4462 11.5379 15.3168L11.5793 15.2656C11.6072 15.2249 11.6333 15.1617 11.6573 15.0767C11.6817 14.9915 11.6938 14.8977 11.6938 14.7957C11.6867 14.5027 11.7094 14.2387 11.7613 14.0037C11.8132 13.7687 11.8724 13.5915 11.9386 13.4722C12.0047 13.353 12.0793 13.2524 12.1624 13.1708C12.2456 13.0891 12.3049 13.0396 12.3397 13.0226C12.3743 13.0054 12.4019 12.9938 12.4227 12.9868C12.5893 12.9323 12.7854 12.9851 13.0112 13.1453C13.2369 13.3055 13.4485 13.5032 13.6465 13.7382C13.8444 13.9734 14.0821 14.2372 14.3597 14.5302C14.6375 14.8232 14.8804 15.0411 15.0886 15.1844L15.2968 15.307C15.4358 15.3888 15.6163 15.4638 15.8385 15.5319C16.0603 15.6 16.2546 15.6171 16.4215 15.583L19.0872 15.5422C19.3508 15.5422 19.556 15.4993 19.7015 15.4143C19.8473 15.3292 19.9339 15.2353 19.9619 15.1333C19.9897 15.0311 19.9912 14.9152 19.9672 14.7856C19.9425 14.6563 19.9181 14.5659 19.8939 14.5149Z" fill="black"/>
</svg>
