<svg xmlns="http://www.w3.org/2000/svg" width="48" height="48" viewBox="0 0 48 48" fill="none">
    <path fill-rule="evenodd" clip-rule="evenodd" d="M7.48055 7.48055C4.78125 10.1799 4.78125 14.5243 4.78125 23.2133V24.7493C4.78125 33.4382 4.78125 37.7826 7.48055 40.482C10.1799 43.1813 14.5243 43.1813 23.2133 43.1813H24.7493C33.4382 43.1813 37.7826 43.1813 40.482 40.482C43.1813 37.7826 43.1813 33.4382 43.1813 24.7493V23.2133C43.1813 14.5243 43.1813 10.1799 40.482 7.48055C37.7826 4.78125 33.4382 4.78125 24.7493 4.78125H23.2133C14.5243 4.78125 10.1799 4.78125 7.48055 7.48055ZM11.2613 16.4613C11.4693 26.4453 16.4613 32.4453 25.2133 32.4453H25.7094V26.7333C28.9254 27.0533 31.3573 29.4053 32.3333 32.4453H36.8773C35.6293 27.9013 32.3492 25.3893 30.3012 24.4293C32.3492 23.2453 35.2292 20.3653 35.9172 16.4613H31.7891C30.8931 19.6293 28.2374 22.5093 25.7094 22.7813V16.4613H21.5813V27.5333C19.0212 26.8933 15.7893 23.7893 15.6453 16.4613H11.2613Z" fill="white"/>
</svg>
