<svg width="20" height="18" viewBox="0 0 20 18" fill="none" xmlns="http://www.w3.org/2000/svg">
<path fill-rule="evenodd" clip-rule="evenodd" d="M1.3749 7.83227C6.74359 5.4614 10.3236 3.89838 12.1148 3.1432C17.2292 0.987026 18.2919 0.612475 18.9846 0.600107C19.1369 0.597387 19.4776 0.635657 19.6982 0.817133C19.8845 0.970367 19.9358 1.17737 19.9603 1.32265C19.9848 1.46793 20.0154 1.79889 19.9911 2.05749C19.714 5.00914 18.5147 12.172 17.9046 15.4779C17.6465 16.8767 17.1382 17.3458 16.6461 17.3917C15.5766 17.4914 14.7645 16.6753 13.7287 15.987C12.1078 14.9101 11.1921 14.2397 9.61879 13.1888C7.80053 11.9743 8.97923 11.3068 10.0154 10.2159C10.2866 9.93038 14.9987 5.58608 15.0899 5.19199C15.1013 5.1427 15.1119 4.95898 15.0042 4.86196C14.8965 4.76495 14.7376 4.79813 14.6229 4.82451C14.4604 4.86191 11.871 6.59665 6.85486 10.0287C6.11988 10.5403 5.45416 10.7895 4.8577 10.7765C4.20015 10.7621 2.93528 10.3996 1.99498 10.0898C0.84166 9.70983 -0.074973 9.50892 0.00484519 8.86357C0.0464194 8.52743 0.503103 8.18366 1.3749 7.83227Z" fill="black"/>
</svg>
