<svg width="20" height="20" viewBox="0 0 20 20" fill="none" xmlns="http://www.w3.org/2000/svg">
<path fill-rule="evenodd" clip-rule="evenodd" d="M19.9999 10.0173C19.9999 10.0173 19.9999 13.4336 19.5881 15.081C19.3573 15.9827 18.682 16.6938 17.8252 16.9365C16.2601 17.3702 9.99995 17.3702 9.99995 17.3702C9.99995 17.3702 3.75608 17.3702 2.17467 16.9192C1.31789 16.6764 0.642544 15.9653 0.411832 15.0637C0 13.4336 0 9.99998 0 9.99998C0 9.99998 0 6.58366 0.411832 4.93637C0.642392 4.03465 1.33438 3.30625 2.17452 3.06356C3.7396 2.62988 9.9998 2.62988 9.9998 2.62988C9.9998 2.62988 16.2601 2.62988 17.8252 3.08074C18.6819 3.3236 19.3573 4.03449 19.5879 4.93637C20.0164 6.58366 19.9999 10.0173 19.9999 10.0173Z" fill="#FF0000"/>
<path d="M8.07617 13.1643L13.3277 10.0082L8.07617 6.85205V13.1643Z" fill="white"/>
</svg>
