<?xml version="1.0" encoding="UTF-8"?>
<svg xmlns="http://www.w3.org/2000/svg" xmlns:xlink="http://www.w3.org/1999/xlink" viewBox="0 0 54 54" width="54px" height="54px">
<g id="surface928544">
<path style=" stroke:none;fill-rule:nonzero;fill:rgb(100%,100%,100%);fill-opacity:1;" d="M 51.867188 12.398438 C 50.125 13.171875 48.246094 13.6875 46.265625 13.929688 C 48.28125 12.734375 49.828125 10.828125 50.554688 8.578125 C 48.671875 9.679688 46.585938 10.492188 44.367188 10.917969 C 42.59375 9.039062 40.0625 7.875 37.261719 7.875 C 31.882812 7.875 27.519531 12.199219 27.519531 17.53125 C 27.519531 18.285156 27.609375 19.019531 27.773438 19.734375 C 19.675781 19.328125 12.496094 15.476562 7.691406 9.636719 C 6.847656 11.0625 6.375 12.734375 6.375 14.5 C 6.375 17.851562 8.089844 20.800781 10.707031 22.539062 C 9.109375 22.492188 7.605469 22.046875 6.289062 21.332031 C 6.289062 21.363281 6.289062 21.40625 6.289062 21.445312 C 6.289062 26.128906 9.648438 30.03125 14.101562 30.917969 C 13.289062 31.140625 12.429688 31.265625 11.542969 31.265625 C 10.914062 31.265625 10.300781 31.195312 9.707031 31.085938 C 10.945312 34.914062 14.542969 37.710938 18.804688 37.796875 C 15.46875 40.378906 11.269531 41.929688 6.703125 41.929688 C 5.914062 41.929688 5.140625 41.882812 4.378906 41.792969 C 8.695312 44.523438 13.820312 46.125 19.316406 46.125 C 37.234375 46.125 47.039062 31.410156 47.039062 18.644531 C 47.039062 18.226562 47.023438 17.8125 47.007812 17.398438 C 48.917969 16.046875 50.566406 14.34375 51.867188 12.398438 "/>
</g>
</svg>
