<svg width="50" height="54" viewBox="0 0 50 54" fill="none" xmlns="http://www.w3.org/2000/svg">
<g filter="url(#filter0_d_1947_15966)">
<path d="M19.3498 27.7061C16.3241 27.7061 13.8797 30.1505 13.9244 33.1464C13.9542 35.0691 15.0125 36.7384 16.5701 37.67C16.0409 36.8577 15.7279 35.8963 15.713 34.8604C15.6683 31.8645 18.1127 29.4201 21.1384 29.4201C21.7346 29.4201 22.3084 29.517 22.845 29.6884V23.6892C22.2861 23.6072 21.7122 23.5625 21.1384 23.5625C21.1086 23.5625 21.0862 23.5625 21.0564 23.5625V27.9744C20.5199 27.8029 19.946 27.7061 19.3498 27.7061Z" fill="#F00044"/>
<path d="M32.4288 9.71484H32.3841H30.834C31.2811 11.958 32.5406 13.9106 34.2994 15.2371C33.1442 13.7094 32.4437 11.8015 32.4288 9.71484Z" fill="#F00044"/>
<path d="M41.5505 18.8436C40.9617 18.8436 40.3953 18.784 39.8364 18.6797V22.9798C37.8093 22.9798 35.8419 22.5848 33.9937 21.7948C32.8013 21.288 31.6909 20.6397 30.6699 19.8572L30.6997 33.1151C30.6848 36.0961 29.5073 38.8907 27.3759 40.9998C25.6395 42.7138 23.441 43.8094 21.0562 44.1596C20.4973 44.2416 19.9235 44.2863 19.3496 44.2863C16.8009 44.2863 14.3714 43.4591 12.3965 41.9313C12.6201 42.1996 12.8585 42.4605 13.1194 42.7138C15.2657 44.8303 18.1125 46.0004 21.1457 46.0004C21.7195 46.0004 22.2933 45.9557 22.8523 45.8737C25.2371 45.5234 27.4355 44.4279 29.172 42.7138C31.3034 40.6048 32.4808 37.8101 32.4957 34.8292L32.384 21.5712C33.3975 22.3537 34.5079 23.0096 35.7078 23.5089C37.5634 24.2914 39.5309 24.6938 41.5505 24.6938" fill="#F00044"/>
<path d="M13.0975 26.8632C15.2215 24.7541 18.0459 23.5841 21.0567 23.5617V21.9743C20.4978 21.8924 19.924 21.8477 19.3501 21.8477C16.3095 21.8477 13.4552 23.0177 11.3089 25.1491C9.19988 27.2432 7.99258 30.105 8.00003 33.0785C8.00003 36.0744 9.18497 38.884 11.3238 41.0079C11.6666 41.3433 12.0169 41.6563 12.3895 41.9395C10.7053 39.9348 9.78862 37.4307 9.78117 34.7926C9.78862 31.819 10.9885 28.9573 13.0975 26.8632Z" fill="#15E8E2"/>
<path d="M39.8373 18.6774V17.0826H39.8224C37.7507 17.0826 35.8428 16.397 34.3076 15.2344C35.6416 16.9932 37.5941 18.2452 39.8373 18.6774Z" fill="#15E8E2"/>
<path d="M20.8331 40.135C21.5411 40.1722 22.2193 40.0754 22.8453 39.8741C25.0065 39.1662 26.564 37.154 26.564 34.7841L26.5715 25.9157V9.71406H30.8343C30.7225 9.15513 30.6629 8.58874 30.6554 8H24.7829V24.1942L24.7755 33.0626C24.7755 35.4325 23.2179 37.4446 21.0567 38.1526C20.4307 38.3613 19.7525 38.4582 19.0445 38.4135C18.1428 38.3613 17.3007 38.093 16.5703 37.6608C17.487 39.0767 19.052 40.0381 20.8331 40.135Z" fill="#15E8E2"/>
<path d="M21.0572 44.1601C23.442 43.8098 25.6405 42.7143 27.3769 41.0002C29.5083 38.8912 30.6858 36.0965 30.7007 33.1155L30.6709 19.8576C31.6844 20.6401 32.7948 21.296 33.9947 21.7953C35.8503 22.5778 37.8178 22.9802 39.8374 22.9802V18.6801C37.5942 18.2479 35.6417 16.9959 34.3077 15.2371C32.5489 13.9106 31.282 11.958 30.8423 9.71484H26.572V25.909L26.5646 34.7774C26.5646 37.1473 25.007 39.1595 22.8458 39.8675C22.2198 40.0761 21.5416 40.173 20.8336 40.1283C19.045 40.0314 17.4875 39.0701 16.5708 37.6615C15.0133 36.7374 13.955 35.0606 13.9252 33.1379C13.8805 30.142 16.3249 27.6976 19.3506 27.6976C19.9468 27.6976 20.5206 27.7945 21.0572 27.9659V23.554C18.0464 23.5764 15.2219 24.7464 13.098 26.8555C10.9889 28.9496 9.78164 31.8114 9.7891 34.7774C9.7891 37.4156 10.7057 39.9196 12.3975 41.9243C14.3798 43.4521 16.8019 44.2793 19.3506 44.2793C19.9244 44.2868 20.4983 44.2421 21.0572 44.1601Z" fill="white"/>
</g>
<defs>
<filter id="filter0_d_1947_15966" x="0" y="0" width="49.5508" height="54" filterUnits="userSpaceOnUse" color-interpolation-filters="sRGB">
<feFlood flood-opacity="0" result="BackgroundImageFix"/>
<feColorMatrix in="SourceAlpha" type="matrix" values="0 0 0 0 0 0 0 0 0 0 0 0 0 0 0 0 0 0 127 0" result="hardAlpha"/>
<feOffset/>
<feGaussianBlur stdDeviation="4"/>
<feComposite in2="hardAlpha" operator="out"/>
<feColorMatrix type="matrix" values="0 0 0 0 1 0 0 0 0 1 0 0 0 0 1 0 0 0 0.15 0"/>
<feBlend mode="normal" in2="BackgroundImageFix" result="effect1_dropShadow_1947_15966"/>
<feBlend mode="normal" in="SourceGraphic" in2="effect1_dropShadow_1947_15966" result="shape"/>
</filter>
</defs>
</svg>
