<svg width="20" height="20" viewBox="0 0 20 20" fill="none" xmlns="http://www.w3.org/2000/svg">
<g clip-path="url(#clip0_1699_23492)">
<path d="M6.97345 10.3708C5.38099 10.3708 4.09446 11.6573 4.11799 13.2341C4.13368 14.246 4.69065 15.1246 5.51042 15.6149C5.23194 15.1874 5.0672 14.6814 5.05935 14.1362C5.03582 12.5594 6.32235 11.2729 7.91482 11.2729C8.2286 11.2729 8.53062 11.3239 8.81303 11.4141V8.25662C8.51886 8.21348 8.21684 8.18994 7.91482 8.18994C7.89913 8.18994 7.88736 8.18994 7.87167 8.18994V10.512C7.58926 10.4218 7.28724 10.3708 6.97345 10.3708Z" fill="#F00044"/>
<path d="M13.8574 0.902344H13.8339H13.0181C13.2534 2.08297 13.9163 3.11062 14.842 3.8088C14.234 3.00472 13.8653 2.0006 13.8574 0.902344Z" fill="#F00044"/>
<path d="M18.6582 5.70739C18.3483 5.70739 18.0502 5.67601 17.756 5.62109V7.88428C16.6891 7.88428 15.6536 7.6764 14.6809 7.26063C14.0533 6.99391 13.4689 6.65267 12.9315 6.24082L12.9472 13.2187C12.9394 14.7876 12.3197 16.2585 11.1979 17.3685C10.284 18.2706 9.12687 18.8472 7.87172 19.0316C7.57755 19.0747 7.27553 19.0982 6.97351 19.0982C5.63207 19.0982 4.35338 18.6629 3.31396 17.8588C3.43163 18 3.55715 18.1373 3.69443 18.2706C4.82406 19.3846 6.3224 20.0004 7.91879 20.0004C8.22081 20.0004 8.52283 19.9769 8.817 19.9337C10.0722 19.7494 11.2292 19.1728 12.1431 18.2706C13.2649 17.1606 13.8847 15.6897 13.8925 14.1208L13.8337 7.14296C14.3671 7.55481 14.9515 7.89997 15.583 8.16277C16.5597 8.57461 17.5952 8.78642 18.6582 8.78642" fill="#F00044"/>
<path d="M3.6829 9.92733C4.80076 8.81731 6.28733 8.2015 7.87195 8.18974V7.35428C7.57778 7.31113 7.27576 7.2876 6.97374 7.2876C5.37343 7.2876 3.87117 7.90341 2.74154 9.02519C1.63151 10.1274 0.996096 11.6336 1.00002 13.1986C1.00002 14.7753 1.62367 16.2541 2.74938 17.3719C2.92981 17.5484 3.11416 17.7132 3.31028 17.8622C2.42383 16.8071 1.94138 15.4892 1.93746 14.1007C1.94138 12.5357 2.57288 11.0295 3.6829 9.92733Z" fill="#15E8E2"/>
<path d="M17.7561 5.62071V4.78133H17.7482C16.6578 4.78133 15.6537 4.42048 14.8457 3.80859C15.5478 4.73426 16.5755 5.39322 17.7561 5.62071Z" fill="#15E8E2"/>
<path d="M7.75432 16.9131C8.12694 16.9327 8.48387 16.8817 8.81335 16.7758C9.95083 16.4032 10.7706 15.3442 10.7706 14.0969L10.7745 9.4293V0.902138H13.0181C12.9593 0.607962 12.9279 0.309865 12.924 0H9.83316V8.52324L9.82923 13.1908C9.82923 14.4381 9.00946 15.4972 7.87199 15.8698C7.54251 15.9796 7.18558 16.0306 6.81296 16.0071C6.33835 15.9796 5.89513 15.8384 5.51074 15.6109C5.99319 16.3561 6.81688 16.8621 7.75432 16.9131Z" fill="#15E8E2"/>
<path d="M7.872 19.0314C9.12715 18.847 10.2842 18.2705 11.1981 17.3683C12.3199 16.2583 12.9397 14.7874 12.9475 13.2185L12.9318 6.24065C13.4653 6.65249 14.0497 6.99766 14.6812 7.26045C15.6578 7.6723 16.6933 7.88411 17.7563 7.88411V5.62092C16.5757 5.39342 15.548 4.73447 14.8459 3.8088C13.9202 3.11062 13.2534 2.08297 13.022 0.902344H10.7745V9.42558L10.7706 14.0932C10.7706 15.3405 9.95084 16.3995 8.81336 16.7721C8.48388 16.8819 8.12695 16.9329 7.75433 16.9094C6.81297 16.8584 5.9932 16.3524 5.51075 15.6111C4.69098 15.1247 4.13401 14.2422 4.11832 13.2303C4.09479 11.6535 5.38131 10.3669 6.97378 10.3669C7.28757 10.3669 7.58959 10.4179 7.872 10.5081V8.18613C6.28737 8.19789 4.80081 8.8137 3.68294 9.92372C2.57292 11.0259 1.9375 12.5321 1.94142 14.0932C1.94142 15.4817 2.42387 16.7996 3.31424 17.8547C4.35758 18.6588 5.63234 19.0941 6.97378 19.0941C7.2758 19.0981 7.57782 19.0745 7.872 19.0314Z" fill="black"/>
</g>
<defs>
<clipPath id="clip0_1699_23492">
<rect width="20" height="20" fill="white"/>
</clipPath>
</defs>
</svg>
