<svg xmlns="http://www.w3.org/2000/svg" width="59" height="58" viewBox="0 0 59 58" fill="none">
    <g filter="url(#filter0_d_3020_14523)">
        <path d="M50.2797 29.0812C50.2797 17.5937 40.9672 8.28125 29.4797 8.28125C17.9922 8.28125 8.67969 17.5937 8.67969 29.0812C8.67969 39.463 16.2859 48.0682 26.2297 49.6286V35.0938H20.9484V29.0812H26.2297V24.4988C26.2297 19.2858 29.3351 16.4062 34.0862 16.4062C36.3612 16.4062 38.7422 16.8125 38.7422 16.8125V21.9313H36.1194C33.5357 21.9313 32.7297 23.5347 32.7297 25.1812V29.0812H38.4984L37.5762 35.0938H32.7297V49.6286C42.6735 48.0682 50.2797 39.463 50.2797 29.0812Z" fill="white"/>
    </g>
    <defs>
        <filter id="filter0_d_3020_14523" x="-4.5" y="-5" width="68" height="68" filterUnits="userSpaceOnUse" color-interpolation-filters="sRGB">
            <feFlood flood-opacity="0" result="BackgroundImageFix"/>
            <feColorMatrix in="SourceAlpha" type="matrix" values="0 0 0 0 0 0 0 0 0 0 0 0 0 0 0 0 0 0 127 0" result="hardAlpha"/>
            <feOffset/>
            <feGaussianBlur stdDeviation="4"/>
            <feComposite in2="hardAlpha" operator="out"/>
            <feColorMatrix type="matrix" values="0 0 0 0 1 0 0 0 0 1 0 0 0 0 1 0 0 0 0.3 0"/>
            <feBlend mode="normal" in2="BackgroundImageFix" result="effect1_dropShadow_3020_14523"/>
            <feBlend mode="normal" in="SourceGraphic" in2="effect1_dropShadow_3020_14523" result="shape"/>
        </filter>
    </defs>
</svg>
