<svg width="20" height="20" viewBox="0 0 20 20" fill="none" xmlns="http://www.w3.org/2000/svg">
<path d="M15.2 0H4.8C2.14903 0 0 2.14903 0 4.8V15.2C0 17.851 2.14903 20 4.8 20H15.2C17.851 20 20 17.851 20 15.2V4.8C20 2.14903 17.851 0 15.2 0Z" fill="#0077FF"/>
<path d="M10.606 13.7413C6.5586 13.7413 4.09726 10.9283 4 6.26001H6.05736C6.12469 9.69392 7.68828 11.1453 8.88529 11.4445V6.26001H10.8454V9.2226C12.005 9.09542 13.2095 7.74879 13.6135 6.26001H15.5586C15.4096 7.02398 15.1057 7.74933 14.6656 8.39138C14.2256 9.03342 13.6587 9.57855 13 9.99318C13.7344 10.3733 14.381 10.9033 14.8977 11.5489C15.4145 12.1945 15.79 12.9414 16 13.7413H13.8753C13.4264 12.3199 12.3267 11.2201 10.8454 11.0705V13.7413H10.6209H10.606Z" fill="white"/>
</svg>
