<svg width="54" height="54" viewBox="0 0 54 54" fill="none" xmlns="http://www.w3.org/2000/svg">
<g filter="url(#filter0_d_1947_15955)">
<path d="M45.8858 19.1665C45.7933 17.1441 45.4721 15.7629 45.0024 14.5545C44.5255 13.2867 43.7775 12.1383 42.8109 11.1891C41.862 10.2225 40.7134 9.47424 39.4456 8.99703C38.2369 8.52765 36.856 8.20671 34.8336 8.11481C32.8073 8.02203 32.1599 8 27 8C21.8401 8 21.1927 8.02203 19.1664 8.11423C17.144 8.20671 15.7631 8.52794 14.5544 8.99761C13.2866 9.47453 12.1383 10.2225 11.1891 11.1891C10.2225 12.138 9.47423 13.2864 8.99702 14.5542C8.52765 15.7629 8.20671 17.1441 8.11481 19.1662C8.02203 21.1928 8 21.8399 8 26.9999C8 32.1601 8.02203 32.8075 8.11481 34.8338C8.207 36.8559 8.52823 38.2371 8.99789 39.4458C9.47481 40.7133 10.2228 41.862 11.1894 42.8109C12.1383 43.7775 13.2869 44.5255 14.5547 45.0024C15.7631 45.4723 17.1443 45.7933 19.1667 45.8858C21.1933 45.9783 21.8403 46 27.0003 46C32.1602 46 32.8076 45.9783 34.8338 45.8858C36.8563 45.7933 38.2372 45.4723 39.4458 45.0024C41.998 44.0155 44.0155 41.998 45.0024 39.4458C45.4724 38.2371 45.7933 36.8559 45.8858 34.8338C45.978 32.8072 46 32.1601 46 27.0001C46 21.8399 45.978 21.1928 45.8858 19.1665ZM42.4656 34.6781C42.3813 36.5307 42.0716 37.5367 41.8116 38.2061C41.1723 39.8633 39.8627 41.1728 38.2056 41.8121C37.5362 42.0722 36.5302 42.3818 34.6776 42.4662C32.6745 42.5578 32.0735 42.5769 27 42.5769C21.9262 42.5769 21.3255 42.5578 19.3221 42.4662C17.4698 42.3818 16.4638 42.0722 15.7941 41.8121C14.969 41.5074 14.2225 41.0218 13.6096 40.3906C12.9785 39.7778 12.4928 39.0315 12.1881 38.2061C11.9281 37.5367 11.6185 36.5307 11.5341 34.6781C11.4428 32.6747 11.4233 32.0737 11.4233 27.0004C11.4233 21.9268 11.4428 21.3261 11.5341 19.3225C11.6187 17.4699 11.9281 16.4639 12.1881 15.7945C12.4928 14.9691 12.9787 14.2225 13.6096 13.6096C14.2225 12.9785 14.969 12.4929 15.7944 12.1885C16.4638 11.9281 17.4698 11.6188 19.3224 11.5341C21.3257 11.4428 21.9267 11.4234 27 11.4234C32.0733 11.4234 32.674 11.4428 34.6776 11.5344C36.5302 11.6188 37.5359 11.9284 38.2056 12.1885C39.0307 12.4932 39.7772 12.9788 40.3901 13.6096C41.0213 14.2225 41.5069 14.9691 41.8113 15.7945C42.0716 16.4639 42.3813 17.4699 42.4656 19.3225C42.5569 21.3258 42.5764 21.9268 42.5764 27.0001C42.5764 32.0737 42.5572 32.6744 42.4656 34.6781Z" fill="white"/>
<path d="M26.9996 17.2432C21.6112 17.2432 17.243 21.6117 17.243 27.0001C17.243 32.3886 21.6112 36.7568 26.9996 36.7568C32.3883 36.7568 36.7565 32.3886 36.7565 27.0001C36.7565 21.6117 32.3883 17.2432 26.9996 17.2432ZM26.9996 33.3334C23.502 33.3331 20.6664 30.4977 20.6666 26.9999C20.6666 23.5023 23.502 20.6666 26.9999 20.6666C30.4977 20.6669 33.3331 23.5023 33.3331 26.9999C33.3331 30.4977 30.4974 33.3334 26.9996 33.3334Z" fill="white"/>
<path d="M39.4222 16.8579C39.4222 18.117 38.4014 19.1378 37.1423 19.1378C35.8829 19.1378 34.8621 18.117 34.8621 16.8579C34.8621 15.5985 35.8829 14.5777 37.1423 14.5777C38.4014 14.5777 39.4222 15.5985 39.4222 16.8579Z" fill="white"/>
</g>
<defs>
<filter id="filter0_d_1947_15955" x="0" y="0" width="54" height="54" filterUnits="userSpaceOnUse" color-interpolation-filters="sRGB">
<feFlood flood-opacity="0" result="BackgroundImageFix"/>
<feColorMatrix in="SourceAlpha" type="matrix" values="0 0 0 0 0 0 0 0 0 0 0 0 0 0 0 0 0 0 127 0" result="hardAlpha"/>
<feOffset/>
<feGaussianBlur stdDeviation="4"/>
<feComposite in2="hardAlpha" operator="out"/>
<feColorMatrix type="matrix" values="0 0 0 0 1 0 0 0 0 1 0 0 0 0 1 0 0 0 0.5 0"/>
<feBlend mode="normal" in2="BackgroundImageFix" result="effect1_dropShadow_1947_15955"/>
<feBlend mode="normal" in="SourceGraphic" in2="effect1_dropShadow_1947_15955" result="shape"/>
</filter>
</defs>
</svg>
