<svg xmlns="http://www.w3.org/2000/svg" width="12" height="12" viewBox="0 0 12 12" fill="none">
    <g clip-path="url(#clip0_3962_4944)">
        <path d="M8.73038 7.7841C8.60216 7.86023 8.42715 7.8983 8.20536 7.8983H7.9968C7.96844 7.8983 7.94545 7.8753 7.94545 7.84694V6.99457C7.94545 6.96621 7.96844 6.94321 7.9968 6.94321H8.30413C8.71999 6.94321 8.92792 7.10066 8.92792 7.41556C8.92792 7.58513 8.86207 7.70797 8.73038 7.7841Z" fill="#828FA4"/>
        <path fill-rule="evenodd" clip-rule="evenodd" d="M4.26562 8.13281C4.26562 6.00045 6.00045 4.26562 8.13281 4.26562C10.2652 4.26562 12 6.00045 12 8.13281C12 10.2652 10.2652 12 8.13281 12C6.00045 12 4.26562 10.2652 4.26562 8.13281ZM7.16051 9.95435C7.16051 9.98271 7.1835 10.0057 7.21187 10.0057H7.89409C7.92246 10.0057 7.94545 9.98271 7.94545 9.95435V9.50166C7.94545 9.4733 7.96844 9.4503 7.9968 9.4503H8.69462C8.72299 9.4503 8.74598 9.42731 8.74598 9.39895V8.99817C8.74598 8.9698 8.72299 8.94681 8.69462 8.94681H7.9968C7.96844 8.94681 7.94545 8.92382 7.94545 8.89546V8.59329C7.94545 8.56493 7.96844 8.54194 7.9968 8.54194H8.28334C8.64375 8.54194 8.92792 8.4883 9.13585 8.38103C9.34725 8.27375 9.49799 8.13188 9.5881 7.95539C9.6782 7.77891 9.72325 7.59032 9.72325 7.38961C9.72325 7.05049 9.61236 6.78403 9.39056 6.59025C9.17224 6.39646 8.82395 6.29957 8.34571 6.29957H7.21187C7.1835 6.29957 7.16051 6.32256 7.16051 6.35093V7.84694C7.16051 7.8753 7.13752 7.8983 7.10916 7.8983H6.79601C6.76764 7.8983 6.74465 7.92129 6.74465 7.94965V8.49058C6.74465 8.51895 6.76764 8.54194 6.79601 8.54194H7.10916C7.13752 8.54194 7.16051 8.56493 7.16051 8.59329V8.89546C7.16051 8.92382 7.13752 8.94681 7.10916 8.94681H6.79601C6.76764 8.94681 6.74465 8.9698 6.74465 8.99817V9.39895C6.74465 9.42731 6.76764 9.4503 6.79601 9.4503H7.10916C7.13752 9.4503 7.16051 9.4733 7.16051 9.50166V9.95435Z" fill="#828FA4"/>
        <path d="M3.91406 4.26562C6.0825 4.26562 7.78125 3.339 7.78125 2.15625C7.78125 0.9735 6.0825 0 3.91406 0C1.74563 0 0 0.9735 0 2.15625C0 3.339 1.74563 4.26562 3.91406 4.26562Z" fill="#828FA4"/>
        <path d="M0 7.91016V8.48299C0 9.66574 1.74563 10.5924 3.91406 10.5924C4.03706 10.5924 4.15624 10.581 4.27734 10.5751C4.00767 10.1511 3.80655 9.68063 3.68813 9.17766C2.12004 9.13437 0.758484 8.65252 0 7.91016Z" fill="#828FA4"/>
        <path d="M3.5794 8.46509C3.57134 8.35451 3.5625 8.24405 3.5625 8.13143C3.5625 7.76494 3.61052 7.41023 3.69241 7.06847C2.12238 7.02593 0.759164 6.54382 0 5.80078V6.37362C0 7.49363 1.57645 8.37382 3.5794 8.46509Z" fill="#828FA4"/>
        <path d="M3.91406 6.37362C3.91444 6.37362 3.91474 6.37357 3.91514 6.37357C4.14701 5.81941 4.48406 5.31987 4.90263 4.90132C4.58512 4.94145 4.257 4.96737 3.91406 4.96737C2.24491 4.96737 0.795141 4.46963 0 3.69141V4.26424C0 5.44699 1.74563 6.37362 3.91406 6.37362Z" fill="#828FA4"/>
    </g>
    <defs>
        <clipPath id="clip0_3962_4944">
            <rect width="12" height="12" fill="white"/>
        </clipPath>
    </defs>
</svg>
