<svg xmlns="http://www.w3.org/2000/svg" width="20" height="20" viewBox="0 0 20 20">
    <g clip-path="url(#clip0_4270_16234)">
        <path d="M17.953 6.54586C17.8953 6.36745 17.7865 6.20995 17.6402 6.09292C17.494 5.97589 17.3166 5.90449 17.1302 5.88757L11.9341 5.41492L9.88062 0.597895C9.72899 0.243989 9.38403 0.015625 9.00005 0.015625C8.61606 0.015625 8.27096 0.243989 8.12032 0.597895L6.06681 5.41492L0.869917 5.88757C0.488922 5.9228 0.166323 6.18135 0.0471408 6.54586C-0.0109336 6.72442 -0.015451 6.91613 0.0341482 7.09725C0.0837473 7.27836 0.185284 7.44091 0.326181 7.56478L4.25401 11.0156L3.09591 16.1263C3.01118 16.502 3.15673 16.8906 3.46794 17.116C3.63094 17.2348 3.82736 17.2988 4.02894 17.2986C4.20172 17.2986 4.37127 17.2516 4.51948 17.1627L9.00005 14.4784L13.4798 17.1627C13.6405 17.259 13.8259 17.3059 14.013 17.2976C14.2001 17.2893 14.3806 17.2262 14.5322 17.116C14.8434 16.8906 14.9889 16.502 14.9042 16.1263L13.7461 11.0156L17.6739 7.56481C17.8148 7.44096 17.9164 7.2784 17.966 7.09729C18.0156 6.91617 18.011 6.72442 17.953 6.54586Z"/>
        <path d="M17.953 6.54586C17.8953 6.36745 17.7865 6.20995 17.6402 6.09292C17.494 5.97589 17.3166 5.90449 17.1302 5.88757L11.9341 5.41492L9.88062 0.597895C9.72899 0.243989 9.38403 0.015625 9.00005 0.015625C8.61606 0.015625 8.27096 0.243989 8.12032 0.597895L6.06681 5.41492L0.869917 5.88757C0.488922 5.9228 0.166323 6.18135 0.0471408 6.54586C-0.0109336 6.72442 -0.015451 6.91613 0.0341482 7.09725C0.0837473 7.27836 0.185284 7.44091 0.326181 7.56478L4.25401 11.0156L3.09591 16.1263C3.01118 16.502 3.15673 16.8906 3.46794 17.116C3.63094 17.2348 3.82736 17.2988 4.02894 17.2986C4.20172 17.2986 4.37127 17.2516 4.51948 17.1627L9.00005 14.4784L13.4798 17.1627C13.6405 17.259 13.8259 17.3059 14.013 17.2976C14.2001 17.2893 14.3806 17.2262 14.5322 17.116C14.8434 16.8906 14.9889 16.502 14.9042 16.1263L13.7461 11.0156L17.6739 7.56481C17.8148 7.44096 17.9164 7.2784 17.966 7.09729C18.0156 6.91617 18.011 6.72442 17.953 6.54586Z"/>
    </g>
    <defs>
        <linearGradient id="purple_grad" x1="0" y1="0.015625" x2="18.7944" y2="0.927419" gradientUnits="userSpaceOnUse">
            <stop stop-color="#91CAFF"/>
            <stop offset="1" stop-color="#2562FF"/>
        </linearGradient>
        <linearGradient id="primary_grad" x1="-0.000488281" y1="10.0002" x2="19.9995" y2="10.0002" gradientUnits="userSpaceOnUse">
            <stop stop-color="#59CBFF"/>
            <stop offset="1" stop-color="#009FE7"/>
        </linearGradient>
    </defs>
</svg>
