<svg xmlns="http://www.w3.org/2000/svg" width="20" height="20" viewBox="0 0 20 20" fill="none">
    <g clip-path="url(#clip0_4209_12751)">
        <path d="M19.9477 7.27534C19.8836 7.07711 19.7628 6.90212 19.6003 6.77208C19.4378 6.64205 19.2407 6.56271 19.0336 6.54392L13.2601 6.01875L10.9785 0.666498C10.81 0.273269 10.4267 0.0195312 10.0001 0.0195312C9.57341 0.0195312 9.18996 0.273269 9.02258 0.666498L6.74089 6.01875L0.966574 6.54392C0.543247 6.58306 0.184803 6.87033 0.0523786 7.27534C-0.0121484 7.47375 -0.0171677 7.68676 0.0379424 7.888C0.0930526 8.08923 0.205871 8.26985 0.362423 8.40748L4.72668 12.2417L3.4399 17.9202C3.34576 18.3378 3.50748 18.7696 3.85327 19.02C4.03437 19.152 4.25262 19.223 4.4766 19.2229C4.66858 19.2229 4.85697 19.1707 5.02165 19.0718L10.0001 16.0893L14.9776 19.0718C15.1561 19.1788 15.3621 19.231 15.57 19.2218C15.7779 19.2126 15.9785 19.1424 16.1469 19.02C16.4926 18.7696 16.6544 18.3378 16.5602 17.9202L15.2734 12.2417L19.6377 8.40752C19.7943 8.2699 19.9071 8.08929 19.9622 7.88805C20.0173 7.68681 20.0123 7.47379 19.9477 7.27538V7.27534Z" fill="white"/>
    </g>
    <defs>
        <clipPath id="clip0_4209_12751">
            <rect width="20" height="20" fill="white"/>
        </clipPath>
    </defs>
</svg>
