<svg width="20" height="20" viewBox="0 0 20 20" fill="none" xmlns="http://www.w3.org/2000/svg">
<g clip-path="url(#clip0_1699_23551)">
<path d="M16.1005 18.9448C15.9443 18.9448 15.7891 18.8985 15.656 18.8083L10.6273 15.3971L7.93009 17.3379C7.71855 17.49 7.4459 17.5283 7.20027 17.4405C6.95496 17.3525 6.76866 17.1493 6.70216 16.8973L5.34787 11.765L0.508873 9.91467C0.204239 9.79814 0.00220458 9.5067 -1.20973e-05 9.18053C-0.00222877 8.85436 0.195794 8.56018 0.498951 8.43953L18.8986 1.11817C18.9821 1.0827 19.0705 1.06223 19.1595 1.05674C19.1914 1.05484 19.2234 1.05484 19.2552 1.05663C19.4397 1.06761 19.6209 1.14276 19.7624 1.28146C19.7771 1.29582 19.791 1.31049 19.8042 1.3258C19.9213 1.45964 19.9857 1.62283 19.9979 1.78908C20.0008 1.83088 20.0006 1.87321 19.9969 1.91554C19.9944 1.94573 19.9901 1.97581 19.9839 2.00568L16.8782 18.3013C16.8282 18.5631 16.6501 18.7822 16.4039 18.8843C16.3063 18.9248 16.2031 18.9448 16.1005 18.9448ZM11.0688 13.7834L15.5483 16.8218L17.9649 4.14203L9.23676 12.5407L11.0477 13.7692C11.055 13.7737 11.0619 13.7785 11.0688 13.7834ZM7.33982 13.1077L7.93959 15.3804L9.2318 14.4505L7.53974 13.3027C7.4611 13.2495 7.39376 13.1832 7.33982 13.1077ZM2.96991 9.16037L6.2926 10.4307C6.53063 10.5217 6.71028 10.7219 6.77531 10.9682L7.19669 12.5652C7.216 12.381 7.2995 12.2077 7.43514 12.0771L15.7518 4.07447L2.96991 9.16037Z" fill="#828FA4"/>
</g>
<defs>
<clipPath id="clip0_1699_23551">
<rect width="20" height="20" fill="white"/>
</clipPath>
</defs>
</svg>
