<svg width="20" height="20" viewBox="0 0 20 20" fill="none" xmlns="http://www.w3.org/2000/svg">
<path d="M6.75953 6.21482L9.18113 3.79338V14.909C9.18113 15.3608 9.54746 15.7272 9.99931 15.7272C10.4512 15.7272 10.8175 15.3608 10.8175 14.909V3.79344L13.2389 6.21482C13.3986 6.37458 13.608 6.45449 13.8174 6.45449C14.0267 6.45449 14.2362 6.37464 14.3959 6.21482C14.7154 5.89529 14.7154 5.37727 14.3959 5.05774L10.578 1.23978C10.5588 1.22064 10.5387 1.20258 10.5178 1.1854C10.5085 1.17776 10.4987 1.17116 10.4892 1.16402C10.4774 1.15518 10.4658 1.14602 10.4536 1.13784C10.442 1.13009 10.4299 1.12338 10.4181 1.11624C10.4071 1.10964 10.3963 1.10271 10.385 1.09665C10.3728 1.09016 10.3604 1.08471 10.348 1.07887C10.3362 1.07331 10.3245 1.06736 10.3124 1.06235C10.3005 1.05738 10.2883 1.0534 10.2761 1.04909C10.2631 1.0444 10.2502 1.03938 10.2368 1.03535C10.2247 1.03169 10.2126 1.02907 10.2004 1.02596C10.1867 1.02247 10.1731 1.01865 10.1591 1.01587C10.1452 1.01309 10.1311 1.01151 10.1172 1.00949C10.1048 1.00769 10.0926 1.00535 10.08 1.00409C10.0545 1.00158 10.029 1.00038 10.0035 1.00022C10.0021 1.00022 10.0007 1 9.99936 1C9.99756 1 9.99576 1.00027 9.99391 1.00027C9.96882 1.00044 9.94373 1.00158 9.9188 1.00409C9.90604 1.00535 9.89355 1.00769 9.881 1.00955C9.8672 1.01156 9.85335 1.01315 9.83965 1.01582C9.82553 1.0186 9.81184 1.02247 9.79798 1.02602C9.78593 1.02907 9.77387 1.03169 9.76198 1.03529C9.74851 1.03938 9.73547 1.0444 9.72227 1.04915C9.71027 1.05345 9.69822 1.05738 9.68633 1.06229C9.67406 1.06736 9.66238 1.07331 9.65044 1.07898C9.63816 1.08476 9.62578 1.09022 9.61373 1.09665C9.60238 1.10276 9.59158 1.10969 9.58051 1.11629C9.56862 1.12338 9.55662 1.13009 9.54511 1.13784C9.53295 1.14591 9.5216 1.15491 9.50993 1.16369C9.50022 1.17095 9.49024 1.17771 9.48075 1.18551C9.46084 1.20182 9.44175 1.21916 9.42347 1.23727C9.4226 1.23815 9.42167 1.23885 9.4208 1.23967L5.60251 5.05769C5.28304 5.37722 5.28298 5.89524 5.60251 6.21476C5.92198 6.53434 6.44006 6.53424 6.75953 6.21482Z" fill="#828FA4"/>
<path d="M18.1818 17.3635H1.81818C1.36633 17.3635 1 17.7299 1 18.1817C1 18.6336 1.36633 18.9999 1.81818 18.9999H18.1818C18.6337 18.9999 19 18.6336 19 18.1817C19 17.7299 18.6337 17.3635 18.1818 17.3635Z" fill="#828FA4"/>
</svg>
