<svg width="20" height="20" viewBox="0 0 20 20" fill="none" xmlns="http://www.w3.org/2000/svg">
<g clip-path="url(#clip0_1699_23545)">
<path d="M11.3343 5.19656C10.8194 5.05352 10.286 5.35501 10.1429 5.86998L7.99233 13.6119C7.8493 14.1269 8.15078 14.6603 8.66575 14.8033C8.7524 14.8274 8.83956 14.8389 8.9253 14.8389C9.34917 14.8389 9.7382 14.5582 9.85717 14.1299L12.0078 6.38798C12.1508 5.87307 11.8493 5.33959 11.3343 5.19656Z" fill="#828FA4"/>
<path d="M4.81232 5.38499C4.40136 5.04318 3.79116 5.09931 3.44948 5.51028L0.223678 9.38951C-0.0750317 9.74873 -0.0745156 10.27 0.224968 10.6286L3.45077 14.4913C3.64219 14.7205 3.91716 14.8388 4.19407 14.8388C4.41284 14.8388 4.63284 14.765 4.81387 14.6138C5.22413 14.2712 5.27897 13.6609 4.93639 13.2507L2.22755 10.0071L4.93768 6.74789C5.27936 6.33686 5.22323 5.72667 4.81232 5.38499Z" fill="#828FA4"/>
<path d="M19.775 9.37134L16.5492 5.5087C16.2066 5.09844 15.5963 5.04367 15.1861 5.38625C14.7759 5.72883 14.7211 6.33915 15.0637 6.74934L17.7725 9.99302L15.0624 13.2522C14.7206 13.6631 14.7768 14.2733 15.1877 14.615C15.3684 14.7654 15.5878 14.8387 15.8059 14.8387C16.0835 14.8387 16.3592 14.7199 16.5505 14.4897L19.7763 10.6104C20.075 10.2511 20.0745 9.72986 19.775 9.37134Z" fill="#828FA4"/>
</g>
<defs>
<clipPath id="clip0_1699_23545">
<rect width="20" height="20" fill="white"/>
</clipPath>
</defs>
</svg>
