<svg width="196" height="40" viewBox="0 0 196 40" fill="none" xmlns="http://www.w3.org/2000/svg">
<path d="M4.72705 0.842773H25.2535L24.5296 5.21228H8.85789L7.58031 13.237H21.9744L21.293 17.6065H6.89895L5.57877 25.8834H21.4634L20.782 30.2529H0L4.72706 0.842826L4.72705 0.842773ZM42.8415 27.0177C40.6554 29.5386 37.9015 30.799 34.5798 30.799C31.5704 30.799 29.2637 29.7347 27.6596 27.6059C26.0555 25.4772 25.4948 22.9003 25.9774 19.8753C26.4601 16.9623 27.7731 14.5114 29.9166 12.5228C32.0602 10.5341 34.6082 9.53973 37.5609 9.53973C40.8542 9.53973 43.3384 10.8562 45.0134 13.4891L45.5245 10.0859H49.6128L46.3762 30.2528H42.288L42.8416 27.0177L42.8415 27.0177ZM30.4916 20.2114C30.1793 22.1161 30.5128 23.6986 31.4923 24.959C32.4718 26.2195 33.8559 26.8497 35.6445 26.8497C37.1776 26.8497 38.6042 26.4295 39.9244 25.5893C41.2446 24.749 42.2737 23.7266 43.0119 22.5222L43.821 17.6065C43.5371 16.4301 42.8912 15.4498 41.8834 14.6655C40.8755 13.8812 39.6476 13.4891 38.1997 13.4891C36.2691 13.4891 34.5869 14.1053 33.1532 15.3377C31.7195 16.5702 30.8322 18.1947 30.4916 20.2114L30.4916 20.2114ZM53.2325 15.2117C53.5164 13.251 54.5314 11.8155 56.2775 10.9052C58.0235 9.99488 60.0037 9.53974 62.2182 9.53974C64.9437 9.53974 67.3711 10.1279 69.5004 11.3043L68.9042 15.1697C66.9736 13.8812 64.745 13.237 62.2182 13.237C61.0826 13.237 60.1031 13.4191 59.2797 13.7832C58.4564 14.1473 57.988 14.7075 57.8744 15.4638C57.7892 16.164 58.1441 16.7452 58.9391 17.2074C59.734 17.6695 60.7135 18.0687 61.8775 18.4048C63.0415 18.7409 64.1985 19.14 65.3483 19.6022C66.4981 20.0643 67.4279 20.7576 68.1377 21.6819C68.8474 22.6062 69.0888 23.7546 68.8616 25.1271C68.237 28.9084 65.0573 30.799 59.3223 30.799C56.1142 30.799 53.5022 30.1268 51.4865 28.7823L52.1253 24.791C54.1126 26.2755 56.5542 27.0177 59.4501 27.0177C62.4027 27.0177 64.0068 26.2895 64.2623 24.833C64.3759 24.1607 64.0352 23.5935 63.2403 23.1314C62.4453 22.6692 61.4658 22.2631 60.3018 21.913C59.1378 21.5628 57.9809 21.1567 56.8311 20.6945C55.6812 20.2324 54.7444 19.5392 54.0204 18.6148C53.2964 17.6905 53.0338 16.5561 53.2325 15.2117V15.2117ZM81.893 25.3792L90.1547 10.0859H95.3077L82.0634 33.1098C79.3946 37.7034 76.3284 40.0002 72.8648 40.0002C71.8711 40.0002 70.9058 39.8461 69.9689 39.538L70.5651 35.8408C71.1613 36.0368 71.7859 36.1349 72.4389 36.1349C73.5745 36.1349 74.6037 35.7357 75.5264 34.9375C76.4491 34.1392 77.3931 32.8998 78.3584 31.2192L79.1249 30.0848L72.737 10.0859H77.4215L81.893 25.3792L81.893 25.3792Z" fill="#009FE7"/>
<path d="M99.8966 0.744141H107.911L104.229 23.6099H118.091L116.965 30.6619H95.088L99.8966 0.744141Z" fill="white"/>
<path fill-rule="evenodd" clip-rule="evenodd" d="M126.652 30.6625H119.287L122.579 10.1475H129.944L126.652 30.6625Z" fill="white"/>
<path d="M142.312 17.3407L148.031 10.1606H156.478L147.857 20.5461L153.359 30.6753H145.778L141.706 22.8967H139.843L138.587 30.6753H131.222L136.031 0.757812H143.395L140.709 17.3407H142.312Z" fill="white"/>
<path d="M155.296 19.8488C155.556 18.0537 156.104 16.4581 156.942 15.062C157.779 13.6658 158.783 12.5831 159.953 11.8138C161.122 11.0445 162.328 10.4675 163.57 10.0828C164.812 9.69819 166.068 9.50586 167.339 9.50586C169.014 9.50586 170.487 9.76229 171.758 10.2752C173.028 10.788 174.032 11.479 174.768 12.348C175.505 13.2171 176.039 14.2072 176.371 15.3184C176.703 16.4297 176.826 17.605 176.74 18.8444C176.653 20.0839 176.379 21.3304 175.916 22.5841H162.227C162.66 24.6926 164.61 25.7468 168.075 25.7468C170.732 25.7468 172.898 25.3479 174.573 24.5501L173.707 30.1063C171.743 30.9041 169.231 31.303 166.169 31.303C162.617 31.303 159.787 30.263 157.678 28.183C155.57 26.103 154.776 23.325 155.296 19.8488V19.8488ZM169.895 18.2247C170.155 17.4554 170.068 16.6861 169.635 15.9168C169.202 15.1475 168.364 14.7628 167.122 14.7628C166.054 14.7628 165.122 15.0905 164.328 15.7458C163.534 16.4011 163.05 17.2274 162.877 18.2247H169.895H169.895Z" fill="white"/>
<path d="M187.162 12.8826C189.04 10.4037 191.986 9.36372 196 9.76263L194.874 16.7291C193.227 16.3302 191.711 16.373 190.325 16.8574C188.939 17.3417 187.827 18.1538 186.989 19.2935L185.17 30.6622H177.805L181.098 10.1473H187.596L187.162 12.8826V12.8826Z" fill="white"/>
<path fill-rule="evenodd" clip-rule="evenodd" d="M126.879 6.32083C125.756 5.26889 123.482 4.08427 123.513 2.22312C123.554 0.844211 125.861 -0.896094 128.236 0.535831C129.551 -0.461119 132.073 0.121353 132.037 1.98208C131.986 3.92356 127.282 5.82489 126.879 6.32081V6.32083Z" fill="#009FE7"/>
</svg>
